<?xml version="1.0" encoding="UTF-8" standalone="no"?>
<svg
   xmlns:dc="http://purl.org/dc/elements/1.1/"
   xmlns:cc="http://creativecommons.org/ns#"
   xmlns:rdf="http://www.w3.org/1999/02/22-rdf-syntax-ns#"
   xmlns:svg="http://www.w3.org/2000/svg"
   xmlns="http://www.w3.org/2000/svg"
   xmlns:sodipodi="http://sodipodi.sourceforge.net/DTD/sodipodi-0.dtd"
   xmlns:inkscape="http://www.inkscape.org/namespaces/inkscape"
   width="210mm"
   height="297mm"
   viewBox="0 0 210 297"
   version="1.1"
   id="svg2827"
   inkscape:version="1.0.1 (3bc2e813f5, 2020-09-07)"
   sodipodi:docname="box 1.3.2.svg">
  <defs
     id="defs2821" />
  <sodipodi:namedview
     id="base"
     pagecolor="#ffffff"
     bordercolor="#666666"
     borderopacity="1.0"
     inkscape:pageopacity="0.0"
     inkscape:pageshadow="2"
     inkscape:zoom="0.175"
     inkscape:cx="2450.6615"
     inkscape:cy="947.47107"
     inkscape:document-units="mm"
     inkscape:current-layer="layer1"
     inkscape:document-rotation="0"
     showgrid="false"
     inkscape:window-width="1920"
     inkscape:window-height="1002"
     inkscape:window-x="-8"
     inkscape:window-y="-8"
     inkscape:window-maximized="1" />
  <metadata
     id="metadata2824">
    <rdf:RDF>
      <cc:Work
         rdf:about="">
        <dc:format>image/svg+xml</dc:format>
        <dc:type
           rdf:resource="http://purl.org/dc/dcmitype/StillImage" />
        <dc:title></dc:title>
      </cc:Work>
    </rdf:RDF>
  </metadata>
  <g
     inkscape:label="Layer 1"
     inkscape:groupmode="layer"
     id="layer1">
    <g
       id="g7621">
      <path
         id="rect7230"
         style="fill:#ff0000;fill-opacity:1;stroke:none;stroke-width:1.01593;stroke-miterlimit:4;stroke-dasharray:none;stroke-opacity:1"
         d="M -164.79762,-107.34523 H 1335.2023 v 500 H -164.79762 Z"
         inkscape:transform-center-x="48.380952"
         inkscape:transform-center-y="-384.02381" />
      <g
         id="g7437"
         transform="rotate(180,483.5,127.12464)">
        <g
           id="panel5860">
          <path
             style="fill:none;stroke:#000000;stroke-width:1"
             d="m 393,7 h 10.821 V 2 h 10.5 v 5 h 10.572 V 2 h 10.5 v 5 h 10.571 V 2 h 10.5 v 5 h 10.572 V 2 h 10.5 v 5 h 10.571 V 2 h 10.5 v 5 h 10.572 V 2 h 10.5 V 7 H 530.25 V 2 h 10.5 v 5 h 10.571 V 2 h 10.5 v 5 h 10.572 V 2 h 10.5 v 5 h 10.571 V 2 h 10.5 v 5 h 10.572 V 2 h 10.5 v 5 h 10.571 V 2 h 10.5 v 5 h 10.572 V 2 h 10.5 V 7 H 678"
             id="path7340" />
          <path
             style="fill:none;stroke:#000000;stroke-width:1"
             d="m 678,7 v 5.25 h -5 v 9.5 h 5 v 10.5 h -5 v 9.5 h 5 V 52"
             id="path7342" />
          <path
             style="fill:none;stroke:#000000;stroke-width:1"
             d="m 678,52 h -11.321 v 0 h -9.5 v 0 h -11.572 v 0 h -9.5 v 0 h -11.571 v 0 h -9.5 v 0 h -11.572 v 0 h -9.5 v 0 h -11.571 v 0 h -9.5 v 0 h -11.572 v 0 h -9.5 v 0 H 540.25 v 0 h -9.5 v 0 h -11.571 v 0 h -9.5 v 0 h -11.572 v 0 h -9.5 v 0 h -11.571 v 0 h -9.5 v 0 h -11.572 v 0 h -9.5 v 0 h -11.571 v 0 h -9.5 v 0 h -11.572 v 0 h -9.5 v 0 H 393"
             id="path7344" />
          <path
             style="fill:none;stroke:#000000;stroke-width:1"
             d="M 393,52 V 41.75 h 5 v -9.5 h -5 v -10.5 h 5 v -9.5 h -5 V 7"
             id="path7346" />
        </g>
        <g
           id="panel3675">
          <path
             style="fill:none;stroke:#000000;stroke-width:1"
             d="m 289,7 h 9.75 V 2 h 10.5 v 5 h 9.5 V 2 h 10.5 V 7 H 334"
             id="path7349" />
          <path
             style="fill:none;stroke:#000000;stroke-width:1"
             d="m 334,7 v 5.375 h 5 v 10.5 h -5 V 33 h 5 v 10.5 h -5 v 10.125 h 5 v 10.5 h -5 V 74.25 h 5 v 10.5 h -5 v 10.125 h 5 v 10.5 h -5 V 115.5 h 5 V 126 h -5 v 10.125 h 5 v 10.5 h -5 V 152"
             id="path7351" />
          <path
             style="fill:none;stroke:#000000;stroke-width:1"
             d="m 334,152 h -4.75 v 5 h -10.5 v -5 h -9.5 v 5 h -10.5 v -5 H 289"
             id="path7353" />
          <path
             style="fill:none;stroke:#000000;stroke-width:1"
             d="m 289,152 v -5.875 0 -9.5 0 -11.125 0 -9.5 0 -11.125 0 -9.5 0 -11.125 0 -9.5 0 -11.125 0 -9.5 0 V 43 v 0 -9.5 0 -11.125 0 -9.5 0 V 7"
             id="path7355" />
        </g>
        <g
           id="panel9498">
          <path
             style="fill:none;stroke:#000000;stroke-width:1"
             d="m 2,2 h 11.3214 v 5 h 9.5 V 2 h 11.5715 v 5 h 9.5 V 2 h 11.5714 v 5 h 9.5 V 2 h 11.5714 v 5 h 9.5 V 2 h 11.5714 v 5 h 9.4999 V 2 h 11.572 v 5 h 9.5 V 2 h 11.571 v 5 h 9.5 V 2 h 11.571 v 5 h 9.5 V 2 h 11.572 v 5 h 9.5 V 2 h 11.571 v 5 h 9.5 V 2 h 11.572 v 5 h 9.5 V 2 h 11.571 v 5 h 9.5 V 2 h 11.572 v 5 h 9.5 V 2 H 287"
             id="path7358" />
          <path
             style="fill:none;stroke:#000000;stroke-width:1"
             d="m 287,2 v 10.875 h -5 v 9.5 h 5 V 33.5 h -5 V 43 h 5 v 11.125 h -5 v 9.5 h 5 V 74.75 h -5 v 9.5 h 5 v 11.125 h -5 v 9.5 h 5 V 116 h -5 v 9.5 h 5 v 11.125 h -5 v 9.5 h 5 V 157"
             id="path7360" />
          <path
             style="fill:none;stroke:#000000;stroke-width:1"
             d="m 287,157 h -11.321 v -5 h -9.5 v 5 h -11.572 v -5 h -9.5 v 5 h -11.571 v -5 h -9.5 v 5 h -11.572 v -5 h -9.5 v 5 h -11.571 v -5 h -9.5 v 5 h -11.572 v -5 h -9.5 v 5 H 149.25 v -5 h -9.5 v 5 h -11.571 v -5 h -9.5 v 5 h -11.572 v -5 h -9.4999 v 5 H 86.0357 v -5 h -9.5 v 5 H 64.9643 v -5 h -9.5 v 5 H 43.8929 v -5 h -9.5 v 5 H 22.8214 v -5 h -9.5 v 5 H 2"
             id="path7362" />
          <path
             style="fill:none;stroke:#000000;stroke-width:1"
             d="m 2,157 v -10.875 h 5 v -9.5 H 2 V 125.5 H 7 V 116 H 2 v -11.125 h 5 v -9.5 H 2 V 84.25 h 5 v -9.5 H 2 V 63.625 h 5 v -9.5 H 2 V 43 H 7 V 33.5 H 2 V 22.375 h 5 v -9.5 H 2 V 2"
             id="path7364" />
        </g>
        <g
           id="panel2773">
          <path
             style="fill:none;stroke:#000000;stroke-width:1"
             d="m 346,7 h 4.75 V 2 h 10.5 v 5 h 9.5 V 2 h 10.5 V 7 H 391"
             id="path7367" />
          <path
             style="fill:none;stroke:#000000;stroke-width:1"
             d="m 391,7 v 5.875 0 9.5 0 11.125 0 9.5 0 11.125 0 9.5 0 11.125 0 9.5 0 11.125 0 9.5 0 11.125 0 9.5 0 11.125 0 9.5 0 5.875"
             id="path7369" />
          <path
             style="fill:none;stroke:#000000;stroke-width:1"
             d="m 391,152 h -9.75 v 5 h -10.5 v -5 h -9.5 v 5 h -10.5 v -5 H 346"
             id="path7371" />
          <path
             style="fill:none;stroke:#000000;stroke-width:1"
             d="m 346,152 v -5.375 h -5 v -10.5 h 5 V 126 h -5 v -10.5 h 5 v -10.125 h -5 v -10.5 h 5 V 84.75 h -5 v -10.5 h 5 V 64.125 h -5 v -10.5 h 5 V 43.5 h -5 V 33 h 5 V 22.875 h -5 v -10.5 h 5 V 7"
             id="path7373" />
        </g>
        <g
           id="panel6044">
          <path
             style="fill:none;stroke:#000000;stroke-width:1"
             d="m 680,2 h 11.321 v 0 h 9.5 v 0 h 11.572 v 0 h 9.5 v 0 h 11.571 v 0 h 9.5 v 0 h 11.572 v 0 h 9.5 v 0 h 11.571 v 0 h 9.5 v 0 h 11.572 v 0 h 9.5 v 0 h 11.571 v 0 h 9.5 v 0 h 11.571 v 0 h 9.5 v 0 h 11.572 v 0 h 9.5 v 0 h 11.571 v 0 h 9.5 v 0 h 11.572 v 0 h 9.5 v 0 h 11.571 v 0 h 9.5 v 0 h 11.572 v 0 h 9.5 V 2 H 965"
             id="path7376" />
          <path
             style="fill:none;stroke:#000000;stroke-width:1"
             d="m 965,2 v 10.25 h -5 v 9.5 h 5 v 10.5 h -5 v 9.5 h 5 V 47"
             id="path7378" />
          <path
             style="fill:none;stroke:#000000;stroke-width:1"
             d="m 965,47 h -10.821 v 5 h -10.5 v -5 h -10.572 v 5 h -10.5 v -5 h -10.571 v 5 h -10.5 v -5 h -10.572 v 5 h -10.5 v -5 h -10.571 v 5 h -10.5 v -5 h -10.572 v 5 h -10.5 V 47 H 827.75 v 5 h -10.5 v -5 h -10.571 v 5 h -10.5 v -5 h -10.572 v 5 h -10.5 v -5 h -10.571 v 5 h -10.5 v -5 h -10.572 v 5 h -10.5 v -5 h -10.571 v 5 h -10.5 v -5 h -10.572 v 5 h -10.5 V 47 H 680"
             id="path7380" />
          <path
             style="fill:none;stroke:#000000;stroke-width:1"
             d="m 680,47 v -5.25 h 5 v -9.5 h -5 v -10.5 h 5 v -9.5 h -5 V 2"
             id="path7382" />
        </g>
      </g>
      <g
         id="g7566">
        <g
           id="panel2297">
          <path
             style="fill:none;stroke:#000000;stroke-width:1"
             d="M 473 7 L 483.083 7 L 483.083 2 L 493.583 2 L 493.583 7 L 503.417 7 L 503.417 2 L 513.917 2 L 513.917 7 L 523.75 7 L 523.75 2 L 534.25 2 L 534.25 7 L 544.083 7 L 544.083 2 L 554.583 2 L 554.583 7 L 564.417 7 L 564.417 2 L 574.917 2 L 574.917 7 L 584.75 7 L 584.75 2 L 595.25 2 L 595.25 7 L 605.083 7 L 605.083 2 L 615.583 2 L 615.583 7 L 625.417 7 L 625.417 2 L 635.917 2 L 635.917 7 L 645.75 7 L 645.75 2 L 656.25 2 L 656.25 7 L 666.083 7 L 666.083 2 L 676.583 2 L 676.583 7 L 686.417 7 L 686.417 2 L 696.917 2 L 696.917 7 L 706.75 7 L 706.75 2 L 717.25 2 L 717.25 7 L 727.083 7 L 727.083 2 L 737.583 2 L 737.583 7 L 747.417 7 L 747.417 2 L 757.917 2 L 757.917 7 L 768 7"
             id="path7469" />
          <path
             style="fill:none;stroke:#000000;stroke-width:1"
             d="M 768 7 L 768 16 L 763 16 L 763 25.5 L 768 25.5 L 768 39.75 L 763 39.75 L 763 49.25 L 768 49.25 L 768 63.5 L 763 63.5 L 763 73 L 768 73 L 768 82"
             id="path7471" />
          <path
             style="fill:none;stroke:#000000;stroke-width:1"
             d="M 768 82 L 757.917 82 L 757.917 82 L 747.417 82 L 747.417 82 L 737.583 82 L 737.583 82 L 727.083 82 L 727.083 82 L 717.25 82 L 717.25 82 L 706.75 82 L 706.75 82 L 696.917 82 L 696.917 82 L 686.417 82 L 686.417 82 L 676.583 82 L 676.583 82 L 666.083 82 L 666.083 82 L 656.25 82 L 656.25 82 L 645.75 82 L 645.75 82 L 635.917 82 L 635.917 82 L 625.417 82 L 625.417 82 L 615.583 82 L 615.583 82 L 605.083 82 L 605.083 82 L 595.25 82 L 595.25 82 L 584.75 82 L 584.75 82 L 574.917 82 L 574.917 82 L 564.417 82 L 564.417 82 L 554.583 82 L 554.583 82 L 544.083 82 L 544.083 82 L 534.25 82 L 534.25 82 L 523.75 82 L 523.75 82 L 513.917 82 L 513.917 82 L 503.417 82 L 503.417 82 L 493.583 82 L 493.583 82 L 483.083 82 L 483.083 82 L 473 82"
             id="path7473" />
          <path
             style="fill:none;stroke:#000000;stroke-width:1"
             d="M 473 82 L 473 73 L 478 73 L 478 63.5 L 473 63.5 L 473 49.25 L 478 49.25 L 478 39.75 L 473 39.75 L 473 25.5 L 478 25.5 L 478 16 L 473 16 L 473 7"
             id="path7475" />
        </g>
        <g
           id="panel8565">
          <path
             style="fill:none;stroke:#000000;stroke-width:1"
             d="M 304 7 L 312.5 7 L 312.5 2 L 323 2 L 323 7 L 336.25 7 L 336.25 2 L 346.75 2 L 346.75 7 L 360 7 L 360 2 L 370.5 2 L 370.5 7 L 379 7"
             id="path7478" />
          <path
             style="fill:none;stroke:#000000;stroke-width:1"
             d="M 379 7 L 379 13.625 L 384 13.625 L 384 24.125 L 379 24.125 L 379 35.5 L 384 35.5 L 384 46 L 379 46 L 379 57.375 L 384 57.375 L 384 67.875 L 379 67.875 L 379 79.25 L 384 79.25 L 384 89.75 L 379 89.75 L 379 101.125 L 384 101.125 L 384 111.625 L 379 111.625 L 379 123 L 384 123 L 384 133.5 L 379 133.5 L 379 144.875 L 384 144.875 L 384 155.375 L 379 155.375 L 379 162"
             id="path7480" />
          <path
             style="fill:none;stroke:#000000;stroke-width:1"
             d="M 379 162 L 370.5 162 L 370.5 167 L 360 167 L 360 162 L 346.75 162 L 346.75 167 L 336.25 167 L 336.25 162 L 323 162 L 323 167 L 312.5 167 L 312.5 162 L 304 162"
             id="path7482" />
          <path
             style="fill:none;stroke:#000000;stroke-width:1"
             d="M 304 162 L 304 155.375 L 304 155.375 L 304 144.875 L 304 144.875 L 304 133.5 L 304 133.5 L 304 123 L 304 123 L 304 111.625 L 304 111.625 L 304 101.125 L 304 101.125 L 304 89.75 L 304 89.75 L 304 79.25 L 304 79.25 L 304 67.875 L 304 67.875 L 304 57.375 L 304 57.375 L 304 46 L 304 46 L 304 35.5 L 304 35.5 L 304 24.125 L 304 24.125 L 304 13.625 L 304 13.625 L 304 7"
             id="path7484" />
        </g>
        <g
           id="panel4600">
          <path
             style="fill:none;stroke:#000000;stroke-width:1"
             d="M 2 2 L 12.5833 2 L 12.5833 7 L 22.0833 7 L 22.0833 2 L 32.9167 2 L 32.9167 7 L 42.4167 7 L 42.4167 2 L 53.25 2 L 53.25 7 L 62.75 7 L 62.75 2 L 73.5833 2 L 73.5833 7 L 83.0833 7 L 83.0833 2 L 93.9167 2 L 93.9167 7 L 103.417 7 L 103.417 2 L 114.25 2 L 114.25 7 L 123.75 7 L 123.75 2 L 134.583 2 L 134.583 7 L 144.083 7 L 144.083 2 L 154.917 2 L 154.917 7 L 164.417 7 L 164.417 2 L 175.25 2 L 175.25 7 L 184.75 7 L 184.75 2 L 195.583 2 L 195.583 7 L 205.083 7 L 205.083 2 L 215.917 2 L 215.917 7 L 225.417 7 L 225.417 2 L 236.25 2 L 236.25 7 L 245.75 7 L 245.75 2 L 256.583 2 L 256.583 7 L 266.083 7 L 266.083 2 L 276.917 2 L 276.917 7 L 286.417 7 L 286.417 2 L 297 2"
             id="path7487" />
          <path
             style="fill:none;stroke:#000000;stroke-width:1"
             d="M 297 2 L 297 14.125 L 292 14.125 L 292 23.625 L 297 23.625 L 297 36 L 292 36 L 292 45.5 L 297 45.5 L 297 57.875 L 292 57.875 L 292 67.375 L 297 67.375 L 297 79.75 L 292 79.75 L 292 89.25 L 297 89.25 L 297 101.625 L 292 101.625 L 292 111.125 L 297 111.125 L 297 123.5 L 292 123.5 L 292 133 L 297 133 L 297 145.375 L 292 145.375 L 292 154.875 L 297 154.875 L 297 167"
             id="path7489" />
          <path
             style="fill:none;stroke:#000000;stroke-width:1"
             d="M 297 167 L 286.417 167 L 286.417 162 L 276.917 162 L 276.917 167 L 266.083 167 L 266.083 162 L 256.583 162 L 256.583 167 L 245.75 167 L 245.75 162 L 236.25 162 L 236.25 167 L 225.417 167 L 225.417 162 L 215.917 162 L 215.917 167 L 205.083 167 L 205.083 162 L 195.583 162 L 195.583 167 L 184.75 167 L 184.75 162 L 175.25 162 L 175.25 167 L 164.417 167 L 164.417 162 L 154.917 162 L 154.917 167 L 144.083 167 L 144.083 162 L 134.583 162 L 134.583 167 L 123.75 167 L 123.75 162 L 114.25 162 L 114.25 167 L 103.417 167 L 103.417 162 L 93.9167 162 L 93.9167 167 L 83.0833 167 L 83.0833 162 L 73.5833 162 L 73.5833 167 L 62.75 167 L 62.75 162 L 53.25 162 L 53.25 167 L 42.4167 167 L 42.4167 162 L 32.9167 162 L 32.9167 167 L 22.0833 167 L 22.0833 162 L 12.5833 162 L 12.5833 167 L 2 167"
             id="path7491" />
          <path
             style="fill:none;stroke:#000000;stroke-width:1"
             d="M 2 167 L 2 154.875 L 7 154.875 L 7 145.375 L 2 145.375 L 2 133 L 7 133 L 7 123.5 L 2 123.5 L 2 111.125 L 7 111.125 L 7 101.625 L 2 101.625 L 2 89.25 L 7 89.25 L 7 79.75 L 2 79.75 L 2 67.375 L 7 67.375 L 7 57.875 L 2 57.875 L 2 45.5 L 7 45.5 L 7 36 L 2 36 L 2 23.625 L 7 23.625 L 7 14.125 L 2 14.125 L 2 2"
             id="path7493" />
        </g>
        <g
           id="panel5212">
          <path
             style="fill:none;stroke:#000000;stroke-width:1"
             d="M 391 7 L 399.5 7 L 399.5 2 L 410 2 L 410 7 L 423.25 7 L 423.25 2 L 433.75 2 L 433.75 7 L 447 7 L 447 2 L 457.5 2 L 457.5 7 L 466 7"
             id="path7496" />
          <path
             style="fill:none;stroke:#000000;stroke-width:1"
             d="M 466 7 L 466 13.625 L 466 13.625 L 466 24.125 L 466 24.125 L 466 35.5 L 466 35.5 L 466 46 L 466 46 L 466 57.375 L 466 57.375 L 466 67.875 L 466 67.875 L 466 79.25 L 466 79.25 L 466 89.75 L 466 89.75 L 466 101.125 L 466 101.125 L 466 111.625 L 466 111.625 L 466 123 L 466 123 L 466 133.5 L 466 133.5 L 466 144.875 L 466 144.875 L 466 155.375 L 466 155.375 L 466 162"
             id="path7498" />
          <path
             style="fill:none;stroke:#000000;stroke-width:1"
             d="M 466 162 L 457.5 162 L 457.5 167 L 447 167 L 447 162 L 433.75 162 L 433.75 167 L 423.25 167 L 423.25 162 L 410 162 L 410 167 L 399.5 167 L 399.5 162 L 391 162"
             id="path7500" />
          <path
             style="fill:none;stroke:#000000;stroke-width:1"
             d="M 391 162 L 391 155.375 L 386 155.375 L 386 144.875 L 391 144.875 L 391 133.5 L 386 133.5 L 386 123 L 391 123 L 391 111.625 L 386 111.625 L 386 101.125 L 391 101.125 L 391 89.75 L 386 89.75 L 386 79.25 L 391 79.25 L 391 67.875 L 386 67.875 L 386 57.375 L 391 57.375 L 391 46 L 386 46 L 386 35.5 L 391 35.5 L 391 24.125 L 386 24.125 L 386 13.625 L 391 13.625 L 391 7"
             id="path7502" />
        </g>
        <g
           id="panel6315">
          <path
             style="fill:none;stroke:#000000;stroke-width:1"
             d="M 770 7 L 780.083 7 L 780.083 7 L 790.583 7 L 790.583 7 L 800.417 7 L 800.417 7 L 810.917 7 L 810.917 7 L 820.75 7 L 820.75 7 L 831.25 7 L 831.25 7 L 841.083 7 L 841.083 7 L 851.583 7 L 851.583 7 L 861.417 7 L 861.417 7 L 871.917 7 L 871.917 7 L 881.75 7 L 881.75 7 L 892.25 7 L 892.25 7 L 902.083 7 L 902.083 7 L 912.583 7 L 912.583 7 L 922.417 7 L 922.417 7 L 932.917 7 L 932.917 7 L 942.75 7 L 942.75 7 L 953.25 7 L 953.25 7 L 963.083 7 L 963.083 7 L 973.583 7 L 973.583 7 L 983.417 7 L 983.417 7 L 993.917 7 L 993.917 7 L 1003.75 7 L 1003.75 7 L 1014.25 7 L 1014.25 7 L 1024.08 7 L 1024.08 7 L 1034.58 7 L 1034.58 7 L 1044.42 7 L 1044.42 7 L 1054.92 7 L 1054.92 7 L 1065 7"
             id="path7505" />
          <path
             style="fill:none;stroke:#000000;stroke-width:1"
             d="M 1065 7 L 1065 16 L 1060 16 L 1060 25.5 L 1065 25.5 L 1065 39.75 L 1060 39.75 L 1060 49.25 L 1065 49.25 L 1065 63.5 L 1060 63.5 L 1060 73 L 1065 73 L 1065 82"
             id="path7507" />
          <path
             style="fill:none;stroke:#000000;stroke-width:1"
             d="M 1065 82 L 1054.92 82 L 1054.92 87 L 1044.42 87 L 1044.42 82 L 1034.58 82 L 1034.58 87 L 1024.08 87 L 1024.08 82 L 1014.25 82 L 1014.25 87 L 1003.75 87 L 1003.75 82 L 993.917 82 L 993.917 87 L 983.417 87 L 983.417 82 L 973.583 82 L 973.583 87 L 963.083 87 L 963.083 82 L 953.25 82 L 953.25 87 L 942.75 87 L 942.75 82 L 932.917 82 L 932.917 87 L 922.417 87 L 922.417 82 L 912.583 82 L 912.583 87 L 902.083 87 L 902.083 82 L 892.25 82 L 892.25 87 L 881.75 87 L 881.75 82 L 871.917 82 L 871.917 87 L 861.417 87 L 861.417 82 L 851.583 82 L 851.583 87 L 841.083 87 L 841.083 82 L 831.25 82 L 831.25 87 L 820.75 87 L 820.75 82 L 810.917 82 L 810.917 87 L 800.417 87 L 800.417 82 L 790.583 82 L 790.583 87 L 780.083 87 L 780.083 82 L 770 82"
             id="path7509" />
          <path
             style="fill:none;stroke:#000000;stroke-width:1"
             d="M 770 82 L 770 73 L 775 73 L 775 63.5 L 770 63.5 L 770 49.25 L 775 49.25 L 775 39.75 L 770 39.75 L 770 25.5 L 775 25.5 L 775 16 L 770 16 L 770 7"
             id="path7511" />
        </g>
      </g>
    </g>
  </g>
</svg>
