999
"DXF R12 Output" (www.mydxf.blogspot.com)
 0 
SECTION
 2 
HEADER
 9 
$ACADVER
 1 
AC1009
 9 
$EXTMIN
 10 
 0 
 20 
 0 
 9 
$EXTMAX
 10 
 8.5 
 20 
 11 
 0 
ENDSEC
 0 
SECTION
 2 
ENTITIES
0
LINE
8
Layer 1
10
-46.509500
20
114.115000
11
376.823000
21
114.115000
0
LINE
8
Layer 1
10
376.823000
20
114.115000
11
376.823000
21
-26.995800
0
LINE
8
Layer 1
10
376.823000
20
-26.995800
11
-46.509500
21
-26.995800
0
LINE
8
Layer 1
10
-46.509500
20
-26.995800
11
-46.509500
21
114.115000
0
LINE
8
Layer 1
10
110.913000
20
81.844400
11
113.967000
21
81.844400
0
LINE
8
Layer 1
10
113.967000
20
81.844400
11
113.967000
21
83.255600
0
LINE
8
Layer 1
10
113.967000
20
83.255600
11
116.931000
21
83.255600
0
LINE
8
Layer 1
10
116.931000
20
83.255600
11
116.931000
21
81.844400
0
LINE
8
Layer 1
10
116.931000
20
81.844400
11
119.914000
21
81.844400
0
LINE
8
Layer 1
10
119.914000
20
81.844400
11
119.914000
21
83.255600
0
LINE
8
Layer 1
10
119.914000
20
83.255600
11
122.877000
21
83.255600
0
LINE
8
Layer 1
10
122.877000
20
83.255600
11
122.877000
21
81.844400
0
LINE
8
Layer 1
10
122.877000
20
81.844400
11
125.861000
21
81.844400
0
LINE
8
Layer 1
10
125.861000
20
81.844400
11
125.861000
21
83.255600
0
LINE
8
Layer 1
10
125.861000
20
83.255600
11
128.824000
21
83.255600
0
LINE
8
Layer 1
10
128.824000
20
83.255600
11
128.824000
21
81.844400
0
LINE
8
Layer 1
10
128.824000
20
81.844400
11
131.808000
21
81.844400
0
LINE
8
Layer 1
10
131.808000
20
81.844400
11
131.808000
21
83.255600
0
LINE
8
Layer 1
10
131.808000
20
83.255600
11
134.771000
21
83.255600
0
LINE
8
Layer 1
10
134.771000
20
83.255600
11
134.771000
21
81.844400
0
LINE
8
Layer 1
10
134.771000
20
81.844400
11
137.755000
21
81.844400
0
LINE
8
Layer 1
10
137.755000
20
81.844400
11
137.755000
21
83.255600
0
LINE
8
Layer 1
10
137.755000
20
83.255600
11
140.718000
21
83.255600
0
LINE
8
Layer 1
10
140.718000
20
83.255600
11
140.718000
21
81.844400
0
LINE
8
Layer 1
10
140.718000
20
81.844400
11
143.702000
21
81.844400
0
LINE
8
Layer 1
10
143.702000
20
81.844400
11
143.702000
21
83.255600
0
LINE
8
Layer 1
10
143.702000
20
83.255600
11
146.665000
21
83.255600
0
LINE
8
Layer 1
10
146.665000
20
83.255600
11
146.665000
21
81.844400
0
LINE
8
Layer 1
10
146.665000
20
81.844400
11
149.648000
21
81.844400
0
LINE
8
Layer 1
10
149.648000
20
81.844400
11
149.648000
21
83.255600
0
LINE
8
Layer 1
10
149.648000
20
83.255600
11
152.612000
21
83.255600
0
LINE
8
Layer 1
10
152.612000
20
83.255600
11
152.612000
21
81.844400
0
LINE
8
Layer 1
10
152.612000
20
81.844400
11
155.595000
21
81.844400
0
LINE
8
Layer 1
10
155.595000
20
81.844400
11
155.595000
21
83.255600
0
LINE
8
Layer 1
10
155.595000
20
83.255600
11
158.558000
21
83.255600
0
LINE
8
Layer 1
10
158.558000
20
83.255600
11
158.558000
21
81.844400
0
LINE
8
Layer 1
10
158.558000
20
81.844400
11
161.542000
21
81.844400
0
LINE
8
Layer 1
10
161.542000
20
81.844400
11
161.542000
21
83.255600
0
LINE
8
Layer 1
10
161.542000
20
83.255600
11
164.505000
21
83.255600
0
LINE
8
Layer 1
10
164.505000
20
83.255600
11
164.505000
21
81.844400
0
LINE
8
Layer 1
10
164.505000
20
81.844400
11
167.489000
21
81.844400
0
LINE
8
Layer 1
10
167.489000
20
81.844400
11
167.489000
21
83.255600
0
LINE
8
Layer 1
10
167.489000
20
83.255600
11
170.452000
21
83.255600
0
LINE
8
Layer 1
10
170.452000
20
83.255600
11
170.452000
21
81.844400
0
LINE
8
Layer 1
10
170.452000
20
81.844400
11
173.436000
21
81.844400
0
LINE
8
Layer 1
10
173.436000
20
81.844400
11
173.436000
21
83.255600
0
LINE
8
Layer 1
10
173.436000
20
83.255600
11
176.399000
21
83.255600
0
LINE
8
Layer 1
10
176.399000
20
83.255600
11
176.399000
21
81.844400
0
LINE
8
Layer 1
10
176.399000
20
81.844400
11
179.382000
21
81.844400
0
LINE
8
Layer 1
10
179.382000
20
81.844400
11
179.382000
21
83.255600
0
LINE
8
Layer 1
10
179.382000
20
83.255600
11
182.346000
21
83.255600
0
LINE
8
Layer 1
10
182.346000
20
83.255600
11
182.346000
21
81.844400
0
LINE
8
Layer 1
10
182.346000
20
81.844400
11
185.329000
21
81.844400
0
LINE
8
Layer 1
10
185.329000
20
81.844400
11
185.329000
21
83.255600
0
LINE
8
Layer 1
10
185.329000
20
83.255600
11
188.293000
21
83.255600
0
LINE
8
Layer 1
10
188.293000
20
83.255600
11
188.293000
21
81.844400
0
LINE
8
Layer 1
10
188.293000
20
81.844400
11
191.347000
21
81.844400
0
LINE
8
Layer 1
10
191.347000
20
81.844400
11
191.347000
21
80.362800
0
LINE
8
Layer 1
10
191.347000
20
80.362800
11
189.935000
21
80.362800
0
LINE
8
Layer 1
10
189.935000
20
80.362800
11
189.935000
21
77.681700
0
LINE
8
Layer 1
10
189.935000
20
77.681700
11
191.347000
21
77.681700
0
LINE
8
Layer 1
10
191.347000
20
77.681700
11
191.347000
21
74.718300
0
LINE
8
Layer 1
10
191.347000
20
74.718300
11
189.935000
21
74.718300
0
LINE
8
Layer 1
10
189.935000
20
74.718300
11
189.935000
21
72.037200
0
LINE
8
Layer 1
10
189.935000
20
72.037200
11
191.347000
21
72.037200
0
LINE
8
Layer 1
10
191.347000
20
72.037200
11
191.347000
21
69.144500
0
LINE
8
Layer 1
10
191.347000
20
69.144500
11
188.151000
21
69.144500
0
LINE
8
Layer 1
10
188.151000
20
69.144500
11
188.151000
21
69.144500
0
LINE
8
Layer 1
10
188.151000
20
69.144500
11
185.470000
21
69.144500
0
LINE
8
Layer 1
10
185.470000
20
69.144500
11
185.470000
21
69.144500
0
LINE
8
Layer 1
10
185.470000
20
69.144500
11
182.204000
21
69.144500
0
LINE
8
Layer 1
10
182.204000
20
69.144500
11
182.204000
21
69.144500
0
LINE
8
Layer 1
10
182.204000
20
69.144500
11
179.523000
21
69.144500
0
LINE
8
Layer 1
10
179.523000
20
69.144500
11
179.523000
21
69.144500
0
LINE
8
Layer 1
10
179.523000
20
69.144500
11
176.258000
21
69.144500
0
LINE
8
Layer 1
10
176.258000
20
69.144500
11
176.258000
21
69.144500
0
LINE
8
Layer 1
10
176.258000
20
69.144500
11
173.577000
21
69.144500
0
LINE
8
Layer 1
10
173.577000
20
69.144500
11
173.577000
21
69.144500
0
LINE
8
Layer 1
10
173.577000
20
69.144500
11
170.311000
21
69.144500
0
LINE
8
Layer 1
10
170.311000
20
69.144500
11
170.311000
21
69.144500
0
LINE
8
Layer 1
10
170.311000
20
69.144500
11
167.630000
21
69.144500
0
LINE
8
Layer 1
10
167.630000
20
69.144500
11
167.630000
21
69.144500
0
LINE
8
Layer 1
10
167.630000
20
69.144500
11
164.364000
21
69.144500
0
LINE
8
Layer 1
10
164.364000
20
69.144500
11
164.364000
21
69.144500
0
LINE
8
Layer 1
10
164.364000
20
69.144500
11
161.683000
21
69.144500
0
LINE
8
Layer 1
10
161.683000
20
69.144500
11
161.683000
21
69.144500
0
LINE
8
Layer 1
10
161.683000
20
69.144500
11
158.417000
21
69.144500
0
LINE
8
Layer 1
10
158.417000
20
69.144500
11
158.417000
21
69.144500
0
LINE
8
Layer 1
10
158.417000
20
69.144500
11
155.736000
21
69.144500
0
LINE
8
Layer 1
10
155.736000
20
69.144500
11
155.736000
21
69.144500
0
LINE
8
Layer 1
10
155.736000
20
69.144500
11
152.470000
21
69.144500
0
LINE
8
Layer 1
10
152.470000
20
69.144500
11
152.470000
21
69.144500
0
LINE
8
Layer 1
10
152.470000
20
69.144500
11
149.789000
21
69.144500
0
LINE
8
Layer 1
10
149.789000
20
69.144500
11
149.789000
21
69.144500
0
LINE
8
Layer 1
10
149.789000
20
69.144500
11
146.524000
21
69.144500
0
LINE
8
Layer 1
10
146.524000
20
69.144500
11
146.524000
21
69.144500
0
LINE
8
Layer 1
10
146.524000
20
69.144500
11
143.843000
21
69.144500
0
LINE
8
Layer 1
10
143.843000
20
69.144500
11
143.843000
21
69.144500
0
LINE
8
Layer 1
10
143.843000
20
69.144500
11
140.577000
21
69.144500
0
LINE
8
Layer 1
10
140.577000
20
69.144500
11
140.577000
21
69.144500
0
LINE
8
Layer 1
10
140.577000
20
69.144500
11
137.896000
21
69.144500
0
LINE
8
Layer 1
10
137.896000
20
69.144500
11
137.896000
21
69.144500
0
LINE
8
Layer 1
10
137.896000
20
69.144500
11
134.630000
21
69.144500
0
LINE
8
Layer 1
10
134.630000
20
69.144500
11
134.630000
21
69.144500
0
LINE
8
Layer 1
10
134.630000
20
69.144500
11
131.949000
21
69.144500
0
LINE
8
Layer 1
10
131.949000
20
69.144500
11
131.949000
21
69.144500
0
LINE
8
Layer 1
10
131.949000
20
69.144500
11
128.683000
21
69.144500
0
LINE
8
Layer 1
10
128.683000
20
69.144500
11
128.683000
21
69.144500
0
LINE
8
Layer 1
10
128.683000
20
69.144500
11
126.002000
21
69.144500
0
LINE
8
Layer 1
10
126.002000
20
69.144500
11
126.002000
21
69.144500
0
LINE
8
Layer 1
10
126.002000
20
69.144500
11
122.736000
21
69.144500
0
LINE
8
Layer 1
10
122.736000
20
69.144500
11
122.736000
21
69.144500
0
LINE
8
Layer 1
10
122.736000
20
69.144500
11
120.055000
21
69.144500
0
LINE
8
Layer 1
10
120.055000
20
69.144500
11
120.055000
21
69.144500
0
LINE
8
Layer 1
10
120.055000
20
69.144500
11
116.789000
21
69.144500
0
LINE
8
Layer 1
10
116.789000
20
69.144500
11
116.789000
21
69.144500
0
LINE
8
Layer 1
10
116.789000
20
69.144500
11
114.108000
21
69.144500
0
LINE
8
Layer 1
10
114.108000
20
69.144500
11
114.108000
21
69.144500
0
LINE
8
Layer 1
10
114.108000
20
69.144500
11
110.913000
21
69.144500
0
LINE
8
Layer 1
10
110.913000
20
69.144500
11
110.913000
21
72.037200
0
LINE
8
Layer 1
10
110.913000
20
72.037200
11
112.324000
21
72.037200
0
LINE
8
Layer 1
10
112.324000
20
72.037200
11
112.324000
21
74.718300
0
LINE
8
Layer 1
10
112.324000
20
74.718300
11
110.913000
21
74.718300
0
LINE
8
Layer 1
10
110.913000
20
74.718300
11
110.913000
21
77.681700
0
LINE
8
Layer 1
10
110.913000
20
77.681700
11
112.324000
21
77.681700
0
LINE
8
Layer 1
10
112.324000
20
77.681700
11
112.324000
21
80.362800
0
LINE
8
Layer 1
10
112.324000
20
80.362800
11
110.913000
21
80.362800
0
LINE
8
Layer 1
10
110.913000
20
80.362800
11
110.913000
21
81.844400
0
LINE
8
Layer 1
10
81.562200
20
81.844400
11
84.313800
21
81.844400
0
LINE
8
Layer 1
10
84.313800
20
81.844400
11
84.313800
21
83.255600
0
LINE
8
Layer 1
10
84.313800
20
83.255600
11
87.277200
21
83.255600
0
LINE
8
Layer 1
10
87.277200
20
83.255600
11
87.277200
21
81.844400
0
LINE
8
Layer 1
10
87.277200
20
81.844400
11
89.958300
21
81.844400
0
LINE
8
Layer 1
10
89.958300
20
81.844400
11
89.958300
21
83.255600
0
LINE
8
Layer 1
10
89.958300
20
83.255600
11
92.921600
21
83.255600
0
LINE
8
Layer 1
10
92.921600
20
83.255600
11
92.921600
21
81.844400
0
LINE
8
Layer 1
10
92.921600
20
81.844400
11
94.262100
21
81.844400
0
LINE
8
Layer 1
10
94.262100
20
81.844400
11
94.262100
21
80.327500
0
LINE
8
Layer 1
10
94.262100
20
80.327500
11
95.673300
21
80.327500
0
LINE
8
Layer 1
10
95.673300
20
80.327500
11
95.673300
21
77.364200
0
LINE
8
Layer 1
10
95.673300
20
77.364200
11
94.262100
21
77.364200
0
LINE
8
Layer 1
10
94.262100
20
77.364200
11
94.262100
21
74.506700
0
LINE
8
Layer 1
10
94.262100
20
74.506700
11
95.673300
21
74.506700
0
LINE
8
Layer 1
10
95.673300
20
74.506700
11
95.673300
21
71.543300
0
LINE
8
Layer 1
10
95.673300
20
71.543300
11
94.262100
21
71.543300
0
LINE
8
Layer 1
10
94.262100
20
71.543300
11
94.262100
21
68.685800
0
LINE
8
Layer 1
10
94.262100
20
68.685800
11
95.673300
21
68.685800
0
LINE
8
Layer 1
10
95.673300
20
68.685800
11
95.673300
21
65.722500
0
LINE
8
Layer 1
10
95.673300
20
65.722500
11
94.262100
21
65.722500
0
LINE
8
Layer 1
10
94.262100
20
65.722500
11
94.262100
21
62.865000
0
LINE
8
Layer 1
10
94.262100
20
62.865000
11
95.673300
21
62.865000
0
LINE
8
Layer 1
10
95.673300
20
62.865000
11
95.673300
21
59.901700
0
LINE
8
Layer 1
10
95.673300
20
59.901700
11
94.262100
21
59.901700
0
LINE
8
Layer 1
10
94.262100
20
59.901700
11
94.262100
21
57.044200
0
LINE
8
Layer 1
10
94.262100
20
57.044200
11
95.673300
21
57.044200
0
LINE
8
Layer 1
10
95.673300
20
57.044200
11
95.673300
21
54.080900
0
LINE
8
Layer 1
10
95.673300
20
54.080900
11
94.262100
21
54.080900
0
LINE
8
Layer 1
10
94.262100
20
54.080900
11
94.262100
21
51.223400
0
LINE
8
Layer 1
10
94.262100
20
51.223400
11
95.673300
21
51.223400
0
LINE
8
Layer 1
10
95.673300
20
51.223400
11
95.673300
21
48.260000
0
LINE
8
Layer 1
10
95.673300
20
48.260000
11
94.262100
21
48.260000
0
LINE
8
Layer 1
10
94.262100
20
48.260000
11
94.262100
21
45.402500
0
LINE
8
Layer 1
10
94.262100
20
45.402500
11
95.673300
21
45.402500
0
LINE
8
Layer 1
10
95.673300
20
45.402500
11
95.673300
21
42.439200
0
LINE
8
Layer 1
10
95.673300
20
42.439200
11
94.262100
21
42.439200
0
LINE
8
Layer 1
10
94.262100
20
42.439200
11
94.262100
21
40.922300
0
LINE
8
Layer 1
10
94.262100
20
40.922300
11
92.921600
21
40.922300
0
LINE
8
Layer 1
10
92.921600
20
40.922300
11
92.921600
21
39.511100
0
LINE
8
Layer 1
10
92.921600
20
39.511100
11
89.958300
21
39.511100
0
LINE
8
Layer 1
10
89.958300
20
39.511100
11
89.958300
21
40.922300
0
LINE
8
Layer 1
10
89.958300
20
40.922300
11
87.277200
21
40.922300
0
LINE
8
Layer 1
10
87.277200
20
40.922300
11
87.277200
21
39.511100
0
LINE
8
Layer 1
10
87.277200
20
39.511100
11
84.313800
21
39.511100
0
LINE
8
Layer 1
10
84.313800
20
39.511100
11
84.313800
21
40.922300
0
LINE
8
Layer 1
10
84.313800
20
40.922300
11
81.562200
21
40.922300
0
LINE
8
Layer 1
10
81.562200
20
40.922300
11
81.562200
21
42.580300
0
LINE
8
Layer 1
10
81.562200
20
42.580300
11
81.562200
21
42.580300
0
LINE
8
Layer 1
10
81.562200
20
42.580300
11
81.562200
21
45.261400
0
LINE
8
Layer 1
10
81.562200
20
45.261400
11
81.562200
21
45.261400
0
LINE
8
Layer 1
10
81.562200
20
45.261400
11
81.562200
21
48.401100
0
LINE
8
Layer 1
10
81.562200
20
48.401100
11
81.562200
21
48.401100
0
LINE
8
Layer 1
10
81.562200
20
48.401100
11
81.562200
21
51.082200
0
LINE
8
Layer 1
10
81.562200
20
51.082200
11
81.562200
21
51.082200
0
LINE
8
Layer 1
10
81.562200
20
51.082200
11
81.562200
21
54.222000
0
LINE
8
Layer 1
10
81.562200
20
54.222000
11
81.562200
21
54.222000
0
LINE
8
Layer 1
10
81.562200
20
54.222000
11
81.562200
21
56.903100
0
LINE
8
Layer 1
10
81.562200
20
56.903100
11
81.562200
21
56.903100
0
LINE
8
Layer 1
10
81.562200
20
56.903100
11
81.562200
21
60.042800
0
LINE
8
Layer 1
10
81.562200
20
60.042800
11
81.562200
21
60.042800
0
LINE
8
Layer 1
10
81.562200
20
60.042800
11
81.562200
21
62.723900
0
LINE
8
Layer 1
10
81.562200
20
62.723900
11
81.562200
21
62.723900
0
LINE
8
Layer 1
10
81.562200
20
62.723900
11
81.562200
21
65.863600
0
LINE
8
Layer 1
10
81.562200
20
65.863600
11
81.562200
21
65.863600
0
LINE
8
Layer 1
10
81.562200
20
65.863600
11
81.562200
21
68.544700
0
LINE
8
Layer 1
10
81.562200
20
68.544700
11
81.562200
21
68.544700
0
LINE
8
Layer 1
10
81.562200
20
68.544700
11
81.562200
21
71.684500
0
LINE
8
Layer 1
10
81.562200
20
71.684500
11
81.562200
21
71.684500
0
LINE
8
Layer 1
10
81.562200
20
71.684500
11
81.562200
21
74.365600
0
LINE
8
Layer 1
10
81.562200
20
74.365600
11
81.562200
21
74.365600
0
LINE
8
Layer 1
10
81.562200
20
74.365600
11
81.562200
21
77.505300
0
LINE
8
Layer 1
10
81.562200
20
77.505300
11
81.562200
21
77.505300
0
LINE
8
Layer 1
10
81.562200
20
77.505300
11
81.562200
21
80.186400
0
LINE
8
Layer 1
10
81.562200
20
80.186400
11
81.562200
21
80.186400
0
LINE
8
Layer 1
10
81.562200
20
80.186400
11
81.562200
21
81.844400
0
LINE
8
Layer 1
10
0.564444
20
83.255600
11
3.759590
21
83.255600
0
LINE
8
Layer 1
10
3.759590
20
83.255600
11
3.759590
21
81.844400
0
LINE
8
Layer 1
10
3.759590
20
81.844400
11
6.440700
21
81.844400
0
LINE
8
Layer 1
10
6.440700
20
81.844400
11
6.440700
21
83.255600
0
LINE
8
Layer 1
10
6.440700
20
83.255600
11
9.706430
21
83.255600
0
LINE
8
Layer 1
10
9.706430
20
83.255600
11
9.706430
21
81.844400
0
LINE
8
Layer 1
10
9.706430
20
81.844400
11
12.387500
21
81.844400
0
LINE
8
Layer 1
10
12.387500
20
81.844400
11
12.387500
21
83.255600
0
LINE
8
Layer 1
10
12.387500
20
83.255600
11
15.653200
21
83.255600
0
LINE
8
Layer 1
10
15.653200
20
83.255600
11
15.653200
21
81.844400
0
LINE
8
Layer 1
10
15.653200
20
81.844400
11
18.334400
21
81.844400
0
LINE
8
Layer 1
10
18.334400
20
81.844400
11
18.334400
21
83.255600
0
LINE
8
Layer 1
10
18.334400
20
83.255600
11
21.600100
21
83.255600
0
LINE
8
Layer 1
10
21.600100
20
83.255600
11
21.600100
21
81.844400
0
LINE
8
Layer 1
10
21.600100
20
81.844400
11
24.281200
21
81.844400
0
LINE
8
Layer 1
10
24.281200
20
81.844400
11
24.281200
21
83.255600
0
LINE
8
Layer 1
10
24.281200
20
83.255600
11
27.546900
21
83.255600
0
LINE
8
Layer 1
10
27.546900
20
83.255600
11
27.546900
21
81.844400
0
LINE
8
Layer 1
10
27.546900
20
81.844400
11
30.228000
21
81.844400
0
LINE
8
Layer 1
10
30.228000
20
81.844400
11
30.228000
21
83.255600
0
LINE
8
Layer 1
10
30.228000
20
83.255600
11
33.493800
21
83.255600
0
LINE
8
Layer 1
10
33.493800
20
83.255600
11
33.493800
21
81.844400
0
LINE
8
Layer 1
10
33.493800
20
81.844400
11
36.174900
21
81.844400
0
LINE
8
Layer 1
10
36.174900
20
81.844400
11
36.174900
21
83.255600
0
LINE
8
Layer 1
10
36.174900
20
83.255600
11
39.440500
21
83.255600
0
LINE
8
Layer 1
10
39.440500
20
83.255600
11
39.440500
21
81.844400
0
LINE
8
Layer 1
10
39.440500
20
81.844400
11
42.121600
21
81.844400
0
LINE
8
Layer 1
10
42.121600
20
81.844400
11
42.121600
21
83.255600
0
LINE
8
Layer 1
10
42.121600
20
83.255600
11
45.387200
21
83.255600
0
LINE
8
Layer 1
10
45.387200
20
83.255600
11
45.387200
21
81.844400
0
LINE
8
Layer 1
10
45.387200
20
81.844400
11
48.068300
21
81.844400
0
LINE
8
Layer 1
10
48.068300
20
81.844400
11
48.068300
21
83.255600
0
LINE
8
Layer 1
10
48.068300
20
83.255600
11
51.334200
21
83.255600
0
LINE
8
Layer 1
10
51.334200
20
83.255600
11
51.334200
21
81.844400
0
LINE
8
Layer 1
10
51.334200
20
81.844400
11
54.015300
21
81.844400
0
LINE
8
Layer 1
10
54.015300
20
81.844400
11
54.015300
21
83.255600
0
LINE
8
Layer 1
10
54.015300
20
83.255600
11
57.280900
21
83.255600
0
LINE
8
Layer 1
10
57.280900
20
83.255600
11
57.280900
21
81.844400
0
LINE
8
Layer 1
10
57.280900
20
81.844400
11
59.962000
21
81.844400
0
LINE
8
Layer 1
10
59.962000
20
81.844400
11
59.962000
21
83.255600
0
LINE
8
Layer 1
10
59.962000
20
83.255600
11
63.227900
21
83.255600
0
LINE
8
Layer 1
10
63.227900
20
83.255600
11
63.227900
21
81.844400
0
LINE
8
Layer 1
10
63.227900
20
81.844400
11
65.909000
21
81.844400
0
LINE
8
Layer 1
10
65.909000
20
81.844400
11
65.909000
21
83.255600
0
LINE
8
Layer 1
10
65.909000
20
83.255600
11
69.174600
21
83.255600
0
LINE
8
Layer 1
10
69.174600
20
83.255600
11
69.174600
21
81.844400
0
LINE
8
Layer 1
10
69.174600
20
81.844400
11
71.855700
21
81.844400
0
LINE
8
Layer 1
10
71.855700
20
81.844400
11
71.855700
21
83.255600
0
LINE
8
Layer 1
10
71.855700
20
83.255600
11
75.121600
21
83.255600
0
LINE
8
Layer 1
10
75.121600
20
83.255600
11
75.121600
21
81.844400
0
LINE
8
Layer 1
10
75.121600
20
81.844400
11
77.802700
21
81.844400
0
LINE
8
Layer 1
10
77.802700
20
81.844400
11
77.802700
21
83.255600
0
LINE
8
Layer 1
10
77.802700
20
83.255600
11
80.997700
21
83.255600
0
LINE
8
Layer 1
10
80.997700
20
83.255600
11
80.997700
21
80.186400
0
LINE
8
Layer 1
10
80.997700
20
80.186400
11
79.586600
21
80.186400
0
LINE
8
Layer 1
10
79.586600
20
80.186400
11
79.586600
21
77.505300
0
LINE
8
Layer 1
10
79.586600
20
77.505300
11
80.997700
21
77.505300
0
LINE
8
Layer 1
10
80.997700
20
77.505300
11
80.997700
21
74.365600
0
LINE
8
Layer 1
10
80.997700
20
74.365600
11
79.586600
21
74.365600
0
LINE
8
Layer 1
10
79.586600
20
74.365600
11
79.586600
21
71.684500
0
LINE
8
Layer 1
10
79.586600
20
71.684500
11
80.997700
21
71.684500
0
LINE
8
Layer 1
10
80.997700
20
71.684500
11
80.997700
21
68.544700
0
LINE
8
Layer 1
10
80.997700
20
68.544700
11
79.586600
21
68.544700
0
LINE
8
Layer 1
10
79.586600
20
68.544700
11
79.586600
21
65.863600
0
LINE
8
Layer 1
10
79.586600
20
65.863600
11
80.997700
21
65.863600
0
LINE
8
Layer 1
10
80.997700
20
65.863600
11
80.997700
21
62.723900
0
LINE
8
Layer 1
10
80.997700
20
62.723900
11
79.586600
21
62.723900
0
LINE
8
Layer 1
10
79.586600
20
62.723900
11
79.586600
21
60.042800
0
LINE
8
Layer 1
10
79.586600
20
60.042800
11
80.997700
21
60.042800
0
LINE
8
Layer 1
10
80.997700
20
60.042800
11
80.997700
21
56.903100
0
LINE
8
Layer 1
10
80.997700
20
56.903100
11
79.586600
21
56.903100
0
LINE
8
Layer 1
10
79.586600
20
56.903100
11
79.586600
21
54.222000
0
LINE
8
Layer 1
10
79.586600
20
54.222000
11
80.997700
21
54.222000
0
LINE
8
Layer 1
10
80.997700
20
54.222000
11
80.997700
21
51.082200
0
LINE
8
Layer 1
10
80.997700
20
51.082200
11
79.586600
21
51.082200
0
LINE
8
Layer 1
10
79.586600
20
51.082200
11
79.586600
21
48.401100
0
LINE
8
Layer 1
10
79.586600
20
48.401100
11
80.997700
21
48.401100
0
LINE
8
Layer 1
10
80.997700
20
48.401100
11
80.997700
21
45.261400
0
LINE
8
Layer 1
10
80.997700
20
45.261400
11
79.586600
21
45.261400
0
LINE
8
Layer 1
10
79.586600
20
45.261400
11
79.586600
21
42.580300
0
LINE
8
Layer 1
10
79.586600
20
42.580300
11
80.997700
21
42.580300
0
LINE
8
Layer 1
10
80.997700
20
42.580300
11
80.997700
21
39.511100
0
LINE
8
Layer 1
10
80.997700
20
39.511100
11
77.802700
21
39.511100
0
LINE
8
Layer 1
10
77.802700
20
39.511100
11
77.802700
21
40.922300
0
LINE
8
Layer 1
10
77.802700
20
40.922300
11
75.121600
21
40.922300
0
LINE
8
Layer 1
10
75.121600
20
40.922300
11
75.121600
21
39.511100
0
LINE
8
Layer 1
10
75.121600
20
39.511100
11
71.855700
21
39.511100
0
LINE
8
Layer 1
10
71.855700
20
39.511100
11
71.855700
21
40.922300
0
LINE
8
Layer 1
10
71.855700
20
40.922300
11
69.174600
21
40.922300
0
LINE
8
Layer 1
10
69.174600
20
40.922300
11
69.174600
21
39.511100
0
LINE
8
Layer 1
10
69.174600
20
39.511100
11
65.909000
21
39.511100
0
LINE
8
Layer 1
10
65.909000
20
39.511100
11
65.909000
21
40.922300
0
LINE
8
Layer 1
10
65.909000
20
40.922300
11
63.227900
21
40.922300
0
LINE
8
Layer 1
10
63.227900
20
40.922300
11
63.227900
21
39.511100
0
LINE
8
Layer 1
10
63.227900
20
39.511100
11
59.962000
21
39.511100
0
LINE
8
Layer 1
10
59.962000
20
39.511100
11
59.962000
21
40.922300
0
LINE
8
Layer 1
10
59.962000
20
40.922300
11
57.280900
21
40.922300
0
LINE
8
Layer 1
10
57.280900
20
40.922300
11
57.280900
21
39.511100
0
LINE
8
Layer 1
10
57.280900
20
39.511100
11
54.015300
21
39.511100
0
LINE
8
Layer 1
10
54.015300
20
39.511100
11
54.015300
21
40.922300
0
LINE
8
Layer 1
10
54.015300
20
40.922300
11
51.334200
21
40.922300
0
LINE
8
Layer 1
10
51.334200
20
40.922300
11
51.334200
21
39.511100
0
LINE
8
Layer 1
10
51.334200
20
39.511100
11
48.068300
21
39.511100
0
LINE
8
Layer 1
10
48.068300
20
39.511100
11
48.068300
21
40.922300
0
LINE
8
Layer 1
10
48.068300
20
40.922300
11
45.387200
21
40.922300
0
LINE
8
Layer 1
10
45.387200
20
40.922300
11
45.387200
21
39.511100
0
LINE
8
Layer 1
10
45.387200
20
39.511100
11
42.121600
21
39.511100
0
LINE
8
Layer 1
10
42.121600
20
39.511100
11
42.121600
21
40.922300
0
LINE
8
Layer 1
10
42.121600
20
40.922300
11
39.440500
21
40.922300
0
LINE
8
Layer 1
10
39.440500
20
40.922300
11
39.440500
21
39.511100
0
LINE
8
Layer 1
10
39.440500
20
39.511100
11
36.174900
21
39.511100
0
LINE
8
Layer 1
10
36.174900
20
39.511100
11
36.174900
21
40.922300
0
LINE
8
Layer 1
10
36.174900
20
40.922300
11
33.493800
21
40.922300
0
LINE
8
Layer 1
10
33.493800
20
40.922300
11
33.493800
21
39.511100
0
LINE
8
Layer 1
10
33.493800
20
39.511100
11
30.228000
21
39.511100
0
LINE
8
Layer 1
10
30.228000
20
39.511100
11
30.228000
21
40.922300
0
LINE
8
Layer 1
10
30.228000
20
40.922300
11
27.546900
21
40.922300
0
LINE
8
Layer 1
10
27.546900
20
40.922300
11
27.546900
21
39.511100
0
LINE
8
Layer 1
10
27.546900
20
39.511100
11
24.281200
21
39.511100
0
LINE
8
Layer 1
10
24.281200
20
39.511100
11
24.281200
21
40.922300
0
LINE
8
Layer 1
10
24.281200
20
40.922300
11
21.600100
21
40.922300
0
LINE
8
Layer 1
10
21.600100
20
40.922300
11
21.600100
21
39.511100
0
LINE
8
Layer 1
10
21.600100
20
39.511100
11
18.334400
21
39.511100
0
LINE
8
Layer 1
10
18.334400
20
39.511100
11
18.334400
21
40.922300
0
LINE
8
Layer 1
10
18.334400
20
40.922300
11
15.653200
21
40.922300
0
LINE
8
Layer 1
10
15.653200
20
40.922300
11
15.653200
21
39.511100
0
LINE
8
Layer 1
10
15.653200
20
39.511100
11
12.387500
21
39.511100
0
LINE
8
Layer 1
10
12.387500
20
39.511100
11
12.387500
21
40.922300
0
LINE
8
Layer 1
10
12.387500
20
40.922300
11
9.706430
21
40.922300
0
LINE
8
Layer 1
10
9.706430
20
40.922300
11
9.706430
21
39.511100
0
LINE
8
Layer 1
10
9.706430
20
39.511100
11
6.440700
21
39.511100
0
LINE
8
Layer 1
10
6.440700
20
39.511100
11
6.440700
21
40.922300
0
LINE
8
Layer 1
10
6.440700
20
40.922300
11
3.759590
21
40.922300
0
LINE
8
Layer 1
10
3.759590
20
40.922300
11
3.759590
21
39.511100
0
LINE
8
Layer 1
10
3.759590
20
39.511100
11
0.564444
21
39.511100
0
LINE
8
Layer 1
10
0.564444
20
39.511100
11
0.564444
21
42.580300
0
LINE
8
Layer 1
10
0.564444
20
42.580300
11
1.975550
21
42.580300
0
LINE
8
Layer 1
10
1.975550
20
42.580300
11
1.975550
21
45.261400
0
LINE
8
Layer 1
10
1.975550
20
45.261400
11
0.564444
21
45.261400
0
LINE
8
Layer 1
10
0.564444
20
45.261400
11
0.564444
21
48.401100
0
LINE
8
Layer 1
10
0.564444
20
48.401100
11
1.975550
21
48.401100
0
LINE
8
Layer 1
10
1.975550
20
48.401100
11
1.975550
21
51.082200
0
LINE
8
Layer 1
10
1.975550
20
51.082200
11
0.564444
21
51.082200
0
LINE
8
Layer 1
10
0.564444
20
51.082200
11
0.564444
21
54.222000
0
LINE
8
Layer 1
10
0.564444
20
54.222000
11
1.975550
21
54.222000
0
LINE
8
Layer 1
10
1.975550
20
54.222000
11
1.975550
21
56.903100
0
LINE
8
Layer 1
10
1.975550
20
56.903100
11
0.564444
21
56.903100
0
LINE
8
Layer 1
10
0.564444
20
56.903100
11
0.564444
21
60.042800
0
LINE
8
Layer 1
10
0.564444
20
60.042800
11
1.975550
21
60.042800
0
LINE
8
Layer 1
10
1.975550
20
60.042800
11
1.975550
21
62.723900
0
LINE
8
Layer 1
10
1.975550
20
62.723900
11
0.564444
21
62.723900
0
LINE
8
Layer 1
10
0.564444
20
62.723900
11
0.564444
21
65.863600
0
LINE
8
Layer 1
10
0.564444
20
65.863600
11
1.975550
21
65.863600
0
LINE
8
Layer 1
10
1.975550
20
65.863600
11
1.975550
21
68.544700
0
LINE
8
Layer 1
10
1.975550
20
68.544700
11
0.564444
21
68.544700
0
LINE
8
Layer 1
10
0.564444
20
68.544700
11
0.564444
21
71.684500
0
LINE
8
Layer 1
10
0.564444
20
71.684500
11
1.975550
21
71.684500
0
LINE
8
Layer 1
10
1.975550
20
71.684500
11
1.975550
21
74.365600
0
LINE
8
Layer 1
10
1.975550
20
74.365600
11
0.564444
21
74.365600
0
LINE
8
Layer 1
10
0.564444
20
74.365600
11
0.564444
21
77.505300
0
LINE
8
Layer 1
10
0.564444
20
77.505300
11
1.975550
21
77.505300
0
LINE
8
Layer 1
10
1.975550
20
77.505300
11
1.975550
21
80.186400
0
LINE
8
Layer 1
10
1.975550
20
80.186400
11
0.564444
21
80.186400
0
LINE
8
Layer 1
10
0.564444
20
80.186400
11
0.564444
21
83.255600
0
LINE
8
Layer 1
10
97.648800
20
81.844400
11
98.989400
21
81.844400
0
LINE
8
Layer 1
10
98.989400
20
81.844400
11
98.989400
21
83.255600
0
LINE
8
Layer 1
10
98.989400
20
83.255600
11
101.953000
21
83.255600
0
LINE
8
Layer 1
10
101.953000
20
83.255600
11
101.953000
21
81.844400
0
LINE
8
Layer 1
10
101.953000
20
81.844400
11
104.634000
21
81.844400
0
LINE
8
Layer 1
10
104.634000
20
81.844400
11
104.634000
21
83.255600
0
LINE
8
Layer 1
10
104.634000
20
83.255600
11
107.597000
21
83.255600
0
LINE
8
Layer 1
10
107.597000
20
83.255600
11
107.597000
21
81.844400
0
LINE
8
Layer 1
10
107.597000
20
81.844400
11
110.349000
21
81.844400
0
LINE
8
Layer 1
10
110.349000
20
81.844400
11
110.349000
21
80.186400
0
LINE
8
Layer 1
10
110.349000
20
80.186400
11
110.349000
21
80.186400
0
LINE
8
Layer 1
10
110.349000
20
80.186400
11
110.349000
21
77.505300
0
LINE
8
Layer 1
10
110.349000
20
77.505300
11
110.349000
21
77.505300
0
LINE
8
Layer 1
10
110.349000
20
77.505300
11
110.349000
21
74.365600
0
LINE
8
Layer 1
10
110.349000
20
74.365600
11
110.349000
21
74.365600
0
LINE
8
Layer 1
10
110.349000
20
74.365600
11
110.349000
21
71.684500
0
LINE
8
Layer 1
10
110.349000
20
71.684500
11
110.349000
21
71.684500
0
LINE
8
Layer 1
10
110.349000
20
71.684500
11
110.349000
21
68.544700
0
LINE
8
Layer 1
10
110.349000
20
68.544700
11
110.349000
21
68.544700
0
LINE
8
Layer 1
10
110.349000
20
68.544700
11
110.349000
21
65.863600
0
LINE
8
Layer 1
10
110.349000
20
65.863600
11
110.349000
21
65.863600
0
LINE
8
Layer 1
10
110.349000
20
65.863600
11
110.349000
21
62.723900
0
LINE
8
Layer 1
10
110.349000
20
62.723900
11
110.349000
21
62.723900
0
LINE
8
Layer 1
10
110.349000
20
62.723900
11
110.349000
21
60.042800
0
LINE
8
Layer 1
10
110.349000
20
60.042800
11
110.349000
21
60.042800
0
LINE
8
Layer 1
10
110.349000
20
60.042800
11
110.349000
21
56.903100
0
LINE
8
Layer 1
10
110.349000
20
56.903100
11
110.349000
21
56.903100
0
LINE
8
Layer 1
10
110.349000
20
56.903100
11
110.349000
21
54.222000
0
LINE
8
Layer 1
10
110.349000
20
54.222000
11
110.349000
21
54.222000
0
LINE
8
Layer 1
10
110.349000
20
54.222000
11
110.349000
21
51.082200
0
LINE
8
Layer 1
10
110.349000
20
51.082200
11
110.349000
21
51.082200
0
LINE
8
Layer 1
10
110.349000
20
51.082200
11
110.349000
21
48.401100
0
LINE
8
Layer 1
10
110.349000
20
48.401100
11
110.349000
21
48.401100
0
LINE
8
Layer 1
10
110.349000
20
48.401100
11
110.349000
21
45.261400
0
LINE
8
Layer 1
10
110.349000
20
45.261400
11
110.349000
21
45.261400
0
LINE
8
Layer 1
10
110.349000
20
45.261400
11
110.349000
21
42.580300
0
LINE
8
Layer 1
10
110.349000
20
42.580300
11
110.349000
21
42.580300
0
LINE
8
Layer 1
10
110.349000
20
42.580300
11
110.349000
21
40.922300
0
LINE
8
Layer 1
10
110.349000
20
40.922300
11
107.597000
21
40.922300
0
LINE
8
Layer 1
10
107.597000
20
40.922300
11
107.597000
21
39.511100
0
LINE
8
Layer 1
10
107.597000
20
39.511100
11
104.634000
21
39.511100
0
LINE
8
Layer 1
10
104.634000
20
39.511100
11
104.634000
21
40.922300
0
LINE
8
Layer 1
10
104.634000
20
40.922300
11
101.953000
21
40.922300
0
LINE
8
Layer 1
10
101.953000
20
40.922300
11
101.953000
21
39.511100
0
LINE
8
Layer 1
10
101.953000
20
39.511100
11
98.989400
21
39.511100
0
LINE
8
Layer 1
10
98.989400
20
39.511100
11
98.989400
21
40.922300
0
LINE
8
Layer 1
10
98.989400
20
40.922300
11
97.648800
21
40.922300
0
LINE
8
Layer 1
10
97.648800
20
40.922300
11
97.648800
21
42.439200
0
LINE
8
Layer 1
10
97.648800
20
42.439200
11
96.237700
21
42.439200
0
LINE
8
Layer 1
10
96.237700
20
42.439200
11
96.237700
21
45.402500
0
LINE
8
Layer 1
10
96.237700
20
45.402500
11
97.648800
21
45.402500
0
LINE
8
Layer 1
10
97.648800
20
45.402500
11
97.648800
21
48.260000
0
LINE
8
Layer 1
10
97.648800
20
48.260000
11
96.237700
21
48.260000
0
LINE
8
Layer 1
10
96.237700
20
48.260000
11
96.237700
21
51.223400
0
LINE
8
Layer 1
10
96.237700
20
51.223400
11
97.648800
21
51.223400
0
LINE
8
Layer 1
10
97.648800
20
51.223400
11
97.648800
21
54.080900
0
LINE
8
Layer 1
10
97.648800
20
54.080900
11
96.237700
21
54.080900
0
LINE
8
Layer 1
10
96.237700
20
54.080900
11
96.237700
21
57.044200
0
LINE
8
Layer 1
10
96.237700
20
57.044200
11
97.648800
21
57.044200
0
LINE
8
Layer 1
10
97.648800
20
57.044200
11
97.648800
21
59.901700
0
LINE
8
Layer 1
10
97.648800
20
59.901700
11
96.237700
21
59.901700
0
LINE
8
Layer 1
10
96.237700
20
59.901700
11
96.237700
21
62.865000
0
LINE
8
Layer 1
10
96.237700
20
62.865000
11
97.648800
21
62.865000
0
LINE
8
Layer 1
10
97.648800
20
62.865000
11
97.648800
21
65.722500
0
LINE
8
Layer 1
10
97.648800
20
65.722500
11
96.237700
21
65.722500
0
LINE
8
Layer 1
10
96.237700
20
65.722500
11
96.237700
21
68.685800
0
LINE
8
Layer 1
10
96.237700
20
68.685800
11
97.648800
21
68.685800
0
LINE
8
Layer 1
10
97.648800
20
68.685800
11
97.648800
21
71.543300
0
LINE
8
Layer 1
10
97.648800
20
71.543300
11
96.237700
21
71.543300
0
LINE
8
Layer 1
10
96.237700
20
71.543300
11
96.237700
21
74.506700
0
LINE
8
Layer 1
10
96.237700
20
74.506700
11
97.648800
21
74.506700
0
LINE
8
Layer 1
10
97.648800
20
74.506700
11
97.648800
21
77.364200
0
LINE
8
Layer 1
10
97.648800
20
77.364200
11
96.237700
21
77.364200
0
LINE
8
Layer 1
10
96.237700
20
77.364200
11
96.237700
21
80.327500
0
LINE
8
Layer 1
10
96.237700
20
80.327500
11
97.648800
21
80.327500
0
LINE
8
Layer 1
10
97.648800
20
80.327500
11
97.648800
21
81.844400
0
LINE
8
Layer 1
10
191.911000
20
83.255600
11
195.106000
21
83.255600
0
LINE
8
Layer 1
10
195.106000
20
83.255600
11
195.106000
21
83.255600
0
LINE
8
Layer 1
10
195.106000
20
83.255600
11
197.787000
21
83.255600
0
LINE
8
Layer 1
10
197.787000
20
83.255600
11
197.787000
21
83.255600
0
LINE
8
Layer 1
10
197.787000
20
83.255600
11
201.053000
21
83.255600
0
LINE
8
Layer 1
10
201.053000
20
83.255600
11
201.053000
21
83.255600
0
LINE
8
Layer 1
10
201.053000
20
83.255600
11
203.734000
21
83.255600
0
LINE
8
Layer 1
10
203.734000
20
83.255600
11
203.734000
21
83.255600
0
LINE
8
Layer 1
10
203.734000
20
83.255600
11
207.000000
21
83.255600
0
LINE
8
Layer 1
10
207.000000
20
83.255600
11
207.000000
21
83.255600
0
LINE
8
Layer 1
10
207.000000
20
83.255600
11
209.681000
21
83.255600
0
LINE
8
Layer 1
10
209.681000
20
83.255600
11
209.681000
21
83.255600
0
LINE
8
Layer 1
10
209.681000
20
83.255600
11
212.947000
21
83.255600
0
LINE
8
Layer 1
10
212.947000
20
83.255600
11
212.947000
21
83.255600
0
LINE
8
Layer 1
10
212.947000
20
83.255600
11
215.628000
21
83.255600
0
LINE
8
Layer 1
10
215.628000
20
83.255600
11
215.628000
21
83.255600
0
LINE
8
Layer 1
10
215.628000
20
83.255600
11
218.893000
21
83.255600
0
LINE
8
Layer 1
10
218.893000
20
83.255600
11
218.893000
21
83.255600
0
LINE
8
Layer 1
10
218.893000
20
83.255600
11
221.574000
21
83.255600
0
LINE
8
Layer 1
10
221.574000
20
83.255600
11
221.574000
21
83.255600
0
LINE
8
Layer 1
10
221.574000
20
83.255600
11
224.840000
21
83.255600
0
LINE
8
Layer 1
10
224.840000
20
83.255600
11
224.840000
21
83.255600
0
LINE
8
Layer 1
10
224.840000
20
83.255600
11
227.521000
21
83.255600
0
LINE
8
Layer 1
10
227.521000
20
83.255600
11
227.521000
21
83.255600
0
LINE
8
Layer 1
10
227.521000
20
83.255600
11
230.787000
21
83.255600
0
LINE
8
Layer 1
10
230.787000
20
83.255600
11
230.787000
21
83.255600
0
LINE
8
Layer 1
10
230.787000
20
83.255600
11
233.468000
21
83.255600
0
LINE
8
Layer 1
10
233.468000
20
83.255600
11
233.468000
21
83.255600
0
LINE
8
Layer 1
10
233.468000
20
83.255600
11
236.734000
21
83.255600
0
LINE
8
Layer 1
10
236.734000
20
83.255600
11
236.734000
21
83.255600
0
LINE
8
Layer 1
10
236.734000
20
83.255600
11
239.415000
21
83.255600
0
LINE
8
Layer 1
10
239.415000
20
83.255600
11
239.415000
21
83.255600
0
LINE
8
Layer 1
10
239.415000
20
83.255600
11
242.681000
21
83.255600
0
LINE
8
Layer 1
10
242.681000
20
83.255600
11
242.681000
21
83.255600
0
LINE
8
Layer 1
10
242.681000
20
83.255600
11
245.362000
21
83.255600
0
LINE
8
Layer 1
10
245.362000
20
83.255600
11
245.362000
21
83.255600
0
LINE
8
Layer 1
10
245.362000
20
83.255600
11
248.627000
21
83.255600
0
LINE
8
Layer 1
10
248.627000
20
83.255600
11
248.627000
21
83.255600
0
LINE
8
Layer 1
10
248.627000
20
83.255600
11
251.309000
21
83.255600
0
LINE
8
Layer 1
10
251.309000
20
83.255600
11
251.309000
21
83.255600
0
LINE
8
Layer 1
10
251.309000
20
83.255600
11
254.574000
21
83.255600
0
LINE
8
Layer 1
10
254.574000
20
83.255600
11
254.574000
21
83.255600
0
LINE
8
Layer 1
10
254.574000
20
83.255600
11
257.256000
21
83.255600
0
LINE
8
Layer 1
10
257.256000
20
83.255600
11
257.256000
21
83.255600
0
LINE
8
Layer 1
10
257.256000
20
83.255600
11
260.521000
21
83.255600
0
LINE
8
Layer 1
10
260.521000
20
83.255600
11
260.521000
21
83.255600
0
LINE
8
Layer 1
10
260.521000
20
83.255600
11
263.202000
21
83.255600
0
LINE
8
Layer 1
10
263.202000
20
83.255600
11
263.202000
21
83.255600
0
LINE
8
Layer 1
10
263.202000
20
83.255600
11
266.468000
21
83.255600
0
LINE
8
Layer 1
10
266.468000
20
83.255600
11
266.468000
21
83.255600
0
LINE
8
Layer 1
10
266.468000
20
83.255600
11
269.149000
21
83.255600
0
LINE
8
Layer 1
10
269.149000
20
83.255600
11
269.149000
21
83.255600
0
LINE
8
Layer 1
10
269.149000
20
83.255600
11
272.344000
21
83.255600
0
LINE
8
Layer 1
10
272.344000
20
83.255600
11
272.344000
21
80.362800
0
LINE
8
Layer 1
10
272.344000
20
80.362800
11
270.933000
21
80.362800
0
LINE
8
Layer 1
10
270.933000
20
80.362800
11
270.933000
21
77.681700
0
LINE
8
Layer 1
10
270.933000
20
77.681700
11
272.344000
21
77.681700
0
LINE
8
Layer 1
10
272.344000
20
77.681700
11
272.344000
21
74.718300
0
LINE
8
Layer 1
10
272.344000
20
74.718300
11
270.933000
21
74.718300
0
LINE
8
Layer 1
10
270.933000
20
74.718300
11
270.933000
21
72.037200
0
LINE
8
Layer 1
10
270.933000
20
72.037200
11
272.344000
21
72.037200
0
LINE
8
Layer 1
10
272.344000
20
72.037200
11
272.344000
21
70.555600
0
LINE
8
Layer 1
10
272.344000
20
70.555600
11
269.290000
21
70.555600
0
LINE
8
Layer 1
10
269.290000
20
70.555600
11
269.290000
21
69.144500
0
LINE
8
Layer 1
10
269.290000
20
69.144500
11
266.327000
21
69.144500
0
LINE
8
Layer 1
10
266.327000
20
69.144500
11
266.327000
21
70.555600
0
LINE
8
Layer 1
10
266.327000
20
70.555600
11
263.343000
21
70.555600
0
LINE
8
Layer 1
10
263.343000
20
70.555600
11
263.343000
21
69.144500
0
LINE
8
Layer 1
10
263.343000
20
69.144500
11
260.380000
21
69.144500
0
LINE
8
Layer 1
10
260.380000
20
69.144500
11
260.380000
21
70.555600
0
LINE
8
Layer 1
10
260.380000
20
70.555600
11
257.397000
21
70.555600
0
LINE
8
Layer 1
10
257.397000
20
70.555600
11
257.397000
21
69.144500
0
LINE
8
Layer 1
10
257.397000
20
69.144500
11
254.433000
21
69.144500
0
LINE
8
Layer 1
10
254.433000
20
69.144500
11
254.433000
21
70.555600
0
LINE
8
Layer 1
10
254.433000
20
70.555600
11
251.450000
21
70.555600
0
LINE
8
Layer 1
10
251.450000
20
70.555600
11
251.450000
21
69.144500
0
LINE
8
Layer 1
10
251.450000
20
69.144500
11
248.486000
21
69.144500
0
LINE
8
Layer 1
10
248.486000
20
69.144500
11
248.486000
21
70.555600
0
LINE
8
Layer 1
10
248.486000
20
70.555600
11
245.503000
21
70.555600
0
LINE
8
Layer 1
10
245.503000
20
70.555600
11
245.503000
21
69.144500
0
LINE
8
Layer 1
10
245.503000
20
69.144500
11
242.540000
21
69.144500
0
LINE
8
Layer 1
10
242.540000
20
69.144500
11
242.540000
21
70.555600
0
LINE
8
Layer 1
10
242.540000
20
70.555600
11
239.556000
21
70.555600
0
LINE
8
Layer 1
10
239.556000
20
70.555600
11
239.556000
21
69.144500
0
LINE
8
Layer 1
10
239.556000
20
69.144500
11
236.593000
21
69.144500
0
LINE
8
Layer 1
10
236.593000
20
69.144500
11
236.593000
21
70.555600
0
LINE
8
Layer 1
10
236.593000
20
70.555600
11
233.609000
21
70.555600
0
LINE
8
Layer 1
10
233.609000
20
70.555600
11
233.609000
21
69.144500
0
LINE
8
Layer 1
10
233.609000
20
69.144500
11
230.646000
21
69.144500
0
LINE
8
Layer 1
10
230.646000
20
69.144500
11
230.646000
21
70.555600
0
LINE
8
Layer 1
10
230.646000
20
70.555600
11
227.663000
21
70.555600
0
LINE
8
Layer 1
10
227.663000
20
70.555600
11
227.663000
21
69.144500
0
LINE
8
Layer 1
10
227.663000
20
69.144500
11
224.699000
21
69.144500
0
LINE
8
Layer 1
10
224.699000
20
69.144500
11
224.699000
21
70.555600
0
LINE
8
Layer 1
10
224.699000
20
70.555600
11
221.716000
21
70.555600
0
LINE
8
Layer 1
10
221.716000
20
70.555600
11
221.716000
21
69.144500
0
LINE
8
Layer 1
10
221.716000
20
69.144500
11
218.752000
21
69.144500
0
LINE
8
Layer 1
10
218.752000
20
69.144500
11
218.752000
21
70.555600
0
LINE
8
Layer 1
10
218.752000
20
70.555600
11
215.769000
21
70.555600
0
LINE
8
Layer 1
10
215.769000
20
70.555600
11
215.769000
21
69.144500
0
LINE
8
Layer 1
10
215.769000
20
69.144500
11
212.806000
21
69.144500
0
LINE
8
Layer 1
10
212.806000
20
69.144500
11
212.806000
21
70.555600
0
LINE
8
Layer 1
10
212.806000
20
70.555600
11
209.822000
21
70.555600
0
LINE
8
Layer 1
10
209.822000
20
70.555600
11
209.822000
21
69.144500
0
LINE
8
Layer 1
10
209.822000
20
69.144500
11
206.859000
21
69.144500
0
LINE
8
Layer 1
10
206.859000
20
69.144500
11
206.859000
21
70.555600
0
LINE
8
Layer 1
10
206.859000
20
70.555600
11
203.875000
21
70.555600
0
LINE
8
Layer 1
10
203.875000
20
70.555600
11
203.875000
21
69.144500
0
LINE
8
Layer 1
10
203.875000
20
69.144500
11
200.912000
21
69.144500
0
LINE
8
Layer 1
10
200.912000
20
69.144500
11
200.912000
21
70.555600
0
LINE
8
Layer 1
10
200.912000
20
70.555600
11
197.928000
21
70.555600
0
LINE
8
Layer 1
10
197.928000
20
70.555600
11
197.928000
21
69.144500
0
LINE
8
Layer 1
10
197.928000
20
69.144500
11
194.965000
21
69.144500
0
LINE
8
Layer 1
10
194.965000
20
69.144500
11
194.965000
21
70.555600
0
LINE
8
Layer 1
10
194.965000
20
70.555600
11
191.911000
21
70.555600
0
LINE
8
Layer 1
10
191.911000
20
70.555600
11
191.911000
21
72.037200
0
LINE
8
Layer 1
10
191.911000
20
72.037200
11
193.322000
21
72.037200
0
LINE
8
Layer 1
10
193.322000
20
72.037200
11
193.322000
21
74.718300
0
LINE
8
Layer 1
10
193.322000
20
74.718300
11
191.911000
21
74.718300
0
LINE
8
Layer 1
10
191.911000
20
74.718300
11
191.911000
21
77.681700
0
LINE
8
Layer 1
10
191.911000
20
77.681700
11
193.322000
21
77.681700
0
LINE
8
Layer 1
10
193.322000
20
77.681700
11
193.322000
21
80.362800
0
LINE
8
Layer 1
10
193.322000
20
80.362800
11
191.911000
21
80.362800
0
LINE
8
Layer 1
10
191.911000
20
80.362800
11
191.911000
21
83.255600
0
LINE
8
Layer 1
10
133.491000
20
81.844400
11
136.337000
21
81.844400
0
LINE
8
Layer 1
10
136.337000
20
81.844400
11
136.337000
21
83.255600
0
LINE
8
Layer 1
10
136.337000
20
83.255600
11
139.300000
21
83.255600
0
LINE
8
Layer 1
10
139.300000
20
83.255600
11
139.300000
21
81.844400
0
LINE
8
Layer 1
10
139.300000
20
81.844400
11
142.075000
21
81.844400
0
LINE
8
Layer 1
10
142.075000
20
81.844400
11
142.075000
21
83.255600
0
LINE
8
Layer 1
10
142.075000
20
83.255600
11
145.039000
21
83.255600
0
LINE
8
Layer 1
10
145.039000
20
83.255600
11
145.039000
21
81.844400
0
LINE
8
Layer 1
10
145.039000
20
81.844400
11
147.814000
21
81.844400
0
LINE
8
Layer 1
10
147.814000
20
81.844400
11
147.814000
21
83.255600
0
LINE
8
Layer 1
10
147.814000
20
83.255600
11
150.777000
21
83.255600
0
LINE
8
Layer 1
10
150.777000
20
83.255600
11
150.777000
21
81.844400
0
LINE
8
Layer 1
10
150.777000
20
81.844400
11
153.552000
21
81.844400
0
LINE
8
Layer 1
10
153.552000
20
81.844400
11
153.552000
21
83.255600
0
LINE
8
Layer 1
10
153.552000
20
83.255600
11
156.516000
21
83.255600
0
LINE
8
Layer 1
10
156.516000
20
83.255600
11
156.516000
21
81.844400
0
LINE
8
Layer 1
10
156.516000
20
81.844400
11
159.291000
21
81.844400
0
LINE
8
Layer 1
10
159.291000
20
81.844400
11
159.291000
21
83.255600
0
LINE
8
Layer 1
10
159.291000
20
83.255600
11
162.254000
21
83.255600
0
LINE
8
Layer 1
10
162.254000
20
83.255600
11
162.254000
21
81.844400
0
LINE
8
Layer 1
10
162.254000
20
81.844400
11
165.029000
21
81.844400
0
LINE
8
Layer 1
10
165.029000
20
81.844400
11
165.029000
21
83.255600
0
LINE
8
Layer 1
10
165.029000
20
83.255600
11
167.993000
21
83.255600
0
LINE
8
Layer 1
10
167.993000
20
83.255600
11
167.993000
21
81.844400
0
LINE
8
Layer 1
10
167.993000
20
81.844400
11
170.768000
21
81.844400
0
LINE
8
Layer 1
10
170.768000
20
81.844400
11
170.768000
21
83.255600
0
LINE
8
Layer 1
10
170.768000
20
83.255600
11
173.731000
21
83.255600
0
LINE
8
Layer 1
10
173.731000
20
83.255600
11
173.731000
21
81.844400
0
LINE
8
Layer 1
10
173.731000
20
81.844400
11
176.506000
21
81.844400
0
LINE
8
Layer 1
10
176.506000
20
81.844400
11
176.506000
21
83.255600
0
LINE
8
Layer 1
10
176.506000
20
83.255600
11
179.470000
21
83.255600
0
LINE
8
Layer 1
10
179.470000
20
83.255600
11
179.470000
21
81.844400
0
LINE
8
Layer 1
10
179.470000
20
81.844400
11
182.245000
21
81.844400
0
LINE
8
Layer 1
10
182.245000
20
81.844400
11
182.245000
21
83.255600
0
LINE
8
Layer 1
10
182.245000
20
83.255600
11
185.208000
21
83.255600
0
LINE
8
Layer 1
10
185.208000
20
83.255600
11
185.208000
21
81.844400
0
LINE
8
Layer 1
10
185.208000
20
81.844400
11
187.983000
21
81.844400
0
LINE
8
Layer 1
10
187.983000
20
81.844400
11
187.983000
21
83.255600
0
LINE
8
Layer 1
10
187.983000
20
83.255600
11
190.947000
21
83.255600
0
LINE
8
Layer 1
10
190.947000
20
83.255600
11
190.947000
21
81.844400
0
LINE
8
Layer 1
10
190.947000
20
81.844400
11
193.722000
21
81.844400
0
LINE
8
Layer 1
10
193.722000
20
81.844400
11
193.722000
21
83.255600
0
LINE
8
Layer 1
10
193.722000
20
83.255600
11
196.685000
21
83.255600
0
LINE
8
Layer 1
10
196.685000
20
83.255600
11
196.685000
21
81.844400
0
LINE
8
Layer 1
10
196.685000
20
81.844400
11
199.460000
21
81.844400
0
LINE
8
Layer 1
10
199.460000
20
81.844400
11
199.460000
21
83.255600
0
LINE
8
Layer 1
10
199.460000
20
83.255600
11
202.424000
21
83.255600
0
LINE
8
Layer 1
10
202.424000
20
83.255600
11
202.424000
21
81.844400
0
LINE
8
Layer 1
10
202.424000
20
81.844400
11
205.199000
21
81.844400
0
LINE
8
Layer 1
10
205.199000
20
81.844400
11
205.199000
21
83.255600
0
LINE
8
Layer 1
10
205.199000
20
83.255600
11
208.162000
21
83.255600
0
LINE
8
Layer 1
10
208.162000
20
83.255600
11
208.162000
21
81.844400
0
LINE
8
Layer 1
10
208.162000
20
81.844400
11
210.938000
21
81.844400
0
LINE
8
Layer 1
10
210.938000
20
81.844400
11
210.938000
21
83.255600
0
LINE
8
Layer 1
10
210.938000
20
83.255600
11
213.901000
21
83.255600
0
LINE
8
Layer 1
10
213.901000
20
83.255600
11
213.901000
21
81.844400
0
LINE
8
Layer 1
10
213.901000
20
81.844400
11
216.746000
21
81.844400
0
LINE
8
Layer 1
10
216.746000
20
81.844400
11
216.746000
21
79.304400
0
LINE
8
Layer 1
10
216.746000
20
79.304400
11
215.335000
21
79.304400
0
LINE
8
Layer 1
10
215.335000
20
79.304400
11
215.335000
21
76.623300
0
LINE
8
Layer 1
10
215.335000
20
76.623300
11
216.746000
21
76.623300
0
LINE
8
Layer 1
10
216.746000
20
76.623300
11
216.746000
21
72.601700
0
LINE
8
Layer 1
10
216.746000
20
72.601700
11
215.335000
21
72.601700
0
LINE
8
Layer 1
10
215.335000
20
72.601700
11
215.335000
21
69.920600
0
LINE
8
Layer 1
10
215.335000
20
69.920600
11
216.746000
21
69.920600
0
LINE
8
Layer 1
10
216.746000
20
69.920600
11
216.746000
21
65.898900
0
LINE
8
Layer 1
10
216.746000
20
65.898900
11
215.335000
21
65.898900
0
LINE
8
Layer 1
10
215.335000
20
65.898900
11
215.335000
21
63.217800
0
LINE
8
Layer 1
10
215.335000
20
63.217800
11
216.746000
21
63.217800
0
LINE
8
Layer 1
10
216.746000
20
63.217800
11
216.746000
21
60.677800
0
LINE
8
Layer 1
10
216.746000
20
60.677800
11
213.901000
21
60.677800
0
LINE
8
Layer 1
10
213.901000
20
60.677800
11
213.901000
21
60.677800
0
LINE
8
Layer 1
10
213.901000
20
60.677800
11
210.938000
21
60.677800
0
LINE
8
Layer 1
10
210.938000
20
60.677800
11
210.938000
21
60.677800
0
LINE
8
Layer 1
10
210.938000
20
60.677800
11
208.162000
21
60.677800
0
LINE
8
Layer 1
10
208.162000
20
60.677800
11
208.162000
21
60.677800
0
LINE
8
Layer 1
10
208.162000
20
60.677800
11
205.199000
21
60.677800
0
LINE
8
Layer 1
10
205.199000
20
60.677800
11
205.199000
21
60.677800
0
LINE
8
Layer 1
10
205.199000
20
60.677800
11
202.424000
21
60.677800
0
LINE
8
Layer 1
10
202.424000
20
60.677800
11
202.424000
21
60.677800
0
LINE
8
Layer 1
10
202.424000
20
60.677800
11
199.460000
21
60.677800
0
LINE
8
Layer 1
10
199.460000
20
60.677800
11
199.460000
21
60.677800
0
LINE
8
Layer 1
10
199.460000
20
60.677800
11
196.685000
21
60.677800
0
LINE
8
Layer 1
10
196.685000
20
60.677800
11
196.685000
21
60.677800
0
LINE
8
Layer 1
10
196.685000
20
60.677800
11
193.722000
21
60.677800
0
LINE
8
Layer 1
10
193.722000
20
60.677800
11
193.722000
21
60.677800
0
LINE
8
Layer 1
10
193.722000
20
60.677800
11
190.947000
21
60.677800
0
LINE
8
Layer 1
10
190.947000
20
60.677800
11
190.947000
21
60.677800
0
LINE
8
Layer 1
10
190.947000
20
60.677800
11
187.983000
21
60.677800
0
LINE
8
Layer 1
10
187.983000
20
60.677800
11
187.983000
21
60.677800
0
LINE
8
Layer 1
10
187.983000
20
60.677800
11
185.208000
21
60.677800
0
LINE
8
Layer 1
10
185.208000
20
60.677800
11
185.208000
21
60.677800
0
LINE
8
Layer 1
10
185.208000
20
60.677800
11
182.245000
21
60.677800
0
LINE
8
Layer 1
10
182.245000
20
60.677800
11
182.245000
21
60.677800
0
LINE
8
Layer 1
10
182.245000
20
60.677800
11
179.470000
21
60.677800
0
LINE
8
Layer 1
10
179.470000
20
60.677800
11
179.470000
21
60.677800
0
LINE
8
Layer 1
10
179.470000
20
60.677800
11
176.506000
21
60.677800
0
LINE
8
Layer 1
10
176.506000
20
60.677800
11
176.506000
21
60.677800
0
LINE
8
Layer 1
10
176.506000
20
60.677800
11
173.731000
21
60.677800
0
LINE
8
Layer 1
10
173.731000
20
60.677800
11
173.731000
21
60.677800
0
LINE
8
Layer 1
10
173.731000
20
60.677800
11
170.768000
21
60.677800
0
LINE
8
Layer 1
10
170.768000
20
60.677800
11
170.768000
21
60.677800
0
LINE
8
Layer 1
10
170.768000
20
60.677800
11
167.993000
21
60.677800
0
LINE
8
Layer 1
10
167.993000
20
60.677800
11
167.993000
21
60.677800
0
LINE
8
Layer 1
10
167.993000
20
60.677800
11
165.029000
21
60.677800
0
LINE
8
Layer 1
10
165.029000
20
60.677800
11
165.029000
21
60.677800
0
LINE
8
Layer 1
10
165.029000
20
60.677800
11
162.254000
21
60.677800
0
LINE
8
Layer 1
10
162.254000
20
60.677800
11
162.254000
21
60.677800
0
LINE
8
Layer 1
10
162.254000
20
60.677800
11
159.291000
21
60.677800
0
LINE
8
Layer 1
10
159.291000
20
60.677800
11
159.291000
21
60.677800
0
LINE
8
Layer 1
10
159.291000
20
60.677800
11
156.516000
21
60.677800
0
LINE
8
Layer 1
10
156.516000
20
60.677800
11
156.516000
21
60.677800
0
LINE
8
Layer 1
10
156.516000
20
60.677800
11
153.552000
21
60.677800
0
LINE
8
Layer 1
10
153.552000
20
60.677800
11
153.552000
21
60.677800
0
LINE
8
Layer 1
10
153.552000
20
60.677800
11
150.777000
21
60.677800
0
LINE
8
Layer 1
10
150.777000
20
60.677800
11
150.777000
21
60.677800
0
LINE
8
Layer 1
10
150.777000
20
60.677800
11
147.814000
21
60.677800
0
LINE
8
Layer 1
10
147.814000
20
60.677800
11
147.814000
21
60.677800
0
LINE
8
Layer 1
10
147.814000
20
60.677800
11
145.039000
21
60.677800
0
LINE
8
Layer 1
10
145.039000
20
60.677800
11
145.039000
21
60.677800
0
LINE
8
Layer 1
10
145.039000
20
60.677800
11
142.075000
21
60.677800
0
LINE
8
Layer 1
10
142.075000
20
60.677800
11
142.075000
21
60.677800
0
LINE
8
Layer 1
10
142.075000
20
60.677800
11
139.300000
21
60.677800
0
LINE
8
Layer 1
10
139.300000
20
60.677800
11
139.300000
21
60.677800
0
LINE
8
Layer 1
10
139.300000
20
60.677800
11
136.337000
21
60.677800
0
LINE
8
Layer 1
10
136.337000
20
60.677800
11
136.337000
21
60.677800
0
LINE
8
Layer 1
10
136.337000
20
60.677800
11
133.491000
21
60.677800
0
LINE
8
Layer 1
10
133.491000
20
60.677800
11
133.491000
21
63.217800
0
LINE
8
Layer 1
10
133.491000
20
63.217800
11
134.902000
21
63.217800
0
LINE
8
Layer 1
10
134.902000
20
63.217800
11
134.902000
21
65.898900
0
LINE
8
Layer 1
10
134.902000
20
65.898900
11
133.491000
21
65.898900
0
LINE
8
Layer 1
10
133.491000
20
65.898900
11
133.491000
21
69.920600
0
LINE
8
Layer 1
10
133.491000
20
69.920600
11
134.902000
21
69.920600
0
LINE
8
Layer 1
10
134.902000
20
69.920600
11
134.902000
21
72.601700
0
LINE
8
Layer 1
10
134.902000
20
72.601700
11
133.491000
21
72.601700
0
LINE
8
Layer 1
10
133.491000
20
72.601700
11
133.491000
21
76.623300
0
LINE
8
Layer 1
10
133.491000
20
76.623300
11
134.902000
21
76.623300
0
LINE
8
Layer 1
10
134.902000
20
76.623300
11
134.902000
21
79.304400
0
LINE
8
Layer 1
10
134.902000
20
79.304400
11
133.491000
21
79.304400
0
LINE
8
Layer 1
10
133.491000
20
79.304400
11
133.491000
21
81.844400
0
LINE
8
Layer 1
10
85.795500
20
81.844400
11
88.194400
21
81.844400
0
LINE
8
Layer 1
10
88.194400
20
81.844400
11
88.194400
21
83.255600
0
LINE
8
Layer 1
10
88.194400
20
83.255600
11
91.157700
21
83.255600
0
LINE
8
Layer 1
10
91.157700
20
83.255600
11
91.157700
21
81.844400
0
LINE
8
Layer 1
10
91.157700
20
81.844400
11
94.897100
21
81.844400
0
LINE
8
Layer 1
10
94.897100
20
81.844400
11
94.897100
21
83.255600
0
LINE
8
Layer 1
10
94.897100
20
83.255600
11
97.860500
21
83.255600
0
LINE
8
Layer 1
10
97.860500
20
83.255600
11
97.860500
21
81.844400
0
LINE
8
Layer 1
10
97.860500
20
81.844400
11
101.600000
21
81.844400
0
LINE
8
Layer 1
10
101.600000
20
81.844400
11
101.600000
21
83.255600
0
LINE
8
Layer 1
10
101.600000
20
83.255600
11
104.563000
21
83.255600
0
LINE
8
Layer 1
10
104.563000
20
83.255600
11
104.563000
21
81.844400
0
LINE
8
Layer 1
10
104.563000
20
81.844400
11
106.962000
21
81.844400
0
LINE
8
Layer 1
10
106.962000
20
81.844400
11
106.962000
21
79.974700
0
LINE
8
Layer 1
10
106.962000
20
79.974700
11
108.373000
21
79.974700
0
LINE
8
Layer 1
10
108.373000
20
79.974700
11
108.373000
21
77.011400
0
LINE
8
Layer 1
10
108.373000
20
77.011400
11
106.962000
21
77.011400
0
LINE
8
Layer 1
10
106.962000
20
77.011400
11
106.962000
21
73.801100
0
LINE
8
Layer 1
10
106.962000
20
73.801100
11
108.373000
21
73.801100
0
LINE
8
Layer 1
10
108.373000
20
73.801100
11
108.373000
21
70.837800
0
LINE
8
Layer 1
10
108.373000
20
70.837800
11
106.962000
21
70.837800
0
LINE
8
Layer 1
10
106.962000
20
70.837800
11
106.962000
21
67.627500
0
LINE
8
Layer 1
10
106.962000
20
67.627500
11
108.373000
21
67.627500
0
LINE
8
Layer 1
10
108.373000
20
67.627500
11
108.373000
21
64.664200
0
LINE
8
Layer 1
10
108.373000
20
64.664200
11
106.962000
21
64.664200
0
LINE
8
Layer 1
10
106.962000
20
64.664200
11
106.962000
21
61.453900
0
LINE
8
Layer 1
10
106.962000
20
61.453900
11
108.373000
21
61.453900
0
LINE
8
Layer 1
10
108.373000
20
61.453900
11
108.373000
21
58.490600
0
LINE
8
Layer 1
10
108.373000
20
58.490600
11
106.962000
21
58.490600
0
LINE
8
Layer 1
10
106.962000
20
58.490600
11
106.962000
21
55.280300
0
LINE
8
Layer 1
10
106.962000
20
55.280300
11
108.373000
21
55.280300
0
LINE
8
Layer 1
10
108.373000
20
55.280300
11
108.373000
21
52.317000
0
LINE
8
Layer 1
10
108.373000
20
52.317000
11
106.962000
21
52.317000
0
LINE
8
Layer 1
10
106.962000
20
52.317000
11
106.962000
21
49.106700
0
LINE
8
Layer 1
10
106.962000
20
49.106700
11
108.373000
21
49.106700
0
LINE
8
Layer 1
10
108.373000
20
49.106700
11
108.373000
21
46.143400
0
LINE
8
Layer 1
10
108.373000
20
46.143400
11
106.962000
21
46.143400
0
LINE
8
Layer 1
10
106.962000
20
46.143400
11
106.962000
21
42.933100
0
LINE
8
Layer 1
10
106.962000
20
42.933100
11
108.373000
21
42.933100
0
LINE
8
Layer 1
10
108.373000
20
42.933100
11
108.373000
21
39.969800
0
LINE
8
Layer 1
10
108.373000
20
39.969800
11
106.962000
21
39.969800
0
LINE
8
Layer 1
10
106.962000
20
39.969800
11
106.962000
21
38.100000
0
LINE
8
Layer 1
10
106.962000
20
38.100000
11
104.563000
21
38.100000
0
LINE
8
Layer 1
10
104.563000
20
38.100000
11
104.563000
21
36.688900
0
LINE
8
Layer 1
10
104.563000
20
36.688900
11
101.600000
21
36.688900
0
LINE
8
Layer 1
10
101.600000
20
36.688900
11
101.600000
21
38.100000
0
LINE
8
Layer 1
10
101.600000
20
38.100000
11
97.860500
21
38.100000
0
LINE
8
Layer 1
10
97.860500
20
38.100000
11
97.860500
21
36.688900
0
LINE
8
Layer 1
10
97.860500
20
36.688900
11
94.897100
21
36.688900
0
LINE
8
Layer 1
10
94.897100
20
36.688900
11
94.897100
21
38.100000
0
LINE
8
Layer 1
10
94.897100
20
38.100000
11
91.157700
21
38.100000
0
LINE
8
Layer 1
10
91.157700
20
38.100000
11
91.157700
21
36.688900
0
LINE
8
Layer 1
10
91.157700
20
36.688900
11
88.194400
21
36.688900
0
LINE
8
Layer 1
10
88.194400
20
36.688900
11
88.194400
21
38.100000
0
LINE
8
Layer 1
10
88.194400
20
38.100000
11
85.795500
21
38.100000
0
LINE
8
Layer 1
10
85.795500
20
38.100000
11
85.795500
21
39.969800
0
LINE
8
Layer 1
10
85.795500
20
39.969800
11
85.795500
21
39.969800
0
LINE
8
Layer 1
10
85.795500
20
39.969800
11
85.795500
21
42.933100
0
LINE
8
Layer 1
10
85.795500
20
42.933100
11
85.795500
21
42.933100
0
LINE
8
Layer 1
10
85.795500
20
42.933100
11
85.795500
21
46.143400
0
LINE
8
Layer 1
10
85.795500
20
46.143400
11
85.795500
21
46.143400
0
LINE
8
Layer 1
10
85.795500
20
46.143400
11
85.795500
21
49.106700
0
LINE
8
Layer 1
10
85.795500
20
49.106700
11
85.795500
21
49.106700
0
LINE
8
Layer 1
10
85.795500
20
49.106700
11
85.795500
21
52.317000
0
LINE
8
Layer 1
10
85.795500
20
52.317000
11
85.795500
21
52.317000
0
LINE
8
Layer 1
10
85.795500
20
52.317000
11
85.795500
21
55.280300
0
LINE
8
Layer 1
10
85.795500
20
55.280300
11
85.795500
21
55.280300
0
LINE
8
Layer 1
10
85.795500
20
55.280300
11
85.795500
21
58.490600
0
LINE
8
Layer 1
10
85.795500
20
58.490600
11
85.795500
21
58.490600
0
LINE
8
Layer 1
10
85.795500
20
58.490600
11
85.795500
21
61.453900
0
LINE
8
Layer 1
10
85.795500
20
61.453900
11
85.795500
21
61.453900
0
LINE
8
Layer 1
10
85.795500
20
61.453900
11
85.795500
21
64.664200
0
LINE
8
Layer 1
10
85.795500
20
64.664200
11
85.795500
21
64.664200
0
LINE
8
Layer 1
10
85.795500
20
64.664200
11
85.795500
21
67.627500
0
LINE
8
Layer 1
10
85.795500
20
67.627500
11
85.795500
21
67.627500
0
LINE
8
Layer 1
10
85.795500
20
67.627500
11
85.795500
21
70.837800
0
LINE
8
Layer 1
10
85.795500
20
70.837800
11
85.795500
21
70.837800
0
LINE
8
Layer 1
10
85.795500
20
70.837800
11
85.795500
21
73.801100
0
LINE
8
Layer 1
10
85.795500
20
73.801100
11
85.795500
21
73.801100
0
LINE
8
Layer 1
10
85.795500
20
73.801100
11
85.795500
21
77.011400
0
LINE
8
Layer 1
10
85.795500
20
77.011400
11
85.795500
21
77.011400
0
LINE
8
Layer 1
10
85.795500
20
77.011400
11
85.795500
21
79.974700
0
LINE
8
Layer 1
10
85.795500
20
79.974700
11
85.795500
21
79.974700
0
LINE
8
Layer 1
10
85.795500
20
79.974700
11
85.795500
21
81.844400
0
LINE
8
Layer 1
10
0.564444
20
83.255600
11
3.551280
21
83.255600
0
LINE
8
Layer 1
10
3.551280
20
83.255600
11
3.551280
21
81.844400
0
LINE
8
Layer 1
10
3.551280
20
81.844400
11
6.232390
21
81.844400
0
LINE
8
Layer 1
10
6.232390
20
81.844400
11
6.232390
21
83.255600
0
LINE
8
Layer 1
10
6.232390
20
83.255600
11
9.289820
21
83.255600
0
LINE
8
Layer 1
10
9.289820
20
83.255600
11
9.289820
21
81.844400
0
LINE
8
Layer 1
10
9.289820
20
81.844400
11
11.970900
21
81.844400
0
LINE
8
Layer 1
10
11.970900
20
81.844400
11
11.970900
21
83.255600
0
LINE
8
Layer 1
10
11.970900
20
83.255600
11
15.028300
21
83.255600
0
LINE
8
Layer 1
10
15.028300
20
83.255600
11
15.028300
21
81.844400
0
LINE
8
Layer 1
10
15.028300
20
81.844400
11
17.709400
21
81.844400
0
LINE
8
Layer 1
10
17.709400
20
81.844400
11
17.709400
21
83.255600
0
LINE
8
Layer 1
10
17.709400
20
83.255600
11
20.766800
21
83.255600
0
LINE
8
Layer 1
10
20.766800
20
83.255600
11
20.766800
21
81.844400
0
LINE
8
Layer 1
10
20.766800
20
81.844400
11
23.447900
21
81.844400
0
LINE
8
Layer 1
10
23.447900
20
81.844400
11
23.447900
21
83.255600
0
LINE
8
Layer 1
10
23.447900
20
83.255600
11
26.505400
21
83.255600
0
LINE
8
Layer 1
10
26.505400
20
83.255600
11
26.505400
21
81.844400
0
LINE
8
Layer 1
10
26.505400
20
81.844400
11
29.186600
21
81.844400
0
LINE
8
Layer 1
10
29.186600
20
81.844400
11
29.186600
21
83.255600
0
LINE
8
Layer 1
10
29.186600
20
83.255600
11
32.243900
21
83.255600
0
LINE
8
Layer 1
10
32.243900
20
83.255600
11
32.243900
21
81.844400
0
LINE
8
Layer 1
10
32.243900
20
81.844400
11
34.925000
21
81.844400
0
LINE
8
Layer 1
10
34.925000
20
81.844400
11
34.925000
21
83.255600
0
LINE
8
Layer 1
10
34.925000
20
83.255600
11
37.982300
21
83.255600
0
LINE
8
Layer 1
10
37.982300
20
83.255600
11
37.982300
21
81.844400
0
LINE
8
Layer 1
10
37.982300
20
81.844400
11
40.663400
21
81.844400
0
LINE
8
Layer 1
10
40.663400
20
81.844400
11
40.663400
21
83.255600
0
LINE
8
Layer 1
10
40.663400
20
83.255600
11
43.721000
21
83.255600
0
LINE
8
Layer 1
10
43.721000
20
83.255600
11
43.721000
21
81.844400
0
LINE
8
Layer 1
10
43.721000
20
81.844400
11
46.402100
21
81.844400
0
LINE
8
Layer 1
10
46.402100
20
81.844400
11
46.402100
21
83.255600
0
LINE
8
Layer 1
10
46.402100
20
83.255600
11
49.459400
21
83.255600
0
LINE
8
Layer 1
10
49.459400
20
83.255600
11
49.459400
21
81.844400
0
LINE
8
Layer 1
10
49.459400
20
81.844400
11
52.140500
21
81.844400
0
LINE
8
Layer 1
10
52.140500
20
81.844400
11
52.140500
21
83.255600
0
LINE
8
Layer 1
10
52.140500
20
83.255600
11
55.197800
21
83.255600
0
LINE
8
Layer 1
10
55.197800
20
83.255600
11
55.197800
21
81.844400
0
LINE
8
Layer 1
10
55.197800
20
81.844400
11
57.878900
21
81.844400
0
LINE
8
Layer 1
10
57.878900
20
81.844400
11
57.878900
21
83.255600
0
LINE
8
Layer 1
10
57.878900
20
83.255600
11
60.936500
21
83.255600
0
LINE
8
Layer 1
10
60.936500
20
83.255600
11
60.936500
21
81.844400
0
LINE
8
Layer 1
10
60.936500
20
81.844400
11
63.617600
21
81.844400
0
LINE
8
Layer 1
10
63.617600
20
81.844400
11
63.617600
21
83.255600
0
LINE
8
Layer 1
10
63.617600
20
83.255600
11
66.674900
21
83.255600
0
LINE
8
Layer 1
10
66.674900
20
83.255600
11
66.674900
21
81.844400
0
LINE
8
Layer 1
10
66.674900
20
81.844400
11
69.356100
21
81.844400
0
LINE
8
Layer 1
10
69.356100
20
81.844400
11
69.356100
21
83.255600
0
LINE
8
Layer 1
10
69.356100
20
83.255600
11
72.413400
21
83.255600
0
LINE
8
Layer 1
10
72.413400
20
83.255600
11
72.413400
21
81.844400
0
LINE
8
Layer 1
10
72.413400
20
81.844400
11
75.094500
21
81.844400
0
LINE
8
Layer 1
10
75.094500
20
81.844400
11
75.094500
21
83.255600
0
LINE
8
Layer 1
10
75.094500
20
83.255600
11
78.152100
21
83.255600
0
LINE
8
Layer 1
10
78.152100
20
83.255600
11
78.152100
21
81.844400
0
LINE
8
Layer 1
10
78.152100
20
81.844400
11
80.833200
21
81.844400
0
LINE
8
Layer 1
10
80.833200
20
81.844400
11
80.833200
21
83.255600
0
LINE
8
Layer 1
10
80.833200
20
83.255600
11
83.819900
21
83.255600
0
LINE
8
Layer 1
10
83.819900
20
83.255600
11
83.819900
21
79.833600
0
LINE
8
Layer 1
10
83.819900
20
79.833600
11
82.408800
21
79.833600
0
LINE
8
Layer 1
10
82.408800
20
79.833600
11
82.408800
21
77.152500
0
LINE
8
Layer 1
10
82.408800
20
77.152500
11
83.819900
21
77.152500
0
LINE
8
Layer 1
10
83.819900
20
77.152500
11
83.819900
21
73.660000
0
LINE
8
Layer 1
10
83.819900
20
73.660000
11
82.408800
21
73.660000
0
LINE
8
Layer 1
10
82.408800
20
73.660000
11
82.408800
21
70.978900
0
LINE
8
Layer 1
10
82.408800
20
70.978900
11
83.819900
21
70.978900
0
LINE
8
Layer 1
10
83.819900
20
70.978900
11
83.819900
21
67.486400
0
LINE
8
Layer 1
10
83.819900
20
67.486400
11
82.408800
21
67.486400
0
LINE
8
Layer 1
10
82.408800
20
67.486400
11
82.408800
21
64.805300
0
LINE
8
Layer 1
10
82.408800
20
64.805300
11
83.819900
21
64.805300
0
LINE
8
Layer 1
10
83.819900
20
64.805300
11
83.819900
21
61.312800
0
LINE
8
Layer 1
10
83.819900
20
61.312800
11
82.408800
21
61.312800
0
LINE
8
Layer 1
10
82.408800
20
61.312800
11
82.408800
21
58.631700
0
LINE
8
Layer 1
10
82.408800
20
58.631700
11
83.819900
21
58.631700
0
LINE
8
Layer 1
10
83.819900
20
58.631700
11
83.819900
21
55.139200
0
LINE
8
Layer 1
10
83.819900
20
55.139200
11
82.408800
21
55.139200
0
LINE
8
Layer 1
10
82.408800
20
55.139200
11
82.408800
21
52.458100
0
LINE
8
Layer 1
10
82.408800
20
52.458100
11
83.819900
21
52.458100
0
LINE
8
Layer 1
10
83.819900
20
52.458100
11
83.819900
21
48.965600
0
LINE
8
Layer 1
10
83.819900
20
48.965600
11
82.408800
21
48.965600
0
LINE
8
Layer 1
10
82.408800
20
48.965600
11
82.408800
21
46.284500
0
LINE
8
Layer 1
10
82.408800
20
46.284500
11
83.819900
21
46.284500
0
LINE
8
Layer 1
10
83.819900
20
46.284500
11
83.819900
21
42.792000
0
LINE
8
Layer 1
10
83.819900
20
42.792000
11
82.408800
21
42.792000
0
LINE
8
Layer 1
10
82.408800
20
42.792000
11
82.408800
21
40.110900
0
LINE
8
Layer 1
10
82.408800
20
40.110900
11
83.819900
21
40.110900
0
LINE
8
Layer 1
10
83.819900
20
40.110900
11
83.819900
21
36.688900
0
LINE
8
Layer 1
10
83.819900
20
36.688900
11
80.833200
21
36.688900
0
LINE
8
Layer 1
10
80.833200
20
36.688900
11
80.833200
21
38.100000
0
LINE
8
Layer 1
10
80.833200
20
38.100000
11
78.152100
21
38.100000
0
LINE
8
Layer 1
10
78.152100
20
38.100000
11
78.152100
21
36.688900
0
LINE
8
Layer 1
10
78.152100
20
36.688900
11
75.094500
21
36.688900
0
LINE
8
Layer 1
10
75.094500
20
36.688900
11
75.094500
21
38.100000
0
LINE
8
Layer 1
10
75.094500
20
38.100000
11
72.413400
21
38.100000
0
LINE
8
Layer 1
10
72.413400
20
38.100000
11
72.413400
21
36.688900
0
LINE
8
Layer 1
10
72.413400
20
36.688900
11
69.356100
21
36.688900
0
LINE
8
Layer 1
10
69.356100
20
36.688900
11
69.356100
21
38.100000
0
LINE
8
Layer 1
10
69.356100
20
38.100000
11
66.674900
21
38.100000
0
LINE
8
Layer 1
10
66.674900
20
38.100000
11
66.674900
21
36.688900
0
LINE
8
Layer 1
10
66.674900
20
36.688900
11
63.617600
21
36.688900
0
LINE
8
Layer 1
10
63.617600
20
36.688900
11
63.617600
21
38.100000
0
LINE
8
Layer 1
10
63.617600
20
38.100000
11
60.936500
21
38.100000
0
LINE
8
Layer 1
10
60.936500
20
38.100000
11
60.936500
21
36.688900
0
LINE
8
Layer 1
10
60.936500
20
36.688900
11
57.878900
21
36.688900
0
LINE
8
Layer 1
10
57.878900
20
36.688900
11
57.878900
21
38.100000
0
LINE
8
Layer 1
10
57.878900
20
38.100000
11
55.197800
21
38.100000
0
LINE
8
Layer 1
10
55.197800
20
38.100000
11
55.197800
21
36.688900
0
LINE
8
Layer 1
10
55.197800
20
36.688900
11
52.140500
21
36.688900
0
LINE
8
Layer 1
10
52.140500
20
36.688900
11
52.140500
21
38.100000
0
LINE
8
Layer 1
10
52.140500
20
38.100000
11
49.459400
21
38.100000
0
LINE
8
Layer 1
10
49.459400
20
38.100000
11
49.459400
21
36.688900
0
LINE
8
Layer 1
10
49.459400
20
36.688900
11
46.402100
21
36.688900
0
LINE
8
Layer 1
10
46.402100
20
36.688900
11
46.402100
21
38.100000
0
LINE
8
Layer 1
10
46.402100
20
38.100000
11
43.721000
21
38.100000
0
LINE
8
Layer 1
10
43.721000
20
38.100000
11
43.721000
21
36.688900
0
LINE
8
Layer 1
10
43.721000
20
36.688900
11
40.663400
21
36.688900
0
LINE
8
Layer 1
10
40.663400
20
36.688900
11
40.663400
21
38.100000
0
LINE
8
Layer 1
10
40.663400
20
38.100000
11
37.982300
21
38.100000
0
LINE
8
Layer 1
10
37.982300
20
38.100000
11
37.982300
21
36.688900
0
LINE
8
Layer 1
10
37.982300
20
36.688900
11
34.925000
21
36.688900
0
LINE
8
Layer 1
10
34.925000
20
36.688900
11
34.925000
21
38.100000
0
LINE
8
Layer 1
10
34.925000
20
38.100000
11
32.243900
21
38.100000
0
LINE
8
Layer 1
10
32.243900
20
38.100000
11
32.243900
21
36.688900
0
LINE
8
Layer 1
10
32.243900
20
36.688900
11
29.186600
21
36.688900
0
LINE
8
Layer 1
10
29.186600
20
36.688900
11
29.186600
21
38.100000
0
LINE
8
Layer 1
10
29.186600
20
38.100000
11
26.505400
21
38.100000
0
LINE
8
Layer 1
10
26.505400
20
38.100000
11
26.505400
21
36.688900
0
LINE
8
Layer 1
10
26.505400
20
36.688900
11
23.447900
21
36.688900
0
LINE
8
Layer 1
10
23.447900
20
36.688900
11
23.447900
21
38.100000
0
LINE
8
Layer 1
10
23.447900
20
38.100000
11
20.766800
21
38.100000
0
LINE
8
Layer 1
10
20.766800
20
38.100000
11
20.766800
21
36.688900
0
LINE
8
Layer 1
10
20.766800
20
36.688900
11
17.709400
21
36.688900
0
LINE
8
Layer 1
10
17.709400
20
36.688900
11
17.709400
21
38.100000
0
LINE
8
Layer 1
10
17.709400
20
38.100000
11
15.028300
21
38.100000
0
LINE
8
Layer 1
10
15.028300
20
38.100000
11
15.028300
21
36.688900
0
LINE
8
Layer 1
10
15.028300
20
36.688900
11
11.970900
21
36.688900
0
LINE
8
Layer 1
10
11.970900
20
36.688900
11
11.970900
21
38.100000
0
LINE
8
Layer 1
10
11.970900
20
38.100000
11
9.289820
21
38.100000
0
LINE
8
Layer 1
10
9.289820
20
38.100000
11
9.289820
21
36.688900
0
LINE
8
Layer 1
10
9.289820
20
36.688900
11
6.232390
21
36.688900
0
LINE
8
Layer 1
10
6.232390
20
36.688900
11
6.232390
21
38.100000
0
LINE
8
Layer 1
10
6.232390
20
38.100000
11
3.551280
21
38.100000
0
LINE
8
Layer 1
10
3.551280
20
38.100000
11
3.551280
21
36.688900
0
LINE
8
Layer 1
10
3.551280
20
36.688900
11
0.564444
21
36.688900
0
LINE
8
Layer 1
10
0.564444
20
36.688900
11
0.564444
21
40.110900
0
LINE
8
Layer 1
10
0.564444
20
40.110900
11
1.975550
21
40.110900
0
LINE
8
Layer 1
10
1.975550
20
40.110900
11
1.975550
21
42.792000
0
LINE
8
Layer 1
10
1.975550
20
42.792000
11
0.564444
21
42.792000
0
LINE
8
Layer 1
10
0.564444
20
42.792000
11
0.564444
21
46.284500
0
LINE
8
Layer 1
10
0.564444
20
46.284500
11
1.975550
21
46.284500
0
LINE
8
Layer 1
10
1.975550
20
46.284500
11
1.975550
21
48.965600
0
LINE
8
Layer 1
10
1.975550
20
48.965600
11
0.564444
21
48.965600
0
LINE
8
Layer 1
10
0.564444
20
48.965600
11
0.564444
21
52.458100
0
LINE
8
Layer 1
10
0.564444
20
52.458100
11
1.975550
21
52.458100
0
LINE
8
Layer 1
10
1.975550
20
52.458100
11
1.975550
21
55.139200
0
LINE
8
Layer 1
10
1.975550
20
55.139200
11
0.564444
21
55.139200
0
LINE
8
Layer 1
10
0.564444
20
55.139200
11
0.564444
21
58.631700
0
LINE
8
Layer 1
10
0.564444
20
58.631700
11
1.975550
21
58.631700
0
LINE
8
Layer 1
10
1.975550
20
58.631700
11
1.975550
21
61.312800
0
LINE
8
Layer 1
10
1.975550
20
61.312800
11
0.564444
21
61.312800
0
LINE
8
Layer 1
10
0.564444
20
61.312800
11
0.564444
21
64.805300
0
LINE
8
Layer 1
10
0.564444
20
64.805300
11
1.975550
21
64.805300
0
LINE
8
Layer 1
10
1.975550
20
64.805300
11
1.975550
21
67.486400
0
LINE
8
Layer 1
10
1.975550
20
67.486400
11
0.564444
21
67.486400
0
LINE
8
Layer 1
10
0.564444
20
67.486400
11
0.564444
21
70.978900
0
LINE
8
Layer 1
10
0.564444
20
70.978900
11
1.975550
21
70.978900
0
LINE
8
Layer 1
10
1.975550
20
70.978900
11
1.975550
21
73.660000
0
LINE
8
Layer 1
10
1.975550
20
73.660000
11
0.564444
21
73.660000
0
LINE
8
Layer 1
10
0.564444
20
73.660000
11
0.564444
21
77.152500
0
LINE
8
Layer 1
10
0.564444
20
77.152500
11
1.975550
21
77.152500
0
LINE
8
Layer 1
10
1.975550
20
77.152500
11
1.975550
21
79.833600
0
LINE
8
Layer 1
10
1.975550
20
79.833600
11
0.564444
21
79.833600
0
LINE
8
Layer 1
10
0.564444
20
79.833600
11
0.564444
21
83.255600
0
LINE
8
Layer 1
10
110.349000
20
81.844400
11
112.748000
21
81.844400
0
LINE
8
Layer 1
10
112.748000
20
81.844400
11
112.748000
21
83.255600
0
LINE
8
Layer 1
10
112.748000
20
83.255600
11
115.711000
21
83.255600
0
LINE
8
Layer 1
10
115.711000
20
83.255600
11
115.711000
21
81.844400
0
LINE
8
Layer 1
10
115.711000
20
81.844400
11
119.450000
21
81.844400
0
LINE
8
Layer 1
10
119.450000
20
81.844400
11
119.450000
21
83.255600
0
LINE
8
Layer 1
10
119.450000
20
83.255600
11
122.414000
21
83.255600
0
LINE
8
Layer 1
10
122.414000
20
83.255600
11
122.414000
21
81.844400
0
LINE
8
Layer 1
10
122.414000
20
81.844400
11
126.153000
21
81.844400
0
LINE
8
Layer 1
10
126.153000
20
81.844400
11
126.153000
21
83.255600
0
LINE
8
Layer 1
10
126.153000
20
83.255600
11
129.117000
21
83.255600
0
LINE
8
Layer 1
10
129.117000
20
83.255600
11
129.117000
21
81.844400
0
LINE
8
Layer 1
10
129.117000
20
81.844400
11
131.515000
21
81.844400
0
LINE
8
Layer 1
10
131.515000
20
81.844400
11
131.515000
21
79.974700
0
LINE
8
Layer 1
10
131.515000
20
79.974700
11
131.515000
21
79.974700
0
LINE
8
Layer 1
10
131.515000
20
79.974700
11
131.515000
21
77.011400
0
LINE
8
Layer 1
10
131.515000
20
77.011400
11
131.515000
21
77.011400
0
LINE
8
Layer 1
10
131.515000
20
77.011400
11
131.515000
21
73.801100
0
LINE
8
Layer 1
10
131.515000
20
73.801100
11
131.515000
21
73.801100
0
LINE
8
Layer 1
10
131.515000
20
73.801100
11
131.515000
21
70.837800
0
LINE
8
Layer 1
10
131.515000
20
70.837800
11
131.515000
21
70.837800
0
LINE
8
Layer 1
10
131.515000
20
70.837800
11
131.515000
21
67.627500
0
LINE
8
Layer 1
10
131.515000
20
67.627500
11
131.515000
21
67.627500
0
LINE
8
Layer 1
10
131.515000
20
67.627500
11
131.515000
21
64.664200
0
LINE
8
Layer 1
10
131.515000
20
64.664200
11
131.515000
21
64.664200
0
LINE
8
Layer 1
10
131.515000
20
64.664200
11
131.515000
21
61.453900
0
LINE
8
Layer 1
10
131.515000
20
61.453900
11
131.515000
21
61.453900
0
LINE
8
Layer 1
10
131.515000
20
61.453900
11
131.515000
21
58.490600
0
LINE
8
Layer 1
10
131.515000
20
58.490600
11
131.515000
21
58.490600
0
LINE
8
Layer 1
10
131.515000
20
58.490600
11
131.515000
21
55.280300
0
LINE
8
Layer 1
10
131.515000
20
55.280300
11
131.515000
21
55.280300
0
LINE
8
Layer 1
10
131.515000
20
55.280300
11
131.515000
21
52.317000
0
LINE
8
Layer 1
10
131.515000
20
52.317000
11
131.515000
21
52.317000
0
LINE
8
Layer 1
10
131.515000
20
52.317000
11
131.515000
21
49.106700
0
LINE
8
Layer 1
10
131.515000
20
49.106700
11
131.515000
21
49.106700
0
LINE
8
Layer 1
10
131.515000
20
49.106700
11
131.515000
21
46.143400
0
LINE
8
Layer 1
10
131.515000
20
46.143400
11
131.515000
21
46.143400
0
LINE
8
Layer 1
10
131.515000
20
46.143400
11
131.515000
21
42.933100
0
LINE
8
Layer 1
10
131.515000
20
42.933100
11
131.515000
21
42.933100
0
LINE
8
Layer 1
10
131.515000
20
42.933100
11
131.515000
21
39.969800
0
LINE
8
Layer 1
10
131.515000
20
39.969800
11
131.515000
21
39.969800
0
LINE
8
Layer 1
10
131.515000
20
39.969800
11
131.515000
21
38.100000
0
LINE
8
Layer 1
10
131.515000
20
38.100000
11
129.117000
21
38.100000
0
LINE
8
Layer 1
10
129.117000
20
38.100000
11
129.117000
21
36.688900
0
LINE
8
Layer 1
10
129.117000
20
36.688900
11
126.153000
21
36.688900
0
LINE
8
Layer 1
10
126.153000
20
36.688900
11
126.153000
21
38.100000
0
LINE
8
Layer 1
10
126.153000
20
38.100000
11
122.414000
21
38.100000
0
LINE
8
Layer 1
10
122.414000
20
38.100000
11
122.414000
21
36.688900
0
LINE
8
Layer 1
10
122.414000
20
36.688900
11
119.450000
21
36.688900
0
LINE
8
Layer 1
10
119.450000
20
36.688900
11
119.450000
21
38.100000
0
LINE
8
Layer 1
10
119.450000
20
38.100000
11
115.711000
21
38.100000
0
LINE
8
Layer 1
10
115.711000
20
38.100000
11
115.711000
21
36.688900
0
LINE
8
Layer 1
10
115.711000
20
36.688900
11
112.748000
21
36.688900
0
LINE
8
Layer 1
10
112.748000
20
36.688900
11
112.748000
21
38.100000
0
LINE
8
Layer 1
10
112.748000
20
38.100000
11
110.349000
21
38.100000
0
LINE
8
Layer 1
10
110.349000
20
38.100000
11
110.349000
21
39.969800
0
LINE
8
Layer 1
10
110.349000
20
39.969800
11
108.938000
21
39.969800
0
LINE
8
Layer 1
10
108.938000
20
39.969800
11
108.938000
21
42.933100
0
LINE
8
Layer 1
10
108.938000
20
42.933100
11
110.349000
21
42.933100
0
LINE
8
Layer 1
10
110.349000
20
42.933100
11
110.349000
21
46.143400
0
LINE
8
Layer 1
10
110.349000
20
46.143400
11
108.938000
21
46.143400
0
LINE
8
Layer 1
10
108.938000
20
46.143400
11
108.938000
21
49.106700
0
LINE
8
Layer 1
10
108.938000
20
49.106700
11
110.349000
21
49.106700
0
LINE
8
Layer 1
10
110.349000
20
49.106700
11
110.349000
21
52.317000
0
LINE
8
Layer 1
10
110.349000
20
52.317000
11
108.938000
21
52.317000
0
LINE
8
Layer 1
10
108.938000
20
52.317000
11
108.938000
21
55.280300
0
LINE
8
Layer 1
10
108.938000
20
55.280300
11
110.349000
21
55.280300
0
LINE
8
Layer 1
10
110.349000
20
55.280300
11
110.349000
21
58.490600
0
LINE
8
Layer 1
10
110.349000
20
58.490600
11
108.938000
21
58.490600
0
LINE
8
Layer 1
10
108.938000
20
58.490600
11
108.938000
21
61.453900
0
LINE
8
Layer 1
10
108.938000
20
61.453900
11
110.349000
21
61.453900
0
LINE
8
Layer 1
10
110.349000
20
61.453900
11
110.349000
21
64.664200
0
LINE
8
Layer 1
10
110.349000
20
64.664200
11
108.938000
21
64.664200
0
LINE
8
Layer 1
10
108.938000
20
64.664200
11
108.938000
21
67.627500
0
LINE
8
Layer 1
10
108.938000
20
67.627500
11
110.349000
21
67.627500
0
LINE
8
Layer 1
10
110.349000
20
67.627500
11
110.349000
21
70.837800
0
LINE
8
Layer 1
10
110.349000
20
70.837800
11
108.938000
21
70.837800
0
LINE
8
Layer 1
10
108.938000
20
70.837800
11
108.938000
21
73.801100
0
LINE
8
Layer 1
10
108.938000
20
73.801100
11
110.349000
21
73.801100
0
LINE
8
Layer 1
10
110.349000
20
73.801100
11
110.349000
21
77.011400
0
LINE
8
Layer 1
10
110.349000
20
77.011400
11
108.938000
21
77.011400
0
LINE
8
Layer 1
10
108.938000
20
77.011400
11
108.938000
21
79.974700
0
LINE
8
Layer 1
10
108.938000
20
79.974700
11
110.349000
21
79.974700
0
LINE
8
Layer 1
10
110.349000
20
79.974700
11
110.349000
21
81.844400
0
LINE
8
Layer 1
10
217.311000
20
81.844400
11
220.157000
21
81.844400
0
LINE
8
Layer 1
10
220.157000
20
81.844400
11
220.157000
21
81.844400
0
LINE
8
Layer 1
10
220.157000
20
81.844400
11
223.120000
21
81.844400
0
LINE
8
Layer 1
10
223.120000
20
81.844400
11
223.120000
21
81.844400
0
LINE
8
Layer 1
10
223.120000
20
81.844400
11
225.895000
21
81.844400
0
LINE
8
Layer 1
10
225.895000
20
81.844400
11
225.895000
21
81.844400
0
LINE
8
Layer 1
10
225.895000
20
81.844400
11
228.859000
21
81.844400
0
LINE
8
Layer 1
10
228.859000
20
81.844400
11
228.859000
21
81.844400
0
LINE
8
Layer 1
10
228.859000
20
81.844400
11
231.634000
21
81.844400
0
LINE
8
Layer 1
10
231.634000
20
81.844400
11
231.634000
21
81.844400
0
LINE
8
Layer 1
10
231.634000
20
81.844400
11
234.597000
21
81.844400
0
LINE
8
Layer 1
10
234.597000
20
81.844400
11
234.597000
21
81.844400
0
LINE
8
Layer 1
10
234.597000
20
81.844400
11
237.372000
21
81.844400
0
LINE
8
Layer 1
10
237.372000
20
81.844400
11
237.372000
21
81.844400
0
LINE
8
Layer 1
10
237.372000
20
81.844400
11
240.335000
21
81.844400
0
LINE
8
Layer 1
10
240.335000
20
81.844400
11
240.335000
21
81.844400
0
LINE
8
Layer 1
10
240.335000
20
81.844400
11
243.111000
21
81.844400
0
LINE
8
Layer 1
10
243.111000
20
81.844400
11
243.111000
21
81.844400
0
LINE
8
Layer 1
10
243.111000
20
81.844400
11
246.074000
21
81.844400
0
LINE
8
Layer 1
10
246.074000
20
81.844400
11
246.074000
21
81.844400
0
LINE
8
Layer 1
10
246.074000
20
81.844400
11
248.849000
21
81.844400
0
LINE
8
Layer 1
10
248.849000
20
81.844400
11
248.849000
21
81.844400
0
LINE
8
Layer 1
10
248.849000
20
81.844400
11
251.813000
21
81.844400
0
LINE
8
Layer 1
10
251.813000
20
81.844400
11
251.813000
21
81.844400
0
LINE
8
Layer 1
10
251.813000
20
81.844400
11
254.588000
21
81.844400
0
LINE
8
Layer 1
10
254.588000
20
81.844400
11
254.588000
21
81.844400
0
LINE
8
Layer 1
10
254.588000
20
81.844400
11
257.551000
21
81.844400
0
LINE
8
Layer 1
10
257.551000
20
81.844400
11
257.551000
21
81.844400
0
LINE
8
Layer 1
10
257.551000
20
81.844400
11
260.326000
21
81.844400
0
LINE
8
Layer 1
10
260.326000
20
81.844400
11
260.326000
21
81.844400
0
LINE
8
Layer 1
10
260.326000
20
81.844400
11
263.290000
21
81.844400
0
LINE
8
Layer 1
10
263.290000
20
81.844400
11
263.290000
21
81.844400
0
LINE
8
Layer 1
10
263.290000
20
81.844400
11
266.065000
21
81.844400
0
LINE
8
Layer 1
10
266.065000
20
81.844400
11
266.065000
21
81.844400
0
LINE
8
Layer 1
10
266.065000
20
81.844400
11
269.028000
21
81.844400
0
LINE
8
Layer 1
10
269.028000
20
81.844400
11
269.028000
21
81.844400
0
LINE
8
Layer 1
10
269.028000
20
81.844400
11
271.803000
21
81.844400
0
LINE
8
Layer 1
10
271.803000
20
81.844400
11
271.803000
21
81.844400
0
LINE
8
Layer 1
10
271.803000
20
81.844400
11
274.767000
21
81.844400
0
LINE
8
Layer 1
10
274.767000
20
81.844400
11
274.767000
21
81.844400
0
LINE
8
Layer 1
10
274.767000
20
81.844400
11
277.542000
21
81.844400
0
LINE
8
Layer 1
10
277.542000
20
81.844400
11
277.542000
21
81.844400
0
LINE
8
Layer 1
10
277.542000
20
81.844400
11
280.505000
21
81.844400
0
LINE
8
Layer 1
10
280.505000
20
81.844400
11
280.505000
21
81.844400
0
LINE
8
Layer 1
10
280.505000
20
81.844400
11
283.280000
21
81.844400
0
LINE
8
Layer 1
10
283.280000
20
81.844400
11
283.280000
21
81.844400
0
LINE
8
Layer 1
10
283.280000
20
81.844400
11
286.244000
21
81.844400
0
LINE
8
Layer 1
10
286.244000
20
81.844400
11
286.244000
21
81.844400
0
LINE
8
Layer 1
10
286.244000
20
81.844400
11
289.018000
21
81.844400
0
LINE
8
Layer 1
10
289.018000
20
81.844400
11
289.018000
21
81.844400
0
LINE
8
Layer 1
10
289.018000
20
81.844400
11
291.981000
21
81.844400
0
LINE
8
Layer 1
10
291.981000
20
81.844400
11
291.981000
21
81.844400
0
LINE
8
Layer 1
10
291.981000
20
81.844400
11
294.758000
21
81.844400
0
LINE
8
Layer 1
10
294.758000
20
81.844400
11
294.758000
21
81.844400
0
LINE
8
Layer 1
10
294.758000
20
81.844400
11
297.722000
21
81.844400
0
LINE
8
Layer 1
10
297.722000
20
81.844400
11
297.722000
21
81.844400
0
LINE
8
Layer 1
10
297.722000
20
81.844400
11
300.566000
21
81.844400
0
LINE
8
Layer 1
10
300.566000
20
81.844400
11
300.566000
21
79.304400
0
LINE
8
Layer 1
10
300.566000
20
79.304400
11
299.155000
21
79.304400
0
LINE
8
Layer 1
10
299.155000
20
79.304400
11
299.155000
21
76.623300
0
LINE
8
Layer 1
10
299.155000
20
76.623300
11
300.566000
21
76.623300
0
LINE
8
Layer 1
10
300.566000
20
76.623300
11
300.566000
21
72.601700
0
LINE
8
Layer 1
10
300.566000
20
72.601700
11
299.155000
21
72.601700
0
LINE
8
Layer 1
10
299.155000
20
72.601700
11
299.155000
21
69.920600
0
LINE
8
Layer 1
10
299.155000
20
69.920600
11
300.566000
21
69.920600
0
LINE
8
Layer 1
10
300.566000
20
69.920600
11
300.566000
21
65.898900
0
LINE
8
Layer 1
10
300.566000
20
65.898900
11
299.155000
21
65.898900
0
LINE
8
Layer 1
10
299.155000
20
65.898900
11
299.155000
21
63.217800
0
LINE
8
Layer 1
10
299.155000
20
63.217800
11
300.566000
21
63.217800
0
LINE
8
Layer 1
10
300.566000
20
63.217800
11
300.566000
21
60.677800
0
LINE
8
Layer 1
10
300.566000
20
60.677800
11
297.722000
21
60.677800
0
LINE
8
Layer 1
10
297.722000
20
60.677800
11
297.722000
21
59.266700
0
LINE
8
Layer 1
10
297.722000
20
59.266700
11
294.758000
21
59.266700
0
LINE
8
Layer 1
10
294.758000
20
59.266700
11
294.758000
21
60.677800
0
LINE
8
Layer 1
10
294.758000
20
60.677800
11
291.981000
21
60.677800
0
LINE
8
Layer 1
10
291.981000
20
60.677800
11
291.981000
21
59.266700
0
LINE
8
Layer 1
10
291.981000
20
59.266700
11
289.018000
21
59.266700
0
LINE
8
Layer 1
10
289.018000
20
59.266700
11
289.018000
21
60.677800
0
LINE
8
Layer 1
10
289.018000
20
60.677800
11
286.244000
21
60.677800
0
LINE
8
Layer 1
10
286.244000
20
60.677800
11
286.244000
21
59.266700
0
LINE
8
Layer 1
10
286.244000
20
59.266700
11
283.280000
21
59.266700
0
LINE
8
Layer 1
10
283.280000
20
59.266700
11
283.280000
21
60.677800
0
LINE
8
Layer 1
10
283.280000
20
60.677800
11
280.505000
21
60.677800
0
LINE
8
Layer 1
10
280.505000
20
60.677800
11
280.505000
21
59.266700
0
LINE
8
Layer 1
10
280.505000
20
59.266700
11
277.542000
21
59.266700
0
LINE
8
Layer 1
10
277.542000
20
59.266700
11
277.542000
21
60.677800
0
LINE
8
Layer 1
10
277.542000
20
60.677800
11
274.767000
21
60.677800
0
LINE
8
Layer 1
10
274.767000
20
60.677800
11
274.767000
21
59.266700
0
LINE
8
Layer 1
10
274.767000
20
59.266700
11
271.803000
21
59.266700
0
LINE
8
Layer 1
10
271.803000
20
59.266700
11
271.803000
21
60.677800
0
LINE
8
Layer 1
10
271.803000
20
60.677800
11
269.028000
21
60.677800
0
LINE
8
Layer 1
10
269.028000
20
60.677800
11
269.028000
21
59.266700
0
LINE
8
Layer 1
10
269.028000
20
59.266700
11
266.065000
21
59.266700
0
LINE
8
Layer 1
10
266.065000
20
59.266700
11
266.065000
21
60.677800
0
LINE
8
Layer 1
10
266.065000
20
60.677800
11
263.290000
21
60.677800
0
LINE
8
Layer 1
10
263.290000
20
60.677800
11
263.290000
21
59.266700
0
LINE
8
Layer 1
10
263.290000
20
59.266700
11
260.326000
21
59.266700
0
LINE
8
Layer 1
10
260.326000
20
59.266700
11
260.326000
21
60.677800
0
LINE
8
Layer 1
10
260.326000
20
60.677800
11
257.551000
21
60.677800
0
LINE
8
Layer 1
10
257.551000
20
60.677800
11
257.551000
21
59.266700
0
LINE
8
Layer 1
10
257.551000
20
59.266700
11
254.588000
21
59.266700
0
LINE
8
Layer 1
10
254.588000
20
59.266700
11
254.588000
21
60.677800
0
LINE
8
Layer 1
10
254.588000
20
60.677800
11
251.813000
21
60.677800
0
LINE
8
Layer 1
10
251.813000
20
60.677800
11
251.813000
21
59.266700
0
LINE
8
Layer 1
10
251.813000
20
59.266700
11
248.849000
21
59.266700
0
LINE
8
Layer 1
10
248.849000
20
59.266700
11
248.849000
21
60.677800
0
LINE
8
Layer 1
10
248.849000
20
60.677800
11
246.074000
21
60.677800
0
LINE
8
Layer 1
10
246.074000
20
60.677800
11
246.074000
21
59.266700
0
LINE
8
Layer 1
10
246.074000
20
59.266700
11
243.111000
21
59.266700
0
LINE
8
Layer 1
10
243.111000
20
59.266700
11
243.111000
21
60.677800
0
LINE
8
Layer 1
10
243.111000
20
60.677800
11
240.335000
21
60.677800
0
LINE
8
Layer 1
10
240.335000
20
60.677800
11
240.335000
21
59.266700
0
LINE
8
Layer 1
10
240.335000
20
59.266700
11
237.372000
21
59.266700
0
LINE
8
Layer 1
10
237.372000
20
59.266700
11
237.372000
21
60.677800
0
LINE
8
Layer 1
10
237.372000
20
60.677800
11
234.597000
21
60.677800
0
LINE
8
Layer 1
10
234.597000
20
60.677800
11
234.597000
21
59.266700
0
LINE
8
Layer 1
10
234.597000
20
59.266700
11
231.634000
21
59.266700
0
LINE
8
Layer 1
10
231.634000
20
59.266700
11
231.634000
21
60.677800
0
LINE
8
Layer 1
10
231.634000
20
60.677800
11
228.859000
21
60.677800
0
LINE
8
Layer 1
10
228.859000
20
60.677800
11
228.859000
21
59.266700
0
LINE
8
Layer 1
10
228.859000
20
59.266700
11
225.895000
21
59.266700
0
LINE
8
Layer 1
10
225.895000
20
59.266700
11
225.895000
21
60.677800
0
LINE
8
Layer 1
10
225.895000
20
60.677800
11
223.120000
21
60.677800
0
LINE
8
Layer 1
10
223.120000
20
60.677800
11
223.120000
21
59.266700
0
LINE
8
Layer 1
10
223.120000
20
59.266700
11
220.157000
21
59.266700
0
LINE
8
Layer 1
10
220.157000
20
59.266700
11
220.157000
21
60.677800
0
LINE
8
Layer 1
10
220.157000
20
60.677800
11
217.311000
21
60.677800
0
LINE
8
Layer 1
10
217.311000
20
60.677800
11
217.311000
21
63.217800
0
LINE
8
Layer 1
10
217.311000
20
63.217800
11
218.722000
21
63.217800
0
LINE
8
Layer 1
10
218.722000
20
63.217800
11
218.722000
21
65.898900
0
LINE
8
Layer 1
10
218.722000
20
65.898900
11
217.311000
21
65.898900
0
LINE
8
Layer 1
10
217.311000
20
65.898900
11
217.311000
21
69.920600
0
LINE
8
Layer 1
10
217.311000
20
69.920600
11
218.722000
21
69.920600
0
LINE
8
Layer 1
10
218.722000
20
69.920600
11
218.722000
21
72.601700
0
LINE
8
Layer 1
10
218.722000
20
72.601700
11
217.311000
21
72.601700
0
LINE
8
Layer 1
10
217.311000
20
72.601700
11
217.311000
21
76.623300
0
LINE
8
Layer 1
10
217.311000
20
76.623300
11
218.722000
21
76.623300
0
LINE
8
Layer 1
10
218.722000
20
76.623300
11
218.722000
21
79.304400
0
LINE
8
Layer 1
10
218.722000
20
79.304400
11
217.311000
21
79.304400
0
LINE
8
Layer 1
10
217.311000
20
79.304400
11
217.311000
21
81.844400
 0 
ENDSEC
 0 
EOF