<?xml version="1.0" encoding="UTF-8" standalone="no"?>
<svg
   xmlns:dc="http://purl.org/dc/elements/1.1/"
   xmlns:cc="http://creativecommons.org/ns#"
   xmlns:rdf="http://www.w3.org/1999/02/22-rdf-syntax-ns#"
   xmlns:svg="http://www.w3.org/2000/svg"
   xmlns="http://www.w3.org/2000/svg"
   xmlns:sodipodi="http://sodipodi.sourceforge.net/DTD/sodipodi-0.dtd"
   xmlns:inkscape="http://www.inkscape.org/namespaces/inkscape"
   width="210mm"
   height="297mm"
   viewBox="0 0 210 297"
   version="1.1"
   id="svg10263"
   inkscape:version="1.0.1 (3bc2e813f5, 2020-09-07)"
   sodipodi:docname="box 4.1.svg">
  <defs
     id="defs10257" />
  <sodipodi:namedview
     id="base"
     pagecolor="#ffffff"
     bordercolor="#666666"
     borderopacity="1.0"
     inkscape:pageopacity="0.0"
     inkscape:pageshadow="2"
     inkscape:zoom="0.061871843"
     inkscape:cx="2688.7899"
     inkscape:cy="1411.5729"
     inkscape:document-units="mm"
     inkscape:current-layer="layer1"
     inkscape:document-rotation="0"
     showgrid="false"
     inkscape:window-width="1267"
     inkscape:window-height="1030"
     inkscape:window-x="91"
     inkscape:window-y="0"
     inkscape:window-maximized="0" />
  <metadata
     id="metadata10260">
    <rdf:RDF>
      <cc:Work
         rdf:about="">
        <dc:format>image/svg+xml</dc:format>
        <dc:type
           rdf:resource="http://purl.org/dc/dcmitype/StillImage" />
        <dc:title />
      </cc:Work>
    </rdf:RDF>
  </metadata>
  <g
     inkscape:label="Layer 1"
     inkscape:groupmode="layer"
     id="layer1">
    <rect
       style="fill:#eafff7;stroke-width:1"
       id="rect11029"
       width="1500"
       height="500"
       x="59.868374"
       y="525.98639" />
    <g
       id="g10926"
       transform="rotate(180,702.66306,477.27996)">
      <g
         id="panel607">
        <path
           style="fill:none;stroke:#000000;stroke-width:1"
           d="m 523.1,7 h 10.269 V 2 h 10.1 v 5 h 10.219 V 2 h 10.1 v 5 h 10.218 V 2 h 10.1 v 5 h 10.219 V 2 h 10.1 v 5 h 10.219 V 2 h 10.1 v 5 h 10.219 V 2 h 10.1 v 5 h 10.218 V 2 h 10.1 V 7 H 675.6 V 2 h 10.1 v 5 h 10.219 V 2 h 10.1 v 5 h 10.219 V 2 h 10.1 v 5 h 10.218 V 2 h 10.1 v 5 h 10.219 V 2 h 10.1 v 5 h 10.219 V 2 h 10.1 v 5 h 10.219 V 2 h 10.1 v 5 h 10.218 V 2 h 10.1 V 7 H 838.2"
           id="path10829" />
        <path
           style="fill:none;stroke:#000000;stroke-width:1"
           d="m 838.2,7 v 7.05 h -5 v 9.9 h 5 v 12.1 h -5 v 9.9 h 5 v 12.1 h -5 v 9.9 h 5 v 12.1 h -5 v 9.9 h 5 V 97"
           id="path10831" />
        <path
           style="fill:none;stroke:#000000;stroke-width:1"
           d="m 838.2,97 h -10.269 v 0 h -10.1 v 0 h -10.218 v 0 h -10.1 v 0 h -10.219 v 0 h -10.1 v 0 h -10.219 v 0 h -10.1 v 0 h -10.219 v 0 h -10.1 v 0 h -10.218 v 0 h -10.1 v 0 h -10.219 v 0 h -10.1 v 0 H 685.7 v 0 h -10.1 v 0 h -10.219 v 0 h -10.1 v 0 h -10.218 v 0 h -10.1 v 0 h -10.219 v 0 h -10.1 v 0 h -10.219 v 0 h -10.1 v 0 h -10.219 v 0 h -10.1 v 0 h -10.218 v 0 h -10.1 v 0 h -10.219 v 0 h -10.1 v 0 H 523.1"
           id="path10833" />
        <path
           style="fill:none;stroke:#000000;stroke-width:1"
           d="m 523.1,97 v -7.05 h 5 v -9.9 h -5 v -12.1 h 5 v -9.9 h -5 v -12.1 h 5 v -9.9 h -5 v -12.1 h 5 v -9.9 h -5 V 7"
           id="path10835" />
      </g>
      <g
         id="panel8210">
        <path
           style="fill:none;stroke:#000000;stroke-width:1"
           d="m 324.1,7 h 6.95 V 2 h 10.1 v 5 h 11.9 V 2 h 10.1 v 5 h 11.9 V 2 h 10.1 v 5 h 11.9 V 2 h 10.1 v 5 h 6.95"
           id="path10838" />
        <path
           style="fill:none;stroke:#000000;stroke-width:1"
           d="m 414.1,7 v 6.6278 h 5 v 10.1 h -5 v 11.5778 h 5 v 10.1 h -5 v 11.5777 h 5 v 10.1 h -5 v 11.5778 h 5 v 10.1 h -5 v 11.5779 h 5 v 10.1 h -5 v 11.578 h 5 v 10.1 h -5 v 11.577 h 5 v 10.1 h -5 v 11.578 h 5 v 10.1 h -5 v 6.628"
           id="path10840" />
        <path
           style="fill:none;stroke:#000000;stroke-width:1"
           d="m 414.1,182.1 h -6.95 v 5 h -10.1 v -5 h -11.9 v 5 h -10.1 v -5 h -11.9 v 5 h -10.1 v -5 h -11.9 v 5 h -10.1 v -5 h -6.95"
           id="path10842" />
        <path
           style="fill:none;stroke:#000000;stroke-width:1"
           d="m 324.1,182.1 v -6.628 0 -10.1 0 -11.578 0 -10.1 0 -11.577 0 -10.1 0 -11.578 0 -10.1 0 -11.5779 0 -10.1 0 -11.5778 0 -10.1 0 -11.5777 0 -10.1 0 -11.5778 0 -10.1 0 V 7"
           id="path10844" />
      </g>
      <g
         id="panel3315">
        <path
           style="fill:none;stroke:#000000;stroke-width:1"
           d="m 2,2 h 10.3688 v 5 h 9.9 V 2 h 10.4187 v 5 h 9.9 V 2 h 10.4188 v 5 h 9.9 V 2 H 73.325 v 5 h 9.9 V 2 h 10.4188 v 5 h 9.9002 V 2 h 10.419 v 5 h 9.9 V 2 h 10.418 v 5 h 9.9 V 2 H 154.6 v 5 h 9.9 V 2 h 10.419 v 5 h 9.9 V 2 h 10.419 v 5 h 9.9 V 2 h 10.418 v 5 h 9.9 V 2 h 10.419 v 5 h 9.9 V 2 h 10.419 v 5 h 9.9 V 2 h 10.419 v 5 h 9.9 V 2 h 10.418 v 5 h 9.9 V 2 H 317.1"
           id="path10847" />
        <path
           style="fill:none;stroke:#000000;stroke-width:1"
           d="m 317.1,2 v 11.7278 h -5 v 9.9 h 5 v 11.7778 h -5 v 9.9 h 5 v 11.7777 h -5 v 9.9 h 5 v 11.7778 h -5 v 9.9 h 5 v 11.7779 h -5 v 9.9 h 5 v 11.778 h -5 v 9.9 h 5 v 11.777 h -5 v 9.9 h 5 v 11.778 h -5 v 9.9 h 5 V 187.1"
           id="path10849" />
        <path
           style="fill:none;stroke:#000000;stroke-width:1"
           d="m 317.1,187.1 h -10.369 v -5 h -9.9 v 5 h -10.418 v -5 h -9.9 v 5 h -10.419 v -5 h -9.9 v 5 h -10.419 v -5 h -9.9 v 5 h -10.419 v -5 h -9.9 v 5 h -10.418 v -5 h -9.9 v 5 h -10.419 v -5 h -9.9 v 5 H 164.5 v -5 h -9.9 v 5 h -10.419 v -5 h -9.9 v 5 h -10.418 v -5 h -9.9 v 5 h -10.419 v -5 h -9.9002 v 5 H 83.225 v -5 h -9.9 v 5 H 62.9063 v -5 h -9.9 v 5 H 42.5875 v -5 h -9.9 v 5 H 22.2688 v -5 h -9.9 v 5 H 2"
           id="path10851" />
        <path
           style="fill:none;stroke:#000000;stroke-width:1"
           d="m 2,187.1 v -11.728 h 5 v -9.9 H 2 v -11.778 h 5 v -9.9 H 2 v -11.777 h 5 v -9.9 H 2 v -11.778 h 5 v -9.9 H 2 V 88.6611 h 5 v -9.9 H 2 V 66.9833 h 5 v -9.9 H 2 V 45.3056 h 5 v -9.9 H 2 V 23.6278 h 5 v -9.9 H 2 V 2"
           id="path10853" />
      </g>
      <g
         id="panel8121">
        <path
           style="fill:none;stroke:#000000;stroke-width:1"
           d="m 426.1,7 h 6.95 V 2 h 10.1 v 5 h 11.9 V 2 h 10.1 v 5 h 11.9 V 2 h 10.1 v 5 h 11.9 V 2 h 10.1 v 5 h 6.95"
           id="path10856" />
        <path
           style="fill:none;stroke:#000000;stroke-width:1"
           d="m 516.1,7 v 6.6278 0 10.1 0 11.5778 0 10.1 0 11.5777 0 10.1 0 11.5778 0 10.1 0 11.5779 0 10.1 0 11.578 0 10.1 0 11.577 0 10.1 0 11.578 0 10.1 0 6.628"
           id="path10858" />
        <path
           style="fill:none;stroke:#000000;stroke-width:1"
           d="m 516.1,182.1 h -6.95 v 5 h -10.1 v -5 h -11.9 v 5 h -10.1 v -5 h -11.9 v 5 h -10.1 v -5 h -11.9 v 5 h -10.1 v -5 h -6.95"
           id="path10860" />
        <path
           style="fill:none;stroke:#000000;stroke-width:1"
           d="m 426.1,182.1 v -6.628 h -5 v -10.1 h 5 v -11.578 h -5 v -10.1 h 5 v -11.577 h -5 v -10.1 h 5 v -11.578 h -5 v -10.1 h 5 V 88.7611 h -5 v -10.1 h 5 V 67.0833 h -5 v -10.1 h 5 V 45.4056 h -5 v -10.1 h 5 V 23.7278 h -5 v -10.1 h 5 V 7"
           id="path10862" />
      </g>
      <g
         id="panel1055">
        <path
           style="fill:none;stroke:#000000;stroke-width:1"
           d="m 840.2,7 h 10.269 v 0 h 10.1 v 0 h 10.219 v 0 h 10.1 v 0 h 10.218 v 0 h 10.1 v 0 h 10.219 v 0 h 10.1 v 0 h 10.219 v 0 h 10.1 v 0 h 10.219 v 0 h 10.1 v 0 h 10.218 v 0 h 10.1 V 7 H 992.7 v 0 h 10.1 v 0 h 10.22 v 0 h 10.1 v 0 h 10.22 v 0 h 10.1 v 0 h 10.22 v 0 h 10.1 v 0 h 10.22 v 0 h 10.1 v 0 h 10.21 v 0 h 10.1 v 0 h 10.22 v 0 h 10.1 v 0 h 10.22 v 0 h 10.1 v 0 h 10.27"
           id="path10865" />
        <path
           style="fill:none;stroke:#000000;stroke-width:1"
           d="m 1155.3,7 v 7.05 h -5 v 9.9 h 5 v 12.1 h -5 v 9.9 h 5 v 12.1 h -5 v 9.9 h 5 v 12.1 h -5 v 9.9 h 5 V 97"
           id="path10867" />
        <path
           style="fill:none;stroke:#000000;stroke-width:1"
           d="m 1155.3,97 h -10.27 v 5 h -10.1 v -5 h -10.22 v 5 h -10.1 v -5 h -10.22 v 5 h -10.1 v -5 h -10.21 v 5 h -10.1 v -5 h -10.22 v 5 h -10.1 v -5 h -10.22 v 5 h -10.1 v -5 h -10.22 v 5 h -10.1 v -5 h -10.22 v 5 h -10.1 v -5 h -10.219 v 5 h -10.1 v -5 h -10.218 v 5 h -10.1 v -5 h -10.219 v 5 h -10.1 v -5 h -10.219 v 5 h -10.1 v -5 h -10.219 v 5 h -10.1 v -5 h -10.218 v 5 h -10.1 v -5 h -10.219 v 5 h -10.1 V 97 H 840.2"
           id="path10869" />
        <path
           style="fill:none;stroke:#000000;stroke-width:1"
           d="m 840.2,97 v -7.05 h 5 v -9.9 h -5 v -12.1 h 5 v -9.9 h -5 v -12.1 h 5 v -9.9 h -5 v -12.1 h 5 v -9.9 h -5 V 7"
           id="path10871" />
      </g>
    </g>
    <g
       id="panel9899"
       transform="translate(307.8945,577.30218)">
      <path
         style="fill:none;stroke:#000000;stroke-width:1"
         d="m 443,7 h 10.95 V 2 h 10.1 v 5 h 10.9 V 2 h 10.1 v 5 h 10.9 V 2 h 10.1 v 5 h 10.9 V 2 h 10.1 v 5 h 10.9 V 2 h 10.1 v 5 h 10.9 V 2 h 10.1 v 5 h 10.9 V 2 h 10.1 v 5 h 10.9 V 2 h 10.1 v 5 h 10.9 V 2 h 10.1 v 5 h 10.9 V 2 h 10.1 v 5 h 10.9 V 2 h 10.1 v 5 h 10.9 V 2 h 10.1 v 5 h 10.9 V 2 h 10.1 v 5 h 10.9 V 2 h 10.1 V 7 H 748"
         id="path10957" />
      <path
         style="fill:none;stroke:#000000;stroke-width:1"
         d="m 748,7 v 10.05 h -5 v 9.9 h 5 v 15.1 h -5 v 9.9 h 5 V 67"
         id="path10959" />
      <path
         style="fill:none;stroke:#000000;stroke-width:1"
         d="m 748,67 h -11.05 v 0 h -9.9 v 0 h -11.1 v 0 h -9.9 v 0 h -11.1 v 0 h -9.9 v 0 h -11.1 v 0 h -9.9 v 0 h -11.1 v 0 h -9.9 v 0 h -11.1 v 0 h -9.9 v 0 h -11.1 v 0 h -9.9 v 0 h -11.1 v 0 h -9.9 v 0 h -11.1 v 0 h -9.9 v 0 h -11.1 v 0 h -9.9 v 0 h -11.1 v 0 h -9.9 v 0 h -11.1 v 0 h -9.9 v 0 h -11.1 v 0 h -9.9 v 0 h -11.1 v 0 h -9.9 v 0 H 443"
         id="path10961" />
      <path
         style="fill:none;stroke:#000000;stroke-width:1"
         d="M 443,67 V 51.95 h 5 v -9.9 h -5 v -15.1 h 5 v -9.9 h -5 V 7"
         id="path10963" />
    </g>
    <g
       id="panel2789"
       transform="translate(307.8945,577.30218)">
      <path
         style="fill:none;stroke:#000000;stroke-width:1"
         d="m 309,7 h 14.95 V 2 h 10.1 v 5 h 14.9 V 2 h 10.1 V 7 H 369"
         id="path10966" />
      <path
         style="fill:none;stroke:#000000;stroke-width:1"
         d="m 369,7 v 5.5056 h 5 v 10.1 h -5 v 10.4555 h 5 v 10.1 h -5 v 10.4556 h 5 v 10.1 h -5 v 10.4555 h 5 v 10.1 h -5 v 10.4556 h 5 v 10.1002 h -5 v 10.455 h 5 v 10.1 h -5 v 10.456 h 5 v 10.1 h -5 v 10.455 h 5 v 10.1 h -5 V 172"
         id="path10968" />
      <path
         style="fill:none;stroke:#000000;stroke-width:1"
         d="m 369,172 h -9.95 v 5 h -10.1 v -5 h -14.9 v 5 h -10.1 v -5 H 309"
         id="path10970" />
      <path
         style="fill:none;stroke:#000000;stroke-width:1"
         d="m 309,172 v -5.606 0 -9.9 0 -10.655 0 -9.9 0 -10.656 0 -9.9 0 -10.655 0 -9.9002 0 -10.6556 0 -9.9 0 -10.6555 0 -9.9 0 -10.6556 0 -9.9 0 -10.6555 0 -9.9 0 V 7"
         id="path10972" />
    </g>
    <g
       id="panel1090"
       transform="translate(307.8945,577.30218)">
      <path
         style="fill:none;stroke:#000000;stroke-width:1"
         d="m 2,2 h 11.05 v 5 h 9.9 V 2 h 11.1 v 5 h 9.9 V 2 h 11.1 v 5 h 9.9 V 2 h 11.1 v 5 h 9.9 V 2 h 11.1 v 5 h 9.9 V 2 h 11.1 v 5 h 9.9 V 2 h 11.1 v 5 h 9.9 V 2 h 11.1 v 5 h 9.9 V 2 h 11.1 v 5 h 9.9 V 2 h 11.1 v 5 h 9.9 V 2 h 11.1 v 5 h 9.9 V 2 h 11.1 v 5 h 9.9 V 2 h 11.1 v 5 h 9.9 V 2 h 11.1 v 5 h 9.9 V 2 H 307"
         id="path10975" />
      <path
         style="fill:none;stroke:#000000;stroke-width:1"
         d="m 307,2 v 10.6056 h -5 v 9.9 h 5 v 10.6555 h -5 v 9.9 h 5 v 10.6556 h -5 v 9.9 h 5 v 10.6555 h -5 v 9.9 h 5 v 10.6556 h -5 v 9.9002 h 5 v 10.655 h -5 v 9.9 h 5 v 10.656 h -5 v 9.9 h 5 v 10.655 h -5 v 9.9 h 5 V 177"
         id="path10977" />
      <path
         style="fill:none;stroke:#000000;stroke-width:1"
         d="m 307,177 h -11.05 v -5 h -9.9 v 5 h -11.1 v -5 h -9.9 v 5 h -11.1 v -5 h -9.9 v 5 h -11.1 v -5 h -9.9 v 5 h -11.1 v -5 h -9.9 v 5 h -11.1 v -5 h -9.9 v 5 h -11.1 v -5 h -9.9 v 5 h -11.1 v -5 h -9.9 v 5 h -11.1 v -5 h -9.9 v 5 h -11.1 v -5 h -9.9 v 5 h -11.1 v -5 h -9.9 v 5 h -11.1 v -5 h -9.9 v 5 h -11.1 v -5 h -9.9 v 5 h -11.1 v -5 h -9.9 v 5 H 2"
         id="path10979" />
      <path
         style="fill:none;stroke:#000000;stroke-width:1"
         d="m 2,177 v -10.606 h 5 v -9.9 H 2 v -10.655 h 5 v -9.9 H 2 v -10.656 h 5 v -9.9 H 2 V 104.728 H 7 V 94.8278 H 2 V 84.1722 h 5 v -9.9 H 2 V 63.6167 h 5 v -9.9 H 2 V 43.0611 h 5 v -9.9 H 2 V 22.5056 h 5 v -9.9 H 2 V 2"
         id="path10981" />
    </g>
    <g
       id="panel9081"
       transform="translate(307.8945,577.30218)">
      <path
         style="fill:none;stroke:#000000;stroke-width:1"
         d="m 381,7 h 9.95 V 2 h 10.1 v 5 h 14.9 V 2 h 10.1 V 7 H 441"
         id="path10984" />
      <path
         style="fill:none;stroke:#000000;stroke-width:1"
         d="m 441,7 v 5.6056 0 9.9 0 10.6555 0 9.9 0 10.6556 0 9.9 0 10.6555 0 9.9 0 10.6556 0 9.9002 0 10.655 0 9.9 0 10.656 0 9.9 0 10.655 0 9.9 0 5.606"
         id="path10986" />
      <path
         style="fill:none;stroke:#000000;stroke-width:1"
         d="m 441,172 h -14.95 v 5 h -10.1 v -5 h -14.9 v 5 h -10.1 v -5 H 381"
         id="path10988" />
      <path
         style="fill:none;stroke:#000000;stroke-width:1"
         d="m 381,172 v -5.506 h -5 v -10.1 h 5 v -10.455 h -5 v -10.1 h 5 v -10.456 h -5 v -10.1 h 5 v -10.455 h -5 V 94.7278 h 5 V 84.2722 h -5 v -10.1 h 5 V 63.7167 h -5 v -10.1 h 5 V 43.1611 h -5 v -10.1 h 5 V 22.6056 h -5 v -10.1 h 5 V 7"
         id="path10990" />
    </g>
    <g
       id="panel7229"
       transform="translate(307.8945,577.30218)">
      <path
         style="fill:none;stroke:#000000;stroke-width:1"
         d="m 750,2 h 11.05 v 0 h 9.9 v 0 h 11.1 v 0 h 9.9 v 0 h 11.1 v 0 h 9.9 v 0 h 11.1 v 0 h 9.9 v 0 h 11.1 v 0 h 9.9 v 0 h 11.1 v 0 h 9.9 v 0 h 11.1 v 0 h 9.9 v 0 h 11.1 v 0 h 9.9 v 0 h 11.1 v 0 h 9.9 v 0 h 11.1 v 0 h 9.9 v 0 h 11.1 v 0 h 9.9 v 0 h 11.1 v 0 h 9.9 v 0 h 11.1 v 0 h 9.9 v 0 h 11.1 v 0 h 9.9 V 2 H 1055"
         id="path10993" />
      <path
         style="fill:none;stroke:#000000;stroke-width:1"
         d="m 1055,2 v 15.05 h -5 v 9.9 h 5 v 15.1 h -5 v 9.9 h 5 V 62"
         id="path10995" />
      <path
         style="fill:none;stroke:#000000;stroke-width:1"
         d="m 1055,62 h -10.95 v 5 h -10.1 v -5 h -10.9 v 5 h -10.1 v -5 h -10.9 v 5 h -10.1 v -5 h -10.9 v 5 h -10.1 v -5 h -10.9 v 5 h -10.1 v -5 h -10.9 v 5 h -10.1 v -5 h -10.9 v 5 h -10.1 v -5 h -10.9 v 5 h -10.1 v -5 h -10.9 v 5 h -10.1 v -5 h -10.9 v 5 h -10.1 v -5 h -10.9 v 5 h -10.1 v -5 h -10.9 v 5 h -10.1 v -5 h -10.9 v 5 h -10.1 v -5 h -10.9 v 5 h -10.1 V 62 H 750"
         id="path10997" />
      <path
         style="fill:none;stroke:#000000;stroke-width:1"
         d="M 750,62 V 51.95 h 5 v -9.9 h -5 v -15.1 h 5 v -9.9 h -5 V 2"
         id="path10999" />
    </g>
  </g>
</svg>
