<?xml version="1.0" encoding="UTF-8" standalone="no"?>
<svg
   xmlns:dc="http://purl.org/dc/elements/1.1/"
   xmlns:cc="http://creativecommons.org/ns#"
   xmlns:rdf="http://www.w3.org/1999/02/22-rdf-syntax-ns#"
   xmlns:svg="http://www.w3.org/2000/svg"
   xmlns="http://www.w3.org/2000/svg"
   xmlns:sodipodi="http://sodipodi.sourceforge.net/DTD/sodipodi-0.dtd"
   xmlns:inkscape="http://www.inkscape.org/namespaces/inkscape"
   width="210mm"
   height="297mm"
   viewBox="0 0 210 297"
   version="1.1"
   id="svg12804"
   inkscape:version="1.0.1 (3bc2e813f5, 2020-09-07)"
   sodipodi:docname="box 1.4.svg">
  <defs
     id="defs12798" />
  <sodipodi:namedview
     id="base"
     pagecolor="#ffffff"
     bordercolor="#666666"
     borderopacity="1.0"
     inkscape:pageopacity="0.0"
     inkscape:pageshadow="2"
     inkscape:zoom="0.12374369"
     inkscape:cx="1365.8079"
     inkscape:cy="676.72728"
     inkscape:document-units="mm"
     inkscape:current-layer="layer1"
     inkscape:document-rotation="0"
     showgrid="false"
     inkscape:window-width="1267"
     inkscape:window-height="1030"
     inkscape:window-x="61"
     inkscape:window-y="0"
     inkscape:window-maximized="0" />
  <metadata
     id="metadata12801">
    <rdf:RDF>
      <cc:Work
         rdf:about="">
        <dc:format>image/svg+xml</dc:format>
        <dc:type
           rdf:resource="http://purl.org/dc/dcmitype/StillImage" />
        <dc:title />
      </cc:Work>
    </rdf:RDF>
  </metadata>
  <g
     inkscape:label="Layer 1"
     inkscape:groupmode="layer"
     id="layer1">
    <g
       id="g13467"
       transform="rotate(180,530.62567,336.90243)">
      <g
         id="panel7716">
        <path
           style="fill:none;stroke:#000000;stroke-width:1"
           d="m 503.2,7 h 10.297 V 2 h 10.1 v 5 h 10.246 V 2 h 10.1 V 7 H 554.19 V 2 h 10.1 v 5 h 10.247 V 2 h 10.1 v 5 h 10.246 V 2 h 10.1 V 7 H 615.23 V 2 h 10.1 v 5 h 10.247 V 2 h 10.1 v 5 h 10.246 V 2 h 10.1 V 7 H 676.27 V 2 h 10.1 v 5 h 10.247 V 2 h 10.1 v 5 h 10.246 V 2 h 10.1 V 7 H 737.31 V 2 h 10.1 v 5 h 10.247 V 2 h 10.1 v 5 h 10.246 V 2 h 10.1 V 7 H 798.4"
           id="path13370" />
        <path
           style="fill:none;stroke:#000000;stroke-width:1"
           d="m 798.4,7 v 7.05 h -5 v 9.9 h 5 v 12.1 h -5 v 9.9 h 5 v 12.1 h -5 v 9.9 h 5 v 12.1 h -5 v 9.9 h 5 V 97"
           id="path13372" />
        <path
           style="fill:none;stroke:#000000;stroke-width:1"
           d="m 798.4,97 h -10.297 v 0 h -10.1 v 0 h -10.246 v 0 h -10.1 v 0 H 747.41 v 0 h -10.1 v 0 h -10.247 v 0 h -10.1 v 0 h -10.246 v 0 h -10.1 v 0 H 686.37 v 0 h -10.1 v 0 h -10.247 v 0 h -10.1 v 0 h -10.246 v 0 h -10.1 v 0 H 625.33 v 0 h -10.1 v 0 h -10.247 v 0 h -10.1 v 0 h -10.246 v 0 h -10.1 v 0 H 564.29 v 0 h -10.1 v 0 h -10.247 v 0 h -10.1 v 0 h -10.246 v 0 h -10.1 v 0 H 503.2"
           id="path13374" />
        <path
           style="fill:none;stroke:#000000;stroke-width:1"
           d="m 503.2,97 v -7.05 h 5 v -9.9 h -5 v -12.1 h 5 v -9.9 h -5 v -12.1 h 5 v -9.9 h -5 v -12.1 h 5 v -9.9 h -5 V 7"
           id="path13376" />
      </g>
      <g
         id="panel2598">
        <path
           style="fill:none;stroke:#000000;stroke-width:1"
           d="m 304.2,7 h 6.95 V 2 h 10.1 v 5 h 11.9 V 2 h 10.1 v 5 h 11.9 V 2 h 10.1 v 5 h 11.9 V 2 h 10.1 v 5 h 6.95"
           id="path13379" />
        <path
           style="fill:none;stroke:#000000;stroke-width:1"
           d="m 394.2,7 v 6.85 h 5 v 10.1 h -5 v 11.8 h 5 v 10.1 h -5 v 11.8 h 5 v 10.1 h -5 v 11.8 h 5 v 10.1 h -5 v 11.8 h 5 v 10.1 h -5 v 11.8 h 5 v 10.1 h -5 v 11.8 h 5 v 10.1 h -5 v 6.85"
           id="path13381" />
        <path
           style="fill:none;stroke:#000000;stroke-width:1"
           d="m 394.2,162.2 h -6.95 v 5 h -10.1 v -5 h -11.9 v 5 h -10.1 v -5 h -11.9 v 5 h -10.1 v -5 h -11.9 v 5 h -10.1 v -5 h -6.95"
           id="path13383" />
        <path
           style="fill:none;stroke:#000000;stroke-width:1"
           d="m 304.2,162.2 v -6.85 0 -10.1 0 -11.8 0 -10.1 0 -11.8 0 -10.1 0 -11.8 0 -10.1 0 -11.8 0 -10.1 0 -11.8 0 -10.1 0 -11.8 0 -10.1 0 V 7"
           id="path13385" />
      </g>
      <g
         id="panel4723">
        <path
           style="fill:none;stroke:#000000;stroke-width:1"
           d="m 2,2 h 10.3967 v 5 h 9.9 V 2 h 10.4466 v 5 h 9.9 V 2 H 53.09 v 5 h 9.9 V 2 h 10.4467 v 5 h 9.9 V 2 h 10.4466 v 5 h 9.8997 V 2 h 10.447 v 5 h 9.9 V 2 h 10.447 v 5 h 9.9 V 2 h 10.446 v 5 h 9.9 V 2 h 10.447 v 5 h 9.9 V 2 h 10.447 v 5 h 9.9 V 2 h 10.446 v 5 h 9.9 V 2 h 10.447 v 5 h 9.9 V 2 h 10.447 v 5 h 9.9 V 2 h 10.446 v 5 h 9.9 V 2 H 297.2"
           id="path13388" />
        <path
           style="fill:none;stroke:#000000;stroke-width:1"
           d="m 297.2,2 v 11.95 h -5 v 9.9 h 5 v 12 h -5 v 9.9 h 5 v 12 h -5 v 9.9 h 5 v 12 h -5 v 9.9 h 5 v 12 h -5 v 9.9 h 5 v 12 h -5 v 9.9 h 5 v 12 h -5 v 9.9 h 5 v 11.95"
           id="path13390" />
        <path
           style="fill:none;stroke:#000000;stroke-width:1"
           d="m 297.2,167.2 h -10.397 v -5 h -9.9 v 5 h -10.446 v -5 h -9.9 v 5 H 246.11 v -5 h -9.9 v 5 h -10.447 v -5 h -9.9 v 5 h -10.446 v -5 h -9.9 v 5 H 185.07 v -5 h -9.9 v 5 h -10.447 v -5 h -9.9 v 5 h -10.446 v -5 h -9.9 v 5 H 124.03 v -5 h -9.9 v 5 h -10.447 v -5 h -9.8997 v 5 H 83.3367 v -5 h -9.9 v 5 H 62.99 v -5 h -9.9 v 5 H 42.6433 v -5 h -9.9 v 5 H 22.2967 v -5 h -9.9 v 5 H 2"
           id="path13392" />
        <path
           style="fill:none;stroke:#000000;stroke-width:1"
           d="m 2,167.2 v -11.95 h 5 v -9.9 H 2 v -12 h 5 v -9.9 H 2 v -12 h 5 v -9.9 H 2 v -12 h 5 v -9.9 H 2 v -12 h 5 v -9.9 H 2 v -12 h 5 v -9.9 H 2 v -12 h 5 v -9.9 H 2 V 2"
           id="path13394" />
      </g>
      <g
         id="panel9226">
        <path
           style="fill:none;stroke:#000000;stroke-width:1"
           d="m 406.2,7 h 6.95 V 2 h 10.1 v 5 h 11.9 V 2 h 10.1 v 5 h 11.9 V 2 h 10.1 v 5 h 11.9 V 2 h 10.1 v 5 h 6.95"
           id="path13397" />
        <path
           style="fill:none;stroke:#000000;stroke-width:1"
           d="m 496.2,7 v 6.85 0 10.1 0 11.8 0 10.1 0 11.8 0 10.1 0 11.8 0 10.1 0 11.8 0 10.1 0 11.8 0 10.1 0 11.8 0 10.1 0 6.85"
           id="path13399" />
        <path
           style="fill:none;stroke:#000000;stroke-width:1"
           d="m 496.2,162.2 h -6.95 v 5 h -10.1 v -5 h -11.9 v 5 h -10.1 v -5 h -11.9 v 5 h -10.1 v -5 h -11.9 v 5 h -10.1 v -5 h -6.95"
           id="path13401" />
        <path
           style="fill:none;stroke:#000000;stroke-width:1"
           d="m 406.2,162.2 v -6.85 h -5 v -10.1 h 5 v -11.8 h -5 v -10.1 h 5 v -11.8 h -5 v -10.1 h 5 v -11.8 h -5 v -10.1 h 5 v -11.8 h -5 v -10.1 h 5 v -11.8 h -5 v -10.1 h 5 v -11.8 h -5 v -10.1 h 5 V 7"
           id="path13403" />
      </g>
      <g
         id="panel2827">
        <path
           style="fill:none;stroke:#000000;stroke-width:1"
           d="m 800.4,7 h 10.297 v 0 h 10.1 v 0 h 10.246 v 0 h 10.1 v 0 h 10.247 v 0 h 10.1 v 0 h 10.247 v 0 h 10.1 v 0 h 10.246 v 0 h 10.1 v 0 h 10.247 v 0 h 10.1 v 0 h 10.247 v 0 h 10.1 v 0 h 10.246 v 0 h 10.1 v 0 h 10.247 v 0 h 10.1 v 0 h 10.247 v 0 h 10.103 v 0 h 10.24 v 0 h 10.1 v 0 h 10.25 v 0 h 10.1 v 0 h 10.25 v 0 h 10.1 v 0 h 10.24 v 0 h 10.1 v 0 h 10.3"
           id="path13406" />
        <path
           style="fill:none;stroke:#000000;stroke-width:1"
           d="m 1095.6,7 v 7.05 h -5 v 9.9 h 5 v 12.1 h -5 v 9.9 h 5 v 12.1 h -5 v 9.9 h 5 v 12.1 h -5 v 9.9 h 5 V 97"
           id="path13408" />
        <path
           style="fill:none;stroke:#000000;stroke-width:1"
           d="m 1095.6,97 h -10.3 v 5 h -10.1 v -5 h -10.24 v 5 h -10.1 v -5 h -10.25 v 5 h -10.1 v -5 h -10.25 v 5 h -10.1 v -5 h -10.24 v 5 H 993.817 V 97 H 983.57 v 5 h -10.1 v -5 h -10.247 v 5 h -10.1 v -5 h -10.246 v 5 h -10.1 V 97 H 922.53 v 5 h -10.1 v -5 h -10.247 v 5 h -10.1 v -5 h -10.246 v 5 h -10.1 V 97 H 861.49 v 5 h -10.1 v -5 h -10.247 v 5 h -10.1 v -5 h -10.246 v 5 h -10.1 V 97 H 800.4"
           id="path13410" />
        <path
           style="fill:none;stroke:#000000;stroke-width:1"
           d="m 800.4,97 v -7.05 h 5 v -9.9 h -5 v -12.1 h 5 v -9.9 h -5 v -12.1 h 5 v -9.9 h -5 v -12.1 h 5 v -9.9 h -5 V 7"
           id="path13412" />
      </g>
    </g>
    <g
       id="panel1064"
       transform="translate(-21.381562,372.03918)">
      <path
         style="fill:none;stroke:#000000;stroke-width:1"
         d="m 423,7 h 11.021 V 2 h 10.1 v 5 h 10.972 V 2 h 10.1 v 5 h 10.971 V 2 h 10.1 v 5 h 10.972 V 2 h 10.1 v 5 h 10.971 V 2 h 10.1 v 5 h 10.972 V 2 h 10.1 V 7 H 560.45 V 2 h 10.1 v 5 h 10.971 V 2 h 10.1 v 5 h 10.972 V 2 h 10.1 v 5 h 10.971 V 2 h 10.1 v 5 h 10.972 V 2 h 10.1 v 5 h 10.971 V 2 h 10.1 v 5 h 10.972 V 2 h 10.1 V 7 H 708"
         id="path13498" />
      <path
         style="fill:none;stroke:#000000;stroke-width:1"
         d="m 708,7 v 10.05 h -5 v 9.9 h 5 v 15.1 h -5 v 9.9 h 5 V 67"
         id="path13500" />
      <path
         style="fill:none;stroke:#000000;stroke-width:1"
         d="m 708,67 h -11.121 v 0 h -9.9 v 0 h -11.172 v 0 h -9.9 v 0 h -11.171 v 0 h -9.9 v 0 h -11.172 v 0 h -9.9 v 0 h -11.171 v 0 h -9.9 v 0 h -11.172 v 0 h -9.9 v 0 H 570.45 v 0 h -9.9 v 0 h -11.171 v 0 h -9.9 v 0 h -11.172 v 0 h -9.9 v 0 h -11.171 v 0 h -9.9 v 0 h -11.172 v 0 h -9.9 v 0 h -11.171 v 0 h -9.9 v 0 h -11.172 v 0 h -9.9 v 0 H 423"
         id="path13502" />
      <path
         style="fill:none;stroke:#000000;stroke-width:1"
         d="M 423,67 V 51.95 h 5 v -9.9 h -5 v -15.1 h 5 v -9.9 h -5 V 7"
         id="path13504" />
    </g>
    <g
       id="panel4643"
       transform="translate(-21.381562,372.03918)">
      <path
         style="fill:none;stroke:#000000;stroke-width:1"
         d="m 289,7 h 14.95 V 2 h 10.1 v 5 h 14.9 V 2 h 10.1 V 7 H 349"
         id="path13507" />
      <path
         style="fill:none;stroke:#000000;stroke-width:1"
         d="m 349,7 v 5.575 h 5 v 10.1 h -5 V 33.2 h 5 v 10.1 h -5 v 10.525 h 5 v 10.1 h -5 V 74.45 h 5 v 10.1 h -5 v 10.525 h 5 v 10.1 h -5 V 115.7 h 5 v 10.1 h -5 v 10.525 h 5 v 10.1 h -5 V 152"
         id="path13509" />
      <path
         style="fill:none;stroke:#000000;stroke-width:1"
         d="m 349,152 h -9.95 v 5 h -10.1 v -5 h -14.9 v 5 h -10.1 v -5 H 289"
         id="path13511" />
      <path
         style="fill:none;stroke:#000000;stroke-width:1"
         d="m 289,152 v -5.675 0 -9.9 0 -10.725 0 -9.9 0 -10.725 0 -9.9 0 -10.725 0 -9.9 0 -10.725 0 -9.9 0 -10.725 0 -9.9 0 -10.725 0 -9.9 0 V 7"
         id="path13513" />
    </g>
    <g
       id="panel5494"
       transform="translate(-21.381562,372.03918)">
      <path
         style="fill:none;stroke:#000000;stroke-width:1"
         d="m 2,2 h 11.1214 v 5 h 9.9 V 2 h 11.1715 v 5 h 9.9 V 2 h 11.1714 v 5 h 9.9 V 2 h 11.1714 v 5 h 9.9 V 2 h 11.1714 v 5 h 9.8999 V 2 h 11.172 v 5 h 9.9 V 2 h 11.171 v 5 h 9.9 V 2 h 11.171 v 5 h 9.9 V 2 h 11.172 v 5 h 9.9 V 2 h 11.171 v 5 h 9.9 V 2 h 11.172 v 5 h 9.9 V 2 h 11.171 v 5 h 9.9 V 2 h 11.172 v 5 h 9.9 V 2 H 287"
         id="path13516" />
      <path
         style="fill:none;stroke:#000000;stroke-width:1"
         d="m 287,2 v 10.675 h -5 v 9.9 h 5 V 33.3 h -5 v 9.9 h 5 v 10.725 h -5 v 9.9 h 5 V 74.55 h -5 v 9.9 h 5 v 10.725 h -5 v 9.9 h 5 V 115.8 h -5 v 9.9 h 5 v 10.725 h -5 v 9.9 h 5 V 157"
         id="path13518" />
      <path
         style="fill:none;stroke:#000000;stroke-width:1"
         d="m 287,157 h -11.121 v -5 h -9.9 v 5 h -11.172 v -5 h -9.9 v 5 h -11.171 v -5 h -9.9 v 5 h -11.172 v -5 h -9.9 v 5 h -11.171 v -5 h -9.9 v 5 h -11.172 v -5 h -9.9 v 5 H 149.45 v -5 h -9.9 v 5 h -11.171 v -5 h -9.9 v 5 h -11.172 v -5 h -9.8999 v 5 H 86.2357 v -5 h -9.9 v 5 H 65.1643 v -5 h -9.9 v 5 H 44.0929 v -5 h -9.9 v 5 H 23.0214 v -5 h -9.9 v 5 H 2"
         id="path13520" />
      <path
         style="fill:none;stroke:#000000;stroke-width:1"
         d="m 2,157 v -10.675 h 5 v -9.9 H 2 V 125.7 h 5 v -9.9 H 2 v -10.725 h 5 v -9.9 H 2 V 84.45 h 5 v -9.9 H 2 V 63.825 h 5 v -9.9 H 2 V 43.2 H 7 V 33.3 H 2 V 22.575 h 5 v -9.9 H 2 V 2"
         id="path13522" />
    </g>
    <g
       id="panel5309"
       transform="translate(-21.381562,372.03918)">
      <path
         style="fill:none;stroke:#000000;stroke-width:1"
         d="m 361,7 h 9.95 V 2 h 10.1 v 5 h 14.9 V 2 h 10.1 V 7 H 421"
         id="path13525" />
      <path
         style="fill:none;stroke:#000000;stroke-width:1"
         d="m 421,7 v 5.675 0 9.9 0 10.725 0 9.9 0 10.725 0 9.9 0 10.725 0 9.9 0 10.725 0 9.9 0 10.725 0 9.9 0 10.725 0 9.9 0 5.675"
         id="path13527" />
      <path
         style="fill:none;stroke:#000000;stroke-width:1"
         d="m 421,152 h -14.95 v 5 h -10.1 v -5 h -14.9 v 5 h -10.1 v -5 H 361"
         id="path13529" />
      <path
         style="fill:none;stroke:#000000;stroke-width:1"
         d="m 361,152 v -5.575 h -5 v -10.1 h 5 V 125.8 h -5 v -10.1 h 5 v -10.525 h -5 v -10.1 h 5 V 84.55 h -5 v -10.1 h 5 V 63.925 h -5 v -10.1 h 5 V 43.3 h -5 V 33.2 h 5 V 22.675 h -5 v -10.1 h 5 V 7"
         id="path13531" />
    </g>
    <g
       id="panel7395"
       transform="translate(-21.381562,372.03918)">
      <path
         style="fill:none;stroke:#000000;stroke-width:1"
         d="m 710,2 h 11.121 v 0 h 9.9 v 0 h 11.172 v 0 h 9.9 v 0 h 11.171 v 0 h 9.9 v 0 h 11.172 v 0 h 9.9 v 0 h 11.171 v 0 h 9.9 v 0 h 11.172 v 0 h 9.9 v 0 h 11.171 v 0 h 9.9 v 0 h 11.171 v 0 h 9.9 v 0 h 11.172 v 0 h 9.9 v 0 h 11.171 v 0 h 9.9 v 0 h 11.172 v 0 h 9.9 v 0 h 11.171 v 0 h 9.9 v 0 h 11.172 v 0 h 9.9 V 2 H 995"
         id="path13534" />
      <path
         style="fill:none;stroke:#000000;stroke-width:1"
         d="m 995,2 v 15.05 h -5 v 9.9 h 5 v 15.1 h -5 v 9.9 h 5 V 62"
         id="path13536" />
      <path
         style="fill:none;stroke:#000000;stroke-width:1"
         d="m 995,62 h -11.021 v 5 h -10.1 v -5 h -10.972 v 5 h -10.1 v -5 h -10.971 v 5 h -10.1 v -5 h -10.972 v 5 h -10.1 v -5 h -10.971 v 5 h -10.1 v -5 h -10.972 v 5 h -10.1 V 62 H 857.55 v 5 h -10.1 v -5 h -10.971 v 5 h -10.1 v -5 h -10.972 v 5 h -10.1 v -5 h -10.971 v 5 h -10.1 v -5 h -10.972 v 5 h -10.1 v -5 h -10.971 v 5 h -10.1 v -5 h -10.972 v 5 h -10.1 V 62 H 710"
         id="path13538" />
      <path
         style="fill:none;stroke:#000000;stroke-width:1"
         d="M 710,62 V 51.95 h 5 v -9.9 h -5 v -15.1 h 5 v -9.9 h -5 V 2"
         id="path13540" />
    </g>
  </g>
</svg>
