<?xml version="1.0" encoding="UTF-8" standalone="no"?>
<svg
   xmlns:dc="http://purl.org/dc/elements/1.1/"
   xmlns:cc="http://creativecommons.org/ns#"
   xmlns:rdf="http://www.w3.org/1999/02/22-rdf-syntax-ns#"
   xmlns:svg="http://www.w3.org/2000/svg"
   xmlns="http://www.w3.org/2000/svg"
   xmlns:sodipodi="http://sodipodi.sourceforge.net/DTD/sodipodi-0.dtd"
   xmlns:inkscape="http://www.inkscape.org/namespaces/inkscape"
   width="210mm"
   height="297mm"
   viewBox="0 0 210 297"
   version="1.1"
   id="svg7629"
   inkscape:version="1.0.1 (3bc2e813f5, 2020-09-07)"
   sodipodi:docname="box 2.1.svg">
  <defs
     id="defs7623" />
  <sodipodi:namedview
     id="base"
     pagecolor="#ffffff"
     bordercolor="#666666"
     borderopacity="1.0"
     inkscape:pageopacity="0.0"
     inkscape:pageshadow="2"
     inkscape:zoom="0.0875"
     inkscape:cx="4443.0128"
     inkscape:cy="3109.6922"
     inkscape:document-units="mm"
     inkscape:current-layer="layer1"
     inkscape:document-rotation="0"
     showgrid="false"
     inkscape:window-width="1267"
     inkscape:window-height="1030"
     inkscape:window-x="67"
     inkscape:window-y="19"
     inkscape:window-maximized="0" />
  <metadata
     id="metadata7626">
    <rdf:RDF>
      <cc:Work
         rdf:about="">
        <dc:format>image/svg+xml</dc:format>
        <dc:type
           rdf:resource="http://purl.org/dc/dcmitype/StillImage" />
        <dc:title></dc:title>
      </cc:Work>
    </rdf:RDF>
  </metadata>
  <g
     inkscape:label="Layer 1"
     inkscape:groupmode="layer"
     id="layer1">
    <path
       id="rect8450"
       style="fill:#eafff7;fill-opacity:1;stroke-width:0.733598"
       d="M -548.963,607.34665 H 951.03702 V 1107.3467 H -548.963 Z" />
    <g
       id="g9174"
       transform="rotate(180,202.04762,916.57143)">
      <g
         id="panel2628"
         transform="translate(-311.45238,834.57143)">
        <path
           style="fill:none;stroke:#000000;stroke-width:1"
           d="m 433,7 h 10.208 V 2 h 10.25 v 5 h 10.084 V 2 h 10.25 v 5 h 10.083 V 2 h 10.25 v 5 h 10.083 V 2 h 10.25 v 5 h 10.084 V 2 h 10.25 v 5 h 10.083 V 2 h 10.25 v 5 h 10.083 V 2 h 10.25 v 5 h 10.084 V 2 h 10.25 v 5 h 10.083 V 2 h 10.25 v 5 h 10.083 V 2 h 10.25 v 5 h 10.084 V 2 h 10.25 v 5 h 10.083 V 2 h 10.25 v 5 h 10.083 V 2 h 10.25 v 5 h 10.084 V 2 h 10.25 V 7 H 728"
           id="path9077" />
        <path
           style="fill:none;stroke:#000000;stroke-width:1"
           d="m 728,7 v 10.125 h -5 v 9.75 h 5 v 15.25 h -5 v 9.75 h 5 V 67"
           id="path9079" />
        <path
           style="fill:none;stroke:#000000;stroke-width:1"
           d="m 728,67 h -10.458 v 0 h -9.75 v 0 h -10.584 v 0 h -9.75 v 0 h -10.583 v 0 h -9.75 v 0 h -10.583 v 0 h -9.75 v 0 h -10.584 v 0 h -9.75 v 0 h -10.583 v 0 h -9.75 v 0 h -10.583 v 0 h -9.75 v 0 h -10.584 v 0 h -9.75 v 0 h -10.583 v 0 h -9.75 v 0 h -10.583 v 0 h -9.75 v 0 h -10.584 v 0 h -9.75 v 0 h -10.583 v 0 h -9.75 v 0 h -10.583 v 0 h -9.75 v 0 h -10.584 v 0 h -9.75 v 0 H 433"
           id="path9081" />
        <path
           style="fill:none;stroke:#000000;stroke-width:1"
           d="M 433,67 V 51.875 h 5 v -9.75 h -5 v -15.25 h 5 v -9.75 h -5 V 7"
           id="path9083" />
      </g>
      <g
         id="panel8826"
         transform="translate(-311.45238,834.57143)">
        <path
           style="fill:none;stroke:#000000;stroke-width:1"
           d="m 299,7 h 14.875 V 2 h 10.25 v 5 h 14.75 V 2 h 10.25 V 7 H 359"
           id="path9086" />
        <path
           style="fill:none;stroke:#000000;stroke-width:1"
           d="m 359,7 v 6.125 h 5 v 10.25 h -5 v 11 h 5 v 10.25 h -5 v 11 h 5 v 10.25 h -5 v 11 h 5 v 10.25 h -5 v 11 h 5 v 10.25 h -5 v 11 h 5 v 10.25 h -5 v 11 h 5 v 10.25 h -5 V 157"
           id="path9088" />
        <path
           style="fill:none;stroke:#000000;stroke-width:1"
           d="m 359,157 h -9.875 v 5 h -10.25 v -5 h -14.75 v 5 h -10.25 v -5 H 299"
           id="path9090" />
        <path
           style="fill:none;stroke:#000000;stroke-width:1"
           d="m 299,157 v -6.375 0 -9.75 0 -11.5 0 -9.75 0 -11.5 0 -9.75 0 -11.5 0 -9.75 0 -11.5 0 -9.75 0 -11.5 0 -9.75 0 -11.5 0 -9.75 0 V 7"
           id="path9092" />
      </g>
      <g
         id="panel7017"
         transform="translate(-311.45238,834.57143)">
        <path
           style="fill:none;stroke:#000000;stroke-width:1"
           d="m 2,2 h 10.4583 v 5 h 9.75 V 2 h 10.5834 v 5 h 9.75 V 2 H 53.125 v 5 h 9.75 V 2 h 10.5833 v 5 h 9.75 V 2 h 10.5834 v 5 h 9.7503 V 2 h 10.583 v 5 h 9.75 V 2 h 10.583 v 5 h 9.75 V 2 h 10.584 v 5 h 9.75 V 2 h 10.583 v 5 h 9.75 V 2 h 10.583 v 5 h 9.75 V 2 h 10.584 v 5 h 9.75 V 2 h 10.583 v 5 h 9.75 V 2 h 10.583 v 5 h 9.75 V 2 h 10.584 v 5 h 9.75 V 2 H 297"
           id="path9095" />
        <path
           style="fill:none;stroke:#000000;stroke-width:1"
           d="m 297,2 v 11.375 h -5 v 9.75 h 5 v 11.5 h -5 v 9.75 h 5 v 11.5 h -5 v 9.75 h 5 v 11.5 h -5 v 9.75 h 5 v 11.5 h -5 v 9.75 h 5 v 11.5 h -5 v 9.75 h 5 v 11.5 h -5 v 9.75 h 5 V 162"
           id="path9097" />
        <path
           style="fill:none;stroke:#000000;stroke-width:1"
           d="m 297,162 h -10.458 v -5 h -9.75 v 5 h -10.584 v -5 h -9.75 v 5 h -10.583 v -5 h -9.75 v 5 h -10.583 v -5 h -9.75 v 5 h -10.584 v -5 h -9.75 v 5 h -10.583 v -5 h -9.75 v 5 h -10.583 v -5 h -9.75 v 5 h -10.584 v -5 h -9.75 v 5 h -10.583 v -5 h -9.75 v 5 h -10.583 v -5 h -9.7503 v 5 H 83.2083 v -5 h -9.75 v 5 H 62.875 v -5 h -9.75 v 5 H 42.5417 v -5 h -9.75 v 5 H 22.2083 v -5 h -9.75 v 5 H 2"
           id="path9099" />
        <path
           style="fill:none;stroke:#000000;stroke-width:1"
           d="m 2,162 v -11.375 h 5 v -9.75 H 2 v -11.5 h 5 v -9.75 H 2 v -11.5 h 5 v -9.75 H 2 v -11.5 h 5 v -9.75 H 2 v -11.5 h 5 v -9.75 H 2 v -11.5 h 5 v -9.75 H 2 v -11.5 h 5 v -9.75 H 2 V 2"
           id="path9101" />
      </g>
      <g
         id="panel3589"
         transform="translate(-311.45238,834.57143)">
        <path
           style="fill:none;stroke:#000000;stroke-width:1"
           d="m 371,7 h 9.875 V 2 h 10.25 v 5 h 14.75 V 2 h 10.25 V 7 H 431"
           id="path9104" />
        <path
           style="fill:none;stroke:#000000;stroke-width:1"
           d="m 431,7 v 6.375 0 9.75 0 11.5 0 9.75 0 11.5 0 9.75 0 11.5 0 9.75 0 11.5 0 9.75 0 11.5 0 9.75 0 11.5 0 9.75 0 6.375"
           id="path9106" />
        <path
           style="fill:none;stroke:#000000;stroke-width:1"
           d="m 431,157 h -14.875 v 5 h -10.25 v -5 h -14.75 v 5 h -10.25 v -5 H 371"
           id="path9108" />
        <path
           style="fill:none;stroke:#000000;stroke-width:1"
           d="m 371,157 v -6.125 h -5 v -10.25 h 5 v -11 h -5 v -10.25 h 5 v -11 h -5 v -10.25 h 5 v -11 h -5 v -10.25 h 5 v -11 h -5 v -10.25 h 5 v -11 h -5 v -10.25 h 5 v -11 h -5 v -10.25 h 5 V 7"
           id="path9110" />
      </g>
      <g
         id="panel384"
         transform="translate(-311.45238,834.57143)">
        <path
           style="fill:none;stroke:#000000;stroke-width:1"
           d="m 730,2 h 10.458 v 0 h 9.75 v 0 h 10.584 v 0 h 9.75 v 0 h 10.583 v 0 h 9.75 v 0 h 10.583 v 0 h 9.75 v 0 h 10.584 v 0 h 9.75 v 0 h 10.583 v 0 h 9.75 v 0 h 10.583 v 0 h 9.75 v 0 h 10.584 v 0 h 9.75 v 0 h 10.583 v 0 h 9.75 v 0 h 10.583 v 0 h 9.75 v 0 h 10.584 v 0 h 9.75 v 0 h 10.583 v 0 h 9.75 v 0 h 10.583 v 0 h 9.75 v 0 h 10.582 v 0 h 9.75 V 2 H 1025"
           id="path9113" />
        <path
           style="fill:none;stroke:#000000;stroke-width:1"
           d="m 1025,2 v 15.125 h -5 v 9.75 h 5 v 15.25 h -5 v 9.75 h 5 V 62"
           id="path9115" />
        <path
           style="fill:none;stroke:#000000;stroke-width:1"
           d="m 1025,62 h -10.21 v 5 h -10.25 v -5 h -10.082 v 5 h -10.25 v -5 h -10.083 v 5 h -10.25 v -5 h -10.083 v 5 h -10.25 v -5 h -10.084 v 5 h -10.25 v -5 h -10.083 v 5 h -10.25 v -5 h -10.083 v 5 h -10.25 v -5 h -10.084 v 5 h -10.25 v -5 h -10.083 v 5 h -10.25 v -5 h -10.083 v 5 h -10.25 v -5 h -10.084 v 5 h -10.25 v -5 h -10.083 v 5 h -10.25 v -5 h -10.083 v 5 h -10.25 v -5 h -10.084 v 5 h -10.25 V 62 H 730"
           id="path9117" />
        <path
           style="fill:none;stroke:#000000;stroke-width:1"
           d="M 730,62 V 51.875 h 5 v -9.75 h -5 v -15.25 h 5 v -9.75 h -5 V 2"
           id="path9119" />
      </g>
    </g>
    <g
       id="panel7265"
       transform="translate(-340.70754,689.12628)">
      <path
         style="fill:none;stroke:#000000;stroke-width:1"
         d="m 513.1,7 h 10.882 V 2 h 10.25 v 5 h 10.756 V 2 h 10.25 v 5 h 10.757 V 2 h 10.25 v 5 h 10.757 V 2 h 10.25 v 5 h 10.756 V 2 h 10.25 v 5 h 10.757 V 2 h 10.25 v 5 h 10.757 V 2 h 10.25 v 5 h 10.756 V 2 h 10.25 v 5 h 10.757 V 2 h 10.25 v 5 h 10.757 V 2 h 10.25 v 5 h 10.756 V 2 h 10.25 v 5 h 10.757 V 2 h 10.25 v 5 h 10.757 V 2 h 10.25 v 5 h 10.756 V 2 h 10.25 V 7 H 818.2"
         id="path9206" />
      <path
         style="fill:none;stroke:#000000;stroke-width:1"
         d="m 818.2,7 v 7.125 h -5 v 9.75 h 5 v 12.25 h -5 v 9.75 h 5 v 12.25 h -5 v 9.75 h 5 v 12.25 h -5 v 9.75 h 5 V 97"
         id="path9208" />
      <path
         style="fill:none;stroke:#000000;stroke-width:1"
         d="m 818.2,97 h -10.882 v 0 h -10.25 v 0 h -10.756 v 0 h -10.25 v 0 h -10.757 v 0 h -10.25 v 0 h -10.757 v 0 h -10.25 v 0 h -10.756 v 0 h -10.25 v 0 h -10.757 v 0 h -10.25 v 0 h -10.757 v 0 h -10.25 v 0 h -10.756 v 0 h -10.25 v 0 h -10.757 v 0 h -10.25 v 0 h -10.757 v 0 h -10.25 v 0 h -10.756 v 0 h -10.25 v 0 h -10.757 v 0 h -10.25 v 0 h -10.757 v 0 h -10.25 v 0 h -10.756 v 0 h -10.25 v 0 H 513.1"
         id="path9210" />
      <path
         style="fill:none;stroke:#000000;stroke-width:1"
         d="m 513.1,97 v -7.125 h 5 v -9.75 h -5 v -12.25 h 5 v -9.75 h -5 v -12.25 h 5 v -9.75 h -5 v -12.25 h 5 v -9.75 h -5 V 7"
         id="path9212" />
    </g>
    <g
       id="panel5935"
       transform="translate(-340.70754,689.12628)">
      <path
         style="fill:none;stroke:#000000;stroke-width:1"
         d="m 314.1,7 h 6.875 V 2 h 10.25 v 5 h 11.75 V 2 h 10.25 v 5 h 11.75 V 2 h 10.25 v 5 h 11.75 V 2 h 10.25 v 5 h 6.875"
         id="path9215" />
      <path
         style="fill:none;stroke:#000000;stroke-width:1"
         d="m 404.1,7 v 4.8861 h 5 v 10.25 h -5 v 9.7611 h 5 v 10.25 h -5 v 9.7611 h 5 v 10.25 h -5 v 9.7611 h 5 v 10.25 h -5 v 9.7612 h 5 v 10.2504 h -5 v 9.761 h 5 v 10.25 h -5 v 9.761 h 5 v 10.25 h -5 v 9.761 h 5 v 10.25 h -5 v 4.886"
         id="path9217" />
      <path
         style="fill:none;stroke:#000000;stroke-width:1"
         d="m 404.1,167.1 h -6.875 v 5 h -10.25 v -5 h -11.75 v 5 h -10.25 v -5 h -11.75 v 5 h -10.25 v -5 h -11.75 v 5 h -10.25 v -5 H 314.1"
         id="path9219" />
      <path
         style="fill:none;stroke:#000000;stroke-width:1"
         d="m 314.1,167.1 v -4.886 0 -10.25 0 -9.761 0 -10.25 0 -9.761 0 -10.25 0 -9.761 0 -10.2504 0 -9.7612 0 -10.25 0 -9.7611 0 -10.25 0 -9.7611 0 -10.25 0 -9.7611 0 -10.25 0 V 7"
         id="path9221" />
    </g>
    <g
       id="panel9981"
       transform="translate(-340.70754,689.12628)">
      <path
         style="fill:none;stroke:#000000;stroke-width:1"
         d="m 2,2 h 11.1317 v 5 h 9.75 V 2 h 11.2566 v 5 h 9.75 V 2 H 55.145 v 5 h 9.75 V 2 h 11.2567 v 5 h 9.75 V 2 h 11.2566 v 5 h 9.7497 V 2 h 11.257 v 5 h 9.75 V 2 h 11.257 v 5 h 9.75 V 2 h 11.256 v 5 h 9.75 V 2 h 11.257 v 5 h 9.75 V 2 h 11.257 v 5 h 9.75 V 2 h 11.256 v 5 h 9.75 V 2 h 11.257 v 5 h 9.75 V 2 h 11.257 v 5 h 9.75 V 2 h 11.256 v 5 h 9.75 V 2 H 307.1"
         id="path9224" />
      <path
         style="fill:none;stroke:#000000;stroke-width:1"
         d="m 307.1,2 v 10.1361 h -5 v 9.75 h 5 v 10.2611 h -5 v 9.75 h 5 v 10.2611 h -5 v 9.75 h 5 v 10.2611 h -5 v 9.75 h 5 v 10.2612 h -5 v 9.7504 h 5 v 10.261 h -5 v 9.75 h 5 v 10.261 h -5 v 9.75 h 5 v 10.261 h -5 v 9.75 h 5 V 172.1"
         id="path9226" />
      <path
         style="fill:none;stroke:#000000;stroke-width:1"
         d="m 307.1,172.1 h -11.132 v -5 h -9.75 v 5 h -11.256 v -5 h -9.75 v 5 h -11.257 v -5 h -9.75 v 5 h -11.257 v -5 h -9.75 v 5 h -11.256 v -5 h -9.75 v 5 h -11.257 v -5 h -9.75 v 5 h -11.257 v -5 h -9.75 v 5 h -11.256 v -5 h -9.75 v 5 h -11.257 v -5 h -9.75 v 5 h -11.257 v -5 h -9.7497 v 5 H 85.9017 v -5 h -9.75 v 5 H 64.895 v -5 h -9.75 v 5 H 43.8883 v -5 h -9.75 v 5 H 22.8817 v -5 h -9.75 v 5 H 2"
         id="path9228" />
      <path
         style="fill:none;stroke:#000000;stroke-width:1"
         d="m 2,172.1 v -10.136 h 5 v -9.75 H 2 v -10.261 h 5 v -9.75 H 2 v -10.261 h 5 v -9.75 H 2 V 101.931 H 7 V 92.1806 H 2 V 81.9194 h 5 v -9.75 H 2 V 61.9083 h 5 v -9.75 H 2 V 41.8972 h 5 v -9.75 H 2 V 21.8861 h 5 v -9.75 H 2 V 2"
         id="path9230" />
    </g>
    <g
       id="panel6669"
       transform="translate(-340.70754,689.12628)">
      <path
         style="fill:none;stroke:#000000;stroke-width:1"
         d="m 416.1,7 h 6.875 V 2 h 10.25 v 5 h 11.75 V 2 h 10.25 v 5 h 11.75 V 2 h 10.25 v 5 h 11.75 V 2 h 10.25 v 5 h 6.875"
         id="path9233" />
      <path
         style="fill:none;stroke:#000000;stroke-width:1"
         d="m 506.1,7 v 4.8861 0 10.25 0 9.7611 0 10.25 0 9.7611 0 10.25 0 9.7611 0 10.25 0 9.7612 0 10.2504 0 9.761 0 10.25 0 9.761 0 10.25 0 9.761 0 10.25 0 4.886"
         id="path9235" />
      <path
         style="fill:none;stroke:#000000;stroke-width:1"
         d="m 506.1,167.1 h -6.875 v 5 h -10.25 v -5 h -11.75 v 5 h -10.25 v -5 h -11.75 v 5 h -10.25 v -5 h -11.75 v 5 h -10.25 v -5 H 416.1"
         id="path9237" />
      <path
         style="fill:none;stroke:#000000;stroke-width:1"
         d="m 416.1,167.1 v -4.886 h -5 v -10.25 h 5 v -9.761 h -5 v -10.25 h 5 v -9.761 h -5 v -10.25 h 5 v -9.761 h -5 V 91.9306 h 5 v -9.7612 h -5 v -10.25 h 5 v -9.7611 h -5 v -10.25 h 5 v -9.7611 h -5 v -10.25 h 5 v -9.7611 h -5 v -10.25 h 5 V 7"
         id="path9239" />
    </g>
    <g
       id="panel9695"
       transform="translate(-340.70754,689.12628)">
      <path
         style="fill:none;stroke:#000000;stroke-width:1"
         d="m 820.2,7 h 10.882 v 0 h 10.25 v 0 h 10.756 v 0 h 10.25 v 0 h 10.757 v 0 h 10.25 v 0 h 10.757 v 0 h 10.25 v 0 h 10.756 v 0 h 10.25 v 0 h 10.757 v 0 h 10.25 v 0 h 10.757 v 0 h 10.25 v 0 h 10.756 v 0 h 10.25 v 0 h 10.757 v 0 h 10.255 v 0 h 10.75 v 0 h 10.25 v 0 h 10.76 v 0 h 10.25 v 0 h 10.76 v 0 h 10.25 v 0 h 10.75 v 0 h 10.25 v 0 h 10.76 v 0 h 10.25 v 0 h 10.88"
         id="path9242" />
      <path
         style="fill:none;stroke:#000000;stroke-width:1"
         d="m 1125.3,7 v 7.125 h -5 v 9.75 h 5 v 12.25 h -5 v 9.75 h 5 v 12.25 h -5 v 9.75 h 5 v 12.25 h -5 v 9.75 h 5 V 97"
         id="path9244" />
      <path
         style="fill:none;stroke:#000000;stroke-width:1"
         d="m 1125.3,97 h -10.88 v 5 h -10.25 v -5 h -10.76 v 5 h -10.25 v -5 h -10.75 v 5 h -10.25 v -5 h -10.76 v 5 h -10.25 v -5 h -10.76 v 5 h -10.25 v -5 h -10.75 v 5 h -10.255 v -5 h -10.757 v 5 h -10.25 v -5 h -10.756 v 5 h -10.25 v -5 h -10.757 v 5 h -10.25 v -5 h -10.757 v 5 h -10.25 v -5 h -10.756 v 5 h -10.25 v -5 h -10.757 v 5 h -10.25 v -5 h -10.757 v 5 h -10.25 v -5 h -10.756 v 5 h -10.25 V 97 H 820.2"
         id="path9246" />
      <path
         style="fill:none;stroke:#000000;stroke-width:1"
         d="m 820.2,97 v -7.125 h 5 v -9.75 h -5 v -12.25 h 5 v -9.75 h -5 v -12.25 h 5 v -9.75 h -5 v -12.25 h 5 v -9.75 h -5 V 7"
         id="path9248" />
    </g>
  </g>
</svg>
