999
"DXF R12 Output" (www.mydxf.blogspot.com)
 0 
SECTION
 2 
HEADER
 9 
$ACADVER
 1 
AC1009
 9 
$EXTMIN
 10 
 0 
 20 
 0 
 9 
$EXTMAX
 10 
 8.5 
 20 
 11 
 0 
ENDSEC
 0 
SECTION
 2 
ENTITIES
0
LINE
8
Layer 1
10
-153.609000
20
-212.817000
11
269.724000
21
-212.817000
0
LINE
8
Layer 1
10
269.724000
20
-212.817000
11
269.724000
21
-353.928000
0
LINE
8
Layer 1
10
269.724000
20
-353.928000
11
-153.609000
21
-353.928000
0
LINE
8
Layer 1
10
-153.609000
20
-353.928000
11
-153.609000
21
-212.817000
0
LINE
8
Layer 1
10
136.341000
20
81.844400
11
139.377000
21
81.844400
0
LINE
8
Layer 1
10
139.377000
20
81.844400
11
139.377000
21
83.255600
0
LINE
8
Layer 1
10
139.377000
20
83.255600
11
142.341000
21
83.255600
0
LINE
8
Layer 1
10
142.341000
20
83.255600
11
142.341000
21
81.844400
0
LINE
8
Layer 1
10
142.341000
20
81.844400
11
145.306000
21
81.844400
0
LINE
8
Layer 1
10
145.306000
20
81.844400
11
145.306000
21
83.255600
0
LINE
8
Layer 1
10
145.306000
20
83.255600
11
148.269000
21
83.255600
0
LINE
8
Layer 1
10
148.269000
20
83.255600
11
148.269000
21
81.844400
0
LINE
8
Layer 1
10
148.269000
20
81.844400
11
151.234000
21
81.844400
0
LINE
8
Layer 1
10
151.234000
20
81.844400
11
151.234000
21
83.255600
0
LINE
8
Layer 1
10
151.234000
20
83.255600
11
154.198000
21
83.255600
0
LINE
8
Layer 1
10
154.198000
20
83.255600
11
154.198000
21
81.844400
0
LINE
8
Layer 1
10
154.198000
20
81.844400
11
157.163000
21
81.844400
0
LINE
8
Layer 1
10
157.163000
20
81.844400
11
157.163000
21
83.255600
0
LINE
8
Layer 1
10
157.163000
20
83.255600
11
160.126000
21
83.255600
0
LINE
8
Layer 1
10
160.126000
20
83.255600
11
160.126000
21
81.844400
0
LINE
8
Layer 1
10
160.126000
20
81.844400
11
163.091000
21
81.844400
0
LINE
8
Layer 1
10
163.091000
20
81.844400
11
163.091000
21
83.255600
0
LINE
8
Layer 1
10
163.091000
20
83.255600
11
166.055000
21
83.255600
0
LINE
8
Layer 1
10
166.055000
20
83.255600
11
166.055000
21
81.844400
0
LINE
8
Layer 1
10
166.055000
20
81.844400
11
169.020000
21
81.844400
0
LINE
8
Layer 1
10
169.020000
20
81.844400
11
169.020000
21
83.255600
0
LINE
8
Layer 1
10
169.020000
20
83.255600
11
171.983000
21
83.255600
0
LINE
8
Layer 1
10
171.983000
20
83.255600
11
171.983000
21
81.844400
0
LINE
8
Layer 1
10
171.983000
20
81.844400
11
174.949000
21
81.844400
0
LINE
8
Layer 1
10
174.949000
20
81.844400
11
174.949000
21
83.255600
0
LINE
8
Layer 1
10
174.949000
20
83.255600
11
177.912000
21
83.255600
0
LINE
8
Layer 1
10
177.912000
20
83.255600
11
177.912000
21
81.844400
0
LINE
8
Layer 1
10
177.912000
20
81.844400
11
180.877000
21
81.844400
0
LINE
8
Layer 1
10
180.877000
20
81.844400
11
180.877000
21
83.255600
0
LINE
8
Layer 1
10
180.877000
20
83.255600
11
183.840000
21
83.255600
0
LINE
8
Layer 1
10
183.840000
20
83.255600
11
183.840000
21
81.844400
0
LINE
8
Layer 1
10
183.840000
20
81.844400
11
186.806000
21
81.844400
0
LINE
8
Layer 1
10
186.806000
20
81.844400
11
186.806000
21
83.255600
0
LINE
8
Layer 1
10
186.806000
20
83.255600
11
189.769000
21
83.255600
0
LINE
8
Layer 1
10
189.769000
20
83.255600
11
189.769000
21
81.844400
0
LINE
8
Layer 1
10
189.769000
20
81.844400
11
192.734000
21
81.844400
0
LINE
8
Layer 1
10
192.734000
20
81.844400
11
192.734000
21
83.255600
0
LINE
8
Layer 1
10
192.734000
20
83.255600
11
195.698000
21
83.255600
0
LINE
8
Layer 1
10
195.698000
20
83.255600
11
195.698000
21
81.844400
0
LINE
8
Layer 1
10
195.698000
20
81.844400
11
198.663000
21
81.844400
0
LINE
8
Layer 1
10
198.663000
20
81.844400
11
198.663000
21
83.255600
0
LINE
8
Layer 1
10
198.663000
20
83.255600
11
201.626000
21
83.255600
0
LINE
8
Layer 1
10
201.626000
20
83.255600
11
201.626000
21
81.844400
0
LINE
8
Layer 1
10
201.626000
20
81.844400
11
204.591000
21
81.844400
0
LINE
8
Layer 1
10
204.591000
20
81.844400
11
204.591000
21
83.255600
0
LINE
8
Layer 1
10
204.591000
20
83.255600
11
207.555000
21
83.255600
0
LINE
8
Layer 1
10
207.555000
20
83.255600
11
207.555000
21
81.844400
0
LINE
8
Layer 1
10
207.555000
20
81.844400
11
210.520000
21
81.844400
0
LINE
8
Layer 1
10
210.520000
20
81.844400
11
210.520000
21
83.255600
0
LINE
8
Layer 1
10
210.520000
20
83.255600
11
213.483000
21
83.255600
0
LINE
8
Layer 1
10
213.483000
20
83.255600
11
213.483000
21
81.844400
0
LINE
8
Layer 1
10
213.483000
20
81.844400
11
216.448000
21
81.844400
0
LINE
8
Layer 1
10
216.448000
20
81.844400
11
216.448000
21
83.255600
0
LINE
8
Layer 1
10
216.448000
20
83.255600
11
219.412000
21
83.255600
0
LINE
8
Layer 1
10
219.412000
20
83.255600
11
219.412000
21
81.844400
0
LINE
8
Layer 1
10
219.412000
20
81.844400
11
222.447000
21
81.844400
0
LINE
8
Layer 1
10
222.447000
20
81.844400
11
222.447000
21
79.304400
0
LINE
8
Layer 1
10
222.447000
20
79.304400
11
221.036000
21
79.304400
0
LINE
8
Layer 1
10
221.036000
20
79.304400
11
221.036000
21
76.623300
0
LINE
8
Layer 1
10
221.036000
20
76.623300
11
222.447000
21
76.623300
0
LINE
8
Layer 1
10
222.447000
20
76.623300
11
222.447000
21
72.601700
0
LINE
8
Layer 1
10
222.447000
20
72.601700
11
221.036000
21
72.601700
0
LINE
8
Layer 1
10
221.036000
20
72.601700
11
221.036000
21
69.920600
0
LINE
8
Layer 1
10
221.036000
20
69.920600
11
222.447000
21
69.920600
0
LINE
8
Layer 1
10
222.447000
20
69.920600
11
222.447000
21
65.898900
0
LINE
8
Layer 1
10
222.447000
20
65.898900
11
221.036000
21
65.898900
0
LINE
8
Layer 1
10
221.036000
20
65.898900
11
221.036000
21
63.217800
0
LINE
8
Layer 1
10
221.036000
20
63.217800
11
222.447000
21
63.217800
0
LINE
8
Layer 1
10
222.447000
20
63.217800
11
222.447000
21
60.677800
0
LINE
8
Layer 1
10
222.447000
20
60.677800
11
219.412000
21
60.677800
0
LINE
8
Layer 1
10
219.412000
20
60.677800
11
219.412000
21
60.677800
0
LINE
8
Layer 1
10
219.412000
20
60.677800
11
216.448000
21
60.677800
0
LINE
8
Layer 1
10
216.448000
20
60.677800
11
216.448000
21
60.677800
0
LINE
8
Layer 1
10
216.448000
20
60.677800
11
213.483000
21
60.677800
0
LINE
8
Layer 1
10
213.483000
20
60.677800
11
213.483000
21
60.677800
0
LINE
8
Layer 1
10
213.483000
20
60.677800
11
210.520000
21
60.677800
0
LINE
8
Layer 1
10
210.520000
20
60.677800
11
210.520000
21
60.677800
0
LINE
8
Layer 1
10
210.520000
20
60.677800
11
207.555000
21
60.677800
0
LINE
8
Layer 1
10
207.555000
20
60.677800
11
207.555000
21
60.677800
0
LINE
8
Layer 1
10
207.555000
20
60.677800
11
204.591000
21
60.677800
0
LINE
8
Layer 1
10
204.591000
20
60.677800
11
204.591000
21
60.677800
0
LINE
8
Layer 1
10
204.591000
20
60.677800
11
201.626000
21
60.677800
0
LINE
8
Layer 1
10
201.626000
20
60.677800
11
201.626000
21
60.677800
0
LINE
8
Layer 1
10
201.626000
20
60.677800
11
198.663000
21
60.677800
0
LINE
8
Layer 1
10
198.663000
20
60.677800
11
198.663000
21
60.677800
0
LINE
8
Layer 1
10
198.663000
20
60.677800
11
195.698000
21
60.677800
0
LINE
8
Layer 1
10
195.698000
20
60.677800
11
195.698000
21
60.677800
0
LINE
8
Layer 1
10
195.698000
20
60.677800
11
192.734000
21
60.677800
0
LINE
8
Layer 1
10
192.734000
20
60.677800
11
192.734000
21
60.677800
0
LINE
8
Layer 1
10
192.734000
20
60.677800
11
189.769000
21
60.677800
0
LINE
8
Layer 1
10
189.769000
20
60.677800
11
189.769000
21
60.677800
0
LINE
8
Layer 1
10
189.769000
20
60.677800
11
186.806000
21
60.677800
0
LINE
8
Layer 1
10
186.806000
20
60.677800
11
186.806000
21
60.677800
0
LINE
8
Layer 1
10
186.806000
20
60.677800
11
183.840000
21
60.677800
0
LINE
8
Layer 1
10
183.840000
20
60.677800
11
183.840000
21
60.677800
0
LINE
8
Layer 1
10
183.840000
20
60.677800
11
180.877000
21
60.677800
0
LINE
8
Layer 1
10
180.877000
20
60.677800
11
180.877000
21
60.677800
0
LINE
8
Layer 1
10
180.877000
20
60.677800
11
177.912000
21
60.677800
0
LINE
8
Layer 1
10
177.912000
20
60.677800
11
177.912000
21
60.677800
0
LINE
8
Layer 1
10
177.912000
20
60.677800
11
174.949000
21
60.677800
0
LINE
8
Layer 1
10
174.949000
20
60.677800
11
174.949000
21
60.677800
0
LINE
8
Layer 1
10
174.949000
20
60.677800
11
171.983000
21
60.677800
0
LINE
8
Layer 1
10
171.983000
20
60.677800
11
171.983000
21
60.677800
0
LINE
8
Layer 1
10
171.983000
20
60.677800
11
169.020000
21
60.677800
0
LINE
8
Layer 1
10
169.020000
20
60.677800
11
169.020000
21
60.677800
0
LINE
8
Layer 1
10
169.020000
20
60.677800
11
166.055000
21
60.677800
0
LINE
8
Layer 1
10
166.055000
20
60.677800
11
166.055000
21
60.677800
0
LINE
8
Layer 1
10
166.055000
20
60.677800
11
163.091000
21
60.677800
0
LINE
8
Layer 1
10
163.091000
20
60.677800
11
163.091000
21
60.677800
0
LINE
8
Layer 1
10
163.091000
20
60.677800
11
160.126000
21
60.677800
0
LINE
8
Layer 1
10
160.126000
20
60.677800
11
160.126000
21
60.677800
0
LINE
8
Layer 1
10
160.126000
20
60.677800
11
157.163000
21
60.677800
0
LINE
8
Layer 1
10
157.163000
20
60.677800
11
157.163000
21
60.677800
0
LINE
8
Layer 1
10
157.163000
20
60.677800
11
154.198000
21
60.677800
0
LINE
8
Layer 1
10
154.198000
20
60.677800
11
154.198000
21
60.677800
0
LINE
8
Layer 1
10
154.198000
20
60.677800
11
151.234000
21
60.677800
0
LINE
8
Layer 1
10
151.234000
20
60.677800
11
151.234000
21
60.677800
0
LINE
8
Layer 1
10
151.234000
20
60.677800
11
148.269000
21
60.677800
0
LINE
8
Layer 1
10
148.269000
20
60.677800
11
148.269000
21
60.677800
0
LINE
8
Layer 1
10
148.269000
20
60.677800
11
145.306000
21
60.677800
0
LINE
8
Layer 1
10
145.306000
20
60.677800
11
145.306000
21
60.677800
0
LINE
8
Layer 1
10
145.306000
20
60.677800
11
142.341000
21
60.677800
0
LINE
8
Layer 1
10
142.341000
20
60.677800
11
142.341000
21
60.677800
0
LINE
8
Layer 1
10
142.341000
20
60.677800
11
139.377000
21
60.677800
0
LINE
8
Layer 1
10
139.377000
20
60.677800
11
139.377000
21
60.677800
0
LINE
8
Layer 1
10
139.377000
20
60.677800
11
136.341000
21
60.677800
0
LINE
8
Layer 1
10
136.341000
20
60.677800
11
136.341000
21
63.217800
0
LINE
8
Layer 1
10
136.341000
20
63.217800
11
137.753000
21
63.217800
0
LINE
8
Layer 1
10
137.753000
20
63.217800
11
137.753000
21
65.898900
0
LINE
8
Layer 1
10
137.753000
20
65.898900
11
136.341000
21
65.898900
0
LINE
8
Layer 1
10
136.341000
20
65.898900
11
136.341000
21
69.920600
0
LINE
8
Layer 1
10
136.341000
20
69.920600
11
137.753000
21
69.920600
0
LINE
8
Layer 1
10
137.753000
20
69.920600
11
137.753000
21
72.601700
0
LINE
8
Layer 1
10
137.753000
20
72.601700
11
136.341000
21
72.601700
0
LINE
8
Layer 1
10
136.341000
20
72.601700
11
136.341000
21
76.623300
0
LINE
8
Layer 1
10
136.341000
20
76.623300
11
137.753000
21
76.623300
0
LINE
8
Layer 1
10
137.753000
20
76.623300
11
137.753000
21
79.304400
0
LINE
8
Layer 1
10
137.753000
20
79.304400
11
136.341000
21
79.304400
0
LINE
8
Layer 1
10
136.341000
20
79.304400
11
136.341000
21
81.844400
0
LINE
8
Layer 1
10
88.645900
20
81.844400
11
91.044800
21
81.844400
0
LINE
8
Layer 1
10
91.044800
20
81.844400
11
91.044800
21
83.255600
0
LINE
8
Layer 1
10
91.044800
20
83.255600
11
94.008100
21
83.255600
0
LINE
8
Layer 1
10
94.008100
20
83.255600
11
94.008100
21
81.844400
0
LINE
8
Layer 1
10
94.008100
20
81.844400
11
97.747600
21
81.844400
0
LINE
8
Layer 1
10
97.747600
20
81.844400
11
97.747600
21
83.255600
0
LINE
8
Layer 1
10
97.747600
20
83.255600
11
100.711000
21
83.255600
0
LINE
8
Layer 1
10
100.711000
20
83.255600
11
100.711000
21
81.844400
0
LINE
8
Layer 1
10
100.711000
20
81.844400
11
104.450000
21
81.844400
0
LINE
8
Layer 1
10
104.450000
20
81.844400
11
104.450000
21
83.255600
0
LINE
8
Layer 1
10
104.450000
20
83.255600
11
107.414000
21
83.255600
0
LINE
8
Layer 1
10
107.414000
20
83.255600
11
107.414000
21
81.844400
0
LINE
8
Layer 1
10
107.414000
20
81.844400
11
109.813000
21
81.844400
0
LINE
8
Layer 1
10
109.813000
20
81.844400
11
109.813000
21
80.500800
0
LINE
8
Layer 1
10
109.813000
20
80.500800
11
111.224000
21
80.500800
0
LINE
8
Layer 1
10
111.224000
20
80.500800
11
111.224000
21
77.537400
0
LINE
8
Layer 1
10
111.224000
20
77.537400
11
109.813000
21
77.537400
0
LINE
8
Layer 1
10
109.813000
20
77.537400
11
109.813000
21
74.853200
0
LINE
8
Layer 1
10
109.813000
20
74.853200
11
111.224000
21
74.853200
0
LINE
8
Layer 1
10
111.224000
20
74.853200
11
111.224000
21
71.889900
0
LINE
8
Layer 1
10
111.224000
20
71.889900
11
109.813000
21
71.889900
0
LINE
8
Layer 1
10
109.813000
20
71.889900
11
109.813000
21
69.205600
0
LINE
8
Layer 1
10
109.813000
20
69.205600
11
111.224000
21
69.205600
0
LINE
8
Layer 1
10
111.224000
20
69.205600
11
111.224000
21
66.242300
0
LINE
8
Layer 1
10
111.224000
20
66.242300
11
109.813000
21
66.242300
0
LINE
8
Layer 1
10
109.813000
20
66.242300
11
109.813000
21
63.558000
0
LINE
8
Layer 1
10
109.813000
20
63.558000
11
111.224000
21
63.558000
0
LINE
8
Layer 1
10
111.224000
20
63.558000
11
111.224000
21
60.594700
0
LINE
8
Layer 1
10
111.224000
20
60.594700
11
109.813000
21
60.594700
0
LINE
8
Layer 1
10
109.813000
20
60.594700
11
109.813000
21
57.910400
0
LINE
8
Layer 1
10
109.813000
20
57.910400
11
111.224000
21
57.910400
0
LINE
8
Layer 1
10
111.224000
20
57.910400
11
111.224000
21
54.947000
0
LINE
8
Layer 1
10
111.224000
20
54.947000
11
109.813000
21
54.947000
0
LINE
8
Layer 1
10
109.813000
20
54.947000
11
109.813000
21
52.262800
0
LINE
8
Layer 1
10
109.813000
20
52.262800
11
111.224000
21
52.262800
0
LINE
8
Layer 1
10
111.224000
20
52.262800
11
111.224000
21
49.299500
0
LINE
8
Layer 1
10
111.224000
20
49.299500
11
109.813000
21
49.299500
0
LINE
8
Layer 1
10
109.813000
20
49.299500
11
109.813000
21
46.615200
0
LINE
8
Layer 1
10
109.813000
20
46.615200
11
111.224000
21
46.615200
0
LINE
8
Layer 1
10
111.224000
20
46.615200
11
111.224000
21
43.651900
0
LINE
8
Layer 1
10
111.224000
20
43.651900
11
109.813000
21
43.651900
0
LINE
8
Layer 1
10
109.813000
20
43.651900
11
109.813000
21
40.967700
0
LINE
8
Layer 1
10
109.813000
20
40.967700
11
111.224000
21
40.967700
0
LINE
8
Layer 1
10
111.224000
20
40.967700
11
111.224000
21
38.004400
0
LINE
8
Layer 1
10
111.224000
20
38.004400
11
109.813000
21
38.004400
0
LINE
8
Layer 1
10
109.813000
20
38.004400
11
109.813000
21
36.660700
0
LINE
8
Layer 1
10
109.813000
20
36.660700
11
107.414000
21
36.660700
0
LINE
8
Layer 1
10
107.414000
20
36.660700
11
107.414000
21
35.249600
0
LINE
8
Layer 1
10
107.414000
20
35.249600
11
104.450000
21
35.249600
0
LINE
8
Layer 1
10
104.450000
20
35.249600
11
104.450000
21
36.660700
0
LINE
8
Layer 1
10
104.450000
20
36.660700
11
100.711000
21
36.660700
0
LINE
8
Layer 1
10
100.711000
20
36.660700
11
100.711000
21
35.249600
0
LINE
8
Layer 1
10
100.711000
20
35.249600
11
97.747600
21
35.249600
0
LINE
8
Layer 1
10
97.747600
20
35.249600
11
97.747600
21
36.660700
0
LINE
8
Layer 1
10
97.747600
20
36.660700
11
94.008100
21
36.660700
0
LINE
8
Layer 1
10
94.008100
20
36.660700
11
94.008100
21
35.249600
0
LINE
8
Layer 1
10
94.008100
20
35.249600
11
91.044800
21
35.249600
0
LINE
8
Layer 1
10
91.044800
20
35.249600
11
91.044800
21
36.660700
0
LINE
8
Layer 1
10
91.044800
20
36.660700
11
88.645900
21
36.660700
0
LINE
8
Layer 1
10
88.645900
20
36.660700
11
88.645900
21
38.004400
0
LINE
8
Layer 1
10
88.645900
20
38.004400
11
88.645900
21
38.004400
0
LINE
8
Layer 1
10
88.645900
20
38.004400
11
88.645900
21
40.967700
0
LINE
8
Layer 1
10
88.645900
20
40.967700
11
88.645900
21
40.967700
0
LINE
8
Layer 1
10
88.645900
20
40.967700
11
88.645900
21
43.651900
0
LINE
8
Layer 1
10
88.645900
20
43.651900
11
88.645900
21
43.651900
0
LINE
8
Layer 1
10
88.645900
20
43.651900
11
88.645900
21
46.615200
0
LINE
8
Layer 1
10
88.645900
20
46.615200
11
88.645900
21
46.615200
0
LINE
8
Layer 1
10
88.645900
20
46.615200
11
88.645900
21
49.299500
0
LINE
8
Layer 1
10
88.645900
20
49.299500
11
88.645900
21
49.299500
0
LINE
8
Layer 1
10
88.645900
20
49.299500
11
88.645900
21
52.262800
0
LINE
8
Layer 1
10
88.645900
20
52.262800
11
88.645900
21
52.262800
0
LINE
8
Layer 1
10
88.645900
20
52.262800
11
88.645900
21
54.947000
0
LINE
8
Layer 1
10
88.645900
20
54.947000
11
88.645900
21
54.947000
0
LINE
8
Layer 1
10
88.645900
20
54.947000
11
88.645900
21
57.910400
0
LINE
8
Layer 1
10
88.645900
20
57.910400
11
88.645900
21
57.910400
0
LINE
8
Layer 1
10
88.645900
20
57.910400
11
88.645900
21
60.594700
0
LINE
8
Layer 1
10
88.645900
20
60.594700
11
88.645900
21
60.594700
0
LINE
8
Layer 1
10
88.645900
20
60.594700
11
88.645900
21
63.558000
0
LINE
8
Layer 1
10
88.645900
20
63.558000
11
88.645900
21
63.558000
0
LINE
8
Layer 1
10
88.645900
20
63.558000
11
88.645900
21
66.242300
0
LINE
8
Layer 1
10
88.645900
20
66.242300
11
88.645900
21
66.242300
0
LINE
8
Layer 1
10
88.645900
20
66.242300
11
88.645900
21
69.205600
0
LINE
8
Layer 1
10
88.645900
20
69.205600
11
88.645900
21
69.205600
0
LINE
8
Layer 1
10
88.645900
20
69.205600
11
88.645900
21
71.889900
0
LINE
8
Layer 1
10
88.645900
20
71.889900
11
88.645900
21
71.889900
0
LINE
8
Layer 1
10
88.645900
20
71.889900
11
88.645900
21
74.853200
0
LINE
8
Layer 1
10
88.645900
20
74.853200
11
88.645900
21
74.853200
0
LINE
8
Layer 1
10
88.645900
20
74.853200
11
88.645900
21
77.537400
0
LINE
8
Layer 1
10
88.645900
20
77.537400
11
88.645900
21
77.537400
0
LINE
8
Layer 1
10
88.645900
20
77.537400
11
88.645900
21
80.500800
0
LINE
8
Layer 1
10
88.645900
20
80.500800
11
88.645900
21
80.500800
0
LINE
8
Layer 1
10
88.645900
20
80.500800
11
88.645900
21
81.844400
0
LINE
8
Layer 1
10
0.564444
20
83.255600
11
3.741330
21
83.255600
0
LINE
8
Layer 1
10
3.741330
20
83.255600
11
3.741330
21
81.844400
0
LINE
8
Layer 1
10
3.741330
20
81.844400
11
6.422440
21
81.844400
0
LINE
8
Layer 1
10
6.422440
20
81.844400
11
6.422440
21
83.255600
0
LINE
8
Layer 1
10
6.422440
20
83.255600
11
9.669860
21
83.255600
0
LINE
8
Layer 1
10
9.669860
20
83.255600
11
9.669860
21
81.844400
0
LINE
8
Layer 1
10
9.669860
20
81.844400
11
12.351000
21
81.844400
0
LINE
8
Layer 1
10
12.351000
20
81.844400
11
12.351000
21
83.255600
0
LINE
8
Layer 1
10
12.351000
20
83.255600
11
15.598400
21
83.255600
0
LINE
8
Layer 1
10
15.598400
20
83.255600
11
15.598400
21
81.844400
0
LINE
8
Layer 1
10
15.598400
20
81.844400
11
18.279500
21
81.844400
0
LINE
8
Layer 1
10
18.279500
20
81.844400
11
18.279500
21
83.255600
0
LINE
8
Layer 1
10
18.279500
20
83.255600
11
21.527000
21
83.255600
0
LINE
8
Layer 1
10
21.527000
20
83.255600
11
21.527000
21
81.844400
0
LINE
8
Layer 1
10
21.527000
20
81.844400
11
24.208100
21
81.844400
0
LINE
8
Layer 1
10
24.208100
20
81.844400
11
24.208100
21
83.255600
0
LINE
8
Layer 1
10
24.208100
20
83.255600
11
27.455500
21
83.255600
0
LINE
8
Layer 1
10
27.455500
20
83.255600
11
27.455500
21
81.844400
0
LINE
8
Layer 1
10
27.455500
20
81.844400
11
30.136500
21
81.844400
0
LINE
8
Layer 1
10
30.136500
20
81.844400
11
30.136500
21
83.255600
0
LINE
8
Layer 1
10
30.136500
20
83.255600
11
33.384000
21
83.255600
0
LINE
8
Layer 1
10
33.384000
20
83.255600
11
33.384000
21
81.844400
0
LINE
8
Layer 1
10
33.384000
20
81.844400
11
36.065100
21
81.844400
0
LINE
8
Layer 1
10
36.065100
20
81.844400
11
36.065100
21
83.255600
0
LINE
8
Layer 1
10
36.065100
20
83.255600
11
39.312700
21
83.255600
0
LINE
8
Layer 1
10
39.312700
20
83.255600
11
39.312700
21
81.844400
0
LINE
8
Layer 1
10
39.312700
20
81.844400
11
41.993800
21
81.844400
0
LINE
8
Layer 1
10
41.993800
20
81.844400
11
41.993800
21
83.255600
0
LINE
8
Layer 1
10
41.993800
20
83.255600
11
45.241000
21
83.255600
0
LINE
8
Layer 1
10
45.241000
20
83.255600
11
45.241000
21
81.844400
0
LINE
8
Layer 1
10
45.241000
20
81.844400
11
47.922100
21
81.844400
0
LINE
8
Layer 1
10
47.922100
20
81.844400
11
47.922100
21
83.255600
0
LINE
8
Layer 1
10
47.922100
20
83.255600
11
51.169700
21
83.255600
0
LINE
8
Layer 1
10
51.169700
20
83.255600
11
51.169700
21
81.844400
0
LINE
8
Layer 1
10
51.169700
20
81.844400
11
53.850800
21
81.844400
0
LINE
8
Layer 1
10
53.850800
20
81.844400
11
53.850800
21
83.255600
0
LINE
8
Layer 1
10
53.850800
20
83.255600
11
57.098300
21
83.255600
0
LINE
8
Layer 1
10
57.098300
20
83.255600
11
57.098300
21
81.844400
0
LINE
8
Layer 1
10
57.098300
20
81.844400
11
59.779400
21
81.844400
0
LINE
8
Layer 1
10
59.779400
20
81.844400
11
59.779400
21
83.255600
0
LINE
8
Layer 1
10
59.779400
20
83.255600
11
63.026700
21
83.255600
0
LINE
8
Layer 1
10
63.026700
20
83.255600
11
63.026700
21
81.844400
0
LINE
8
Layer 1
10
63.026700
20
81.844400
11
65.707800
21
81.844400
0
LINE
8
Layer 1
10
65.707800
20
81.844400
11
65.707800
21
83.255600
0
LINE
8
Layer 1
10
65.707800
20
83.255600
11
68.955300
21
83.255600
0
LINE
8
Layer 1
10
68.955300
20
83.255600
11
68.955300
21
81.844400
0
LINE
8
Layer 1
10
68.955300
20
81.844400
11
71.636400
21
81.844400
0
LINE
8
Layer 1
10
71.636400
20
81.844400
11
71.636400
21
83.255600
0
LINE
8
Layer 1
10
71.636400
20
83.255600
11
74.883900
21
83.255600
0
LINE
8
Layer 1
10
74.883900
20
83.255600
11
74.883900
21
81.844400
0
LINE
8
Layer 1
10
74.883900
20
81.844400
11
77.565000
21
81.844400
0
LINE
8
Layer 1
10
77.565000
20
81.844400
11
77.565000
21
83.255600
0
LINE
8
Layer 1
10
77.565000
20
83.255600
11
80.812300
21
83.255600
0
LINE
8
Layer 1
10
80.812300
20
83.255600
11
80.812300
21
81.844400
0
LINE
8
Layer 1
10
80.812300
20
81.844400
11
83.493400
21
81.844400
0
LINE
8
Layer 1
10
83.493400
20
81.844400
11
83.493400
21
83.255600
0
LINE
8
Layer 1
10
83.493400
20
83.255600
11
86.670400
21
83.255600
0
LINE
8
Layer 1
10
86.670400
20
83.255600
11
86.670400
21
80.359600
0
LINE
8
Layer 1
10
86.670400
20
80.359600
11
85.259300
21
80.359600
0
LINE
8
Layer 1
10
85.259300
20
80.359600
11
85.259300
21
77.678500
0
LINE
8
Layer 1
10
85.259300
20
77.678500
11
86.670400
21
77.678500
0
LINE
8
Layer 1
10
86.670400
20
77.678500
11
86.670400
21
74.712100
0
LINE
8
Layer 1
10
86.670400
20
74.712100
11
85.259300
21
74.712100
0
LINE
8
Layer 1
10
85.259300
20
74.712100
11
85.259300
21
72.031000
0
LINE
8
Layer 1
10
85.259300
20
72.031000
11
86.670400
21
72.031000
0
LINE
8
Layer 1
10
86.670400
20
72.031000
11
86.670400
21
69.064500
0
LINE
8
Layer 1
10
86.670400
20
69.064500
11
85.259300
21
69.064500
0
LINE
8
Layer 1
10
85.259300
20
69.064500
11
85.259300
21
66.383400
0
LINE
8
Layer 1
10
85.259300
20
66.383400
11
86.670400
21
66.383400
0
LINE
8
Layer 1
10
86.670400
20
66.383400
11
86.670400
21
63.416900
0
LINE
8
Layer 1
10
86.670400
20
63.416900
11
85.259300
21
63.416900
0
LINE
8
Layer 1
10
85.259300
20
63.416900
11
85.259300
21
60.735800
0
LINE
8
Layer 1
10
85.259300
20
60.735800
11
86.670400
21
60.735800
0
LINE
8
Layer 1
10
86.670400
20
60.735800
11
86.670400
21
57.769300
0
LINE
8
Layer 1
10
86.670400
20
57.769300
11
85.259300
21
57.769300
0
LINE
8
Layer 1
10
85.259300
20
57.769300
11
85.259300
21
55.088100
0
LINE
8
Layer 1
10
85.259300
20
55.088100
11
86.670400
21
55.088100
0
LINE
8
Layer 1
10
86.670400
20
55.088100
11
86.670400
21
52.121700
0
LINE
8
Layer 1
10
86.670400
20
52.121700
11
85.259300
21
52.121700
0
LINE
8
Layer 1
10
85.259300
20
52.121700
11
85.259300
21
49.440600
0
LINE
8
Layer 1
10
85.259300
20
49.440600
11
86.670400
21
49.440600
0
LINE
8
Layer 1
10
86.670400
20
49.440600
11
86.670400
21
46.474100
0
LINE
8
Layer 1
10
86.670400
20
46.474100
11
85.259300
21
46.474100
0
LINE
8
Layer 1
10
85.259300
20
46.474100
11
85.259300
21
43.793000
0
LINE
8
Layer 1
10
85.259300
20
43.793000
11
86.670400
21
43.793000
0
LINE
8
Layer 1
10
86.670400
20
43.793000
11
86.670400
21
40.826600
0
LINE
8
Layer 1
10
86.670400
20
40.826600
11
85.259300
21
40.826600
0
LINE
8
Layer 1
10
85.259300
20
40.826600
11
85.259300
21
38.145500
0
LINE
8
Layer 1
10
85.259300
20
38.145500
11
86.670400
21
38.145500
0
LINE
8
Layer 1
10
86.670400
20
38.145500
11
86.670400
21
35.249600
0
LINE
8
Layer 1
10
86.670400
20
35.249600
11
83.493400
21
35.249600
0
LINE
8
Layer 1
10
83.493400
20
35.249600
11
83.493400
21
36.660700
0
LINE
8
Layer 1
10
83.493400
20
36.660700
11
80.812300
21
36.660700
0
LINE
8
Layer 1
10
80.812300
20
36.660700
11
80.812300
21
35.249600
0
LINE
8
Layer 1
10
80.812300
20
35.249600
11
77.565000
21
35.249600
0
LINE
8
Layer 1
10
77.565000
20
35.249600
11
77.565000
21
36.660700
0
LINE
8
Layer 1
10
77.565000
20
36.660700
11
74.883900
21
36.660700
0
LINE
8
Layer 1
10
74.883900
20
36.660700
11
74.883900
21
35.249600
0
LINE
8
Layer 1
10
74.883900
20
35.249600
11
71.636400
21
35.249600
0
LINE
8
Layer 1
10
71.636400
20
35.249600
11
71.636400
21
36.660700
0
LINE
8
Layer 1
10
71.636400
20
36.660700
11
68.955300
21
36.660700
0
LINE
8
Layer 1
10
68.955300
20
36.660700
11
68.955300
21
35.249600
0
LINE
8
Layer 1
10
68.955300
20
35.249600
11
65.707800
21
35.249600
0
LINE
8
Layer 1
10
65.707800
20
35.249600
11
65.707800
21
36.660700
0
LINE
8
Layer 1
10
65.707800
20
36.660700
11
63.026700
21
36.660700
0
LINE
8
Layer 1
10
63.026700
20
36.660700
11
63.026700
21
35.249600
0
LINE
8
Layer 1
10
63.026700
20
35.249600
11
59.779400
21
35.249600
0
LINE
8
Layer 1
10
59.779400
20
35.249600
11
59.779400
21
36.660700
0
LINE
8
Layer 1
10
59.779400
20
36.660700
11
57.098300
21
36.660700
0
LINE
8
Layer 1
10
57.098300
20
36.660700
11
57.098300
21
35.249600
0
LINE
8
Layer 1
10
57.098300
20
35.249600
11
53.850800
21
35.249600
0
LINE
8
Layer 1
10
53.850800
20
35.249600
11
53.850800
21
36.660700
0
LINE
8
Layer 1
10
53.850800
20
36.660700
11
51.169700
21
36.660700
0
LINE
8
Layer 1
10
51.169700
20
36.660700
11
51.169700
21
35.249600
0
LINE
8
Layer 1
10
51.169700
20
35.249600
11
47.922100
21
35.249600
0
LINE
8
Layer 1
10
47.922100
20
35.249600
11
47.922100
21
36.660700
0
LINE
8
Layer 1
10
47.922100
20
36.660700
11
45.241000
21
36.660700
0
LINE
8
Layer 1
10
45.241000
20
36.660700
11
45.241000
21
35.249600
0
LINE
8
Layer 1
10
45.241000
20
35.249600
11
41.993800
21
35.249600
0
LINE
8
Layer 1
10
41.993800
20
35.249600
11
41.993800
21
36.660700
0
LINE
8
Layer 1
10
41.993800
20
36.660700
11
39.312700
21
36.660700
0
LINE
8
Layer 1
10
39.312700
20
36.660700
11
39.312700
21
35.249600
0
LINE
8
Layer 1
10
39.312700
20
35.249600
11
36.065100
21
35.249600
0
LINE
8
Layer 1
10
36.065100
20
35.249600
11
36.065100
21
36.660700
0
LINE
8
Layer 1
10
36.065100
20
36.660700
11
33.384000
21
36.660700
0
LINE
8
Layer 1
10
33.384000
20
36.660700
11
33.384000
21
35.249600
0
LINE
8
Layer 1
10
33.384000
20
35.249600
11
30.136500
21
35.249600
0
LINE
8
Layer 1
10
30.136500
20
35.249600
11
30.136500
21
36.660700
0
LINE
8
Layer 1
10
30.136500
20
36.660700
11
27.455500
21
36.660700
0
LINE
8
Layer 1
10
27.455500
20
36.660700
11
27.455500
21
35.249600
0
LINE
8
Layer 1
10
27.455500
20
35.249600
11
24.208100
21
35.249600
0
LINE
8
Layer 1
10
24.208100
20
35.249600
11
24.208100
21
36.660700
0
LINE
8
Layer 1
10
24.208100
20
36.660700
11
21.527000
21
36.660700
0
LINE
8
Layer 1
10
21.527000
20
36.660700
11
21.527000
21
35.249600
0
LINE
8
Layer 1
10
21.527000
20
35.249600
11
18.279500
21
35.249600
0
LINE
8
Layer 1
10
18.279500
20
35.249600
11
18.279500
21
36.660700
0
LINE
8
Layer 1
10
18.279500
20
36.660700
11
15.598400
21
36.660700
0
LINE
8
Layer 1
10
15.598400
20
36.660700
11
15.598400
21
35.249600
0
LINE
8
Layer 1
10
15.598400
20
35.249600
11
12.351000
21
35.249600
0
LINE
8
Layer 1
10
12.351000
20
35.249600
11
12.351000
21
36.660700
0
LINE
8
Layer 1
10
12.351000
20
36.660700
11
9.669860
21
36.660700
0
LINE
8
Layer 1
10
9.669860
20
36.660700
11
9.669860
21
35.249600
0
LINE
8
Layer 1
10
9.669860
20
35.249600
11
6.422440
21
35.249600
0
LINE
8
Layer 1
10
6.422440
20
35.249600
11
6.422440
21
36.660700
0
LINE
8
Layer 1
10
6.422440
20
36.660700
11
3.741330
21
36.660700
0
LINE
8
Layer 1
10
3.741330
20
36.660700
11
3.741330
21
35.249600
0
LINE
8
Layer 1
10
3.741330
20
35.249600
11
0.564444
21
35.249600
0
LINE
8
Layer 1
10
0.564444
20
35.249600
11
0.564444
21
38.145500
0
LINE
8
Layer 1
10
0.564444
20
38.145500
11
1.975550
21
38.145500
0
LINE
8
Layer 1
10
1.975550
20
38.145500
11
1.975550
21
40.826600
0
LINE
8
Layer 1
10
1.975550
20
40.826600
11
0.564444
21
40.826600
0
LINE
8
Layer 1
10
0.564444
20
40.826600
11
0.564444
21
43.793000
0
LINE
8
Layer 1
10
0.564444
20
43.793000
11
1.975550
21
43.793000
0
LINE
8
Layer 1
10
1.975550
20
43.793000
11
1.975550
21
46.474100
0
LINE
8
Layer 1
10
1.975550
20
46.474100
11
0.564444
21
46.474100
0
LINE
8
Layer 1
10
0.564444
20
46.474100
11
0.564444
21
49.440600
0
LINE
8
Layer 1
10
0.564444
20
49.440600
11
1.975550
21
49.440600
0
LINE
8
Layer 1
10
1.975550
20
49.440600
11
1.975550
21
52.121700
0
LINE
8
Layer 1
10
1.975550
20
52.121700
11
0.564444
21
52.121700
0
LINE
8
Layer 1
10
0.564444
20
52.121700
11
0.564444
21
55.088100
0
LINE
8
Layer 1
10
0.564444
20
55.088100
11
1.975550
21
55.088100
0
LINE
8
Layer 1
10
1.975550
20
55.088100
11
1.975550
21
57.769300
0
LINE
8
Layer 1
10
1.975550
20
57.769300
11
0.564444
21
57.769300
0
LINE
8
Layer 1
10
0.564444
20
57.769300
11
0.564444
21
60.735800
0
LINE
8
Layer 1
10
0.564444
20
60.735800
11
1.975550
21
60.735800
0
LINE
8
Layer 1
10
1.975550
20
60.735800
11
1.975550
21
63.416900
0
LINE
8
Layer 1
10
1.975550
20
63.416900
11
0.564444
21
63.416900
0
LINE
8
Layer 1
10
0.564444
20
63.416900
11
0.564444
21
66.383400
0
LINE
8
Layer 1
10
0.564444
20
66.383400
11
1.975550
21
66.383400
0
LINE
8
Layer 1
10
1.975550
20
66.383400
11
1.975550
21
69.064500
0
LINE
8
Layer 1
10
1.975550
20
69.064500
11
0.564444
21
69.064500
0
LINE
8
Layer 1
10
0.564444
20
69.064500
11
0.564444
21
72.031000
0
LINE
8
Layer 1
10
0.564444
20
72.031000
11
1.975550
21
72.031000
0
LINE
8
Layer 1
10
1.975550
20
72.031000
11
1.975550
21
74.712100
0
LINE
8
Layer 1
10
1.975550
20
74.712100
11
0.564444
21
74.712100
0
LINE
8
Layer 1
10
0.564444
20
74.712100
11
0.564444
21
77.678500
0
LINE
8
Layer 1
10
0.564444
20
77.678500
11
1.975550
21
77.678500
0
LINE
8
Layer 1
10
1.975550
20
77.678500
11
1.975550
21
80.359600
0
LINE
8
Layer 1
10
1.975550
20
80.359600
11
0.564444
21
80.359600
0
LINE
8
Layer 1
10
0.564444
20
80.359600
11
0.564444
21
83.255600
0
LINE
8
Layer 1
10
113.199000
20
81.844400
11
115.598000
21
81.844400
0
LINE
8
Layer 1
10
115.598000
20
81.844400
11
115.598000
21
83.255600
0
LINE
8
Layer 1
10
115.598000
20
83.255600
11
118.561000
21
83.255600
0
LINE
8
Layer 1
10
118.561000
20
83.255600
11
118.561000
21
81.844400
0
LINE
8
Layer 1
10
118.561000
20
81.844400
11
122.301000
21
81.844400
0
LINE
8
Layer 1
10
122.301000
20
81.844400
11
122.301000
21
83.255600
0
LINE
8
Layer 1
10
122.301000
20
83.255600
11
125.264000
21
83.255600
0
LINE
8
Layer 1
10
125.264000
20
83.255600
11
125.264000
21
81.844400
0
LINE
8
Layer 1
10
125.264000
20
81.844400
11
129.004000
21
81.844400
0
LINE
8
Layer 1
10
129.004000
20
81.844400
11
129.004000
21
83.255600
0
LINE
8
Layer 1
10
129.004000
20
83.255600
11
131.967000
21
83.255600
0
LINE
8
Layer 1
10
131.967000
20
83.255600
11
131.967000
21
81.844400
0
LINE
8
Layer 1
10
131.967000
20
81.844400
11
134.366000
21
81.844400
0
LINE
8
Layer 1
10
134.366000
20
81.844400
11
134.366000
21
80.500800
0
LINE
8
Layer 1
10
134.366000
20
80.500800
11
134.366000
21
80.500800
0
LINE
8
Layer 1
10
134.366000
20
80.500800
11
134.366000
21
77.537400
0
LINE
8
Layer 1
10
134.366000
20
77.537400
11
134.366000
21
77.537400
0
LINE
8
Layer 1
10
134.366000
20
77.537400
11
134.366000
21
74.853200
0
LINE
8
Layer 1
10
134.366000
20
74.853200
11
134.366000
21
74.853200
0
LINE
8
Layer 1
10
134.366000
20
74.853200
11
134.366000
21
71.889900
0
LINE
8
Layer 1
10
134.366000
20
71.889900
11
134.366000
21
71.889900
0
LINE
8
Layer 1
10
134.366000
20
71.889900
11
134.366000
21
69.205600
0
LINE
8
Layer 1
10
134.366000
20
69.205600
11
134.366000
21
69.205600
0
LINE
8
Layer 1
10
134.366000
20
69.205600
11
134.366000
21
66.242300
0
LINE
8
Layer 1
10
134.366000
20
66.242300
11
134.366000
21
66.242300
0
LINE
8
Layer 1
10
134.366000
20
66.242300
11
134.366000
21
63.558000
0
LINE
8
Layer 1
10
134.366000
20
63.558000
11
134.366000
21
63.558000
0
LINE
8
Layer 1
10
134.366000
20
63.558000
11
134.366000
21
60.594700
0
LINE
8
Layer 1
10
134.366000
20
60.594700
11
134.366000
21
60.594700
0
LINE
8
Layer 1
10
134.366000
20
60.594700
11
134.366000
21
57.910400
0
LINE
8
Layer 1
10
134.366000
20
57.910400
11
134.366000
21
57.910400
0
LINE
8
Layer 1
10
134.366000
20
57.910400
11
134.366000
21
54.947000
0
LINE
8
Layer 1
10
134.366000
20
54.947000
11
134.366000
21
54.947000
0
LINE
8
Layer 1
10
134.366000
20
54.947000
11
134.366000
21
52.262800
0
LINE
8
Layer 1
10
134.366000
20
52.262800
11
134.366000
21
52.262800
0
LINE
8
Layer 1
10
134.366000
20
52.262800
11
134.366000
21
49.299500
0
LINE
8
Layer 1
10
134.366000
20
49.299500
11
134.366000
21
49.299500
0
LINE
8
Layer 1
10
134.366000
20
49.299500
11
134.366000
21
46.615200
0
LINE
8
Layer 1
10
134.366000
20
46.615200
11
134.366000
21
46.615200
0
LINE
8
Layer 1
10
134.366000
20
46.615200
11
134.366000
21
43.651900
0
LINE
8
Layer 1
10
134.366000
20
43.651900
11
134.366000
21
43.651900
0
LINE
8
Layer 1
10
134.366000
20
43.651900
11
134.366000
21
40.967700
0
LINE
8
Layer 1
10
134.366000
20
40.967700
11
134.366000
21
40.967700
0
LINE
8
Layer 1
10
134.366000
20
40.967700
11
134.366000
21
38.004400
0
LINE
8
Layer 1
10
134.366000
20
38.004400
11
134.366000
21
38.004400
0
LINE
8
Layer 1
10
134.366000
20
38.004400
11
134.366000
21
36.660700
0
LINE
8
Layer 1
10
134.366000
20
36.660700
11
131.967000
21
36.660700
0
LINE
8
Layer 1
10
131.967000
20
36.660700
11
131.967000
21
35.249600
0
LINE
8
Layer 1
10
131.967000
20
35.249600
11
129.004000
21
35.249600
0
LINE
8
Layer 1
10
129.004000
20
35.249600
11
129.004000
21
36.660700
0
LINE
8
Layer 1
10
129.004000
20
36.660700
11
125.264000
21
36.660700
0
LINE
8
Layer 1
10
125.264000
20
36.660700
11
125.264000
21
35.249600
0
LINE
8
Layer 1
10
125.264000
20
35.249600
11
122.301000
21
35.249600
0
LINE
8
Layer 1
10
122.301000
20
35.249600
11
122.301000
21
36.660700
0
LINE
8
Layer 1
10
122.301000
20
36.660700
11
118.561000
21
36.660700
0
LINE
8
Layer 1
10
118.561000
20
36.660700
11
118.561000
21
35.249600
0
LINE
8
Layer 1
10
118.561000
20
35.249600
11
115.598000
21
35.249600
0
LINE
8
Layer 1
10
115.598000
20
35.249600
11
115.598000
21
36.660700
0
LINE
8
Layer 1
10
115.598000
20
36.660700
11
113.199000
21
36.660700
0
LINE
8
Layer 1
10
113.199000
20
36.660700
11
113.199000
21
38.004400
0
LINE
8
Layer 1
10
113.199000
20
38.004400
11
111.788000
21
38.004400
0
LINE
8
Layer 1
10
111.788000
20
38.004400
11
111.788000
21
40.967700
0
LINE
8
Layer 1
10
111.788000
20
40.967700
11
113.199000
21
40.967700
0
LINE
8
Layer 1
10
113.199000
20
40.967700
11
113.199000
21
43.651900
0
LINE
8
Layer 1
10
113.199000
20
43.651900
11
111.788000
21
43.651900
0
LINE
8
Layer 1
10
111.788000
20
43.651900
11
111.788000
21
46.615200
0
LINE
8
Layer 1
10
111.788000
20
46.615200
11
113.199000
21
46.615200
0
LINE
8
Layer 1
10
113.199000
20
46.615200
11
113.199000
21
49.299500
0
LINE
8
Layer 1
10
113.199000
20
49.299500
11
111.788000
21
49.299500
0
LINE
8
Layer 1
10
111.788000
20
49.299500
11
111.788000
21
52.262800
0
LINE
8
Layer 1
10
111.788000
20
52.262800
11
113.199000
21
52.262800
0
LINE
8
Layer 1
10
113.199000
20
52.262800
11
113.199000
21
54.947000
0
LINE
8
Layer 1
10
113.199000
20
54.947000
11
111.788000
21
54.947000
0
LINE
8
Layer 1
10
111.788000
20
54.947000
11
111.788000
21
57.910400
0
LINE
8
Layer 1
10
111.788000
20
57.910400
11
113.199000
21
57.910400
0
LINE
8
Layer 1
10
113.199000
20
57.910400
11
113.199000
21
60.594700
0
LINE
8
Layer 1
10
113.199000
20
60.594700
11
111.788000
21
60.594700
0
LINE
8
Layer 1
10
111.788000
20
60.594700
11
111.788000
21
63.558000
0
LINE
8
Layer 1
10
111.788000
20
63.558000
11
113.199000
21
63.558000
0
LINE
8
Layer 1
10
113.199000
20
63.558000
11
113.199000
21
66.242300
0
LINE
8
Layer 1
10
113.199000
20
66.242300
11
111.788000
21
66.242300
0
LINE
8
Layer 1
10
111.788000
20
66.242300
11
111.788000
21
69.205600
0
LINE
8
Layer 1
10
111.788000
20
69.205600
11
113.199000
21
69.205600
0
LINE
8
Layer 1
10
113.199000
20
69.205600
11
113.199000
21
71.889900
0
LINE
8
Layer 1
10
113.199000
20
71.889900
11
111.788000
21
71.889900
0
LINE
8
Layer 1
10
111.788000
20
71.889900
11
111.788000
21
74.853200
0
LINE
8
Layer 1
10
111.788000
20
74.853200
11
113.199000
21
74.853200
0
LINE
8
Layer 1
10
113.199000
20
74.853200
11
113.199000
21
77.537400
0
LINE
8
Layer 1
10
113.199000
20
77.537400
11
111.788000
21
77.537400
0
LINE
8
Layer 1
10
111.788000
20
77.537400
11
111.788000
21
80.500800
0
LINE
8
Layer 1
10
111.788000
20
80.500800
11
113.199000
21
80.500800
0
LINE
8
Layer 1
10
113.199000
20
80.500800
11
113.199000
21
81.844400
0
LINE
8
Layer 1
10
223.012000
20
81.844400
11
226.048000
21
81.844400
0
LINE
8
Layer 1
10
226.048000
20
81.844400
11
226.048000
21
81.844400
0
LINE
8
Layer 1
10
226.048000
20
81.844400
11
229.011000
21
81.844400
0
LINE
8
Layer 1
10
229.011000
20
81.844400
11
229.011000
21
81.844400
0
LINE
8
Layer 1
10
229.011000
20
81.844400
11
231.976000
21
81.844400
0
LINE
8
Layer 1
10
231.976000
20
81.844400
11
231.976000
21
81.844400
0
LINE
8
Layer 1
10
231.976000
20
81.844400
11
234.939000
21
81.844400
0
LINE
8
Layer 1
10
234.939000
20
81.844400
11
234.939000
21
81.844400
0
LINE
8
Layer 1
10
234.939000
20
81.844400
11
237.905000
21
81.844400
0
LINE
8
Layer 1
10
237.905000
20
81.844400
11
237.905000
21
81.844400
0
LINE
8
Layer 1
10
237.905000
20
81.844400
11
240.868000
21
81.844400
0
LINE
8
Layer 1
10
240.868000
20
81.844400
11
240.868000
21
81.844400
0
LINE
8
Layer 1
10
240.868000
20
81.844400
11
243.833000
21
81.844400
0
LINE
8
Layer 1
10
243.833000
20
81.844400
11
243.833000
21
81.844400
0
LINE
8
Layer 1
10
243.833000
20
81.844400
11
246.797000
21
81.844400
0
LINE
8
Layer 1
10
246.797000
20
81.844400
11
246.797000
21
81.844400
0
LINE
8
Layer 1
10
246.797000
20
81.844400
11
249.762000
21
81.844400
0
LINE
8
Layer 1
10
249.762000
20
81.844400
11
249.762000
21
81.844400
0
LINE
8
Layer 1
10
249.762000
20
81.844400
11
252.725000
21
81.844400
0
LINE
8
Layer 1
10
252.725000
20
81.844400
11
252.725000
21
81.844400
0
LINE
8
Layer 1
10
252.725000
20
81.844400
11
255.690000
21
81.844400
0
LINE
8
Layer 1
10
255.690000
20
81.844400
11
255.690000
21
81.844400
0
LINE
8
Layer 1
10
255.690000
20
81.844400
11
258.654000
21
81.844400
0
LINE
8
Layer 1
10
258.654000
20
81.844400
11
258.654000
21
81.844400
0
LINE
8
Layer 1
10
258.654000
20
81.844400
11
261.619000
21
81.844400
0
LINE
8
Layer 1
10
261.619000
20
81.844400
11
261.619000
21
81.844400
0
LINE
8
Layer 1
10
261.619000
20
81.844400
11
264.582000
21
81.844400
0
LINE
8
Layer 1
10
264.582000
20
81.844400
11
264.582000
21
81.844400
0
LINE
8
Layer 1
10
264.582000
20
81.844400
11
267.547000
21
81.844400
0
LINE
8
Layer 1
10
267.547000
20
81.844400
11
267.547000
21
81.844400
0
LINE
8
Layer 1
10
267.547000
20
81.844400
11
270.511000
21
81.844400
0
LINE
8
Layer 1
10
270.511000
20
81.844400
11
270.511000
21
81.844400
0
LINE
8
Layer 1
10
270.511000
20
81.844400
11
273.476000
21
81.844400
0
LINE
8
Layer 1
10
273.476000
20
81.844400
11
273.476000
21
81.844400
0
LINE
8
Layer 1
10
273.476000
20
81.844400
11
276.439000
21
81.844400
0
LINE
8
Layer 1
10
276.439000
20
81.844400
11
276.439000
21
81.844400
0
LINE
8
Layer 1
10
276.439000
20
81.844400
11
279.405000
21
81.844400
0
LINE
8
Layer 1
10
279.405000
20
81.844400
11
279.405000
21
81.844400
0
LINE
8
Layer 1
10
279.405000
20
81.844400
11
282.369000
21
81.844400
0
LINE
8
Layer 1
10
282.369000
20
81.844400
11
282.369000
21
81.844400
0
LINE
8
Layer 1
10
282.369000
20
81.844400
11
285.332000
21
81.844400
0
LINE
8
Layer 1
10
285.332000
20
81.844400
11
285.332000
21
81.844400
0
LINE
8
Layer 1
10
285.332000
20
81.844400
11
288.295000
21
81.844400
0
LINE
8
Layer 1
10
288.295000
20
81.844400
11
288.295000
21
81.844400
0
LINE
8
Layer 1
10
288.295000
20
81.844400
11
291.262000
21
81.844400
0
LINE
8
Layer 1
10
291.262000
20
81.844400
11
291.262000
21
81.844400
0
LINE
8
Layer 1
10
291.262000
20
81.844400
11
294.225000
21
81.844400
0
LINE
8
Layer 1
10
294.225000
20
81.844400
11
294.225000
21
81.844400
0
LINE
8
Layer 1
10
294.225000
20
81.844400
11
297.191000
21
81.844400
0
LINE
8
Layer 1
10
297.191000
20
81.844400
11
297.191000
21
81.844400
0
LINE
8
Layer 1
10
297.191000
20
81.844400
11
300.154000
21
81.844400
0
LINE
8
Layer 1
10
300.154000
20
81.844400
11
300.154000
21
81.844400
0
LINE
8
Layer 1
10
300.154000
20
81.844400
11
303.118000
21
81.844400
0
LINE
8
Layer 1
10
303.118000
20
81.844400
11
303.118000
21
81.844400
0
LINE
8
Layer 1
10
303.118000
20
81.844400
11
306.081000
21
81.844400
0
LINE
8
Layer 1
10
306.081000
20
81.844400
11
306.081000
21
81.844400
0
LINE
8
Layer 1
10
306.081000
20
81.844400
11
309.118000
21
81.844400
0
LINE
8
Layer 1
10
309.118000
20
81.844400
11
309.118000
21
79.304400
0
LINE
8
Layer 1
10
309.118000
20
79.304400
11
307.707000
21
79.304400
0
LINE
8
Layer 1
10
307.707000
20
79.304400
11
307.707000
21
76.623300
0
LINE
8
Layer 1
10
307.707000
20
76.623300
11
309.118000
21
76.623300
0
LINE
8
Layer 1
10
309.118000
20
76.623300
11
309.118000
21
72.601700
0
LINE
8
Layer 1
10
309.118000
20
72.601700
11
307.707000
21
72.601700
0
LINE
8
Layer 1
10
307.707000
20
72.601700
11
307.707000
21
69.920600
0
LINE
8
Layer 1
10
307.707000
20
69.920600
11
309.118000
21
69.920600
0
LINE
8
Layer 1
10
309.118000
20
69.920600
11
309.118000
21
65.898900
0
LINE
8
Layer 1
10
309.118000
20
65.898900
11
307.707000
21
65.898900
0
LINE
8
Layer 1
10
307.707000
20
65.898900
11
307.707000
21
63.217800
0
LINE
8
Layer 1
10
307.707000
20
63.217800
11
309.118000
21
63.217800
0
LINE
8
Layer 1
10
309.118000
20
63.217800
11
309.118000
21
60.677800
0
LINE
8
Layer 1
10
309.118000
20
60.677800
11
306.081000
21
60.677800
0
LINE
8
Layer 1
10
306.081000
20
60.677800
11
306.081000
21
59.266700
0
LINE
8
Layer 1
10
306.081000
20
59.266700
11
303.118000
21
59.266700
0
LINE
8
Layer 1
10
303.118000
20
59.266700
11
303.118000
21
60.677800
0
LINE
8
Layer 1
10
303.118000
20
60.677800
11
300.154000
21
60.677800
0
LINE
8
Layer 1
10
300.154000
20
60.677800
11
300.154000
21
59.266700
0
LINE
8
Layer 1
10
300.154000
20
59.266700
11
297.191000
21
59.266700
0
LINE
8
Layer 1
10
297.191000
20
59.266700
11
297.191000
21
60.677800
0
LINE
8
Layer 1
10
297.191000
20
60.677800
11
294.225000
21
60.677800
0
LINE
8
Layer 1
10
294.225000
20
60.677800
11
294.225000
21
59.266700
0
LINE
8
Layer 1
10
294.225000
20
59.266700
11
291.262000
21
59.266700
0
LINE
8
Layer 1
10
291.262000
20
59.266700
11
291.262000
21
60.677800
0
LINE
8
Layer 1
10
291.262000
20
60.677800
11
288.295000
21
60.677800
0
LINE
8
Layer 1
10
288.295000
20
60.677800
11
288.295000
21
59.266700
0
LINE
8
Layer 1
10
288.295000
20
59.266700
11
285.332000
21
59.266700
0
LINE
8
Layer 1
10
285.332000
20
59.266700
11
285.332000
21
60.677800
0
LINE
8
Layer 1
10
285.332000
20
60.677800
11
282.369000
21
60.677800
0
LINE
8
Layer 1
10
282.369000
20
60.677800
11
282.369000
21
59.266700
0
LINE
8
Layer 1
10
282.369000
20
59.266700
11
279.405000
21
59.266700
0
LINE
8
Layer 1
10
279.405000
20
59.266700
11
279.405000
21
60.677800
0
LINE
8
Layer 1
10
279.405000
20
60.677800
11
276.439000
21
60.677800
0
LINE
8
Layer 1
10
276.439000
20
60.677800
11
276.439000
21
59.266700
0
LINE
8
Layer 1
10
276.439000
20
59.266700
11
273.476000
21
59.266700
0
LINE
8
Layer 1
10
273.476000
20
59.266700
11
273.476000
21
60.677800
0
LINE
8
Layer 1
10
273.476000
20
60.677800
11
270.511000
21
60.677800
0
LINE
8
Layer 1
10
270.511000
20
60.677800
11
270.511000
21
59.266700
0
LINE
8
Layer 1
10
270.511000
20
59.266700
11
267.547000
21
59.266700
0
LINE
8
Layer 1
10
267.547000
20
59.266700
11
267.547000
21
60.677800
0
LINE
8
Layer 1
10
267.547000
20
60.677800
11
264.582000
21
60.677800
0
LINE
8
Layer 1
10
264.582000
20
60.677800
11
264.582000
21
59.266700
0
LINE
8
Layer 1
10
264.582000
20
59.266700
11
261.619000
21
59.266700
0
LINE
8
Layer 1
10
261.619000
20
59.266700
11
261.619000
21
60.677800
0
LINE
8
Layer 1
10
261.619000
20
60.677800
11
258.654000
21
60.677800
0
LINE
8
Layer 1
10
258.654000
20
60.677800
11
258.654000
21
59.266700
0
LINE
8
Layer 1
10
258.654000
20
59.266700
11
255.690000
21
59.266700
0
LINE
8
Layer 1
10
255.690000
20
59.266700
11
255.690000
21
60.677800
0
LINE
8
Layer 1
10
255.690000
20
60.677800
11
252.725000
21
60.677800
0
LINE
8
Layer 1
10
252.725000
20
60.677800
11
252.725000
21
59.266700
0
LINE
8
Layer 1
10
252.725000
20
59.266700
11
249.762000
21
59.266700
0
LINE
8
Layer 1
10
249.762000
20
59.266700
11
249.762000
21
60.677800
0
LINE
8
Layer 1
10
249.762000
20
60.677800
11
246.797000
21
60.677800
0
LINE
8
Layer 1
10
246.797000
20
60.677800
11
246.797000
21
59.266700
0
LINE
8
Layer 1
10
246.797000
20
59.266700
11
243.833000
21
59.266700
0
LINE
8
Layer 1
10
243.833000
20
59.266700
11
243.833000
21
60.677800
0
LINE
8
Layer 1
10
243.833000
20
60.677800
11
240.868000
21
60.677800
0
LINE
8
Layer 1
10
240.868000
20
60.677800
11
240.868000
21
59.266700
0
LINE
8
Layer 1
10
240.868000
20
59.266700
11
237.905000
21
59.266700
0
LINE
8
Layer 1
10
237.905000
20
59.266700
11
237.905000
21
60.677800
0
LINE
8
Layer 1
10
237.905000
20
60.677800
11
234.939000
21
60.677800
0
LINE
8
Layer 1
10
234.939000
20
60.677800
11
234.939000
21
59.266700
0
LINE
8
Layer 1
10
234.939000
20
59.266700
11
231.976000
21
59.266700
0
LINE
8
Layer 1
10
231.976000
20
59.266700
11
231.976000
21
60.677800
0
LINE
8
Layer 1
10
231.976000
20
60.677800
11
229.011000
21
60.677800
0
LINE
8
Layer 1
10
229.011000
20
60.677800
11
229.011000
21
59.266700
0
LINE
8
Layer 1
10
229.011000
20
59.266700
11
226.048000
21
59.266700
0
LINE
8
Layer 1
10
226.048000
20
59.266700
11
226.048000
21
60.677800
0
LINE
8
Layer 1
10
226.048000
20
60.677800
11
223.012000
21
60.677800
0
LINE
8
Layer 1
10
223.012000
20
60.677800
11
223.012000
21
63.217800
0
LINE
8
Layer 1
10
223.012000
20
63.217800
11
224.423000
21
63.217800
0
LINE
8
Layer 1
10
224.423000
20
63.217800
11
224.423000
21
65.898900
0
LINE
8
Layer 1
10
224.423000
20
65.898900
11
223.012000
21
65.898900
0
LINE
8
Layer 1
10
223.012000
20
65.898900
11
223.012000
21
69.920600
0
LINE
8
Layer 1
10
223.012000
20
69.920600
11
224.423000
21
69.920600
0
LINE
8
Layer 1
10
224.423000
20
69.920600
11
224.423000
21
72.601700
0
LINE
8
Layer 1
10
224.423000
20
72.601700
11
223.012000
21
72.601700
0
LINE
8
Layer 1
10
223.012000
20
72.601700
11
223.012000
21
76.623300
0
LINE
8
Layer 1
10
223.012000
20
76.623300
11
224.423000
21
76.623300
0
LINE
8
Layer 1
10
224.423000
20
76.623300
11
224.423000
21
79.304400
0
LINE
8
Layer 1
10
224.423000
20
79.304400
11
223.012000
21
79.304400
0
LINE
8
Layer 1
10
223.012000
20
79.304400
11
223.012000
21
81.844400
0
LINE
8
Layer 1
10
113.735000
20
81.844400
11
116.581000
21
81.844400
0
LINE
8
Layer 1
10
116.581000
20
81.844400
11
116.581000
21
83.255600
0
LINE
8
Layer 1
10
116.581000
20
83.255600
11
119.544000
21
83.255600
0
LINE
8
Layer 1
10
119.544000
20
83.255600
11
119.544000
21
81.844400
0
LINE
8
Layer 1
10
119.544000
20
81.844400
11
122.320000
21
81.844400
0
LINE
8
Layer 1
10
122.320000
20
81.844400
11
122.320000
21
83.255600
0
LINE
8
Layer 1
10
122.320000
20
83.255600
11
125.283000
21
83.255600
0
LINE
8
Layer 1
10
125.283000
20
83.255600
11
125.283000
21
81.844400
0
LINE
8
Layer 1
10
125.283000
20
81.844400
11
128.058000
21
81.844400
0
LINE
8
Layer 1
10
128.058000
20
81.844400
11
128.058000
21
83.255600
0
LINE
8
Layer 1
10
128.058000
20
83.255600
11
131.022000
21
83.255600
0
LINE
8
Layer 1
10
131.022000
20
83.255600
11
131.022000
21
81.844400
0
LINE
8
Layer 1
10
131.022000
20
81.844400
11
133.797000
21
81.844400
0
LINE
8
Layer 1
10
133.797000
20
81.844400
11
133.797000
21
83.255600
0
LINE
8
Layer 1
10
133.797000
20
83.255600
11
136.760000
21
83.255600
0
LINE
8
Layer 1
10
136.760000
20
83.255600
11
136.760000
21
81.844400
0
LINE
8
Layer 1
10
136.760000
20
81.844400
11
139.535000
21
81.844400
0
LINE
8
Layer 1
10
139.535000
20
81.844400
11
139.535000
21
83.255600
0
LINE
8
Layer 1
10
139.535000
20
83.255600
11
142.499000
21
83.255600
0
LINE
8
Layer 1
10
142.499000
20
83.255600
11
142.499000
21
81.844400
0
LINE
8
Layer 1
10
142.499000
20
81.844400
11
145.274000
21
81.844400
0
LINE
8
Layer 1
10
145.274000
20
81.844400
11
145.274000
21
83.255600
0
LINE
8
Layer 1
10
145.274000
20
83.255600
11
148.237000
21
83.255600
0
LINE
8
Layer 1
10
148.237000
20
83.255600
11
148.237000
21
81.844400
0
LINE
8
Layer 1
10
148.237000
20
81.844400
11
151.012000
21
81.844400
0
LINE
8
Layer 1
10
151.012000
20
81.844400
11
151.012000
21
83.255600
0
LINE
8
Layer 1
10
151.012000
20
83.255600
11
153.976000
21
83.255600
0
LINE
8
Layer 1
10
153.976000
20
83.255600
11
153.976000
21
81.844400
0
LINE
8
Layer 1
10
153.976000
20
81.844400
11
156.751000
21
81.844400
0
LINE
8
Layer 1
10
156.751000
20
81.844400
11
156.751000
21
83.255600
0
LINE
8
Layer 1
10
156.751000
20
83.255600
11
159.714000
21
83.255600
0
LINE
8
Layer 1
10
159.714000
20
83.255600
11
159.714000
21
81.844400
0
LINE
8
Layer 1
10
159.714000
20
81.844400
11
162.489000
21
81.844400
0
LINE
8
Layer 1
10
162.489000
20
81.844400
11
162.489000
21
83.255600
0
LINE
8
Layer 1
10
162.489000
20
83.255600
11
165.453000
21
83.255600
0
LINE
8
Layer 1
10
165.453000
20
83.255600
11
165.453000
21
81.844400
0
LINE
8
Layer 1
10
165.453000
20
81.844400
11
168.228000
21
81.844400
0
LINE
8
Layer 1
10
168.228000
20
81.844400
11
168.228000
21
83.255600
0
LINE
8
Layer 1
10
168.228000
20
83.255600
11
171.191000
21
83.255600
0
LINE
8
Layer 1
10
171.191000
20
83.255600
11
171.191000
21
81.844400
0
LINE
8
Layer 1
10
171.191000
20
81.844400
11
173.966000
21
81.844400
0
LINE
8
Layer 1
10
173.966000
20
81.844400
11
173.966000
21
83.255600
0
LINE
8
Layer 1
10
173.966000
20
83.255600
11
176.930000
21
83.255600
0
LINE
8
Layer 1
10
176.930000
20
83.255600
11
176.930000
21
81.844400
0
LINE
8
Layer 1
10
176.930000
20
81.844400
11
179.705000
21
81.844400
0
LINE
8
Layer 1
10
179.705000
20
81.844400
11
179.705000
21
83.255600
0
LINE
8
Layer 1
10
179.705000
20
83.255600
11
182.668000
21
83.255600
0
LINE
8
Layer 1
10
182.668000
20
83.255600
11
182.668000
21
81.844400
0
LINE
8
Layer 1
10
182.668000
20
81.844400
11
185.443000
21
81.844400
0
LINE
8
Layer 1
10
185.443000
20
81.844400
11
185.443000
21
83.255600
0
LINE
8
Layer 1
10
185.443000
20
83.255600
11
188.407000
21
83.255600
0
LINE
8
Layer 1
10
188.407000
20
83.255600
11
188.407000
21
81.844400
0
LINE
8
Layer 1
10
188.407000
20
81.844400
11
191.182000
21
81.844400
0
LINE
8
Layer 1
10
191.182000
20
81.844400
11
191.182000
21
83.255600
0
LINE
8
Layer 1
10
191.182000
20
83.255600
11
194.145000
21
83.255600
0
LINE
8
Layer 1
10
194.145000
20
83.255600
11
194.145000
21
81.844400
0
LINE
8
Layer 1
10
194.145000
20
81.844400
11
196.991000
21
81.844400
0
LINE
8
Layer 1
10
196.991000
20
81.844400
11
196.991000
21
80.362800
0
LINE
8
Layer 1
10
196.991000
20
80.362800
11
195.580000
21
80.362800
0
LINE
8
Layer 1
10
195.580000
20
80.362800
11
195.580000
21
77.681700
0
LINE
8
Layer 1
10
195.580000
20
77.681700
11
196.991000
21
77.681700
0
LINE
8
Layer 1
10
196.991000
20
77.681700
11
196.991000
21
74.718300
0
LINE
8
Layer 1
10
196.991000
20
74.718300
11
195.580000
21
74.718300
0
LINE
8
Layer 1
10
195.580000
20
74.718300
11
195.580000
21
72.037200
0
LINE
8
Layer 1
10
195.580000
20
72.037200
11
196.991000
21
72.037200
0
LINE
8
Layer 1
10
196.991000
20
72.037200
11
196.991000
21
69.144500
0
LINE
8
Layer 1
10
196.991000
20
69.144500
11
194.004000
21
69.144500
0
LINE
8
Layer 1
10
194.004000
20
69.144500
11
194.004000
21
69.144500
0
LINE
8
Layer 1
10
194.004000
20
69.144500
11
191.323000
21
69.144500
0
LINE
8
Layer 1
10
191.323000
20
69.144500
11
191.323000
21
69.144500
0
LINE
8
Layer 1
10
191.323000
20
69.144500
11
188.265000
21
69.144500
0
LINE
8
Layer 1
10
188.265000
20
69.144500
11
188.265000
21
69.144500
0
LINE
8
Layer 1
10
188.265000
20
69.144500
11
185.584000
21
69.144500
0
LINE
8
Layer 1
10
185.584000
20
69.144500
11
185.584000
21
69.144500
0
LINE
8
Layer 1
10
185.584000
20
69.144500
11
182.527000
21
69.144500
0
LINE
8
Layer 1
10
182.527000
20
69.144500
11
182.527000
21
69.144500
0
LINE
8
Layer 1
10
182.527000
20
69.144500
11
179.846000
21
69.144500
0
LINE
8
Layer 1
10
179.846000
20
69.144500
11
179.846000
21
69.144500
0
LINE
8
Layer 1
10
179.846000
20
69.144500
11
176.789000
21
69.144500
0
LINE
8
Layer 1
10
176.789000
20
69.144500
11
176.789000
21
69.144500
0
LINE
8
Layer 1
10
176.789000
20
69.144500
11
174.108000
21
69.144500
0
LINE
8
Layer 1
10
174.108000
20
69.144500
11
174.108000
21
69.144500
0
LINE
8
Layer 1
10
174.108000
20
69.144500
11
171.050000
21
69.144500
0
LINE
8
Layer 1
10
171.050000
20
69.144500
11
171.050000
21
69.144500
0
LINE
8
Layer 1
10
171.050000
20
69.144500
11
168.369000
21
69.144500
0
LINE
8
Layer 1
10
168.369000
20
69.144500
11
168.369000
21
69.144500
0
LINE
8
Layer 1
10
168.369000
20
69.144500
11
165.312000
21
69.144500
0
LINE
8
Layer 1
10
165.312000
20
69.144500
11
165.312000
21
69.144500
0
LINE
8
Layer 1
10
165.312000
20
69.144500
11
162.630000
21
69.144500
0
LINE
8
Layer 1
10
162.630000
20
69.144500
11
162.630000
21
69.144500
0
LINE
8
Layer 1
10
162.630000
20
69.144500
11
159.573000
21
69.144500
0
LINE
8
Layer 1
10
159.573000
20
69.144500
11
159.573000
21
69.144500
0
LINE
8
Layer 1
10
159.573000
20
69.144500
11
156.892000
21
69.144500
0
LINE
8
Layer 1
10
156.892000
20
69.144500
11
156.892000
21
69.144500
0
LINE
8
Layer 1
10
156.892000
20
69.144500
11
153.834000
21
69.144500
0
LINE
8
Layer 1
10
153.834000
20
69.144500
11
153.834000
21
69.144500
0
LINE
8
Layer 1
10
153.834000
20
69.144500
11
151.153000
21
69.144500
0
LINE
8
Layer 1
10
151.153000
20
69.144500
11
151.153000
21
69.144500
0
LINE
8
Layer 1
10
151.153000
20
69.144500
11
148.096000
21
69.144500
0
LINE
8
Layer 1
10
148.096000
20
69.144500
11
148.096000
21
69.144500
0
LINE
8
Layer 1
10
148.096000
20
69.144500
11
145.415000
21
69.144500
0
LINE
8
Layer 1
10
145.415000
20
69.144500
11
145.415000
21
69.144500
0
LINE
8
Layer 1
10
145.415000
20
69.144500
11
142.358000
21
69.144500
0
LINE
8
Layer 1
10
142.358000
20
69.144500
11
142.358000
21
69.144500
0
LINE
8
Layer 1
10
142.358000
20
69.144500
11
139.676000
21
69.144500
0
LINE
8
Layer 1
10
139.676000
20
69.144500
11
139.676000
21
69.144500
0
LINE
8
Layer 1
10
139.676000
20
69.144500
11
136.619000
21
69.144500
0
LINE
8
Layer 1
10
136.619000
20
69.144500
11
136.619000
21
69.144500
0
LINE
8
Layer 1
10
136.619000
20
69.144500
11
133.938000
21
69.144500
0
LINE
8
Layer 1
10
133.938000
20
69.144500
11
133.938000
21
69.144500
0
LINE
8
Layer 1
10
133.938000
20
69.144500
11
130.880000
21
69.144500
0
LINE
8
Layer 1
10
130.880000
20
69.144500
11
130.880000
21
69.144500
0
LINE
8
Layer 1
10
130.880000
20
69.144500
11
128.199000
21
69.144500
0
LINE
8
Layer 1
10
128.199000
20
69.144500
11
128.199000
21
69.144500
0
LINE
8
Layer 1
10
128.199000
20
69.144500
11
125.142000
21
69.144500
0
LINE
8
Layer 1
10
125.142000
20
69.144500
11
125.142000
21
69.144500
0
LINE
8
Layer 1
10
125.142000
20
69.144500
11
122.461000
21
69.144500
0
LINE
8
Layer 1
10
122.461000
20
69.144500
11
122.461000
21
69.144500
0
LINE
8
Layer 1
10
122.461000
20
69.144500
11
119.403000
21
69.144500
0
LINE
8
Layer 1
10
119.403000
20
69.144500
11
119.403000
21
69.144500
0
LINE
8
Layer 1
10
119.403000
20
69.144500
11
116.722000
21
69.144500
0
LINE
8
Layer 1
10
116.722000
20
69.144500
11
116.722000
21
69.144500
0
LINE
8
Layer 1
10
116.722000
20
69.144500
11
113.735000
21
69.144500
0
LINE
8
Layer 1
10
113.735000
20
69.144500
11
113.735000
21
72.037200
0
LINE
8
Layer 1
10
113.735000
20
72.037200
11
115.147000
21
72.037200
0
LINE
8
Layer 1
10
115.147000
20
72.037200
11
115.147000
21
74.718300
0
LINE
8
Layer 1
10
115.147000
20
74.718300
11
113.735000
21
74.718300
0
LINE
8
Layer 1
10
113.735000
20
74.718300
11
113.735000
21
77.681700
0
LINE
8
Layer 1
10
113.735000
20
77.681700
11
115.147000
21
77.681700
0
LINE
8
Layer 1
10
115.147000
20
77.681700
11
115.147000
21
80.362800
0
LINE
8
Layer 1
10
115.147000
20
80.362800
11
113.735000
21
80.362800
0
LINE
8
Layer 1
10
113.735000
20
80.362800
11
113.735000
21
81.844400
0
LINE
8
Layer 1
10
84.384400
20
81.844400
11
87.136000
21
81.844400
0
LINE
8
Layer 1
10
87.136000
20
81.844400
11
87.136000
21
83.255600
0
LINE
8
Layer 1
10
87.136000
20
83.255600
11
90.099400
21
83.255600
0
LINE
8
Layer 1
10
90.099400
20
83.255600
11
90.099400
21
81.844400
0
LINE
8
Layer 1
10
90.099400
20
81.844400
11
92.780500
21
81.844400
0
LINE
8
Layer 1
10
92.780500
20
81.844400
11
92.780500
21
83.255600
0
LINE
8
Layer 1
10
92.780500
20
83.255600
11
95.743800
21
83.255600
0
LINE
8
Layer 1
10
95.743800
20
83.255600
11
95.743800
21
81.844400
0
LINE
8
Layer 1
10
95.743800
20
81.844400
11
97.084400
21
81.844400
0
LINE
8
Layer 1
10
97.084400
20
81.844400
11
97.084400
21
80.151100
0
LINE
8
Layer 1
10
97.084400
20
80.151100
11
98.495500
21
80.151100
0
LINE
8
Layer 1
10
98.495500
20
80.151100
11
98.495500
21
77.187800
0
LINE
8
Layer 1
10
98.495500
20
77.187800
11
97.084400
21
77.187800
0
LINE
8
Layer 1
10
97.084400
20
77.187800
11
97.084400
21
74.153900
0
LINE
8
Layer 1
10
97.084400
20
74.153900
11
98.495500
21
74.153900
0
LINE
8
Layer 1
10
98.495500
20
74.153900
11
98.495500
21
71.190600
0
LINE
8
Layer 1
10
98.495500
20
71.190600
11
97.084400
21
71.190600
0
LINE
8
Layer 1
10
97.084400
20
71.190600
11
97.084400
21
68.156700
0
LINE
8
Layer 1
10
97.084400
20
68.156700
11
98.495500
21
68.156700
0
LINE
8
Layer 1
10
98.495500
20
68.156700
11
98.495500
21
65.193300
0
LINE
8
Layer 1
10
98.495500
20
65.193300
11
97.084400
21
65.193300
0
LINE
8
Layer 1
10
97.084400
20
65.193300
11
97.084400
21
62.159500
0
LINE
8
Layer 1
10
97.084400
20
62.159500
11
98.495500
21
62.159500
0
LINE
8
Layer 1
10
98.495500
20
62.159500
11
98.495500
21
59.196100
0
LINE
8
Layer 1
10
98.495500
20
59.196100
11
97.084400
21
59.196100
0
LINE
8
Layer 1
10
97.084400
20
59.196100
11
97.084400
21
56.162200
0
LINE
8
Layer 1
10
97.084400
20
56.162200
11
98.495500
21
56.162200
0
LINE
8
Layer 1
10
98.495500
20
56.162200
11
98.495500
21
53.198900
0
LINE
8
Layer 1
10
98.495500
20
53.198900
11
97.084400
21
53.198900
0
LINE
8
Layer 1
10
97.084400
20
53.198900
11
97.084400
21
50.165000
0
LINE
8
Layer 1
10
97.084400
20
50.165000
11
98.495500
21
50.165000
0
LINE
8
Layer 1
10
98.495500
20
50.165000
11
98.495500
21
47.201700
0
LINE
8
Layer 1
10
98.495500
20
47.201700
11
97.084400
21
47.201700
0
LINE
8
Layer 1
10
97.084400
20
47.201700
11
97.084400
21
44.167800
0
LINE
8
Layer 1
10
97.084400
20
44.167800
11
98.495500
21
44.167800
0
LINE
8
Layer 1
10
98.495500
20
44.167800
11
98.495500
21
41.204500
0
LINE
8
Layer 1
10
98.495500
20
41.204500
11
97.084400
21
41.204500
0
LINE
8
Layer 1
10
97.084400
20
41.204500
11
97.084400
21
39.511100
0
LINE
8
Layer 1
10
97.084400
20
39.511100
11
95.743800
21
39.511100
0
LINE
8
Layer 1
10
95.743800
20
39.511100
11
95.743800
21
38.100000
0
LINE
8
Layer 1
10
95.743800
20
38.100000
11
92.780500
21
38.100000
0
LINE
8
Layer 1
10
92.780500
20
38.100000
11
92.780500
21
39.511100
0
LINE
8
Layer 1
10
92.780500
20
39.511100
11
90.099400
21
39.511100
0
LINE
8
Layer 1
10
90.099400
20
39.511100
11
90.099400
21
38.100000
0
LINE
8
Layer 1
10
90.099400
20
38.100000
11
87.136000
21
38.100000
0
LINE
8
Layer 1
10
87.136000
20
38.100000
11
87.136000
21
39.511100
0
LINE
8
Layer 1
10
87.136000
20
39.511100
11
84.384400
21
39.511100
0
LINE
8
Layer 1
10
84.384400
20
39.511100
11
84.384400
21
41.345600
0
LINE
8
Layer 1
10
84.384400
20
41.345600
11
84.384400
21
41.345600
0
LINE
8
Layer 1
10
84.384400
20
41.345600
11
84.384400
21
44.026700
0
LINE
8
Layer 1
10
84.384400
20
44.026700
11
84.384400
21
44.026700
0
LINE
8
Layer 1
10
84.384400
20
44.026700
11
84.384400
21
47.342800
0
LINE
8
Layer 1
10
84.384400
20
47.342800
11
84.384400
21
47.342800
0
LINE
8
Layer 1
10
84.384400
20
47.342800
11
84.384400
21
50.023900
0
LINE
8
Layer 1
10
84.384400
20
50.023900
11
84.384400
21
50.023900
0
LINE
8
Layer 1
10
84.384400
20
50.023900
11
84.384400
21
53.340000
0
LINE
8
Layer 1
10
84.384400
20
53.340000
11
84.384400
21
53.340000
0
LINE
8
Layer 1
10
84.384400
20
53.340000
11
84.384400
21
56.021100
0
LINE
8
Layer 1
10
84.384400
20
56.021100
11
84.384400
21
56.021100
0
LINE
8
Layer 1
10
84.384400
20
56.021100
11
84.384400
21
59.337200
0
LINE
8
Layer 1
10
84.384400
20
59.337200
11
84.384400
21
59.337200
0
LINE
8
Layer 1
10
84.384400
20
59.337200
11
84.384400
21
62.018400
0
LINE
8
Layer 1
10
84.384400
20
62.018400
11
84.384400
21
62.018400
0
LINE
8
Layer 1
10
84.384400
20
62.018400
11
84.384400
21
65.334500
0
LINE
8
Layer 1
10
84.384400
20
65.334500
11
84.384400
21
65.334500
0
LINE
8
Layer 1
10
84.384400
20
65.334500
11
84.384400
21
68.015600
0
LINE
8
Layer 1
10
84.384400
20
68.015600
11
84.384400
21
68.015600
0
LINE
8
Layer 1
10
84.384400
20
68.015600
11
84.384400
21
71.331700
0
LINE
8
Layer 1
10
84.384400
20
71.331700
11
84.384400
21
71.331700
0
LINE
8
Layer 1
10
84.384400
20
71.331700
11
84.384400
21
74.012800
0
LINE
8
Layer 1
10
84.384400
20
74.012800
11
84.384400
21
74.012800
0
LINE
8
Layer 1
10
84.384400
20
74.012800
11
84.384400
21
77.328900
0
LINE
8
Layer 1
10
84.384400
20
77.328900
11
84.384400
21
77.328900
0
LINE
8
Layer 1
10
84.384400
20
77.328900
11
84.384400
21
80.010000
0
LINE
8
Layer 1
10
84.384400
20
80.010000
11
84.384400
21
80.010000
0
LINE
8
Layer 1
10
84.384400
20
80.010000
11
84.384400
21
81.844400
0
LINE
8
Layer 1
10
0.564444
20
83.255600
11
3.551280
21
83.255600
0
LINE
8
Layer 1
10
3.551280
20
83.255600
11
3.551280
21
81.844400
0
LINE
8
Layer 1
10
3.551280
20
81.844400
11
6.232390
21
81.844400
0
LINE
8
Layer 1
10
6.232390
20
81.844400
11
6.232390
21
83.255600
0
LINE
8
Layer 1
10
6.232390
20
83.255600
11
9.289820
21
83.255600
0
LINE
8
Layer 1
10
9.289820
20
83.255600
11
9.289820
21
81.844400
0
LINE
8
Layer 1
10
9.289820
20
81.844400
11
11.970900
21
81.844400
0
LINE
8
Layer 1
10
11.970900
20
81.844400
11
11.970900
21
83.255600
0
LINE
8
Layer 1
10
11.970900
20
83.255600
11
15.028300
21
83.255600
0
LINE
8
Layer 1
10
15.028300
20
83.255600
11
15.028300
21
81.844400
0
LINE
8
Layer 1
10
15.028300
20
81.844400
11
17.709400
21
81.844400
0
LINE
8
Layer 1
10
17.709400
20
81.844400
11
17.709400
21
83.255600
0
LINE
8
Layer 1
10
17.709400
20
83.255600
11
20.766800
21
83.255600
0
LINE
8
Layer 1
10
20.766800
20
83.255600
11
20.766800
21
81.844400
0
LINE
8
Layer 1
10
20.766800
20
81.844400
11
23.447900
21
81.844400
0
LINE
8
Layer 1
10
23.447900
20
81.844400
11
23.447900
21
83.255600
0
LINE
8
Layer 1
10
23.447900
20
83.255600
11
26.505400
21
83.255600
0
LINE
8
Layer 1
10
26.505400
20
83.255600
11
26.505400
21
81.844400
0
LINE
8
Layer 1
10
26.505400
20
81.844400
11
29.186600
21
81.844400
0
LINE
8
Layer 1
10
29.186600
20
81.844400
11
29.186600
21
83.255600
0
LINE
8
Layer 1
10
29.186600
20
83.255600
11
32.243900
21
83.255600
0
LINE
8
Layer 1
10
32.243900
20
83.255600
11
32.243900
21
81.844400
0
LINE
8
Layer 1
10
32.243900
20
81.844400
11
34.925000
21
81.844400
0
LINE
8
Layer 1
10
34.925000
20
81.844400
11
34.925000
21
83.255600
0
LINE
8
Layer 1
10
34.925000
20
83.255600
11
37.982300
21
83.255600
0
LINE
8
Layer 1
10
37.982300
20
83.255600
11
37.982300
21
81.844400
0
LINE
8
Layer 1
10
37.982300
20
81.844400
11
40.663400
21
81.844400
0
LINE
8
Layer 1
10
40.663400
20
81.844400
11
40.663400
21
83.255600
0
LINE
8
Layer 1
10
40.663400
20
83.255600
11
43.721000
21
83.255600
0
LINE
8
Layer 1
10
43.721000
20
83.255600
11
43.721000
21
81.844400
0
LINE
8
Layer 1
10
43.721000
20
81.844400
11
46.402100
21
81.844400
0
LINE
8
Layer 1
10
46.402100
20
81.844400
11
46.402100
21
83.255600
0
LINE
8
Layer 1
10
46.402100
20
83.255600
11
49.459400
21
83.255600
0
LINE
8
Layer 1
10
49.459400
20
83.255600
11
49.459400
21
81.844400
0
LINE
8
Layer 1
10
49.459400
20
81.844400
11
52.140500
21
81.844400
0
LINE
8
Layer 1
10
52.140500
20
81.844400
11
52.140500
21
83.255600
0
LINE
8
Layer 1
10
52.140500
20
83.255600
11
55.197800
21
83.255600
0
LINE
8
Layer 1
10
55.197800
20
83.255600
11
55.197800
21
81.844400
0
LINE
8
Layer 1
10
55.197800
20
81.844400
11
57.878900
21
81.844400
0
LINE
8
Layer 1
10
57.878900
20
81.844400
11
57.878900
21
83.255600
0
LINE
8
Layer 1
10
57.878900
20
83.255600
11
60.936500
21
83.255600
0
LINE
8
Layer 1
10
60.936500
20
83.255600
11
60.936500
21
81.844400
0
LINE
8
Layer 1
10
60.936500
20
81.844400
11
63.617600
21
81.844400
0
LINE
8
Layer 1
10
63.617600
20
81.844400
11
63.617600
21
83.255600
0
LINE
8
Layer 1
10
63.617600
20
83.255600
11
66.674900
21
83.255600
0
LINE
8
Layer 1
10
66.674900
20
83.255600
11
66.674900
21
81.844400
0
LINE
8
Layer 1
10
66.674900
20
81.844400
11
69.356100
21
81.844400
0
LINE
8
Layer 1
10
69.356100
20
81.844400
11
69.356100
21
83.255600
0
LINE
8
Layer 1
10
69.356100
20
83.255600
11
72.413400
21
83.255600
0
LINE
8
Layer 1
10
72.413400
20
83.255600
11
72.413400
21
81.844400
0
LINE
8
Layer 1
10
72.413400
20
81.844400
11
75.094500
21
81.844400
0
LINE
8
Layer 1
10
75.094500
20
81.844400
11
75.094500
21
83.255600
0
LINE
8
Layer 1
10
75.094500
20
83.255600
11
78.152100
21
83.255600
0
LINE
8
Layer 1
10
78.152100
20
83.255600
11
78.152100
21
81.844400
0
LINE
8
Layer 1
10
78.152100
20
81.844400
11
80.833200
21
81.844400
0
LINE
8
Layer 1
10
80.833200
20
81.844400
11
80.833200
21
83.255600
0
LINE
8
Layer 1
10
80.833200
20
83.255600
11
83.819900
21
83.255600
0
LINE
8
Layer 1
10
83.819900
20
83.255600
11
83.819900
21
80.010000
0
LINE
8
Layer 1
10
83.819900
20
80.010000
11
82.408800
21
80.010000
0
LINE
8
Layer 1
10
82.408800
20
80.010000
11
82.408800
21
77.328900
0
LINE
8
Layer 1
10
82.408800
20
77.328900
11
83.819900
21
77.328900
0
LINE
8
Layer 1
10
83.819900
20
77.328900
11
83.819900
21
74.012800
0
LINE
8
Layer 1
10
83.819900
20
74.012800
11
82.408800
21
74.012800
0
LINE
8
Layer 1
10
82.408800
20
74.012800
11
82.408800
21
71.331700
0
LINE
8
Layer 1
10
82.408800
20
71.331700
11
83.819900
21
71.331700
0
LINE
8
Layer 1
10
83.819900
20
71.331700
11
83.819900
21
68.015600
0
LINE
8
Layer 1
10
83.819900
20
68.015600
11
82.408800
21
68.015600
0
LINE
8
Layer 1
10
82.408800
20
68.015600
11
82.408800
21
65.334500
0
LINE
8
Layer 1
10
82.408800
20
65.334500
11
83.819900
21
65.334500
0
LINE
8
Layer 1
10
83.819900
20
65.334500
11
83.819900
21
62.018400
0
LINE
8
Layer 1
10
83.819900
20
62.018400
11
82.408800
21
62.018400
0
LINE
8
Layer 1
10
82.408800
20
62.018400
11
82.408800
21
59.337200
0
LINE
8
Layer 1
10
82.408800
20
59.337200
11
83.819900
21
59.337200
0
LINE
8
Layer 1
10
83.819900
20
59.337200
11
83.819900
21
56.021100
0
LINE
8
Layer 1
10
83.819900
20
56.021100
11
82.408800
21
56.021100
0
LINE
8
Layer 1
10
82.408800
20
56.021100
11
82.408800
21
53.340000
0
LINE
8
Layer 1
10
82.408800
20
53.340000
11
83.819900
21
53.340000
0
LINE
8
Layer 1
10
83.819900
20
53.340000
11
83.819900
21
50.023900
0
LINE
8
Layer 1
10
83.819900
20
50.023900
11
82.408800
21
50.023900
0
LINE
8
Layer 1
10
82.408800
20
50.023900
11
82.408800
21
47.342800
0
LINE
8
Layer 1
10
82.408800
20
47.342800
11
83.819900
21
47.342800
0
LINE
8
Layer 1
10
83.819900
20
47.342800
11
83.819900
21
44.026700
0
LINE
8
Layer 1
10
83.819900
20
44.026700
11
82.408800
21
44.026700
0
LINE
8
Layer 1
10
82.408800
20
44.026700
11
82.408800
21
41.345600
0
LINE
8
Layer 1
10
82.408800
20
41.345600
11
83.819900
21
41.345600
0
LINE
8
Layer 1
10
83.819900
20
41.345600
11
83.819900
21
38.100000
0
LINE
8
Layer 1
10
83.819900
20
38.100000
11
80.833200
21
38.100000
0
LINE
8
Layer 1
10
80.833200
20
38.100000
11
80.833200
21
39.511100
0
LINE
8
Layer 1
10
80.833200
20
39.511100
11
78.152100
21
39.511100
0
LINE
8
Layer 1
10
78.152100
20
39.511100
11
78.152100
21
38.100000
0
LINE
8
Layer 1
10
78.152100
20
38.100000
11
75.094500
21
38.100000
0
LINE
8
Layer 1
10
75.094500
20
38.100000
11
75.094500
21
39.511100
0
LINE
8
Layer 1
10
75.094500
20
39.511100
11
72.413400
21
39.511100
0
LINE
8
Layer 1
10
72.413400
20
39.511100
11
72.413400
21
38.100000
0
LINE
8
Layer 1
10
72.413400
20
38.100000
11
69.356100
21
38.100000
0
LINE
8
Layer 1
10
69.356100
20
38.100000
11
69.356100
21
39.511100
0
LINE
8
Layer 1
10
69.356100
20
39.511100
11
66.674900
21
39.511100
0
LINE
8
Layer 1
10
66.674900
20
39.511100
11
66.674900
21
38.100000
0
LINE
8
Layer 1
10
66.674900
20
38.100000
11
63.617600
21
38.100000
0
LINE
8
Layer 1
10
63.617600
20
38.100000
11
63.617600
21
39.511100
0
LINE
8
Layer 1
10
63.617600
20
39.511100
11
60.936500
21
39.511100
0
LINE
8
Layer 1
10
60.936500
20
39.511100
11
60.936500
21
38.100000
0
LINE
8
Layer 1
10
60.936500
20
38.100000
11
57.878900
21
38.100000
0
LINE
8
Layer 1
10
57.878900
20
38.100000
11
57.878900
21
39.511100
0
LINE
8
Layer 1
10
57.878900
20
39.511100
11
55.197800
21
39.511100
0
LINE
8
Layer 1
10
55.197800
20
39.511100
11
55.197800
21
38.100000
0
LINE
8
Layer 1
10
55.197800
20
38.100000
11
52.140500
21
38.100000
0
LINE
8
Layer 1
10
52.140500
20
38.100000
11
52.140500
21
39.511100
0
LINE
8
Layer 1
10
52.140500
20
39.511100
11
49.459400
21
39.511100
0
LINE
8
Layer 1
10
49.459400
20
39.511100
11
49.459400
21
38.100000
0
LINE
8
Layer 1
10
49.459400
20
38.100000
11
46.402100
21
38.100000
0
LINE
8
Layer 1
10
46.402100
20
38.100000
11
46.402100
21
39.511100
0
LINE
8
Layer 1
10
46.402100
20
39.511100
11
43.721000
21
39.511100
0
LINE
8
Layer 1
10
43.721000
20
39.511100
11
43.721000
21
38.100000
0
LINE
8
Layer 1
10
43.721000
20
38.100000
11
40.663400
21
38.100000
0
LINE
8
Layer 1
10
40.663400
20
38.100000
11
40.663400
21
39.511100
0
LINE
8
Layer 1
10
40.663400
20
39.511100
11
37.982300
21
39.511100
0
LINE
8
Layer 1
10
37.982300
20
39.511100
11
37.982300
21
38.100000
0
LINE
8
Layer 1
10
37.982300
20
38.100000
11
34.925000
21
38.100000
0
LINE
8
Layer 1
10
34.925000
20
38.100000
11
34.925000
21
39.511100
0
LINE
8
Layer 1
10
34.925000
20
39.511100
11
32.243900
21
39.511100
0
LINE
8
Layer 1
10
32.243900
20
39.511100
11
32.243900
21
38.100000
0
LINE
8
Layer 1
10
32.243900
20
38.100000
11
29.186600
21
38.100000
0
LINE
8
Layer 1
10
29.186600
20
38.100000
11
29.186600
21
39.511100
0
LINE
8
Layer 1
10
29.186600
20
39.511100
11
26.505400
21
39.511100
0
LINE
8
Layer 1
10
26.505400
20
39.511100
11
26.505400
21
38.100000
0
LINE
8
Layer 1
10
26.505400
20
38.100000
11
23.447900
21
38.100000
0
LINE
8
Layer 1
10
23.447900
20
38.100000
11
23.447900
21
39.511100
0
LINE
8
Layer 1
10
23.447900
20
39.511100
11
20.766800
21
39.511100
0
LINE
8
Layer 1
10
20.766800
20
39.511100
11
20.766800
21
38.100000
0
LINE
8
Layer 1
10
20.766800
20
38.100000
11
17.709400
21
38.100000
0
LINE
8
Layer 1
10
17.709400
20
38.100000
11
17.709400
21
39.511100
0
LINE
8
Layer 1
10
17.709400
20
39.511100
11
15.028300
21
39.511100
0
LINE
8
Layer 1
10
15.028300
20
39.511100
11
15.028300
21
38.100000
0
LINE
8
Layer 1
10
15.028300
20
38.100000
11
11.970900
21
38.100000
0
LINE
8
Layer 1
10
11.970900
20
38.100000
11
11.970900
21
39.511100
0
LINE
8
Layer 1
10
11.970900
20
39.511100
11
9.289820
21
39.511100
0
LINE
8
Layer 1
10
9.289820
20
39.511100
11
9.289820
21
38.100000
0
LINE
8
Layer 1
10
9.289820
20
38.100000
11
6.232390
21
38.100000
0
LINE
8
Layer 1
10
6.232390
20
38.100000
11
6.232390
21
39.511100
0
LINE
8
Layer 1
10
6.232390
20
39.511100
11
3.551280
21
39.511100
0
LINE
8
Layer 1
10
3.551280
20
39.511100
11
3.551280
21
38.100000
0
LINE
8
Layer 1
10
3.551280
20
38.100000
11
0.564444
21
38.100000
0
LINE
8
Layer 1
10
0.564444
20
38.100000
11
0.564444
21
41.345600
0
LINE
8
Layer 1
10
0.564444
20
41.345600
11
1.975550
21
41.345600
0
LINE
8
Layer 1
10
1.975550
20
41.345600
11
1.975550
21
44.026700
0
LINE
8
Layer 1
10
1.975550
20
44.026700
11
0.564444
21
44.026700
0
LINE
8
Layer 1
10
0.564444
20
44.026700
11
0.564444
21
47.342800
0
LINE
8
Layer 1
10
0.564444
20
47.342800
11
1.975550
21
47.342800
0
LINE
8
Layer 1
10
1.975550
20
47.342800
11
1.975550
21
50.023900
0
LINE
8
Layer 1
10
1.975550
20
50.023900
11
0.564444
21
50.023900
0
LINE
8
Layer 1
10
0.564444
20
50.023900
11
0.564444
21
53.340000
0
LINE
8
Layer 1
10
0.564444
20
53.340000
11
1.975550
21
53.340000
0
LINE
8
Layer 1
10
1.975550
20
53.340000
11
1.975550
21
56.021100
0
LINE
8
Layer 1
10
1.975550
20
56.021100
11
0.564444
21
56.021100
0
LINE
8
Layer 1
10
0.564444
20
56.021100
11
0.564444
21
59.337200
0
LINE
8
Layer 1
10
0.564444
20
59.337200
11
1.975550
21
59.337200
0
LINE
8
Layer 1
10
1.975550
20
59.337200
11
1.975550
21
62.018400
0
LINE
8
Layer 1
10
1.975550
20
62.018400
11
0.564444
21
62.018400
0
LINE
8
Layer 1
10
0.564444
20
62.018400
11
0.564444
21
65.334500
0
LINE
8
Layer 1
10
0.564444
20
65.334500
11
1.975550
21
65.334500
0
LINE
8
Layer 1
10
1.975550
20
65.334500
11
1.975550
21
68.015600
0
LINE
8
Layer 1
10
1.975550
20
68.015600
11
0.564444
21
68.015600
0
LINE
8
Layer 1
10
0.564444
20
68.015600
11
0.564444
21
71.331700
0
LINE
8
Layer 1
10
0.564444
20
71.331700
11
1.975550
21
71.331700
0
LINE
8
Layer 1
10
1.975550
20
71.331700
11
1.975550
21
74.012800
0
LINE
8
Layer 1
10
1.975550
20
74.012800
11
0.564444
21
74.012800
0
LINE
8
Layer 1
10
0.564444
20
74.012800
11
0.564444
21
77.328900
0
LINE
8
Layer 1
10
0.564444
20
77.328900
11
1.975550
21
77.328900
0
LINE
8
Layer 1
10
1.975550
20
77.328900
11
1.975550
21
80.010000
0
LINE
8
Layer 1
10
1.975550
20
80.010000
11
0.564444
21
80.010000
0
LINE
8
Layer 1
10
0.564444
20
80.010000
11
0.564444
21
83.255600
0
LINE
8
Layer 1
10
100.471000
20
81.844400
11
101.812000
21
81.844400
0
LINE
8
Layer 1
10
101.812000
20
81.844400
11
101.812000
21
83.255600
0
LINE
8
Layer 1
10
101.812000
20
83.255600
11
104.775000
21
83.255600
0
LINE
8
Layer 1
10
104.775000
20
83.255600
11
104.775000
21
81.844400
0
LINE
8
Layer 1
10
104.775000
20
81.844400
11
107.456000
21
81.844400
0
LINE
8
Layer 1
10
107.456000
20
81.844400
11
107.456000
21
83.255600
0
LINE
8
Layer 1
10
107.456000
20
83.255600
11
110.419000
21
83.255600
0
LINE
8
Layer 1
10
110.419000
20
83.255600
11
110.419000
21
81.844400
0
LINE
8
Layer 1
10
110.419000
20
81.844400
11
113.171000
21
81.844400
0
LINE
8
Layer 1
10
113.171000
20
81.844400
11
113.171000
21
80.010000
0
LINE
8
Layer 1
10
113.171000
20
80.010000
11
113.171000
21
80.010000
0
LINE
8
Layer 1
10
113.171000
20
80.010000
11
113.171000
21
77.328900
0
LINE
8
Layer 1
10
113.171000
20
77.328900
11
113.171000
21
77.328900
0
LINE
8
Layer 1
10
113.171000
20
77.328900
11
113.171000
21
74.012800
0
LINE
8
Layer 1
10
113.171000
20
74.012800
11
113.171000
21
74.012800
0
LINE
8
Layer 1
10
113.171000
20
74.012800
11
113.171000
21
71.331700
0
LINE
8
Layer 1
10
113.171000
20
71.331700
11
113.171000
21
71.331700
0
LINE
8
Layer 1
10
113.171000
20
71.331700
11
113.171000
21
68.015600
0
LINE
8
Layer 1
10
113.171000
20
68.015600
11
113.171000
21
68.015600
0
LINE
8
Layer 1
10
113.171000
20
68.015600
11
113.171000
21
65.334500
0
LINE
8
Layer 1
10
113.171000
20
65.334500
11
113.171000
21
65.334500
0
LINE
8
Layer 1
10
113.171000
20
65.334500
11
113.171000
21
62.018400
0
LINE
8
Layer 1
10
113.171000
20
62.018400
11
113.171000
21
62.018400
0
LINE
8
Layer 1
10
113.171000
20
62.018400
11
113.171000
21
59.337200
0
LINE
8
Layer 1
10
113.171000
20
59.337200
11
113.171000
21
59.337200
0
LINE
8
Layer 1
10
113.171000
20
59.337200
11
113.171000
21
56.021100
0
LINE
8
Layer 1
10
113.171000
20
56.021100
11
113.171000
21
56.021100
0
LINE
8
Layer 1
10
113.171000
20
56.021100
11
113.171000
21
53.340000
0
LINE
8
Layer 1
10
113.171000
20
53.340000
11
113.171000
21
53.340000
0
LINE
8
Layer 1
10
113.171000
20
53.340000
11
113.171000
21
50.023900
0
LINE
8
Layer 1
10
113.171000
20
50.023900
11
113.171000
21
50.023900
0
LINE
8
Layer 1
10
113.171000
20
50.023900
11
113.171000
21
47.342800
0
LINE
8
Layer 1
10
113.171000
20
47.342800
11
113.171000
21
47.342800
0
LINE
8
Layer 1
10
113.171000
20
47.342800
11
113.171000
21
44.026700
0
LINE
8
Layer 1
10
113.171000
20
44.026700
11
113.171000
21
44.026700
0
LINE
8
Layer 1
10
113.171000
20
44.026700
11
113.171000
21
41.345600
0
LINE
8
Layer 1
10
113.171000
20
41.345600
11
113.171000
21
41.345600
0
LINE
8
Layer 1
10
113.171000
20
41.345600
11
113.171000
21
39.511100
0
LINE
8
Layer 1
10
113.171000
20
39.511100
11
110.419000
21
39.511100
0
LINE
8
Layer 1
10
110.419000
20
39.511100
11
110.419000
21
38.100000
0
LINE
8
Layer 1
10
110.419000
20
38.100000
11
107.456000
21
38.100000
0
LINE
8
Layer 1
10
107.456000
20
38.100000
11
107.456000
21
39.511100
0
LINE
8
Layer 1
10
107.456000
20
39.511100
11
104.775000
21
39.511100
0
LINE
8
Layer 1
10
104.775000
20
39.511100
11
104.775000
21
38.100000
0
LINE
8
Layer 1
10
104.775000
20
38.100000
11
101.812000
21
38.100000
0
LINE
8
Layer 1
10
101.812000
20
38.100000
11
101.812000
21
39.511100
0
LINE
8
Layer 1
10
101.812000
20
39.511100
11
100.471000
21
39.511100
0
LINE
8
Layer 1
10
100.471000
20
39.511100
11
100.471000
21
41.204500
0
LINE
8
Layer 1
10
100.471000
20
41.204500
11
99.059900
21
41.204500
0
LINE
8
Layer 1
10
99.059900
20
41.204500
11
99.059900
21
44.167800
0
LINE
8
Layer 1
10
99.059900
20
44.167800
11
100.471000
21
44.167800
0
LINE
8
Layer 1
10
100.471000
20
44.167800
11
100.471000
21
47.201700
0
LINE
8
Layer 1
10
100.471000
20
47.201700
11
99.059900
21
47.201700
0
LINE
8
Layer 1
10
99.059900
20
47.201700
11
99.059900
21
50.165000
0
LINE
8
Layer 1
10
99.059900
20
50.165000
11
100.471000
21
50.165000
0
LINE
8
Layer 1
10
100.471000
20
50.165000
11
100.471000
21
53.198900
0
LINE
8
Layer 1
10
100.471000
20
53.198900
11
99.059900
21
53.198900
0
LINE
8
Layer 1
10
99.059900
20
53.198900
11
99.059900
21
56.162200
0
LINE
8
Layer 1
10
99.059900
20
56.162200
11
100.471000
21
56.162200
0
LINE
8
Layer 1
10
100.471000
20
56.162200
11
100.471000
21
59.196100
0
LINE
8
Layer 1
10
100.471000
20
59.196100
11
99.059900
21
59.196100
0
LINE
8
Layer 1
10
99.059900
20
59.196100
11
99.059900
21
62.159500
0
LINE
8
Layer 1
10
99.059900
20
62.159500
11
100.471000
21
62.159500
0
LINE
8
Layer 1
10
100.471000
20
62.159500
11
100.471000
21
65.193300
0
LINE
8
Layer 1
10
100.471000
20
65.193300
11
99.059900
21
65.193300
0
LINE
8
Layer 1
10
99.059900
20
65.193300
11
99.059900
21
68.156700
0
LINE
8
Layer 1
10
99.059900
20
68.156700
11
100.471000
21
68.156700
0
LINE
8
Layer 1
10
100.471000
20
68.156700
11
100.471000
21
71.190600
0
LINE
8
Layer 1
10
100.471000
20
71.190600
11
99.059900
21
71.190600
0
LINE
8
Layer 1
10
99.059900
20
71.190600
11
99.059900
21
74.153900
0
LINE
8
Layer 1
10
99.059900
20
74.153900
11
100.471000
21
74.153900
0
LINE
8
Layer 1
10
100.471000
20
74.153900
11
100.471000
21
77.187800
0
LINE
8
Layer 1
10
100.471000
20
77.187800
11
99.059900
21
77.187800
0
LINE
8
Layer 1
10
99.059900
20
77.187800
11
99.059900
21
80.151100
0
LINE
8
Layer 1
10
99.059900
20
80.151100
11
100.471000
21
80.151100
0
LINE
8
Layer 1
10
100.471000
20
80.151100
11
100.471000
21
81.844400
0
LINE
8
Layer 1
10
197.555000
20
83.255600
11
200.542000
21
83.255600
0
LINE
8
Layer 1
10
200.542000
20
83.255600
11
200.542000
21
83.255600
0
LINE
8
Layer 1
10
200.542000
20
83.255600
11
203.223000
21
83.255600
0
LINE
8
Layer 1
10
203.223000
20
83.255600
11
203.223000
21
83.255600
0
LINE
8
Layer 1
10
203.223000
20
83.255600
11
206.281000
21
83.255600
0
LINE
8
Layer 1
10
206.281000
20
83.255600
11
206.281000
21
83.255600
0
LINE
8
Layer 1
10
206.281000
20
83.255600
11
208.962000
21
83.255600
0
LINE
8
Layer 1
10
208.962000
20
83.255600
11
208.962000
21
83.255600
0
LINE
8
Layer 1
10
208.962000
20
83.255600
11
212.019000
21
83.255600
0
LINE
8
Layer 1
10
212.019000
20
83.255600
11
212.019000
21
83.255600
0
LINE
8
Layer 1
10
212.019000
20
83.255600
11
214.700000
21
83.255600
0
LINE
8
Layer 1
10
214.700000
20
83.255600
11
214.700000
21
83.255600
0
LINE
8
Layer 1
10
214.700000
20
83.255600
11
217.758000
21
83.255600
0
LINE
8
Layer 1
10
217.758000
20
83.255600
11
217.758000
21
83.255600
0
LINE
8
Layer 1
10
217.758000
20
83.255600
11
220.439000
21
83.255600
0
LINE
8
Layer 1
10
220.439000
20
83.255600
11
220.439000
21
83.255600
0
LINE
8
Layer 1
10
220.439000
20
83.255600
11
223.496000
21
83.255600
0
LINE
8
Layer 1
10
223.496000
20
83.255600
11
223.496000
21
83.255600
0
LINE
8
Layer 1
10
223.496000
20
83.255600
11
226.178000
21
83.255600
0
LINE
8
Layer 1
10
226.178000
20
83.255600
11
226.178000
21
83.255600
0
LINE
8
Layer 1
10
226.178000
20
83.255600
11
229.235000
21
83.255600
0
LINE
8
Layer 1
10
229.235000
20
83.255600
11
229.235000
21
83.255600
0
LINE
8
Layer 1
10
229.235000
20
83.255600
11
231.916000
21
83.255600
0
LINE
8
Layer 1
10
231.916000
20
83.255600
11
231.916000
21
83.255600
0
LINE
8
Layer 1
10
231.916000
20
83.255600
11
234.973000
21
83.255600
0
LINE
8
Layer 1
10
234.973000
20
83.255600
11
234.973000
21
83.255600
0
LINE
8
Layer 1
10
234.973000
20
83.255600
11
237.654000
21
83.255600
0
LINE
8
Layer 1
10
237.654000
20
83.255600
11
237.654000
21
83.255600
0
LINE
8
Layer 1
10
237.654000
20
83.255600
11
240.712000
21
83.255600
0
LINE
8
Layer 1
10
240.712000
20
83.255600
11
240.712000
21
83.255600
0
LINE
8
Layer 1
10
240.712000
20
83.255600
11
243.393000
21
83.255600
0
LINE
8
Layer 1
10
243.393000
20
83.255600
11
243.393000
21
83.255600
0
LINE
8
Layer 1
10
243.393000
20
83.255600
11
246.450000
21
83.255600
0
LINE
8
Layer 1
10
246.450000
20
83.255600
11
246.450000
21
83.255600
0
LINE
8
Layer 1
10
246.450000
20
83.255600
11
249.131000
21
83.255600
0
LINE
8
Layer 1
10
249.131000
20
83.255600
11
249.131000
21
83.255600
0
LINE
8
Layer 1
10
249.131000
20
83.255600
11
252.189000
21
83.255600
0
LINE
8
Layer 1
10
252.189000
20
83.255600
11
252.189000
21
83.255600
0
LINE
8
Layer 1
10
252.189000
20
83.255600
11
254.870000
21
83.255600
0
LINE
8
Layer 1
10
254.870000
20
83.255600
11
254.870000
21
83.255600
0
LINE
8
Layer 1
10
254.870000
20
83.255600
11
257.927000
21
83.255600
0
LINE
8
Layer 1
10
257.927000
20
83.255600
11
257.927000
21
83.255600
0
LINE
8
Layer 1
10
257.927000
20
83.255600
11
260.609000
21
83.255600
0
LINE
8
Layer 1
10
260.609000
20
83.255600
11
260.609000
21
83.255600
0
LINE
8
Layer 1
10
260.609000
20
83.255600
11
263.666000
21
83.255600
0
LINE
8
Layer 1
10
263.666000
20
83.255600
11
263.666000
21
83.255600
0
LINE
8
Layer 1
10
263.666000
20
83.255600
11
266.347000
21
83.255600
0
LINE
8
Layer 1
10
266.347000
20
83.255600
11
266.347000
21
83.255600
0
LINE
8
Layer 1
10
266.347000
20
83.255600
11
269.404000
21
83.255600
0
LINE
8
Layer 1
10
269.404000
20
83.255600
11
269.404000
21
83.255600
0
LINE
8
Layer 1
10
269.404000
20
83.255600
11
272.085000
21
83.255600
0
LINE
8
Layer 1
10
272.085000
20
83.255600
11
272.085000
21
83.255600
0
LINE
8
Layer 1
10
272.085000
20
83.255600
11
275.143000
21
83.255600
0
LINE
8
Layer 1
10
275.143000
20
83.255600
11
275.143000
21
83.255600
0
LINE
8
Layer 1
10
275.143000
20
83.255600
11
277.824000
21
83.255600
0
LINE
8
Layer 1
10
277.824000
20
83.255600
11
277.824000
21
83.255600
0
LINE
8
Layer 1
10
277.824000
20
83.255600
11
280.811000
21
83.255600
0
LINE
8
Layer 1
10
280.811000
20
83.255600
11
280.811000
21
80.362800
0
LINE
8
Layer 1
10
280.811000
20
80.362800
11
279.400000
21
80.362800
0
LINE
8
Layer 1
10
279.400000
20
80.362800
11
279.400000
21
77.681700
0
LINE
8
Layer 1
10
279.400000
20
77.681700
11
280.811000
21
77.681700
0
LINE
8
Layer 1
10
280.811000
20
77.681700
11
280.811000
21
74.718300
0
LINE
8
Layer 1
10
280.811000
20
74.718300
11
279.400000
21
74.718300
0
LINE
8
Layer 1
10
279.400000
20
74.718300
11
279.400000
21
72.037200
0
LINE
8
Layer 1
10
279.400000
20
72.037200
11
280.811000
21
72.037200
0
LINE
8
Layer 1
10
280.811000
20
72.037200
11
280.811000
21
70.555600
0
LINE
8
Layer 1
10
280.811000
20
70.555600
11
277.965000
21
70.555600
0
LINE
8
Layer 1
10
277.965000
20
70.555600
11
277.965000
21
69.144500
0
LINE
8
Layer 1
10
277.965000
20
69.144500
11
275.002000
21
69.144500
0
LINE
8
Layer 1
10
275.002000
20
69.144500
11
275.002000
21
70.555600
0
LINE
8
Layer 1
10
275.002000
20
70.555600
11
272.227000
21
70.555600
0
LINE
8
Layer 1
10
272.227000
20
70.555600
11
272.227000
21
69.144500
0
LINE
8
Layer 1
10
272.227000
20
69.144500
11
269.263000
21
69.144500
0
LINE
8
Layer 1
10
269.263000
20
69.144500
11
269.263000
21
70.555600
0
LINE
8
Layer 1
10
269.263000
20
70.555600
11
266.488000
21
70.555600
0
LINE
8
Layer 1
10
266.488000
20
70.555600
11
266.488000
21
69.144500
0
LINE
8
Layer 1
10
266.488000
20
69.144500
11
263.525000
21
69.144500
0
LINE
8
Layer 1
10
263.525000
20
69.144500
11
263.525000
21
70.555600
0
LINE
8
Layer 1
10
263.525000
20
70.555600
11
260.750000
21
70.555600
0
LINE
8
Layer 1
10
260.750000
20
70.555600
11
260.750000
21
69.144500
0
LINE
8
Layer 1
10
260.750000
20
69.144500
11
257.786000
21
69.144500
0
LINE
8
Layer 1
10
257.786000
20
69.144500
11
257.786000
21
70.555600
0
LINE
8
Layer 1
10
257.786000
20
70.555600
11
255.011000
21
70.555600
0
LINE
8
Layer 1
10
255.011000
20
70.555600
11
255.011000
21
69.144500
0
LINE
8
Layer 1
10
255.011000
20
69.144500
11
252.048000
21
69.144500
0
LINE
8
Layer 1
10
252.048000
20
69.144500
11
252.048000
21
70.555600
0
LINE
8
Layer 1
10
252.048000
20
70.555600
11
249.273000
21
70.555600
0
LINE
8
Layer 1
10
249.273000
20
70.555600
11
249.273000
21
69.144500
0
LINE
8
Layer 1
10
249.273000
20
69.144500
11
246.309000
21
69.144500
0
LINE
8
Layer 1
10
246.309000
20
69.144500
11
246.309000
21
70.555600
0
LINE
8
Layer 1
10
246.309000
20
70.555600
11
243.534000
21
70.555600
0
LINE
8
Layer 1
10
243.534000
20
70.555600
11
243.534000
21
69.144500
0
LINE
8
Layer 1
10
243.534000
20
69.144500
11
240.571000
21
69.144500
0
LINE
8
Layer 1
10
240.571000
20
69.144500
11
240.571000
21
70.555600
0
LINE
8
Layer 1
10
240.571000
20
70.555600
11
237.795000
21
70.555600
0
LINE
8
Layer 1
10
237.795000
20
70.555600
11
237.795000
21
69.144500
0
LINE
8
Layer 1
10
237.795000
20
69.144500
11
234.832000
21
69.144500
0
LINE
8
Layer 1
10
234.832000
20
69.144500
11
234.832000
21
70.555600
0
LINE
8
Layer 1
10
234.832000
20
70.555600
11
232.057000
21
70.555600
0
LINE
8
Layer 1
10
232.057000
20
70.555600
11
232.057000
21
69.144500
0
LINE
8
Layer 1
10
232.057000
20
69.144500
11
229.094000
21
69.144500
0
LINE
8
Layer 1
10
229.094000
20
69.144500
11
229.094000
21
70.555600
0
LINE
8
Layer 1
10
229.094000
20
70.555600
11
226.319000
21
70.555600
0
LINE
8
Layer 1
10
226.319000
20
70.555600
11
226.319000
21
69.144500
0
LINE
8
Layer 1
10
226.319000
20
69.144500
11
223.355000
21
69.144500
0
LINE
8
Layer 1
10
223.355000
20
69.144500
11
223.355000
21
70.555600
0
LINE
8
Layer 1
10
223.355000
20
70.555600
11
220.580000
21
70.555600
0
LINE
8
Layer 1
10
220.580000
20
70.555600
11
220.580000
21
69.144500
0
LINE
8
Layer 1
10
220.580000
20
69.144500
11
217.617000
21
69.144500
0
LINE
8
Layer 1
10
217.617000
20
69.144500
11
217.617000
21
70.555600
0
LINE
8
Layer 1
10
217.617000
20
70.555600
11
214.841000
21
70.555600
0
LINE
8
Layer 1
10
214.841000
20
70.555600
11
214.841000
21
69.144500
0
LINE
8
Layer 1
10
214.841000
20
69.144500
11
211.878000
21
69.144500
0
LINE
8
Layer 1
10
211.878000
20
69.144500
11
211.878000
21
70.555600
0
LINE
8
Layer 1
10
211.878000
20
70.555600
11
209.103000
21
70.555600
0
LINE
8
Layer 1
10
209.103000
20
70.555600
11
209.103000
21
69.144500
0
LINE
8
Layer 1
10
209.103000
20
69.144500
11
206.140000
21
69.144500
0
LINE
8
Layer 1
10
206.140000
20
69.144500
11
206.140000
21
70.555600
0
LINE
8
Layer 1
10
206.140000
20
70.555600
11
203.364000
21
70.555600
0
LINE
8
Layer 1
10
203.364000
20
70.555600
11
203.364000
21
69.144500
0
LINE
8
Layer 1
10
203.364000
20
69.144500
11
200.401000
21
69.144500
0
LINE
8
Layer 1
10
200.401000
20
69.144500
11
200.401000
21
70.555600
0
LINE
8
Layer 1
10
200.401000
20
70.555600
11
197.555000
21
70.555600
0
LINE
8
Layer 1
10
197.555000
20
70.555600
11
197.555000
21
72.037200
0
LINE
8
Layer 1
10
197.555000
20
72.037200
11
198.967000
21
72.037200
0
LINE
8
Layer 1
10
198.967000
20
72.037200
11
198.967000
21
74.718300
0
LINE
8
Layer 1
10
198.967000
20
74.718300
11
197.555000
21
74.718300
0
LINE
8
Layer 1
10
197.555000
20
74.718300
11
197.555000
21
77.681700
0
LINE
8
Layer 1
10
197.555000
20
77.681700
11
198.967000
21
77.681700
0
LINE
8
Layer 1
10
198.967000
20
77.681700
11
198.967000
21
80.362800
0
LINE
8
Layer 1
10
198.967000
20
80.362800
11
197.555000
21
80.362800
0
LINE
8
Layer 1
10
197.555000
20
80.362800
11
197.555000
21
83.255600
 0 
ENDSEC
 0 
EOF