<?xml version="1.0" encoding="UTF-8" standalone="no"?>
<svg
   xmlns:dc="http://purl.org/dc/elements/1.1/"
   xmlns:cc="http://creativecommons.org/ns#"
   xmlns:rdf="http://www.w3.org/1999/02/22-rdf-syntax-ns#"
   xmlns:svg="http://www.w3.org/2000/svg"
   xmlns="http://www.w3.org/2000/svg"
   xmlns:sodipodi="http://sodipodi.sourceforge.net/DTD/sodipodi-0.dtd"
   xmlns:inkscape="http://www.inkscape.org/namespaces/inkscape"
   width="210mm"
   height="297mm"
   viewBox="0 0 210 297"
   version="1.1"
   id="svg7629"
   inkscape:version="1.0.1 (3bc2e813f5, 2020-09-07)"
   sodipodi:docname="box 2.2.svg">
  <defs
     id="defs7623" />
  <sodipodi:namedview
     id="base"
     pagecolor="#ffffff"
     bordercolor="#666666"
     borderopacity="1.0"
     inkscape:pageopacity="0.0"
     inkscape:pageshadow="2"
     inkscape:zoom="0.0875"
     inkscape:cx="1505.7784"
     inkscape:cy="3754.3078"
     inkscape:document-units="mm"
     inkscape:current-layer="layer1"
     inkscape:document-rotation="0"
     showgrid="false"
     inkscape:window-width="1267"
     inkscape:window-height="1030"
     inkscape:window-x="67"
     inkscape:window-y="19"
     inkscape:window-maximized="0" />
  <metadata
     id="metadata7626">
    <rdf:RDF>
      <cc:Work
         rdf:about="">
        <dc:format>image/svg+xml</dc:format>
        <dc:type
           rdf:resource="http://purl.org/dc/dcmitype/StillImage" />
        <dc:title></dc:title>
      </cc:Work>
    </rdf:RDF>
  </metadata>
  <g
     inkscape:label="Layer 1"
     inkscape:groupmode="layer"
     id="layer1">
    <path
       id="rect8450"
       style="fill:#eafff7;fill-opacity:1;stroke-width:0.733598"
       d="M -458.24871,1323.9895 H 1041.7513 v 500.0001 H -458.24871 Z" />
    <g
       id="g9379"
       transform="rotate(180,413.97143,874.75238)">
      <g
         id="panel8765">
        <path
           style="fill:none;stroke:#000000;stroke-width:1"
           d="m 513.1,7 h 11.007 V 2 h 10 v 5 h 11.006 V 2 h 10 V 7 H 566.12 V 2 h 10 v 5 h 11.007 V 2 h 10 v 5 h 11.006 V 2 h 10 V 7 H 629.14 V 2 h 10 v 5 h 11.007 V 2 h 10 v 5 h 11.006 V 2 h 10 V 7 H 692.16 V 2 h 10 v 5 h 11.007 V 2 h 10 v 5 h 11.006 V 2 h 10 V 7 H 755.18 V 2 h 10 v 5 h 11.007 V 2 h 10 v 5 h 11.006 V 2 h 10 V 7 H 818.2"
           id="path9282" />
        <path
           style="fill:none;stroke:#000000;stroke-width:1"
           d="m 818.2,7 v 7 h -5 v 10 h 5 v 12 h -5 v 10 h 5 v 12 h -5 v 10 h 5 v 12 h -5 v 10 h 5 v 7"
           id="path9284" />
        <path
           style="fill:none;stroke:#000000;stroke-width:1"
           d="m 818.2,97 h -11.007 v 0 h -10 v 0 h -11.006 v 0 h -10 v 0 H 765.18 v 0 h -10 v 0 h -11.007 v 0 h -10 v 0 h -11.006 v 0 h -10 v 0 H 702.16 v 0 h -10 v 0 h -11.007 v 0 h -10 v 0 h -11.006 v 0 h -10 v 0 H 639.14 v 0 h -10 v 0 h -11.007 v 0 h -10 v 0 h -11.006 v 0 h -10 v 0 H 576.12 v 0 h -10 v 0 h -11.007 v 0 h -10 v 0 h -11.006 v 0 h -10 v 0 H 513.1"
           id="path9286" />
        <path
           style="fill:none;stroke:#000000;stroke-width:1"
           d="m 513.1,97 v -7 h 5 V 80 h -5 V 68 h 5 V 58 h -5 V 46 h 5 V 36 h -5 V 24 h 5 V 14 h -5 V 7"
           id="path9288" />
      </g>
      <g
         id="panel6807">
        <path
           style="fill:none;stroke:#000000;stroke-width:1"
           d="m 314.1,7 h 7 V 2 h 10 v 5 h 12 V 2 h 10 v 5 h 12 V 2 h 10 v 5 h 12 V 2 h 10 v 5 h 7"
           id="path9291" />
        <path
           style="fill:none;stroke:#000000;stroke-width:1"
           d="m 404.1,7 v 5.0111 h 5 v 10 h -5 v 10.0111 h 5 v 10 h -5 v 10.0111 h 5 v 10 h -5 v 10.0111 h 5 v 10 h -5 v 10.0112 h 5 v 10.0004 h -5 v 10.011 h 5 v 10 h -5 v 10.011 h 5 v 10 h -5 v 10.011 h 5 v 10 h -5 v 5.011"
           id="path9293" />
        <path
           style="fill:none;stroke:#000000;stroke-width:1"
           d="m 404.1,167.1 h -7 v 5 h -10 v -5 h -12 v 5 h -10 v -5 h -12 v 5 h -10 v -5 h -12 v 5 h -10 v -5 h -7"
           id="path9295" />
        <path
           style="fill:none;stroke:#000000;stroke-width:1"
           d="m 314.1,167.1 v -5.011 0 -10 0 -10.011 0 -10 0 -10.011 0 -10 0 -10.011 0 -10.0004 0 -10.0112 0 -10 0 -10.0111 0 -10 0 -10.0111 0 -10 0 -10.0111 0 -10 0 V 7"
           id="path9297" />
      </g>
      <g
         id="panel1021">
        <path
           style="fill:none;stroke:#000000;stroke-width:1"
           d="m 2,2 h 11.0067 v 5 h 10 V 2 h 11.0066 v 5 h 10 V 2 H 55.02 v 5 h 10 V 2 h 11.0067 v 5 h 10 V 2 h 11.0066 v 5 h 9.9997 V 2 h 11.007 v 5 h 10 V 2 h 11.007 v 5 h 10 V 2 h 11.006 v 5 h 10 V 2 h 11.007 v 5 h 10 V 2 h 11.007 v 5 h 10 V 2 h 11.006 v 5 h 10 V 2 h 11.007 v 5 h 10 V 2 h 11.007 v 5 h 10 V 2 h 11.006 v 5 h 10 V 2 H 307.1"
           id="path9300" />
        <path
           style="fill:none;stroke:#000000;stroke-width:1"
           d="m 307.1,2 v 10.0111 h -5 v 10 h 5 v 10.0111 h -5 v 10 h 5 v 10.0111 h -5 v 10 h 5 v 10.0111 h -5 v 10 h 5 v 10.0112 h -5 v 10.0004 h 5 v 10.011 h -5 v 10 h 5 v 10.011 h -5 v 10 h 5 v 10.011 h -5 v 10 h 5 V 172.1"
           id="path9302" />
        <path
           style="fill:none;stroke:#000000;stroke-width:1"
           d="m 307.1,172.1 h -11.007 v -5 h -10 v 5 h -11.006 v -5 h -10 v 5 H 254.08 v -5 h -10 v 5 h -11.007 v -5 h -10 v 5 h -11.006 v -5 h -10 v 5 H 191.06 v -5 h -10 v 5 h -11.007 v -5 h -10 v 5 h -11.006 v -5 h -10 v 5 H 128.04 v -5 h -10 v 5 h -11.007 v -5 h -9.9997 v 5 H 86.0267 v -5 h -10 v 5 H 65.02 v -5 h -10 v 5 H 44.0133 v -5 h -10 v 5 H 23.0067 v -5 h -10 v 5 H 2"
           id="path9304" />
        <path
           style="fill:none;stroke:#000000;stroke-width:1"
           d="m 2,172.1 v -10.011 h 5 v -10 H 2 v -10.011 h 5 v -10 H 2 v -10.011 h 5 v -10 H 2 V 102.056 H 7 V 92.0556 H 2 V 82.0444 h 5 v -10 H 2 V 62.0333 h 5 v -10 H 2 V 42.0222 h 5 v -10 H 2 V 22.0111 h 5 v -10 H 2 V 2"
           id="path9306" />
      </g>
      <g
         id="panel5370">
        <path
           style="fill:none;stroke:#000000;stroke-width:1"
           d="m 416.1,7 h 7 V 2 h 10 v 5 h 12 V 2 h 10 v 5 h 12 V 2 h 10 v 5 h 12 V 2 h 10 v 5 h 7"
           id="path9309" />
        <path
           style="fill:none;stroke:#000000;stroke-width:1"
           d="m 506.1,7 v 5.0111 0 10 0 10.0111 0 10 0 10.0111 0 10 0 10.0111 0 10 0 10.0112 0 10.0004 0 10.011 0 10 0 10.011 0 10 0 10.011 0 10 0 5.011"
           id="path9311" />
        <path
           style="fill:none;stroke:#000000;stroke-width:1"
           d="m 506.1,167.1 h -7 v 5 h -10 v -5 h -12 v 5 h -10 v -5 h -12 v 5 h -10 v -5 h -12 v 5 h -10 v -5 h -7"
           id="path9313" />
        <path
           style="fill:none;stroke:#000000;stroke-width:1"
           d="m 416.1,167.1 v -5.011 h -5 v -10 h 5 v -10.011 h -5 v -10 h 5 v -10.011 h -5 v -10 h 5 v -10.011 h -5 V 92.0556 h 5 V 82.0444 h -5 v -10 h 5 V 62.0333 h -5 v -10 h 5 V 42.0222 h -5 v -10 h 5 V 22.0111 h -5 v -10 h 5 V 7"
           id="path9315" />
      </g>
      <g
         id="panel5361">
        <path
           style="fill:none;stroke:#000000;stroke-width:1"
           d="m 820.2,7 h 11.007 v 0 h 10 v 0 h 11.006 v 0 h 10 v 0 h 11.007 v 0 h 10 v 0 h 11.007 v 0 h 10 v 0 h 11.006 v 0 h 10 v 0 h 11.007 v 0 h 10 v 0 h 11.007 v 0 h 10 v 0 h 11.006 v 0 h 10 v 0 h 11.007 v 0 h 10 v 0 h 11.01 v 0 h 10 v 0 h 11 v 0 h 10 v 0 h 11.01 v 0 h 10 v 0 h 11.01 v 0 h 10 v 0 h 11 v 0 h 10 v 0 h 11.01"
           id="path9318" />
        <path
           style="fill:none;stroke:#000000;stroke-width:1"
           d="m 1125.3,7 v 7 h -5 v 10 h 5 v 12 h -5 v 10 h 5 v 12 h -5 v 10 h 5 v 12 h -5 v 10 h 5 v 7"
           id="path9320" />
        <path
           style="fill:none;stroke:#000000;stroke-width:1"
           d="m 1125.3,97 h -11.01 v 5 h -10 v -5 h -11 v 5 h -10 v -5 h -11.01 v 5 h -10 v -5 h -11.01 v 5 h -10 v -5 h -11 v 5 h -10 v -5 h -11.01 v 5 h -10 v -5 h -11.007 v 5 h -10 v -5 h -11.006 v 5 h -10 V 97 H 946.24 v 5 h -10 v -5 h -11.007 v 5 h -10 v -5 h -11.006 v 5 h -10 V 97 H 883.22 v 5 h -10 v -5 h -11.007 v 5 h -10 v -5 h -11.006 v 5 h -10 V 97 H 820.2"
           id="path9322" />
        <path
           style="fill:none;stroke:#000000;stroke-width:1"
           d="m 820.2,97 v -7 h 5 V 80 h -5 V 68 h 5 V 58 h -5 V 46 h 5 V 36 h -5 V 24 h 5 V 14 h -5 V 7"
           id="path9324" />
      </g>
    </g>
    <g
       id="panel748"
       transform="translate(-247.95238,1403.0476)">
      <path
         style="fill:none;stroke:#000000;stroke-width:1"
         d="m 463,7 h 11 V 2 h 10 v 5 h 11 V 2 h 10 v 5 h 11 V 2 h 10 v 5 h 11 V 2 h 10 v 5 h 11 V 2 h 10 v 5 h 11 V 2 h 10 v 5 h 11 V 2 h 10 v 5 h 11 V 2 h 10 v 5 h 11 V 2 h 10 v 5 h 11 V 2 h 10 v 5 h 11 V 2 h 10 v 5 h 11 V 2 h 10 v 5 h 11 V 2 h 10 v 5 h 11 V 2 h 10 v 5 h 11"
         id="path9411" />
      <path
         style="fill:none;stroke:#000000;stroke-width:1"
         d="m 768,7 v 6.25 h -5 v 10 h 5 V 34.5 h -5 v 10 h 5 v 11.25 h -5 v 10 h 5 V 72"
         id="path9413" />
      <path
         style="fill:none;stroke:#000000;stroke-width:1"
         d="m 768,72 h -11 v 0 h -10 v 0 h -11 v 0 h -10 v 0 h -11 v 0 h -10 v 0 h -11 v 0 h -10 v 0 h -11 v 0 h -10 v 0 h -11 v 0 h -10 v 0 h -11 v 0 h -10 v 0 h -11 v 0 h -10 v 0 h -11 v 0 h -10 v 0 h -11 v 0 h -10 v 0 h -11 v 0 h -10 v 0 h -11 v 0 h -10 v 0 h -11 v 0 h -10 v 0 h -11 v 0 h -10 v 0 h -11"
         id="path9415" />
      <path
         style="fill:none;stroke:#000000;stroke-width:1"
         d="m 463,72 v -6.25 h 5 v -10 h -5 V 44.5 h 5 v -10 h -5 V 23.25 h 5 v -10 h -5 V 7"
         id="path9417" />
    </g>
    <g
       id="panel2401"
       transform="translate(-247.95238,1403.0476)">
      <path
         style="fill:none;stroke:#000000;stroke-width:1"
         d="m 314,7 h 6.25 V 2 h 10 V 7 H 341.5 V 2 h 10 v 5 h 11.25 V 2 h 10 V 7 H 379"
         id="path9420" />
      <path
         style="fill:none;stroke:#000000;stroke-width:1"
         d="m 379,7 v 5 h 5 v 10 h -5 v 10 h 5 v 10 h -5 v 10 h 5 v 10 h -5 v 10 h 5 v 10 h -5 v 10 h 5 v 10 h -5 v 10 h 5 v 10 h -5 v 10 h 5 v 10 h -5 v 10 h 5 v 10 h -5 v 5"
         id="path9422" />
      <path
         style="fill:none;stroke:#000000;stroke-width:1"
         d="m 379,167 h -6.25 v 5 h -10 v -5 H 351.5 v 5 h -10 v -5 h -11.25 v 5 h -10 v -5 H 314"
         id="path9424" />
      <path
         style="fill:none;stroke:#000000;stroke-width:1"
         d="m 314,167 v -5 0 -10 0 -10 0 -10 0 -10 0 -10 0 -10 0 -10 0 -10 0 -10 0 -10 0 -10 0 -10 0 -10 0 -10 0 -10 0 -5"
         id="path9426" />
    </g>
    <g
       id="panel7120"
       transform="translate(-247.95238,1403.0476)">
      <path
         style="fill:none;stroke:#000000;stroke-width:1"
         d="M 2,2 H 13 V 7 H 23 V 2 H 34 V 7 H 44 V 2 H 55 V 7 H 65 V 2 H 76 V 7 H 86 V 2 h 11 v 5 h 10 V 2 h 11 v 5 h 10 V 2 h 11 v 5 h 10 V 2 h 11 v 5 h 10 V 2 h 11 v 5 h 10 V 2 h 11 v 5 h 10 V 2 h 11 v 5 h 10 V 2 h 11 v 5 h 10 V 2 h 11 v 5 h 10 V 2 h 11 v 5 h 10 V 2 h 11"
         id="path9429" />
      <path
         style="fill:none;stroke:#000000;stroke-width:1"
         d="m 307,2 v 10 h -5 v 10 h 5 v 10 h -5 v 10 h 5 v 10 h -5 v 10 h 5 v 10 h -5 v 10 h 5 v 10 h -5 v 10 h 5 v 10 h -5 v 10 h 5 v 10 h -5 v 10 h 5 v 10 h -5 v 10 h 5 v 10"
         id="path9431" />
      <path
         style="fill:none;stroke:#000000;stroke-width:1"
         d="m 307,172 h -11 v -5 h -10 v 5 h -11 v -5 h -10 v 5 h -11 v -5 h -10 v 5 h -11 v -5 h -10 v 5 h -11 v -5 h -10 v 5 h -11 v -5 h -10 v 5 h -11 v -5 h -10 v 5 h -11 v -5 h -10 v 5 h -11 v -5 h -10 v 5 h -11 v -5 H 97 v 5 H 86 v -5 H 76 v 5 H 65 v -5 H 55 v 5 H 44 v -5 H 34 v 5 H 23 v -5 H 13 v 5 H 2"
         id="path9433" />
      <path
         style="fill:none;stroke:#000000;stroke-width:1"
         d="M 2,172 V 162 H 7 V 152 H 2 V 142 H 7 V 132 H 2 V 122 H 7 V 112 H 2 V 102 H 7 V 92 H 2 V 82 H 7 V 72 H 2 V 62 H 7 V 52 H 2 V 42 H 7 V 32 H 2 V 22 H 7 V 12 H 2 V 2"
         id="path9435" />
    </g>
    <g
       id="panel2382"
       transform="translate(-247.95238,1403.0476)">
      <path
         style="fill:none;stroke:#000000;stroke-width:1"
         d="m 391,7 h 6.25 V 2 h 10 V 7 H 418.5 V 2 h 10 v 5 h 11.25 V 2 h 10 V 7 H 456"
         id="path9438" />
      <path
         style="fill:none;stroke:#000000;stroke-width:1"
         d="m 456,7 v 5 0 10 0 10 0 10 0 10 0 10 0 10 0 10 0 10 0 10 0 10 0 10 0 10 0 10 0 10 0 10 0 5"
         id="path9440" />
      <path
         style="fill:none;stroke:#000000;stroke-width:1"
         d="m 456,167 h -6.25 v 5 h -10 v -5 H 428.5 v 5 h -10 v -5 h -11.25 v 5 h -10 v -5 H 391"
         id="path9442" />
      <path
         style="fill:none;stroke:#000000;stroke-width:1"
         d="m 391,167 v -5 h -5 v -10 h 5 v -10 h -5 v -10 h 5 v -10 h -5 v -10 h 5 v -10 h -5 V 92 h 5 V 82 h -5 V 72 h 5 V 62 h -5 V 52 h 5 V 42 h -5 V 32 h 5 V 22 h -5 V 12 h 5 V 7"
         id="path9444" />
    </g>
    <g
       id="panel1412"
       transform="translate(-247.95238,1403.0476)">
      <path
         style="fill:none;stroke:#000000;stroke-width:1"
         d="m 770,7 h 11 v 0 h 10 v 0 h 11 v 0 h 10 v 0 h 11 v 0 h 10 v 0 h 11 v 0 h 10 v 0 h 11 v 0 h 10 v 0 h 11 v 0 h 10 v 0 h 11 v 0 h 10 v 0 h 11 v 0 h 10 v 0 h 11 v 0 h 10 v 0 h 11 v 0 h 10 v 0 h 11 v 0 h 10 v 0 h 11 v 0 h 10 v 0 h 11 v 0 h 10 v 0 h 11 v 0 h 10 v 0 h 11"
         id="path9447" />
      <path
         style="fill:none;stroke:#000000;stroke-width:1"
         d="m 1075,7 v 6.25 h -5 v 10 h 5 V 34.5 h -5 v 10 h 5 v 11.25 h -5 v 10 h 5 V 72"
         id="path9449" />
      <path
         style="fill:none;stroke:#000000;stroke-width:1"
         d="m 1075,72 h -11 v 5 h -10 v -5 h -11 v 5 h -10 v -5 h -11 v 5 h -10 v -5 h -11 v 5 h -10 v -5 h -11 v 5 h -10 v -5 h -11 v 5 h -10 v -5 h -11 v 5 h -10 v -5 h -11 v 5 h -10 v -5 h -11 v 5 h -10 v -5 h -11 v 5 h -10 v -5 h -11 v 5 h -10 v -5 h -11 v 5 h -10 v -5 h -11 v 5 h -10 v -5 h -11 v 5 h -10 v -5 h -11"
         id="path9451" />
      <path
         style="fill:none;stroke:#000000;stroke-width:1"
         d="m 770,72 v -6.25 h 5 v -10 h -5 V 44.5 h 5 v -10 h -5 V 23.25 h 5 v -10 h -5 V 7"
         id="path9453" />
    </g>
  </g>
</svg>
