999
"DXF R12 Output" (www.mydxf.blogspot.com)
 0 
SECTION
 2 
HEADER
 9 
$ACADVER
 1 
AC1009
 9 
$EXTMIN
 10 
 0 
 20 
 0 
 9 
$EXTMAX
 10 
 8.5 
 20 
 11 
 0 
ENDSEC
 0 
SECTION
 2 
ENTITIES
0
LINE
8
Layer 1
10
-74.464300
20
333.375000
11
348.869000
21
333.375000
0
LINE
8
Layer 1
10
348.869000
20
333.375000
11
348.869000
21
192.264000
0
LINE
8
Layer 1
10
348.869000
20
192.264000
11
-74.464300
21
192.264000
0
LINE
8
Layer 1
10
-74.464300
20
192.264000
11
-74.464300
21
333.375000
0
LINE
8
Layer 1
10
123.895000
20
82.126700
11
126.232000
21
82.126700
0
LINE
8
Layer 1
10
126.232000
20
82.126700
11
126.232000
21
83.537800
0
LINE
8
Layer 1
10
126.232000
20
83.537800
11
128.489000
21
83.537800
0
LINE
8
Layer 1
10
128.489000
20
83.537800
11
128.489000
21
82.126700
0
LINE
8
Layer 1
10
128.489000
20
82.126700
11
130.826000
21
82.126700
0
LINE
8
Layer 1
10
130.826000
20
82.126700
11
130.826000
21
83.537800
0
LINE
8
Layer 1
10
130.826000
20
83.537800
11
133.083000
21
83.537800
0
LINE
8
Layer 1
10
133.083000
20
83.537800
11
133.083000
21
82.126700
0
LINE
8
Layer 1
10
133.083000
20
82.126700
11
135.419000
21
82.126700
0
LINE
8
Layer 1
10
135.419000
20
82.126700
11
135.419000
21
83.537800
0
LINE
8
Layer 1
10
135.419000
20
83.537800
11
137.677000
21
83.537800
0
LINE
8
Layer 1
10
137.677000
20
83.537800
11
137.677000
21
82.126700
0
LINE
8
Layer 1
10
137.677000
20
82.126700
11
140.013000
21
82.126700
0
LINE
8
Layer 1
10
140.013000
20
82.126700
11
140.013000
21
83.537800
0
LINE
8
Layer 1
10
140.013000
20
83.537800
11
142.271000
21
83.537800
0
LINE
8
Layer 1
10
142.271000
20
83.537800
11
142.271000
21
82.126700
0
LINE
8
Layer 1
10
142.271000
20
82.126700
11
144.607000
21
82.126700
0
LINE
8
Layer 1
10
144.607000
20
82.126700
11
144.607000
21
83.537800
0
LINE
8
Layer 1
10
144.607000
20
83.537800
11
146.865000
21
83.537800
0
LINE
8
Layer 1
10
146.865000
20
83.537800
11
146.865000
21
82.126700
0
LINE
8
Layer 1
10
146.865000
20
82.126700
11
149.201000
21
82.126700
0
LINE
8
Layer 1
10
149.201000
20
82.126700
11
149.201000
21
83.537800
0
LINE
8
Layer 1
10
149.201000
20
83.537800
11
151.459000
21
83.537800
0
LINE
8
Layer 1
10
151.459000
20
83.537800
11
151.459000
21
82.126700
0
LINE
8
Layer 1
10
151.459000
20
82.126700
11
153.795000
21
82.126700
0
LINE
8
Layer 1
10
153.795000
20
82.126700
11
153.795000
21
83.537800
0
LINE
8
Layer 1
10
153.795000
20
83.537800
11
156.053000
21
83.537800
0
LINE
8
Layer 1
10
156.053000
20
83.537800
11
156.053000
21
82.126700
0
LINE
8
Layer 1
10
156.053000
20
82.126700
11
158.389000
21
82.126700
0
LINE
8
Layer 1
10
158.389000
20
82.126700
11
158.389000
21
83.537800
0
LINE
8
Layer 1
10
158.389000
20
83.537800
11
160.647000
21
83.537800
0
LINE
8
Layer 1
10
160.647000
20
83.537800
11
160.647000
21
82.126700
0
LINE
8
Layer 1
10
160.647000
20
82.126700
11
162.983000
21
82.126700
0
LINE
8
Layer 1
10
162.983000
20
82.126700
11
162.983000
21
83.537800
0
LINE
8
Layer 1
10
162.983000
20
83.537800
11
165.241000
21
83.537800
0
LINE
8
Layer 1
10
165.241000
20
83.537800
11
165.241000
21
82.126700
0
LINE
8
Layer 1
10
165.241000
20
82.126700
11
167.577000
21
82.126700
0
LINE
8
Layer 1
10
167.577000
20
82.126700
11
167.577000
21
83.537800
0
LINE
8
Layer 1
10
167.577000
20
83.537800
11
169.835000
21
83.537800
0
LINE
8
Layer 1
10
169.835000
20
83.537800
11
169.835000
21
82.126700
0
LINE
8
Layer 1
10
169.835000
20
82.126700
11
172.171000
21
82.126700
0
LINE
8
Layer 1
10
172.171000
20
82.126700
11
172.171000
21
83.537800
0
LINE
8
Layer 1
10
172.171000
20
83.537800
11
174.429000
21
83.537800
0
LINE
8
Layer 1
10
174.429000
20
83.537800
11
174.429000
21
82.126700
0
LINE
8
Layer 1
10
174.429000
20
82.126700
11
176.765000
21
82.126700
0
LINE
8
Layer 1
10
176.765000
20
82.126700
11
176.765000
21
83.537800
0
LINE
8
Layer 1
10
176.765000
20
83.537800
11
179.023000
21
83.537800
0
LINE
8
Layer 1
10
179.023000
20
83.537800
11
179.023000
21
82.126700
0
LINE
8
Layer 1
10
179.023000
20
82.126700
11
181.359000
21
82.126700
0
LINE
8
Layer 1
10
181.359000
20
82.126700
11
181.359000
21
83.537800
0
LINE
8
Layer 1
10
181.359000
20
83.537800
11
183.617000
21
83.537800
0
LINE
8
Layer 1
10
183.617000
20
83.537800
11
183.617000
21
82.126700
0
LINE
8
Layer 1
10
183.617000
20
82.126700
11
185.953000
21
82.126700
0
LINE
8
Layer 1
10
185.953000
20
82.126700
11
185.953000
21
83.537800
0
LINE
8
Layer 1
10
185.953000
20
83.537800
11
188.211000
21
83.537800
0
LINE
8
Layer 1
10
188.211000
20
83.537800
11
188.211000
21
82.126700
0
LINE
8
Layer 1
10
188.211000
20
82.126700
11
190.547000
21
82.126700
0
LINE
8
Layer 1
10
190.547000
20
82.126700
11
190.547000
21
83.537800
0
LINE
8
Layer 1
10
190.547000
20
83.537800
11
192.805000
21
83.537800
0
LINE
8
Layer 1
10
192.805000
20
83.537800
11
192.805000
21
82.126700
0
LINE
8
Layer 1
10
192.805000
20
82.126700
11
195.141000
21
82.126700
0
LINE
8
Layer 1
10
195.141000
20
82.126700
11
195.141000
21
83.537800
0
LINE
8
Layer 1
10
195.141000
20
83.537800
11
197.398000
21
83.537800
0
LINE
8
Layer 1
10
197.398000
20
83.537800
11
197.398000
21
82.126700
0
LINE
8
Layer 1
10
197.398000
20
82.126700
11
199.735000
21
82.126700
0
LINE
8
Layer 1
10
199.735000
20
82.126700
11
199.735000
21
83.537800
0
LINE
8
Layer 1
10
199.735000
20
83.537800
11
201.992000
21
83.537800
0
LINE
8
Layer 1
10
201.992000
20
83.537800
11
201.992000
21
82.126700
0
LINE
8
Layer 1
10
201.992000
20
82.126700
11
204.329000
21
82.126700
0
LINE
8
Layer 1
10
204.329000
20
82.126700
11
204.329000
21
81.110700
0
LINE
8
Layer 1
10
204.329000
20
81.110700
11
202.918000
21
81.110700
0
LINE
8
Layer 1
10
202.918000
20
81.110700
11
202.918000
21
78.852900
0
LINE
8
Layer 1
10
202.918000
20
78.852900
11
204.329000
21
78.852900
0
LINE
8
Layer 1
10
204.329000
20
78.852900
11
204.329000
21
76.425800
0
LINE
8
Layer 1
10
204.329000
20
76.425800
11
202.918000
21
76.425800
0
LINE
8
Layer 1
10
202.918000
20
76.425800
11
202.918000
21
74.168000
0
LINE
8
Layer 1
10
202.918000
20
74.168000
11
204.329000
21
74.168000
0
LINE
8
Layer 1
10
204.329000
20
74.168000
11
204.329000
21
71.740900
0
LINE
8
Layer 1
10
204.329000
20
71.740900
11
202.918000
21
71.740900
0
LINE
8
Layer 1
10
202.918000
20
71.740900
11
202.918000
21
69.483100
0
LINE
8
Layer 1
10
202.918000
20
69.483100
11
204.329000
21
69.483100
0
LINE
8
Layer 1
10
204.329000
20
69.483100
11
204.329000
21
67.056000
0
LINE
8
Layer 1
10
204.329000
20
67.056000
11
202.918000
21
67.056000
0
LINE
8
Layer 1
10
202.918000
20
67.056000
11
202.918000
21
64.798200
0
LINE
8
Layer 1
10
202.918000
20
64.798200
11
204.329000
21
64.798200
0
LINE
8
Layer 1
10
204.329000
20
64.798200
11
204.329000
21
62.371100
0
LINE
8
Layer 1
10
204.329000
20
62.371100
11
201.992000
21
62.371100
0
LINE
8
Layer 1
10
201.992000
20
62.371100
11
201.992000
21
62.371100
0
LINE
8
Layer 1
10
201.992000
20
62.371100
11
199.735000
21
62.371100
0
LINE
8
Layer 1
10
199.735000
20
62.371100
11
199.735000
21
62.371100
0
LINE
8
Layer 1
10
199.735000
20
62.371100
11
197.398000
21
62.371100
0
LINE
8
Layer 1
10
197.398000
20
62.371100
11
197.398000
21
62.371100
0
LINE
8
Layer 1
10
197.398000
20
62.371100
11
195.141000
21
62.371100
0
LINE
8
Layer 1
10
195.141000
20
62.371100
11
195.141000
21
62.371100
0
LINE
8
Layer 1
10
195.141000
20
62.371100
11
192.805000
21
62.371100
0
LINE
8
Layer 1
10
192.805000
20
62.371100
11
192.805000
21
62.371100
0
LINE
8
Layer 1
10
192.805000
20
62.371100
11
190.547000
21
62.371100
0
LINE
8
Layer 1
10
190.547000
20
62.371100
11
190.547000
21
62.371100
0
LINE
8
Layer 1
10
190.547000
20
62.371100
11
188.211000
21
62.371100
0
LINE
8
Layer 1
10
188.211000
20
62.371100
11
188.211000
21
62.371100
0
LINE
8
Layer 1
10
188.211000
20
62.371100
11
185.953000
21
62.371100
0
LINE
8
Layer 1
10
185.953000
20
62.371100
11
185.953000
21
62.371100
0
LINE
8
Layer 1
10
185.953000
20
62.371100
11
183.617000
21
62.371100
0
LINE
8
Layer 1
10
183.617000
20
62.371100
11
183.617000
21
62.371100
0
LINE
8
Layer 1
10
183.617000
20
62.371100
11
181.359000
21
62.371100
0
LINE
8
Layer 1
10
181.359000
20
62.371100
11
181.359000
21
62.371100
0
LINE
8
Layer 1
10
181.359000
20
62.371100
11
179.023000
21
62.371100
0
LINE
8
Layer 1
10
179.023000
20
62.371100
11
179.023000
21
62.371100
0
LINE
8
Layer 1
10
179.023000
20
62.371100
11
176.765000
21
62.371100
0
LINE
8
Layer 1
10
176.765000
20
62.371100
11
176.765000
21
62.371100
0
LINE
8
Layer 1
10
176.765000
20
62.371100
11
174.429000
21
62.371100
0
LINE
8
Layer 1
10
174.429000
20
62.371100
11
174.429000
21
62.371100
0
LINE
8
Layer 1
10
174.429000
20
62.371100
11
172.171000
21
62.371100
0
LINE
8
Layer 1
10
172.171000
20
62.371100
11
172.171000
21
62.371100
0
LINE
8
Layer 1
10
172.171000
20
62.371100
11
169.835000
21
62.371100
0
LINE
8
Layer 1
10
169.835000
20
62.371100
11
169.835000
21
62.371100
0
LINE
8
Layer 1
10
169.835000
20
62.371100
11
167.577000
21
62.371100
0
LINE
8
Layer 1
10
167.577000
20
62.371100
11
167.577000
21
62.371100
0
LINE
8
Layer 1
10
167.577000
20
62.371100
11
165.241000
21
62.371100
0
LINE
8
Layer 1
10
165.241000
20
62.371100
11
165.241000
21
62.371100
0
LINE
8
Layer 1
10
165.241000
20
62.371100
11
162.983000
21
62.371100
0
LINE
8
Layer 1
10
162.983000
20
62.371100
11
162.983000
21
62.371100
0
LINE
8
Layer 1
10
162.983000
20
62.371100
11
160.647000
21
62.371100
0
LINE
8
Layer 1
10
160.647000
20
62.371100
11
160.647000
21
62.371100
0
LINE
8
Layer 1
10
160.647000
20
62.371100
11
158.389000
21
62.371100
0
LINE
8
Layer 1
10
158.389000
20
62.371100
11
158.389000
21
62.371100
0
LINE
8
Layer 1
10
158.389000
20
62.371100
11
156.053000
21
62.371100
0
LINE
8
Layer 1
10
156.053000
20
62.371100
11
156.053000
21
62.371100
0
LINE
8
Layer 1
10
156.053000
20
62.371100
11
153.795000
21
62.371100
0
LINE
8
Layer 1
10
153.795000
20
62.371100
11
153.795000
21
62.371100
0
LINE
8
Layer 1
10
153.795000
20
62.371100
11
151.459000
21
62.371100
0
LINE
8
Layer 1
10
151.459000
20
62.371100
11
151.459000
21
62.371100
0
LINE
8
Layer 1
10
151.459000
20
62.371100
11
149.201000
21
62.371100
0
LINE
8
Layer 1
10
149.201000
20
62.371100
11
149.201000
21
62.371100
0
LINE
8
Layer 1
10
149.201000
20
62.371100
11
146.865000
21
62.371100
0
LINE
8
Layer 1
10
146.865000
20
62.371100
11
146.865000
21
62.371100
0
LINE
8
Layer 1
10
146.865000
20
62.371100
11
144.607000
21
62.371100
0
LINE
8
Layer 1
10
144.607000
20
62.371100
11
144.607000
21
62.371100
0
LINE
8
Layer 1
10
144.607000
20
62.371100
11
142.271000
21
62.371100
0
LINE
8
Layer 1
10
142.271000
20
62.371100
11
142.271000
21
62.371100
0
LINE
8
Layer 1
10
142.271000
20
62.371100
11
140.013000
21
62.371100
0
LINE
8
Layer 1
10
140.013000
20
62.371100
11
140.013000
21
62.371100
0
LINE
8
Layer 1
10
140.013000
20
62.371100
11
137.677000
21
62.371100
0
LINE
8
Layer 1
10
137.677000
20
62.371100
11
137.677000
21
62.371100
0
LINE
8
Layer 1
10
137.677000
20
62.371100
11
135.419000
21
62.371100
0
LINE
8
Layer 1
10
135.419000
20
62.371100
11
135.419000
21
62.371100
0
LINE
8
Layer 1
10
135.419000
20
62.371100
11
133.083000
21
62.371100
0
LINE
8
Layer 1
10
133.083000
20
62.371100
11
133.083000
21
62.371100
0
LINE
8
Layer 1
10
133.083000
20
62.371100
11
130.826000
21
62.371100
0
LINE
8
Layer 1
10
130.826000
20
62.371100
11
130.826000
21
62.371100
0
LINE
8
Layer 1
10
130.826000
20
62.371100
11
128.489000
21
62.371100
0
LINE
8
Layer 1
10
128.489000
20
62.371100
11
128.489000
21
62.371100
0
LINE
8
Layer 1
10
128.489000
20
62.371100
11
126.232000
21
62.371100
0
LINE
8
Layer 1
10
126.232000
20
62.371100
11
126.232000
21
62.371100
0
LINE
8
Layer 1
10
126.232000
20
62.371100
11
123.895000
21
62.371100
0
LINE
8
Layer 1
10
123.895000
20
62.371100
11
123.895000
21
64.798200
0
LINE
8
Layer 1
10
123.895000
20
64.798200
11
125.307000
21
64.798200
0
LINE
8
Layer 1
10
125.307000
20
64.798200
11
125.307000
21
67.056000
0
LINE
8
Layer 1
10
125.307000
20
67.056000
11
123.895000
21
67.056000
0
LINE
8
Layer 1
10
123.895000
20
67.056000
11
123.895000
21
69.483100
0
LINE
8
Layer 1
10
123.895000
20
69.483100
11
125.307000
21
69.483100
0
LINE
8
Layer 1
10
125.307000
20
69.483100
11
125.307000
21
71.740900
0
LINE
8
Layer 1
10
125.307000
20
71.740900
11
123.895000
21
71.740900
0
LINE
8
Layer 1
10
123.895000
20
71.740900
11
123.895000
21
74.168000
0
LINE
8
Layer 1
10
123.895000
20
74.168000
11
125.307000
21
74.168000
0
LINE
8
Layer 1
10
125.307000
20
74.168000
11
125.307000
21
76.425800
0
LINE
8
Layer 1
10
125.307000
20
76.425800
11
123.895000
21
76.425800
0
LINE
8
Layer 1
10
123.895000
20
76.425800
11
123.895000
21
78.852900
0
LINE
8
Layer 1
10
123.895000
20
78.852900
11
125.307000
21
78.852900
0
LINE
8
Layer 1
10
125.307000
20
78.852900
11
125.307000
21
81.110700
0
LINE
8
Layer 1
10
125.307000
20
81.110700
11
123.895000
21
81.110700
0
LINE
8
Layer 1
10
123.895000
20
81.110700
11
123.895000
21
82.126700
0
LINE
8
Layer 1
10
80.997700
20
82.126700
11
83.424800
21
82.126700
0
LINE
8
Layer 1
10
83.424800
20
82.126700
11
83.424800
21
83.537800
0
LINE
8
Layer 1
10
83.424800
20
83.537800
11
85.682600
21
83.537800
0
LINE
8
Layer 1
10
85.682600
20
83.537800
11
85.682600
21
82.126700
0
LINE
8
Layer 1
10
85.682600
20
82.126700
11
88.109700
21
82.126700
0
LINE
8
Layer 1
10
88.109700
20
82.126700
11
88.109700
21
83.537800
0
LINE
8
Layer 1
10
88.109700
20
83.537800
11
90.367500
21
83.537800
0
LINE
8
Layer 1
10
90.367500
20
83.537800
11
90.367500
21
82.126700
0
LINE
8
Layer 1
10
90.367500
20
82.126700
11
92.794600
21
82.126700
0
LINE
8
Layer 1
10
92.794600
20
82.126700
11
92.794600
21
83.537800
0
LINE
8
Layer 1
10
92.794600
20
83.537800
11
95.052400
21
83.537800
0
LINE
8
Layer 1
10
95.052400
20
83.537800
11
95.052400
21
82.126700
0
LINE
8
Layer 1
10
95.052400
20
82.126700
11
97.479500
21
82.126700
0
LINE
8
Layer 1
10
97.479500
20
82.126700
11
97.479500
21
83.537800
0
LINE
8
Layer 1
10
97.479500
20
83.537800
11
99.737300
21
83.537800
0
LINE
8
Layer 1
10
99.737300
20
83.537800
11
99.737300
21
82.126700
0
LINE
8
Layer 1
10
99.737300
20
82.126700
11
100.753000
21
82.126700
0
LINE
8
Layer 1
10
100.753000
20
82.126700
11
100.753000
21
81.195300
0
LINE
8
Layer 1
10
100.753000
20
81.195300
11
102.164000
21
81.195300
0
LINE
8
Layer 1
10
102.164000
20
81.195300
11
102.164000
21
78.937600
0
LINE
8
Layer 1
10
102.164000
20
78.937600
11
100.753000
21
78.937600
0
LINE
8
Layer 1
10
100.753000
20
78.937600
11
100.753000
21
76.595100
0
LINE
8
Layer 1
10
100.753000
20
76.595100
11
102.164000
21
76.595100
0
LINE
8
Layer 1
10
102.164000
20
76.595100
11
102.164000
21
74.337300
0
LINE
8
Layer 1
10
102.164000
20
74.337300
11
100.753000
21
74.337300
0
LINE
8
Layer 1
10
100.753000
20
74.337300
11
100.753000
21
71.994900
0
LINE
8
Layer 1
10
100.753000
20
71.994900
11
102.164000
21
71.994900
0
LINE
8
Layer 1
10
102.164000
20
71.994900
11
102.164000
21
69.737100
0
LINE
8
Layer 1
10
102.164000
20
69.737100
11
100.753000
21
69.737100
0
LINE
8
Layer 1
10
100.753000
20
69.737100
11
100.753000
21
67.394700
0
LINE
8
Layer 1
10
100.753000
20
67.394700
11
102.164000
21
67.394700
0
LINE
8
Layer 1
10
102.164000
20
67.394700
11
102.164000
21
65.136900
0
LINE
8
Layer 1
10
102.164000
20
65.136900
11
100.753000
21
65.136900
0
LINE
8
Layer 1
10
100.753000
20
65.136900
11
100.753000
21
62.794500
0
LINE
8
Layer 1
10
100.753000
20
62.794500
11
102.164000
21
62.794500
0
LINE
8
Layer 1
10
102.164000
20
62.794500
11
102.164000
21
60.536700
0
LINE
8
Layer 1
10
102.164000
20
60.536700
11
100.753000
21
60.536700
0
LINE
8
Layer 1
10
100.753000
20
60.536700
11
100.753000
21
58.194200
0
LINE
8
Layer 1
10
100.753000
20
58.194200
11
102.164000
21
58.194200
0
LINE
8
Layer 1
10
102.164000
20
58.194200
11
102.164000
21
55.936500
0
LINE
8
Layer 1
10
102.164000
20
55.936500
11
100.753000
21
55.936500
0
LINE
8
Layer 1
10
100.753000
20
55.936500
11
100.753000
21
53.594000
0
LINE
8
Layer 1
10
100.753000
20
53.594000
11
102.164000
21
53.594000
0
LINE
8
Layer 1
10
102.164000
20
53.594000
11
102.164000
21
51.336200
0
LINE
8
Layer 1
10
102.164000
20
51.336200
11
100.753000
21
51.336200
0
LINE
8
Layer 1
10
100.753000
20
51.336200
11
100.753000
21
48.993800
0
LINE
8
Layer 1
10
100.753000
20
48.993800
11
102.164000
21
48.993800
0
LINE
8
Layer 1
10
102.164000
20
48.993800
11
102.164000
21
46.736000
0
LINE
8
Layer 1
10
102.164000
20
46.736000
11
100.753000
21
46.736000
0
LINE
8
Layer 1
10
100.753000
20
46.736000
11
100.753000
21
44.393600
0
LINE
8
Layer 1
10
100.753000
20
44.393600
11
102.164000
21
44.393600
0
LINE
8
Layer 1
10
102.164000
20
44.393600
11
102.164000
21
42.135800
0
LINE
8
Layer 1
10
102.164000
20
42.135800
11
100.753000
21
42.135800
0
LINE
8
Layer 1
10
100.753000
20
42.135800
11
100.753000
21
41.204500
0
LINE
8
Layer 1
10
100.753000
20
41.204500
11
99.737300
21
41.204500
0
LINE
8
Layer 1
10
99.737300
20
41.204500
11
99.737300
21
39.793400
0
LINE
8
Layer 1
10
99.737300
20
39.793400
11
97.479500
21
39.793400
0
LINE
8
Layer 1
10
97.479500
20
39.793400
11
97.479500
21
41.204500
0
LINE
8
Layer 1
10
97.479500
20
41.204500
11
95.052400
21
41.204500
0
LINE
8
Layer 1
10
95.052400
20
41.204500
11
95.052400
21
39.793400
0
LINE
8
Layer 1
10
95.052400
20
39.793400
11
92.794600
21
39.793400
0
LINE
8
Layer 1
10
92.794600
20
39.793400
11
92.794600
21
41.204500
0
LINE
8
Layer 1
10
92.794600
20
41.204500
11
90.367500
21
41.204500
0
LINE
8
Layer 1
10
90.367500
20
41.204500
11
90.367500
21
39.793400
0
LINE
8
Layer 1
10
90.367500
20
39.793400
11
88.109700
21
39.793400
0
LINE
8
Layer 1
10
88.109700
20
39.793400
11
88.109700
21
41.204500
0
LINE
8
Layer 1
10
88.109700
20
41.204500
11
85.682600
21
41.204500
0
LINE
8
Layer 1
10
85.682600
20
41.204500
11
85.682600
21
39.793400
0
LINE
8
Layer 1
10
85.682600
20
39.793400
11
83.424800
21
39.793400
0
LINE
8
Layer 1
10
83.424800
20
39.793400
11
83.424800
21
41.204500
0
LINE
8
Layer 1
10
83.424800
20
41.204500
11
80.997700
21
41.204500
0
LINE
8
Layer 1
10
80.997700
20
41.204500
11
80.997700
21
42.135800
0
LINE
8
Layer 1
10
80.997700
20
42.135800
11
80.997700
21
42.135800
0
LINE
8
Layer 1
10
80.997700
20
42.135800
11
80.997700
21
44.393600
0
LINE
8
Layer 1
10
80.997700
20
44.393600
11
80.997700
21
44.393600
0
LINE
8
Layer 1
10
80.997700
20
44.393600
11
80.997700
21
46.736000
0
LINE
8
Layer 1
10
80.997700
20
46.736000
11
80.997700
21
46.736000
0
LINE
8
Layer 1
10
80.997700
20
46.736000
11
80.997700
21
48.993800
0
LINE
8
Layer 1
10
80.997700
20
48.993800
11
80.997700
21
48.993800
0
LINE
8
Layer 1
10
80.997700
20
48.993800
11
80.997700
21
51.336200
0
LINE
8
Layer 1
10
80.997700
20
51.336200
11
80.997700
21
51.336200
0
LINE
8
Layer 1
10
80.997700
20
51.336200
11
80.997700
21
53.594000
0
LINE
8
Layer 1
10
80.997700
20
53.594000
11
80.997700
21
53.594000
0
LINE
8
Layer 1
10
80.997700
20
53.594000
11
80.997700
21
55.936500
0
LINE
8
Layer 1
10
80.997700
20
55.936500
11
80.997700
21
55.936500
0
LINE
8
Layer 1
10
80.997700
20
55.936500
11
80.997700
21
58.194200
0
LINE
8
Layer 1
10
80.997700
20
58.194200
11
80.997700
21
58.194200
0
LINE
8
Layer 1
10
80.997700
20
58.194200
11
80.997700
21
60.536700
0
LINE
8
Layer 1
10
80.997700
20
60.536700
11
80.997700
21
60.536700
0
LINE
8
Layer 1
10
80.997700
20
60.536700
11
80.997700
21
62.794500
0
LINE
8
Layer 1
10
80.997700
20
62.794500
11
80.997700
21
62.794500
0
LINE
8
Layer 1
10
80.997700
20
62.794500
11
80.997700
21
65.136900
0
LINE
8
Layer 1
10
80.997700
20
65.136900
11
80.997700
21
65.136900
0
LINE
8
Layer 1
10
80.997700
20
65.136900
11
80.997700
21
67.394700
0
LINE
8
Layer 1
10
80.997700
20
67.394700
11
80.997700
21
67.394700
0
LINE
8
Layer 1
10
80.997700
20
67.394700
11
80.997700
21
69.737100
0
LINE
8
Layer 1
10
80.997700
20
69.737100
11
80.997700
21
69.737100
0
LINE
8
Layer 1
10
80.997700
20
69.737100
11
80.997700
21
71.994900
0
LINE
8
Layer 1
10
80.997700
20
71.994900
11
80.997700
21
71.994900
0
LINE
8
Layer 1
10
80.997700
20
71.994900
11
80.997700
21
74.337300
0
LINE
8
Layer 1
10
80.997700
20
74.337300
11
80.997700
21
74.337300
0
LINE
8
Layer 1
10
80.997700
20
74.337300
11
80.997700
21
76.595100
0
LINE
8
Layer 1
10
80.997700
20
76.595100
11
80.997700
21
76.595100
0
LINE
8
Layer 1
10
80.997700
20
76.595100
11
80.997700
21
78.937600
0
LINE
8
Layer 1
10
80.997700
20
78.937600
11
80.997700
21
78.937600
0
LINE
8
Layer 1
10
80.997700
20
78.937600
11
80.997700
21
81.195300
0
LINE
8
Layer 1
10
80.997700
20
81.195300
11
80.997700
21
81.195300
0
LINE
8
Layer 1
10
80.997700
20
81.195300
11
80.997700
21
82.126700
0
LINE
8
Layer 1
10
0.282222
20
83.537800
11
2.618390
21
83.537800
0
LINE
8
Layer 1
10
2.618390
20
83.537800
11
2.618390
21
82.126700
0
LINE
8
Layer 1
10
2.618390
20
82.126700
11
4.876180
21
82.126700
0
LINE
8
Layer 1
10
4.876180
20
82.126700
11
4.876180
21
83.537800
0
LINE
8
Layer 1
10
4.876180
20
83.537800
11
7.212350
21
83.537800
0
LINE
8
Layer 1
10
7.212350
20
83.537800
11
7.212350
21
82.126700
0
LINE
8
Layer 1
10
7.212350
20
82.126700
11
9.470130
21
82.126700
0
LINE
8
Layer 1
10
9.470130
20
82.126700
11
9.470130
21
83.537800
0
LINE
8
Layer 1
10
9.470130
20
83.537800
11
11.806300
21
83.537800
0
LINE
8
Layer 1
10
11.806300
20
83.537800
11
11.806300
21
82.126700
0
LINE
8
Layer 1
10
11.806300
20
82.126700
11
14.064100
21
82.126700
0
LINE
8
Layer 1
10
14.064100
20
82.126700
11
14.064100
21
83.537800
0
LINE
8
Layer 1
10
14.064100
20
83.537800
11
16.400200
21
83.537800
0
LINE
8
Layer 1
10
16.400200
20
83.537800
11
16.400200
21
82.126700
0
LINE
8
Layer 1
10
16.400200
20
82.126700
11
18.658000
21
82.126700
0
LINE
8
Layer 1
10
18.658000
20
82.126700
11
18.658000
21
83.537800
0
LINE
8
Layer 1
10
18.658000
20
83.537800
11
20.994200
21
83.537800
0
LINE
8
Layer 1
10
20.994200
20
83.537800
11
20.994200
21
82.126700
0
LINE
8
Layer 1
10
20.994200
20
82.126700
11
23.252000
21
82.126700
0
LINE
8
Layer 1
10
23.252000
20
82.126700
11
23.252000
21
83.537800
0
LINE
8
Layer 1
10
23.252000
20
83.537800
11
25.588100
21
83.537800
0
LINE
8
Layer 1
10
25.588100
20
83.537800
11
25.588100
21
82.126700
0
LINE
8
Layer 1
10
25.588100
20
82.126700
11
27.845900
21
82.126700
0
LINE
8
Layer 1
10
27.845900
20
82.126700
11
27.845900
21
83.537800
0
LINE
8
Layer 1
10
27.845900
20
83.537800
11
30.181900
21
83.537800
0
LINE
8
Layer 1
10
30.181900
20
83.537800
11
30.181900
21
82.126700
0
LINE
8
Layer 1
10
30.181900
20
82.126700
11
32.439700
21
82.126700
0
LINE
8
Layer 1
10
32.439700
20
82.126700
11
32.439700
21
83.537800
0
LINE
8
Layer 1
10
32.439700
20
83.537800
11
34.776000
21
83.537800
0
LINE
8
Layer 1
10
34.776000
20
83.537800
11
34.776000
21
82.126700
0
LINE
8
Layer 1
10
34.776000
20
82.126700
11
37.033700
21
82.126700
0
LINE
8
Layer 1
10
37.033700
20
82.126700
11
37.033700
21
83.537800
0
LINE
8
Layer 1
10
37.033700
20
83.537800
11
39.370000
21
83.537800
0
LINE
8
Layer 1
10
39.370000
20
83.537800
11
39.370000
21
82.126700
0
LINE
8
Layer 1
10
39.370000
20
82.126700
11
41.627700
21
82.126700
0
LINE
8
Layer 1
10
41.627700
20
82.126700
11
41.627700
21
83.537800
0
LINE
8
Layer 1
10
41.627700
20
83.537800
11
43.964000
21
83.537800
0
LINE
8
Layer 1
10
43.964000
20
83.537800
11
43.964000
21
82.126700
0
LINE
8
Layer 1
10
43.964000
20
82.126700
11
46.221800
21
82.126700
0
LINE
8
Layer 1
10
46.221800
20
82.126700
11
46.221800
21
83.537800
0
LINE
8
Layer 1
10
46.221800
20
83.537800
11
48.558000
21
83.537800
0
LINE
8
Layer 1
10
48.558000
20
83.537800
11
48.558000
21
82.126700
0
LINE
8
Layer 1
10
48.558000
20
82.126700
11
50.815800
21
82.126700
0
LINE
8
Layer 1
10
50.815800
20
82.126700
11
50.815800
21
83.537800
0
LINE
8
Layer 1
10
50.815800
20
83.537800
11
53.151700
21
83.537800
0
LINE
8
Layer 1
10
53.151700
20
83.537800
11
53.151700
21
82.126700
0
LINE
8
Layer 1
10
53.151700
20
82.126700
11
55.409500
21
82.126700
0
LINE
8
Layer 1
10
55.409500
20
82.126700
11
55.409500
21
83.537800
0
LINE
8
Layer 1
10
55.409500
20
83.537800
11
57.745700
21
83.537800
0
LINE
8
Layer 1
10
57.745700
20
83.537800
11
57.745700
21
82.126700
0
LINE
8
Layer 1
10
57.745700
20
82.126700
11
60.003500
21
82.126700
0
LINE
8
Layer 1
10
60.003500
20
82.126700
11
60.003500
21
83.537800
0
LINE
8
Layer 1
10
60.003500
20
83.537800
11
62.339700
21
83.537800
0
LINE
8
Layer 1
10
62.339700
20
83.537800
11
62.339700
21
82.126700
0
LINE
8
Layer 1
10
62.339700
20
82.126700
11
64.597500
21
82.126700
0
LINE
8
Layer 1
10
64.597500
20
82.126700
11
64.597500
21
83.537800
0
LINE
8
Layer 1
10
64.597500
20
83.537800
11
66.933700
21
83.537800
0
LINE
8
Layer 1
10
66.933700
20
83.537800
11
66.933700
21
82.126700
0
LINE
8
Layer 1
10
66.933700
20
82.126700
11
69.191500
21
82.126700
0
LINE
8
Layer 1
10
69.191500
20
82.126700
11
69.191500
21
83.537800
0
LINE
8
Layer 1
10
69.191500
20
83.537800
11
71.527500
21
83.537800
0
LINE
8
Layer 1
10
71.527500
20
83.537800
11
71.527500
21
82.126700
0
LINE
8
Layer 1
10
71.527500
20
82.126700
11
73.785200
21
82.126700
0
LINE
8
Layer 1
10
73.785200
20
82.126700
11
73.785200
21
83.537800
0
LINE
8
Layer 1
10
73.785200
20
83.537800
11
76.121500
21
83.537800
0
LINE
8
Layer 1
10
76.121500
20
83.537800
11
76.121500
21
82.126700
0
LINE
8
Layer 1
10
76.121500
20
82.126700
11
78.379300
21
82.126700
0
LINE
8
Layer 1
10
78.379300
20
82.126700
11
78.379300
21
83.537800
0
LINE
8
Layer 1
10
78.379300
20
83.537800
11
80.715500
21
83.537800
0
LINE
8
Layer 1
10
80.715500
20
83.537800
11
80.715500
21
81.195300
0
LINE
8
Layer 1
10
80.715500
20
81.195300
11
79.304400
21
81.195300
0
LINE
8
Layer 1
10
79.304400
20
81.195300
11
79.304400
21
78.937600
0
LINE
8
Layer 1
10
79.304400
20
78.937600
11
80.715500
21
78.937600
0
LINE
8
Layer 1
10
80.715500
20
78.937600
11
80.715500
21
76.595100
0
LINE
8
Layer 1
10
80.715500
20
76.595100
11
79.304400
21
76.595100
0
LINE
8
Layer 1
10
79.304400
20
76.595100
11
79.304400
21
74.337300
0
LINE
8
Layer 1
10
79.304400
20
74.337300
11
80.715500
21
74.337300
0
LINE
8
Layer 1
10
80.715500
20
74.337300
11
80.715500
21
71.994900
0
LINE
8
Layer 1
10
80.715500
20
71.994900
11
79.304400
21
71.994900
0
LINE
8
Layer 1
10
79.304400
20
71.994900
11
79.304400
21
69.737100
0
LINE
8
Layer 1
10
79.304400
20
69.737100
11
80.715500
21
69.737100
0
LINE
8
Layer 1
10
80.715500
20
69.737100
11
80.715500
21
67.394700
0
LINE
8
Layer 1
10
80.715500
20
67.394700
11
79.304400
21
67.394700
0
LINE
8
Layer 1
10
79.304400
20
67.394700
11
79.304400
21
65.136900
0
LINE
8
Layer 1
10
79.304400
20
65.136900
11
80.715500
21
65.136900
0
LINE
8
Layer 1
10
80.715500
20
65.136900
11
80.715500
21
62.794500
0
LINE
8
Layer 1
10
80.715500
20
62.794500
11
79.304400
21
62.794500
0
LINE
8
Layer 1
10
79.304400
20
62.794500
11
79.304400
21
60.536700
0
LINE
8
Layer 1
10
79.304400
20
60.536700
11
80.715500
21
60.536700
0
LINE
8
Layer 1
10
80.715500
20
60.536700
11
80.715500
21
58.194200
0
LINE
8
Layer 1
10
80.715500
20
58.194200
11
79.304400
21
58.194200
0
LINE
8
Layer 1
10
79.304400
20
58.194200
11
79.304400
21
55.936500
0
LINE
8
Layer 1
10
79.304400
20
55.936500
11
80.715500
21
55.936500
0
LINE
8
Layer 1
10
80.715500
20
55.936500
11
80.715500
21
53.594000
0
LINE
8
Layer 1
10
80.715500
20
53.594000
11
79.304400
21
53.594000
0
LINE
8
Layer 1
10
79.304400
20
53.594000
11
79.304400
21
51.336200
0
LINE
8
Layer 1
10
79.304400
20
51.336200
11
80.715500
21
51.336200
0
LINE
8
Layer 1
10
80.715500
20
51.336200
11
80.715500
21
48.993800
0
LINE
8
Layer 1
10
80.715500
20
48.993800
11
79.304400
21
48.993800
0
LINE
8
Layer 1
10
79.304400
20
48.993800
11
79.304400
21
46.736000
0
LINE
8
Layer 1
10
79.304400
20
46.736000
11
80.715500
21
46.736000
0
LINE
8
Layer 1
10
80.715500
20
46.736000
11
80.715500
21
44.393600
0
LINE
8
Layer 1
10
80.715500
20
44.393600
11
79.304400
21
44.393600
0
LINE
8
Layer 1
10
79.304400
20
44.393600
11
79.304400
21
42.135800
0
LINE
8
Layer 1
10
79.304400
20
42.135800
11
80.715500
21
42.135800
0
LINE
8
Layer 1
10
80.715500
20
42.135800
11
80.715500
21
39.793400
0
LINE
8
Layer 1
10
80.715500
20
39.793400
11
78.379300
21
39.793400
0
LINE
8
Layer 1
10
78.379300
20
39.793400
11
78.379300
21
41.204500
0
LINE
8
Layer 1
10
78.379300
20
41.204500
11
76.121500
21
41.204500
0
LINE
8
Layer 1
10
76.121500
20
41.204500
11
76.121500
21
39.793400
0
LINE
8
Layer 1
10
76.121500
20
39.793400
11
73.785200
21
39.793400
0
LINE
8
Layer 1
10
73.785200
20
39.793400
11
73.785200
21
41.204500
0
LINE
8
Layer 1
10
73.785200
20
41.204500
11
71.527500
21
41.204500
0
LINE
8
Layer 1
10
71.527500
20
41.204500
11
71.527500
21
39.793400
0
LINE
8
Layer 1
10
71.527500
20
39.793400
11
69.191500
21
39.793400
0
LINE
8
Layer 1
10
69.191500
20
39.793400
11
69.191500
21
41.204500
0
LINE
8
Layer 1
10
69.191500
20
41.204500
11
66.933700
21
41.204500
0
LINE
8
Layer 1
10
66.933700
20
41.204500
11
66.933700
21
39.793400
0
LINE
8
Layer 1
10
66.933700
20
39.793400
11
64.597500
21
39.793400
0
LINE
8
Layer 1
10
64.597500
20
39.793400
11
64.597500
21
41.204500
0
LINE
8
Layer 1
10
64.597500
20
41.204500
11
62.339700
21
41.204500
0
LINE
8
Layer 1
10
62.339700
20
41.204500
11
62.339700
21
39.793400
0
LINE
8
Layer 1
10
62.339700
20
39.793400
11
60.003500
21
39.793400
0
LINE
8
Layer 1
10
60.003500
20
39.793400
11
60.003500
21
41.204500
0
LINE
8
Layer 1
10
60.003500
20
41.204500
11
57.745700
21
41.204500
0
LINE
8
Layer 1
10
57.745700
20
41.204500
11
57.745700
21
39.793400
0
LINE
8
Layer 1
10
57.745700
20
39.793400
11
55.409500
21
39.793400
0
LINE
8
Layer 1
10
55.409500
20
39.793400
11
55.409500
21
41.204500
0
LINE
8
Layer 1
10
55.409500
20
41.204500
11
53.151700
21
41.204500
0
LINE
8
Layer 1
10
53.151700
20
41.204500
11
53.151700
21
39.793400
0
LINE
8
Layer 1
10
53.151700
20
39.793400
11
50.815800
21
39.793400
0
LINE
8
Layer 1
10
50.815800
20
39.793400
11
50.815800
21
41.204500
0
LINE
8
Layer 1
10
50.815800
20
41.204500
11
48.558000
21
41.204500
0
LINE
8
Layer 1
10
48.558000
20
41.204500
11
48.558000
21
39.793400
0
LINE
8
Layer 1
10
48.558000
20
39.793400
11
46.221800
21
39.793400
0
LINE
8
Layer 1
10
46.221800
20
39.793400
11
46.221800
21
41.204500
0
LINE
8
Layer 1
10
46.221800
20
41.204500
11
43.964000
21
41.204500
0
LINE
8
Layer 1
10
43.964000
20
41.204500
11
43.964000
21
39.793400
0
LINE
8
Layer 1
10
43.964000
20
39.793400
11
41.627700
21
39.793400
0
LINE
8
Layer 1
10
41.627700
20
39.793400
11
41.627700
21
41.204500
0
LINE
8
Layer 1
10
41.627700
20
41.204500
11
39.370000
21
41.204500
0
LINE
8
Layer 1
10
39.370000
20
41.204500
11
39.370000
21
39.793400
0
LINE
8
Layer 1
10
39.370000
20
39.793400
11
37.033700
21
39.793400
0
LINE
8
Layer 1
10
37.033700
20
39.793400
11
37.033700
21
41.204500
0
LINE
8
Layer 1
10
37.033700
20
41.204500
11
34.776000
21
41.204500
0
LINE
8
Layer 1
10
34.776000
20
41.204500
11
34.776000
21
39.793400
0
LINE
8
Layer 1
10
34.776000
20
39.793400
11
32.439700
21
39.793400
0
LINE
8
Layer 1
10
32.439700
20
39.793400
11
32.439700
21
41.204500
0
LINE
8
Layer 1
10
32.439700
20
41.204500
11
30.181900
21
41.204500
0
LINE
8
Layer 1
10
30.181900
20
41.204500
11
30.181900
21
39.793400
0
LINE
8
Layer 1
10
30.181900
20
39.793400
11
27.845900
21
39.793400
0
LINE
8
Layer 1
10
27.845900
20
39.793400
11
27.845900
21
41.204500
0
LINE
8
Layer 1
10
27.845900
20
41.204500
11
25.588100
21
41.204500
0
LINE
8
Layer 1
10
25.588100
20
41.204500
11
25.588100
21
39.793400
0
LINE
8
Layer 1
10
25.588100
20
39.793400
11
23.252000
21
39.793400
0
LINE
8
Layer 1
10
23.252000
20
39.793400
11
23.252000
21
41.204500
0
LINE
8
Layer 1
10
23.252000
20
41.204500
11
20.994200
21
41.204500
0
LINE
8
Layer 1
10
20.994200
20
41.204500
11
20.994200
21
39.793400
0
LINE
8
Layer 1
10
20.994200
20
39.793400
11
18.658000
21
39.793400
0
LINE
8
Layer 1
10
18.658000
20
39.793400
11
18.658000
21
41.204500
0
LINE
8
Layer 1
10
18.658000
20
41.204500
11
16.400200
21
41.204500
0
LINE
8
Layer 1
10
16.400200
20
41.204500
11
16.400200
21
39.793400
0
LINE
8
Layer 1
10
16.400200
20
39.793400
11
14.064100
21
39.793400
0
LINE
8
Layer 1
10
14.064100
20
39.793400
11
14.064100
21
41.204500
0
LINE
8
Layer 1
10
14.064100
20
41.204500
11
11.806300
21
41.204500
0
LINE
8
Layer 1
10
11.806300
20
41.204500
11
11.806300
21
39.793400
0
LINE
8
Layer 1
10
11.806300
20
39.793400
11
9.470130
21
39.793400
0
LINE
8
Layer 1
10
9.470130
20
39.793400
11
9.470130
21
41.204500
0
LINE
8
Layer 1
10
9.470130
20
41.204500
11
7.212350
21
41.204500
0
LINE
8
Layer 1
10
7.212350
20
41.204500
11
7.212350
21
39.793400
0
LINE
8
Layer 1
10
7.212350
20
39.793400
11
4.876180
21
39.793400
0
LINE
8
Layer 1
10
4.876180
20
39.793400
11
4.876180
21
41.204500
0
LINE
8
Layer 1
10
4.876180
20
41.204500
11
2.618390
21
41.204500
0
LINE
8
Layer 1
10
2.618390
20
41.204500
11
2.618390
21
39.793400
0
LINE
8
Layer 1
10
2.618390
20
39.793400
11
0.282222
21
39.793400
0
LINE
8
Layer 1
10
0.282222
20
39.793400
11
0.282222
21
42.135800
0
LINE
8
Layer 1
10
0.282222
20
42.135800
11
1.693330
21
42.135800
0
LINE
8
Layer 1
10
1.693330
20
42.135800
11
1.693330
21
44.393600
0
LINE
8
Layer 1
10
1.693330
20
44.393600
11
0.282222
21
44.393600
0
LINE
8
Layer 1
10
0.282222
20
44.393600
11
0.282222
21
46.736000
0
LINE
8
Layer 1
10
0.282222
20
46.736000
11
1.693330
21
46.736000
0
LINE
8
Layer 1
10
1.693330
20
46.736000
11
1.693330
21
48.993800
0
LINE
8
Layer 1
10
1.693330
20
48.993800
11
0.282222
21
48.993800
0
LINE
8
Layer 1
10
0.282222
20
48.993800
11
0.282222
21
51.336200
0
LINE
8
Layer 1
10
0.282222
20
51.336200
11
1.693330
21
51.336200
0
LINE
8
Layer 1
10
1.693330
20
51.336200
11
1.693330
21
53.594000
0
LINE
8
Layer 1
10
1.693330
20
53.594000
11
0.282222
21
53.594000
0
LINE
8
Layer 1
10
0.282222
20
53.594000
11
0.282222
21
55.936500
0
LINE
8
Layer 1
10
0.282222
20
55.936500
11
1.693330
21
55.936500
0
LINE
8
Layer 1
10
1.693330
20
55.936500
11
1.693330
21
58.194200
0
LINE
8
Layer 1
10
1.693330
20
58.194200
11
0.282222
21
58.194200
0
LINE
8
Layer 1
10
0.282222
20
58.194200
11
0.282222
21
60.536700
0
LINE
8
Layer 1
10
0.282222
20
60.536700
11
1.693330
21
60.536700
0
LINE
8
Layer 1
10
1.693330
20
60.536700
11
1.693330
21
62.794500
0
LINE
8
Layer 1
10
1.693330
20
62.794500
11
0.282222
21
62.794500
0
LINE
8
Layer 1
10
0.282222
20
62.794500
11
0.282222
21
65.136900
0
LINE
8
Layer 1
10
0.282222
20
65.136900
11
1.693330
21
65.136900
0
LINE
8
Layer 1
10
1.693330
20
65.136900
11
1.693330
21
67.394700
0
LINE
8
Layer 1
10
1.693330
20
67.394700
11
0.282222
21
67.394700
0
LINE
8
Layer 1
10
0.282222
20
67.394700
11
0.282222
21
69.737100
0
LINE
8
Layer 1
10
0.282222
20
69.737100
11
1.693330
21
69.737100
0
LINE
8
Layer 1
10
1.693330
20
69.737100
11
1.693330
21
71.994900
0
LINE
8
Layer 1
10
1.693330
20
71.994900
11
0.282222
21
71.994900
0
LINE
8
Layer 1
10
0.282222
20
71.994900
11
0.282222
21
74.337300
0
LINE
8
Layer 1
10
0.282222
20
74.337300
11
1.693330
21
74.337300
0
LINE
8
Layer 1
10
1.693330
20
74.337300
11
1.693330
21
76.595100
0
LINE
8
Layer 1
10
1.693330
20
76.595100
11
0.282222
21
76.595100
0
LINE
8
Layer 1
10
0.282222
20
76.595100
11
0.282222
21
78.937600
0
LINE
8
Layer 1
10
0.282222
20
78.937600
11
1.693330
21
78.937600
0
LINE
8
Layer 1
10
1.693330
20
78.937600
11
1.693330
21
81.195300
0
LINE
8
Layer 1
10
1.693330
20
81.195300
11
0.282222
21
81.195300
0
LINE
8
Layer 1
10
0.282222
20
81.195300
11
0.282222
21
83.537800
0
LINE
8
Layer 1
10
103.858000
20
82.126700
11
104.874000
21
82.126700
0
LINE
8
Layer 1
10
104.874000
20
82.126700
11
104.874000
21
83.537800
0
LINE
8
Layer 1
10
104.874000
20
83.537800
11
107.131000
21
83.537800
0
LINE
8
Layer 1
10
107.131000
20
83.537800
11
107.131000
21
82.126700
0
LINE
8
Layer 1
10
107.131000
20
82.126700
11
109.559000
21
82.126700
0
LINE
8
Layer 1
10
109.559000
20
82.126700
11
109.559000
21
83.537800
0
LINE
8
Layer 1
10
109.559000
20
83.537800
11
111.816000
21
83.537800
0
LINE
8
Layer 1
10
111.816000
20
83.537800
11
111.816000
21
82.126700
0
LINE
8
Layer 1
10
111.816000
20
82.126700
11
114.243000
21
82.126700
0
LINE
8
Layer 1
10
114.243000
20
82.126700
11
114.243000
21
83.537800
0
LINE
8
Layer 1
10
114.243000
20
83.537800
11
116.501000
21
83.537800
0
LINE
8
Layer 1
10
116.501000
20
83.537800
11
116.501000
21
82.126700
0
LINE
8
Layer 1
10
116.501000
20
82.126700
11
118.928000
21
82.126700
0
LINE
8
Layer 1
10
118.928000
20
82.126700
11
118.928000
21
83.537800
0
LINE
8
Layer 1
10
118.928000
20
83.537800
11
121.186000
21
83.537800
0
LINE
8
Layer 1
10
121.186000
20
83.537800
11
121.186000
21
82.126700
0
LINE
8
Layer 1
10
121.186000
20
82.126700
11
123.613000
21
82.126700
0
LINE
8
Layer 1
10
123.613000
20
82.126700
11
123.613000
21
81.195300
0
LINE
8
Layer 1
10
123.613000
20
81.195300
11
123.613000
21
81.195300
0
LINE
8
Layer 1
10
123.613000
20
81.195300
11
123.613000
21
78.937600
0
LINE
8
Layer 1
10
123.613000
20
78.937600
11
123.613000
21
78.937600
0
LINE
8
Layer 1
10
123.613000
20
78.937600
11
123.613000
21
76.595100
0
LINE
8
Layer 1
10
123.613000
20
76.595100
11
123.613000
21
76.595100
0
LINE
8
Layer 1
10
123.613000
20
76.595100
11
123.613000
21
74.337300
0
LINE
8
Layer 1
10
123.613000
20
74.337300
11
123.613000
21
74.337300
0
LINE
8
Layer 1
10
123.613000
20
74.337300
11
123.613000
21
71.994900
0
LINE
8
Layer 1
10
123.613000
20
71.994900
11
123.613000
21
71.994900
0
LINE
8
Layer 1
10
123.613000
20
71.994900
11
123.613000
21
69.737100
0
LINE
8
Layer 1
10
123.613000
20
69.737100
11
123.613000
21
69.737100
0
LINE
8
Layer 1
10
123.613000
20
69.737100
11
123.613000
21
67.394700
0
LINE
8
Layer 1
10
123.613000
20
67.394700
11
123.613000
21
67.394700
0
LINE
8
Layer 1
10
123.613000
20
67.394700
11
123.613000
21
65.136900
0
LINE
8
Layer 1
10
123.613000
20
65.136900
11
123.613000
21
65.136900
0
LINE
8
Layer 1
10
123.613000
20
65.136900
11
123.613000
21
62.794500
0
LINE
8
Layer 1
10
123.613000
20
62.794500
11
123.613000
21
62.794500
0
LINE
8
Layer 1
10
123.613000
20
62.794500
11
123.613000
21
60.536700
0
LINE
8
Layer 1
10
123.613000
20
60.536700
11
123.613000
21
60.536700
0
LINE
8
Layer 1
10
123.613000
20
60.536700
11
123.613000
21
58.194200
0
LINE
8
Layer 1
10
123.613000
20
58.194200
11
123.613000
21
58.194200
0
LINE
8
Layer 1
10
123.613000
20
58.194200
11
123.613000
21
55.936500
0
LINE
8
Layer 1
10
123.613000
20
55.936500
11
123.613000
21
55.936500
0
LINE
8
Layer 1
10
123.613000
20
55.936500
11
123.613000
21
53.594000
0
LINE
8
Layer 1
10
123.613000
20
53.594000
11
123.613000
21
53.594000
0
LINE
8
Layer 1
10
123.613000
20
53.594000
11
123.613000
21
51.336200
0
LINE
8
Layer 1
10
123.613000
20
51.336200
11
123.613000
21
51.336200
0
LINE
8
Layer 1
10
123.613000
20
51.336200
11
123.613000
21
48.993800
0
LINE
8
Layer 1
10
123.613000
20
48.993800
11
123.613000
21
48.993800
0
LINE
8
Layer 1
10
123.613000
20
48.993800
11
123.613000
21
46.736000
0
LINE
8
Layer 1
10
123.613000
20
46.736000
11
123.613000
21
46.736000
0
LINE
8
Layer 1
10
123.613000
20
46.736000
11
123.613000
21
44.393600
0
LINE
8
Layer 1
10
123.613000
20
44.393600
11
123.613000
21
44.393600
0
LINE
8
Layer 1
10
123.613000
20
44.393600
11
123.613000
21
42.135800
0
LINE
8
Layer 1
10
123.613000
20
42.135800
11
123.613000
21
42.135800
0
LINE
8
Layer 1
10
123.613000
20
42.135800
11
123.613000
21
41.204500
0
LINE
8
Layer 1
10
123.613000
20
41.204500
11
121.186000
21
41.204500
0
LINE
8
Layer 1
10
121.186000
20
41.204500
11
121.186000
21
39.793400
0
LINE
8
Layer 1
10
121.186000
20
39.793400
11
118.928000
21
39.793400
0
LINE
8
Layer 1
10
118.928000
20
39.793400
11
118.928000
21
41.204500
0
LINE
8
Layer 1
10
118.928000
20
41.204500
11
116.501000
21
41.204500
0
LINE
8
Layer 1
10
116.501000
20
41.204500
11
116.501000
21
39.793400
0
LINE
8
Layer 1
10
116.501000
20
39.793400
11
114.243000
21
39.793400
0
LINE
8
Layer 1
10
114.243000
20
39.793400
11
114.243000
21
41.204500
0
LINE
8
Layer 1
10
114.243000
20
41.204500
11
111.816000
21
41.204500
0
LINE
8
Layer 1
10
111.816000
20
41.204500
11
111.816000
21
39.793400
0
LINE
8
Layer 1
10
111.816000
20
39.793400
11
109.559000
21
39.793400
0
LINE
8
Layer 1
10
109.559000
20
39.793400
11
109.559000
21
41.204500
0
LINE
8
Layer 1
10
109.559000
20
41.204500
11
107.131000
21
41.204500
0
LINE
8
Layer 1
10
107.131000
20
41.204500
11
107.131000
21
39.793400
0
LINE
8
Layer 1
10
107.131000
20
39.793400
11
104.874000
21
39.793400
0
LINE
8
Layer 1
10
104.874000
20
39.793400
11
104.874000
21
41.204500
0
LINE
8
Layer 1
10
104.874000
20
41.204500
11
103.858000
21
41.204500
0
LINE
8
Layer 1
10
103.858000
20
41.204500
11
103.858000
21
42.135800
0
LINE
8
Layer 1
10
103.858000
20
42.135800
11
102.447000
21
42.135800
0
LINE
8
Layer 1
10
102.447000
20
42.135800
11
102.447000
21
44.393600
0
LINE
8
Layer 1
10
102.447000
20
44.393600
11
103.858000
21
44.393600
0
LINE
8
Layer 1
10
103.858000
20
44.393600
11
103.858000
21
46.736000
0
LINE
8
Layer 1
10
103.858000
20
46.736000
11
102.447000
21
46.736000
0
LINE
8
Layer 1
10
102.447000
20
46.736000
11
102.447000
21
48.993800
0
LINE
8
Layer 1
10
102.447000
20
48.993800
11
103.858000
21
48.993800
0
LINE
8
Layer 1
10
103.858000
20
48.993800
11
103.858000
21
51.336200
0
LINE
8
Layer 1
10
103.858000
20
51.336200
11
102.447000
21
51.336200
0
LINE
8
Layer 1
10
102.447000
20
51.336200
11
102.447000
21
53.594000
0
LINE
8
Layer 1
10
102.447000
20
53.594000
11
103.858000
21
53.594000
0
LINE
8
Layer 1
10
103.858000
20
53.594000
11
103.858000
21
55.936500
0
LINE
8
Layer 1
10
103.858000
20
55.936500
11
102.447000
21
55.936500
0
LINE
8
Layer 1
10
102.447000
20
55.936500
11
102.447000
21
58.194200
0
LINE
8
Layer 1
10
102.447000
20
58.194200
11
103.858000
21
58.194200
0
LINE
8
Layer 1
10
103.858000
20
58.194200
11
103.858000
21
60.536700
0
LINE
8
Layer 1
10
103.858000
20
60.536700
11
102.447000
21
60.536700
0
LINE
8
Layer 1
10
102.447000
20
60.536700
11
102.447000
21
62.794500
0
LINE
8
Layer 1
10
102.447000
20
62.794500
11
103.858000
21
62.794500
0
LINE
8
Layer 1
10
103.858000
20
62.794500
11
103.858000
21
65.136900
0
LINE
8
Layer 1
10
103.858000
20
65.136900
11
102.447000
21
65.136900
0
LINE
8
Layer 1
10
102.447000
20
65.136900
11
102.447000
21
67.394700
0
LINE
8
Layer 1
10
102.447000
20
67.394700
11
103.858000
21
67.394700
0
LINE
8
Layer 1
10
103.858000
20
67.394700
11
103.858000
21
69.737100
0
LINE
8
Layer 1
10
103.858000
20
69.737100
11
102.447000
21
69.737100
0
LINE
8
Layer 1
10
102.447000
20
69.737100
11
102.447000
21
71.994900
0
LINE
8
Layer 1
10
102.447000
20
71.994900
11
103.858000
21
71.994900
0
LINE
8
Layer 1
10
103.858000
20
71.994900
11
103.858000
21
74.337300
0
LINE
8
Layer 1
10
103.858000
20
74.337300
11
102.447000
21
74.337300
0
LINE
8
Layer 1
10
102.447000
20
74.337300
11
102.447000
21
76.595100
0
LINE
8
Layer 1
10
102.447000
20
76.595100
11
103.858000
21
76.595100
0
LINE
8
Layer 1
10
103.858000
20
76.595100
11
103.858000
21
78.937600
0
LINE
8
Layer 1
10
103.858000
20
78.937600
11
102.447000
21
78.937600
0
LINE
8
Layer 1
10
102.447000
20
78.937600
11
102.447000
21
81.195300
0
LINE
8
Layer 1
10
102.447000
20
81.195300
11
103.858000
21
81.195300
0
LINE
8
Layer 1
10
103.858000
20
81.195300
11
103.858000
21
82.126700
0
LINE
8
Layer 1
10
204.611000
20
83.537800
11
206.947000
21
83.537800
0
LINE
8
Layer 1
10
206.947000
20
83.537800
11
206.947000
21
83.537800
0
LINE
8
Layer 1
10
206.947000
20
83.537800
11
209.205000
21
83.537800
0
LINE
8
Layer 1
10
209.205000
20
83.537800
11
209.205000
21
83.537800
0
LINE
8
Layer 1
10
209.205000
20
83.537800
11
211.541000
21
83.537800
0
LINE
8
Layer 1
10
211.541000
20
83.537800
11
211.541000
21
83.537800
0
LINE
8
Layer 1
10
211.541000
20
83.537800
11
213.799000
21
83.537800
0
LINE
8
Layer 1
10
213.799000
20
83.537800
11
213.799000
21
83.537800
0
LINE
8
Layer 1
10
213.799000
20
83.537800
11
216.135000
21
83.537800
0
LINE
8
Layer 1
10
216.135000
20
83.537800
11
216.135000
21
83.537800
0
LINE
8
Layer 1
10
216.135000
20
83.537800
11
218.393000
21
83.537800
0
LINE
8
Layer 1
10
218.393000
20
83.537800
11
218.393000
21
83.537800
0
LINE
8
Layer 1
10
218.393000
20
83.537800
11
220.729000
21
83.537800
0
LINE
8
Layer 1
10
220.729000
20
83.537800
11
220.729000
21
83.537800
0
LINE
8
Layer 1
10
220.729000
20
83.537800
11
222.987000
21
83.537800
0
LINE
8
Layer 1
10
222.987000
20
83.537800
11
222.987000
21
83.537800
0
LINE
8
Layer 1
10
222.987000
20
83.537800
11
225.323000
21
83.537800
0
LINE
8
Layer 1
10
225.323000
20
83.537800
11
225.323000
21
83.537800
0
LINE
8
Layer 1
10
225.323000
20
83.537800
11
227.581000
21
83.537800
0
LINE
8
Layer 1
10
227.581000
20
83.537800
11
227.581000
21
83.537800
0
LINE
8
Layer 1
10
227.581000
20
83.537800
11
229.917000
21
83.537800
0
LINE
8
Layer 1
10
229.917000
20
83.537800
11
229.917000
21
83.537800
0
LINE
8
Layer 1
10
229.917000
20
83.537800
11
232.175000
21
83.537800
0
LINE
8
Layer 1
10
232.175000
20
83.537800
11
232.175000
21
83.537800
0
LINE
8
Layer 1
10
232.175000
20
83.537800
11
234.511000
21
83.537800
0
LINE
8
Layer 1
10
234.511000
20
83.537800
11
234.511000
21
83.537800
0
LINE
8
Layer 1
10
234.511000
20
83.537800
11
236.768000
21
83.537800
0
LINE
8
Layer 1
10
236.768000
20
83.537800
11
236.768000
21
83.537800
0
LINE
8
Layer 1
10
236.768000
20
83.537800
11
239.105000
21
83.537800
0
LINE
8
Layer 1
10
239.105000
20
83.537800
11
239.105000
21
83.537800
0
LINE
8
Layer 1
10
239.105000
20
83.537800
11
241.362000
21
83.537800
0
LINE
8
Layer 1
10
241.362000
20
83.537800
11
241.362000
21
83.537800
0
LINE
8
Layer 1
10
241.362000
20
83.537800
11
243.699000
21
83.537800
0
LINE
8
Layer 1
10
243.699000
20
83.537800
11
243.699000
21
83.537800
0
LINE
8
Layer 1
10
243.699000
20
83.537800
11
245.956000
21
83.537800
0
LINE
8
Layer 1
10
245.956000
20
83.537800
11
245.956000
21
83.537800
0
LINE
8
Layer 1
10
245.956000
20
83.537800
11
248.293000
21
83.537800
0
LINE
8
Layer 1
10
248.293000
20
83.537800
11
248.293000
21
83.537800
0
LINE
8
Layer 1
10
248.293000
20
83.537800
11
250.550000
21
83.537800
0
LINE
8
Layer 1
10
250.550000
20
83.537800
11
250.550000
21
83.537800
0
LINE
8
Layer 1
10
250.550000
20
83.537800
11
252.887000
21
83.537800
0
LINE
8
Layer 1
10
252.887000
20
83.537800
11
252.887000
21
83.537800
0
LINE
8
Layer 1
10
252.887000
20
83.537800
11
255.144000
21
83.537800
0
LINE
8
Layer 1
10
255.144000
20
83.537800
11
255.144000
21
83.537800
0
LINE
8
Layer 1
10
255.144000
20
83.537800
11
257.480000
21
83.537800
0
LINE
8
Layer 1
10
257.480000
20
83.537800
11
257.480000
21
83.537800
0
LINE
8
Layer 1
10
257.480000
20
83.537800
11
259.738000
21
83.537800
0
LINE
8
Layer 1
10
259.738000
20
83.537800
11
259.738000
21
83.537800
0
LINE
8
Layer 1
10
259.738000
20
83.537800
11
262.074000
21
83.537800
0
LINE
8
Layer 1
10
262.074000
20
83.537800
11
262.074000
21
83.537800
0
LINE
8
Layer 1
10
262.074000
20
83.537800
11
264.332000
21
83.537800
0
LINE
8
Layer 1
10
264.332000
20
83.537800
11
264.332000
21
83.537800
0
LINE
8
Layer 1
10
264.332000
20
83.537800
11
266.668000
21
83.537800
0
LINE
8
Layer 1
10
266.668000
20
83.537800
11
266.668000
21
83.537800
0
LINE
8
Layer 1
10
266.668000
20
83.537800
11
268.926000
21
83.537800
0
LINE
8
Layer 1
10
268.926000
20
83.537800
11
268.926000
21
83.537800
0
LINE
8
Layer 1
10
268.926000
20
83.537800
11
271.262000
21
83.537800
0
LINE
8
Layer 1
10
271.262000
20
83.537800
11
271.262000
21
83.537800
0
LINE
8
Layer 1
10
271.262000
20
83.537800
11
273.520000
21
83.537800
0
LINE
8
Layer 1
10
273.520000
20
83.537800
11
273.520000
21
83.537800
0
LINE
8
Layer 1
10
273.520000
20
83.537800
11
275.856000
21
83.537800
0
LINE
8
Layer 1
10
275.856000
20
83.537800
11
275.856000
21
83.537800
0
LINE
8
Layer 1
10
275.856000
20
83.537800
11
278.114000
21
83.537800
0
LINE
8
Layer 1
10
278.114000
20
83.537800
11
278.114000
21
83.537800
0
LINE
8
Layer 1
10
278.114000
20
83.537800
11
280.450000
21
83.537800
0
LINE
8
Layer 1
10
280.450000
20
83.537800
11
280.450000
21
83.537800
0
LINE
8
Layer 1
10
280.450000
20
83.537800
11
282.707000
21
83.537800
0
LINE
8
Layer 1
10
282.707000
20
83.537800
11
282.707000
21
83.537800
0
LINE
8
Layer 1
10
282.707000
20
83.537800
11
285.044000
21
83.537800
0
LINE
8
Layer 1
10
285.044000
20
83.537800
11
285.044000
21
81.110700
0
LINE
8
Layer 1
10
285.044000
20
81.110700
11
283.633000
21
81.110700
0
LINE
8
Layer 1
10
283.633000
20
81.110700
11
283.633000
21
78.852900
0
LINE
8
Layer 1
10
283.633000
20
78.852900
11
285.044000
21
78.852900
0
LINE
8
Layer 1
10
285.044000
20
78.852900
11
285.044000
21
76.425800
0
LINE
8
Layer 1
10
285.044000
20
76.425800
11
283.633000
21
76.425800
0
LINE
8
Layer 1
10
283.633000
20
76.425800
11
283.633000
21
74.168000
0
LINE
8
Layer 1
10
283.633000
20
74.168000
11
285.044000
21
74.168000
0
LINE
8
Layer 1
10
285.044000
20
74.168000
11
285.044000
21
71.740900
0
LINE
8
Layer 1
10
285.044000
20
71.740900
11
283.633000
21
71.740900
0
LINE
8
Layer 1
10
283.633000
20
71.740900
11
283.633000
21
69.483100
0
LINE
8
Layer 1
10
283.633000
20
69.483100
11
285.044000
21
69.483100
0
LINE
8
Layer 1
10
285.044000
20
69.483100
11
285.044000
21
67.056000
0
LINE
8
Layer 1
10
285.044000
20
67.056000
11
283.633000
21
67.056000
0
LINE
8
Layer 1
10
283.633000
20
67.056000
11
283.633000
21
64.798200
0
LINE
8
Layer 1
10
283.633000
20
64.798200
11
285.044000
21
64.798200
0
LINE
8
Layer 1
10
285.044000
20
64.798200
11
285.044000
21
63.782200
0
LINE
8
Layer 1
10
285.044000
20
63.782200
11
282.707000
21
63.782200
0
LINE
8
Layer 1
10
282.707000
20
63.782200
11
282.707000
21
62.371100
0
LINE
8
Layer 1
10
282.707000
20
62.371100
11
280.450000
21
62.371100
0
LINE
8
Layer 1
10
280.450000
20
62.371100
11
280.450000
21
63.782200
0
LINE
8
Layer 1
10
280.450000
20
63.782200
11
278.114000
21
63.782200
0
LINE
8
Layer 1
10
278.114000
20
63.782200
11
278.114000
21
62.371100
0
LINE
8
Layer 1
10
278.114000
20
62.371100
11
275.856000
21
62.371100
0
LINE
8
Layer 1
10
275.856000
20
62.371100
11
275.856000
21
63.782200
0
LINE
8
Layer 1
10
275.856000
20
63.782200
11
273.520000
21
63.782200
0
LINE
8
Layer 1
10
273.520000
20
63.782200
11
273.520000
21
62.371100
0
LINE
8
Layer 1
10
273.520000
20
62.371100
11
271.262000
21
62.371100
0
LINE
8
Layer 1
10
271.262000
20
62.371100
11
271.262000
21
63.782200
0
LINE
8
Layer 1
10
271.262000
20
63.782200
11
268.926000
21
63.782200
0
LINE
8
Layer 1
10
268.926000
20
63.782200
11
268.926000
21
62.371100
0
LINE
8
Layer 1
10
268.926000
20
62.371100
11
266.668000
21
62.371100
0
LINE
8
Layer 1
10
266.668000
20
62.371100
11
266.668000
21
63.782200
0
LINE
8
Layer 1
10
266.668000
20
63.782200
11
264.332000
21
63.782200
0
LINE
8
Layer 1
10
264.332000
20
63.782200
11
264.332000
21
62.371100
0
LINE
8
Layer 1
10
264.332000
20
62.371100
11
262.074000
21
62.371100
0
LINE
8
Layer 1
10
262.074000
20
62.371100
11
262.074000
21
63.782200
0
LINE
8
Layer 1
10
262.074000
20
63.782200
11
259.738000
21
63.782200
0
LINE
8
Layer 1
10
259.738000
20
63.782200
11
259.738000
21
62.371100
0
LINE
8
Layer 1
10
259.738000
20
62.371100
11
257.480000
21
62.371100
0
LINE
8
Layer 1
10
257.480000
20
62.371100
11
257.480000
21
63.782200
0
LINE
8
Layer 1
10
257.480000
20
63.782200
11
255.144000
21
63.782200
0
LINE
8
Layer 1
10
255.144000
20
63.782200
11
255.144000
21
62.371100
0
LINE
8
Layer 1
10
255.144000
20
62.371100
11
252.887000
21
62.371100
0
LINE
8
Layer 1
10
252.887000
20
62.371100
11
252.887000
21
63.782200
0
LINE
8
Layer 1
10
252.887000
20
63.782200
11
250.550000
21
63.782200
0
LINE
8
Layer 1
10
250.550000
20
63.782200
11
250.550000
21
62.371100
0
LINE
8
Layer 1
10
250.550000
20
62.371100
11
248.293000
21
62.371100
0
LINE
8
Layer 1
10
248.293000
20
62.371100
11
248.293000
21
63.782200
0
LINE
8
Layer 1
10
248.293000
20
63.782200
11
245.956000
21
63.782200
0
LINE
8
Layer 1
10
245.956000
20
63.782200
11
245.956000
21
62.371100
0
LINE
8
Layer 1
10
245.956000
20
62.371100
11
243.699000
21
62.371100
0
LINE
8
Layer 1
10
243.699000
20
62.371100
11
243.699000
21
63.782200
0
LINE
8
Layer 1
10
243.699000
20
63.782200
11
241.362000
21
63.782200
0
LINE
8
Layer 1
10
241.362000
20
63.782200
11
241.362000
21
62.371100
0
LINE
8
Layer 1
10
241.362000
20
62.371100
11
239.105000
21
62.371100
0
LINE
8
Layer 1
10
239.105000
20
62.371100
11
239.105000
21
63.782200
0
LINE
8
Layer 1
10
239.105000
20
63.782200
11
236.768000
21
63.782200
0
LINE
8
Layer 1
10
236.768000
20
63.782200
11
236.768000
21
62.371100
0
LINE
8
Layer 1
10
236.768000
20
62.371100
11
234.511000
21
62.371100
0
LINE
8
Layer 1
10
234.511000
20
62.371100
11
234.511000
21
63.782200
0
LINE
8
Layer 1
10
234.511000
20
63.782200
11
232.175000
21
63.782200
0
LINE
8
Layer 1
10
232.175000
20
63.782200
11
232.175000
21
62.371100
0
LINE
8
Layer 1
10
232.175000
20
62.371100
11
229.917000
21
62.371100
0
LINE
8
Layer 1
10
229.917000
20
62.371100
11
229.917000
21
63.782200
0
LINE
8
Layer 1
10
229.917000
20
63.782200
11
227.581000
21
63.782200
0
LINE
8
Layer 1
10
227.581000
20
63.782200
11
227.581000
21
62.371100
0
LINE
8
Layer 1
10
227.581000
20
62.371100
11
225.323000
21
62.371100
0
LINE
8
Layer 1
10
225.323000
20
62.371100
11
225.323000
21
63.782200
0
LINE
8
Layer 1
10
225.323000
20
63.782200
11
222.987000
21
63.782200
0
LINE
8
Layer 1
10
222.987000
20
63.782200
11
222.987000
21
62.371100
0
LINE
8
Layer 1
10
222.987000
20
62.371100
11
220.729000
21
62.371100
0
LINE
8
Layer 1
10
220.729000
20
62.371100
11
220.729000
21
63.782200
0
LINE
8
Layer 1
10
220.729000
20
63.782200
11
218.393000
21
63.782200
0
LINE
8
Layer 1
10
218.393000
20
63.782200
11
218.393000
21
62.371100
0
LINE
8
Layer 1
10
218.393000
20
62.371100
11
216.135000
21
62.371100
0
LINE
8
Layer 1
10
216.135000
20
62.371100
11
216.135000
21
63.782200
0
LINE
8
Layer 1
10
216.135000
20
63.782200
11
213.799000
21
63.782200
0
LINE
8
Layer 1
10
213.799000
20
63.782200
11
213.799000
21
62.371100
0
LINE
8
Layer 1
10
213.799000
20
62.371100
11
211.541000
21
62.371100
0
LINE
8
Layer 1
10
211.541000
20
62.371100
11
211.541000
21
63.782200
0
LINE
8
Layer 1
10
211.541000
20
63.782200
11
209.205000
21
63.782200
0
LINE
8
Layer 1
10
209.205000
20
63.782200
11
209.205000
21
62.371100
0
LINE
8
Layer 1
10
209.205000
20
62.371100
11
206.947000
21
62.371100
0
LINE
8
Layer 1
10
206.947000
20
62.371100
11
206.947000
21
63.782200
0
LINE
8
Layer 1
10
206.947000
20
63.782200
11
204.611000
21
63.782200
0
LINE
8
Layer 1
10
204.611000
20
63.782200
11
204.611000
21
64.798200
0
LINE
8
Layer 1
10
204.611000
20
64.798200
11
206.022000
21
64.798200
0
LINE
8
Layer 1
10
206.022000
20
64.798200
11
206.022000
21
67.056000
0
LINE
8
Layer 1
10
206.022000
20
67.056000
11
204.611000
21
67.056000
0
LINE
8
Layer 1
10
204.611000
20
67.056000
11
204.611000
21
69.483100
0
LINE
8
Layer 1
10
204.611000
20
69.483100
11
206.022000
21
69.483100
0
LINE
8
Layer 1
10
206.022000
20
69.483100
11
206.022000
21
71.740900
0
LINE
8
Layer 1
10
206.022000
20
71.740900
11
204.611000
21
71.740900
0
LINE
8
Layer 1
10
204.611000
20
71.740900
11
204.611000
21
74.168000
0
LINE
8
Layer 1
10
204.611000
20
74.168000
11
206.022000
21
74.168000
0
LINE
8
Layer 1
10
206.022000
20
74.168000
11
206.022000
21
76.425800
0
LINE
8
Layer 1
10
206.022000
20
76.425800
11
204.611000
21
76.425800
0
LINE
8
Layer 1
10
204.611000
20
76.425800
11
204.611000
21
78.852900
0
LINE
8
Layer 1
10
204.611000
20
78.852900
11
206.022000
21
78.852900
0
LINE
8
Layer 1
10
206.022000
20
78.852900
11
206.022000
21
81.110700
0
LINE
8
Layer 1
10
206.022000
20
81.110700
11
204.611000
21
81.110700
0
LINE
8
Layer 1
10
204.611000
20
81.110700
11
204.611000
21
83.537800
0
LINE
8
Layer 1
10
118.251000
20
82.126700
11
121.122000
21
82.126700
0
LINE
8
Layer 1
10
121.122000
20
82.126700
11
121.122000
21
83.537800
0
LINE
8
Layer 1
10
121.122000
20
83.537800
11
123.993000
21
83.537800
0
LINE
8
Layer 1
10
123.993000
20
83.537800
11
123.993000
21
82.126700
0
LINE
8
Layer 1
10
123.993000
20
82.126700
11
126.864000
21
82.126700
0
LINE
8
Layer 1
10
126.864000
20
82.126700
11
126.864000
21
83.537800
0
LINE
8
Layer 1
10
126.864000
20
83.537800
11
129.735000
21
83.537800
0
LINE
8
Layer 1
10
129.735000
20
83.537800
11
129.735000
21
82.126700
0
LINE
8
Layer 1
10
129.735000
20
82.126700
11
132.605000
21
82.126700
0
LINE
8
Layer 1
10
132.605000
20
82.126700
11
132.605000
21
83.537800
0
LINE
8
Layer 1
10
132.605000
20
83.537800
11
135.476000
21
83.537800
0
LINE
8
Layer 1
10
135.476000
20
83.537800
11
135.476000
21
82.126700
0
LINE
8
Layer 1
10
135.476000
20
82.126700
11
138.347000
21
82.126700
0
LINE
8
Layer 1
10
138.347000
20
82.126700
11
138.347000
21
83.537800
0
LINE
8
Layer 1
10
138.347000
20
83.537800
11
141.218000
21
83.537800
0
LINE
8
Layer 1
10
141.218000
20
83.537800
11
141.218000
21
82.126700
0
LINE
8
Layer 1
10
141.218000
20
82.126700
11
144.089000
21
82.126700
0
LINE
8
Layer 1
10
144.089000
20
82.126700
11
144.089000
21
83.537800
0
LINE
8
Layer 1
10
144.089000
20
83.537800
11
146.960000
21
83.537800
0
LINE
8
Layer 1
10
146.960000
20
83.537800
11
146.960000
21
82.126700
0
LINE
8
Layer 1
10
146.960000
20
82.126700
11
149.831000
21
82.126700
0
LINE
8
Layer 1
10
149.831000
20
82.126700
11
149.831000
21
83.537800
0
LINE
8
Layer 1
10
149.831000
20
83.537800
11
152.702000
21
83.537800
0
LINE
8
Layer 1
10
152.702000
20
83.537800
11
152.702000
21
82.126700
0
LINE
8
Layer 1
10
152.702000
20
82.126700
11
155.572000
21
82.126700
0
LINE
8
Layer 1
10
155.572000
20
82.126700
11
155.572000
21
83.537800
0
LINE
8
Layer 1
10
155.572000
20
83.537800
11
158.443000
21
83.537800
0
LINE
8
Layer 1
10
158.443000
20
83.537800
11
158.443000
21
82.126700
0
LINE
8
Layer 1
10
158.443000
20
82.126700
11
161.314000
21
82.126700
0
LINE
8
Layer 1
10
161.314000
20
82.126700
11
161.314000
21
83.537800
0
LINE
8
Layer 1
10
161.314000
20
83.537800
11
164.185000
21
83.537800
0
LINE
8
Layer 1
10
164.185000
20
83.537800
11
164.185000
21
82.126700
0
LINE
8
Layer 1
10
164.185000
20
82.126700
11
167.056000
21
82.126700
0
LINE
8
Layer 1
10
167.056000
20
82.126700
11
167.056000
21
83.537800
0
LINE
8
Layer 1
10
167.056000
20
83.537800
11
169.927000
21
83.537800
0
LINE
8
Layer 1
10
169.927000
20
83.537800
11
169.927000
21
82.126700
0
LINE
8
Layer 1
10
169.927000
20
82.126700
11
172.798000
21
82.126700
0
LINE
8
Layer 1
10
172.798000
20
82.126700
11
172.798000
21
83.537800
0
LINE
8
Layer 1
10
172.798000
20
83.537800
11
175.669000
21
83.537800
0
LINE
8
Layer 1
10
175.669000
20
83.537800
11
175.669000
21
82.126700
0
LINE
8
Layer 1
10
175.669000
20
82.126700
11
178.540000
21
82.126700
0
LINE
8
Layer 1
10
178.540000
20
82.126700
11
178.540000
21
83.537800
0
LINE
8
Layer 1
10
178.540000
20
83.537800
11
181.410000
21
83.537800
0
LINE
8
Layer 1
10
181.410000
20
83.537800
11
181.410000
21
82.126700
0
LINE
8
Layer 1
10
181.410000
20
82.126700
11
184.281000
21
82.126700
0
LINE
8
Layer 1
10
184.281000
20
82.126700
11
184.281000
21
83.537800
0
LINE
8
Layer 1
10
184.281000
20
83.537800
11
187.152000
21
83.537800
0
LINE
8
Layer 1
10
187.152000
20
83.537800
11
187.152000
21
82.126700
0
LINE
8
Layer 1
10
187.152000
20
82.126700
11
190.023000
21
82.126700
0
LINE
8
Layer 1
10
190.023000
20
82.126700
11
190.023000
21
83.537800
0
LINE
8
Layer 1
10
190.023000
20
83.537800
11
192.894000
21
83.537800
0
LINE
8
Layer 1
10
192.894000
20
83.537800
11
192.894000
21
82.126700
0
LINE
8
Layer 1
10
192.894000
20
82.126700
11
195.765000
21
82.126700
0
LINE
8
Layer 1
10
195.765000
20
82.126700
11
195.765000
21
83.537800
0
LINE
8
Layer 1
10
195.765000
20
83.537800
11
198.636000
21
83.537800
0
LINE
8
Layer 1
10
198.636000
20
83.537800
11
198.636000
21
82.126700
0
LINE
8
Layer 1
10
198.636000
20
82.126700
11
201.507000
21
82.126700
0
LINE
8
Layer 1
10
201.507000
20
82.126700
11
201.507000
21
80.151100
0
LINE
8
Layer 1
10
201.507000
20
80.151100
11
200.095000
21
80.151100
0
LINE
8
Layer 1
10
200.095000
20
80.151100
11
200.095000
21
76.764400
0
LINE
8
Layer 1
10
200.095000
20
76.764400
11
201.507000
21
76.764400
0
LINE
8
Layer 1
10
201.507000
20
76.764400
11
201.507000
21
73.377800
0
LINE
8
Layer 1
10
201.507000
20
73.377800
11
200.095000
21
73.377800
0
LINE
8
Layer 1
10
200.095000
20
73.377800
11
200.095000
21
69.991100
0
LINE
8
Layer 1
10
200.095000
20
69.991100
11
201.507000
21
69.991100
0
LINE
8
Layer 1
10
201.507000
20
69.991100
11
201.507000
21
68.015600
0
LINE
8
Layer 1
10
201.507000
20
68.015600
11
198.636000
21
68.015600
0
LINE
8
Layer 1
10
198.636000
20
68.015600
11
198.636000
21
68.015600
0
LINE
8
Layer 1
10
198.636000
20
68.015600
11
195.765000
21
68.015600
0
LINE
8
Layer 1
10
195.765000
20
68.015600
11
195.765000
21
68.015600
0
LINE
8
Layer 1
10
195.765000
20
68.015600
11
192.894000
21
68.015600
0
LINE
8
Layer 1
10
192.894000
20
68.015600
11
192.894000
21
68.015600
0
LINE
8
Layer 1
10
192.894000
20
68.015600
11
190.023000
21
68.015600
0
LINE
8
Layer 1
10
190.023000
20
68.015600
11
190.023000
21
68.015600
0
LINE
8
Layer 1
10
190.023000
20
68.015600
11
187.152000
21
68.015600
0
LINE
8
Layer 1
10
187.152000
20
68.015600
11
187.152000
21
68.015600
0
LINE
8
Layer 1
10
187.152000
20
68.015600
11
184.281000
21
68.015600
0
LINE
8
Layer 1
10
184.281000
20
68.015600
11
184.281000
21
68.015600
0
LINE
8
Layer 1
10
184.281000
20
68.015600
11
181.410000
21
68.015600
0
LINE
8
Layer 1
10
181.410000
20
68.015600
11
181.410000
21
68.015600
0
LINE
8
Layer 1
10
181.410000
20
68.015600
11
178.540000
21
68.015600
0
LINE
8
Layer 1
10
178.540000
20
68.015600
11
178.540000
21
68.015600
0
LINE
8
Layer 1
10
178.540000
20
68.015600
11
175.669000
21
68.015600
0
LINE
8
Layer 1
10
175.669000
20
68.015600
11
175.669000
21
68.015600
0
LINE
8
Layer 1
10
175.669000
20
68.015600
11
172.798000
21
68.015600
0
LINE
8
Layer 1
10
172.798000
20
68.015600
11
172.798000
21
68.015600
0
LINE
8
Layer 1
10
172.798000
20
68.015600
11
169.927000
21
68.015600
0
LINE
8
Layer 1
10
169.927000
20
68.015600
11
169.927000
21
68.015600
0
LINE
8
Layer 1
10
169.927000
20
68.015600
11
167.056000
21
68.015600
0
LINE
8
Layer 1
10
167.056000
20
68.015600
11
167.056000
21
68.015600
0
LINE
8
Layer 1
10
167.056000
20
68.015600
11
164.185000
21
68.015600
0
LINE
8
Layer 1
10
164.185000
20
68.015600
11
164.185000
21
68.015600
0
LINE
8
Layer 1
10
164.185000
20
68.015600
11
161.314000
21
68.015600
0
LINE
8
Layer 1
10
161.314000
20
68.015600
11
161.314000
21
68.015600
0
LINE
8
Layer 1
10
161.314000
20
68.015600
11
158.443000
21
68.015600
0
LINE
8
Layer 1
10
158.443000
20
68.015600
11
158.443000
21
68.015600
0
LINE
8
Layer 1
10
158.443000
20
68.015600
11
155.572000
21
68.015600
0
LINE
8
Layer 1
10
155.572000
20
68.015600
11
155.572000
21
68.015600
0
LINE
8
Layer 1
10
155.572000
20
68.015600
11
152.702000
21
68.015600
0
LINE
8
Layer 1
10
152.702000
20
68.015600
11
152.702000
21
68.015600
0
LINE
8
Layer 1
10
152.702000
20
68.015600
11
149.831000
21
68.015600
0
LINE
8
Layer 1
10
149.831000
20
68.015600
11
149.831000
21
68.015600
0
LINE
8
Layer 1
10
149.831000
20
68.015600
11
146.960000
21
68.015600
0
LINE
8
Layer 1
10
146.960000
20
68.015600
11
146.960000
21
68.015600
0
LINE
8
Layer 1
10
146.960000
20
68.015600
11
144.089000
21
68.015600
0
LINE
8
Layer 1
10
144.089000
20
68.015600
11
144.089000
21
68.015600
0
LINE
8
Layer 1
10
144.089000
20
68.015600
11
141.218000
21
68.015600
0
LINE
8
Layer 1
10
141.218000
20
68.015600
11
141.218000
21
68.015600
0
LINE
8
Layer 1
10
141.218000
20
68.015600
11
138.347000
21
68.015600
0
LINE
8
Layer 1
10
138.347000
20
68.015600
11
138.347000
21
68.015600
0
LINE
8
Layer 1
10
138.347000
20
68.015600
11
135.476000
21
68.015600
0
LINE
8
Layer 1
10
135.476000
20
68.015600
11
135.476000
21
68.015600
0
LINE
8
Layer 1
10
135.476000
20
68.015600
11
132.605000
21
68.015600
0
LINE
8
Layer 1
10
132.605000
20
68.015600
11
132.605000
21
68.015600
0
LINE
8
Layer 1
10
132.605000
20
68.015600
11
129.735000
21
68.015600
0
LINE
8
Layer 1
10
129.735000
20
68.015600
11
129.735000
21
68.015600
0
LINE
8
Layer 1
10
129.735000
20
68.015600
11
126.864000
21
68.015600
0
LINE
8
Layer 1
10
126.864000
20
68.015600
11
126.864000
21
68.015600
0
LINE
8
Layer 1
10
126.864000
20
68.015600
11
123.993000
21
68.015600
0
LINE
8
Layer 1
10
123.993000
20
68.015600
11
123.993000
21
68.015600
0
LINE
8
Layer 1
10
123.993000
20
68.015600
11
121.122000
21
68.015600
0
LINE
8
Layer 1
10
121.122000
20
68.015600
11
121.122000
21
68.015600
0
LINE
8
Layer 1
10
121.122000
20
68.015600
11
118.251000
21
68.015600
0
LINE
8
Layer 1
10
118.251000
20
68.015600
11
118.251000
21
69.991100
0
LINE
8
Layer 1
10
118.251000
20
69.991100
11
119.662000
21
69.991100
0
LINE
8
Layer 1
10
119.662000
20
69.991100
11
119.662000
21
73.377800
0
LINE
8
Layer 1
10
119.662000
20
73.377800
11
118.251000
21
73.377800
0
LINE
8
Layer 1
10
118.251000
20
73.377800
11
118.251000
21
76.764400
0
LINE
8
Layer 1
10
118.251000
20
76.764400
11
119.662000
21
76.764400
0
LINE
8
Layer 1
10
119.662000
20
76.764400
11
119.662000
21
80.151100
0
LINE
8
Layer 1
10
119.662000
20
80.151100
11
118.251000
21
80.151100
0
LINE
8
Layer 1
10
118.251000
20
80.151100
11
118.251000
21
82.126700
0
LINE
8
Layer 1
10
85.231000
20
82.126700
11
87.206600
21
82.126700
0
LINE
8
Layer 1
10
87.206600
20
82.126700
11
87.206600
21
83.537800
0
LINE
8
Layer 1
10
87.206600
20
83.537800
11
90.593300
21
83.537800
0
LINE
8
Layer 1
10
90.593300
20
83.537800
11
90.593300
21
82.126700
0
LINE
8
Layer 1
10
90.593300
20
82.126700
11
93.979900
21
82.126700
0
LINE
8
Layer 1
10
93.979900
20
82.126700
11
93.979900
21
83.537800
0
LINE
8
Layer 1
10
93.979900
20
83.537800
11
97.366600
21
83.537800
0
LINE
8
Layer 1
10
97.366600
20
83.537800
11
97.366600
21
82.126700
0
LINE
8
Layer 1
10
97.366600
20
82.126700
11
99.342100
21
82.126700
0
LINE
8
Layer 1
10
99.342100
20
82.126700
11
99.342100
21
80.433300
0
LINE
8
Layer 1
10
99.342100
20
80.433300
11
100.753000
21
80.433300
0
LINE
8
Layer 1
10
100.753000
20
80.433300
11
100.753000
21
77.328900
0
LINE
8
Layer 1
10
100.753000
20
77.328900
11
99.342100
21
77.328900
0
LINE
8
Layer 1
10
99.342100
20
77.328900
11
99.342100
21
74.224500
0
LINE
8
Layer 1
10
99.342100
20
74.224500
11
100.753000
21
74.224500
0
LINE
8
Layer 1
10
100.753000
20
74.224500
11
100.753000
21
71.120000
0
LINE
8
Layer 1
10
100.753000
20
71.120000
11
99.342100
21
71.120000
0
LINE
8
Layer 1
10
99.342100
20
71.120000
11
99.342100
21
68.015600
0
LINE
8
Layer 1
10
99.342100
20
68.015600
11
100.753000
21
68.015600
0
LINE
8
Layer 1
10
100.753000
20
68.015600
11
100.753000
21
64.911100
0
LINE
8
Layer 1
10
100.753000
20
64.911100
11
99.342100
21
64.911100
0
LINE
8
Layer 1
10
99.342100
20
64.911100
11
99.342100
21
61.806700
0
LINE
8
Layer 1
10
99.342100
20
61.806700
11
100.753000
21
61.806700
0
LINE
8
Layer 1
10
100.753000
20
61.806700
11
100.753000
21
58.702200
0
LINE
8
Layer 1
10
100.753000
20
58.702200
11
99.342100
21
58.702200
0
LINE
8
Layer 1
10
99.342100
20
58.702200
11
99.342100
21
55.597800
0
LINE
8
Layer 1
10
99.342100
20
55.597800
11
100.753000
21
55.597800
0
LINE
8
Layer 1
10
100.753000
20
55.597800
11
100.753000
21
52.493400
0
LINE
8
Layer 1
10
100.753000
20
52.493400
11
99.342100
21
52.493400
0
LINE
8
Layer 1
10
99.342100
20
52.493400
11
99.342100
21
49.388900
0
LINE
8
Layer 1
10
99.342100
20
49.388900
11
100.753000
21
49.388900
0
LINE
8
Layer 1
10
100.753000
20
49.388900
11
100.753000
21
46.284500
0
LINE
8
Layer 1
10
100.753000
20
46.284500
11
99.342100
21
46.284500
0
LINE
8
Layer 1
10
99.342100
20
46.284500
11
99.342100
21
43.180000
0
LINE
8
Layer 1
10
99.342100
20
43.180000
11
100.753000
21
43.180000
0
LINE
8
Layer 1
10
100.753000
20
43.180000
11
100.753000
21
40.075600
0
LINE
8
Layer 1
10
100.753000
20
40.075600
11
99.342100
21
40.075600
0
LINE
8
Layer 1
10
99.342100
20
40.075600
11
99.342100
21
38.382300
0
LINE
8
Layer 1
10
99.342100
20
38.382300
11
97.366600
21
38.382300
0
LINE
8
Layer 1
10
97.366600
20
38.382300
11
97.366600
21
36.971100
0
LINE
8
Layer 1
10
97.366600
20
36.971100
11
93.979900
21
36.971100
0
LINE
8
Layer 1
10
93.979900
20
36.971100
11
93.979900
21
38.382300
0
LINE
8
Layer 1
10
93.979900
20
38.382300
11
90.593300
21
38.382300
0
LINE
8
Layer 1
10
90.593300
20
38.382300
11
90.593300
21
36.971100
0
LINE
8
Layer 1
10
90.593300
20
36.971100
11
87.206600
21
36.971100
0
LINE
8
Layer 1
10
87.206600
20
36.971100
11
87.206600
21
38.382300
0
LINE
8
Layer 1
10
87.206600
20
38.382300
11
85.231000
21
38.382300
0
LINE
8
Layer 1
10
85.231000
20
38.382300
11
85.231000
21
40.075600
0
LINE
8
Layer 1
10
85.231000
20
40.075600
11
85.231000
21
40.075600
0
LINE
8
Layer 1
10
85.231000
20
40.075600
11
85.231000
21
43.180000
0
LINE
8
Layer 1
10
85.231000
20
43.180000
11
85.231000
21
43.180000
0
LINE
8
Layer 1
10
85.231000
20
43.180000
11
85.231000
21
46.284500
0
LINE
8
Layer 1
10
85.231000
20
46.284500
11
85.231000
21
46.284500
0
LINE
8
Layer 1
10
85.231000
20
46.284500
11
85.231000
21
49.388900
0
LINE
8
Layer 1
10
85.231000
20
49.388900
11
85.231000
21
49.388900
0
LINE
8
Layer 1
10
85.231000
20
49.388900
11
85.231000
21
52.493400
0
LINE
8
Layer 1
10
85.231000
20
52.493400
11
85.231000
21
52.493400
0
LINE
8
Layer 1
10
85.231000
20
52.493400
11
85.231000
21
55.597800
0
LINE
8
Layer 1
10
85.231000
20
55.597800
11
85.231000
21
55.597800
0
LINE
8
Layer 1
10
85.231000
20
55.597800
11
85.231000
21
58.702200
0
LINE
8
Layer 1
10
85.231000
20
58.702200
11
85.231000
21
58.702200
0
LINE
8
Layer 1
10
85.231000
20
58.702200
11
85.231000
21
61.806700
0
LINE
8
Layer 1
10
85.231000
20
61.806700
11
85.231000
21
61.806700
0
LINE
8
Layer 1
10
85.231000
20
61.806700
11
85.231000
21
64.911100
0
LINE
8
Layer 1
10
85.231000
20
64.911100
11
85.231000
21
64.911100
0
LINE
8
Layer 1
10
85.231000
20
64.911100
11
85.231000
21
68.015600
0
LINE
8
Layer 1
10
85.231000
20
68.015600
11
85.231000
21
68.015600
0
LINE
8
Layer 1
10
85.231000
20
68.015600
11
85.231000
21
71.120000
0
LINE
8
Layer 1
10
85.231000
20
71.120000
11
85.231000
21
71.120000
0
LINE
8
Layer 1
10
85.231000
20
71.120000
11
85.231000
21
74.224500
0
LINE
8
Layer 1
10
85.231000
20
74.224500
11
85.231000
21
74.224500
0
LINE
8
Layer 1
10
85.231000
20
74.224500
11
85.231000
21
77.328900
0
LINE
8
Layer 1
10
85.231000
20
77.328900
11
85.231000
21
77.328900
0
LINE
8
Layer 1
10
85.231000
20
77.328900
11
85.231000
21
80.433300
0
LINE
8
Layer 1
10
85.231000
20
80.433300
11
85.231000
21
80.433300
0
LINE
8
Layer 1
10
85.231000
20
80.433300
11
85.231000
21
82.126700
0
LINE
8
Layer 1
10
0.282222
20
83.537800
11
3.153100
21
83.537800
0
LINE
8
Layer 1
10
3.153100
20
83.537800
11
3.153100
21
82.126700
0
LINE
8
Layer 1
10
3.153100
20
82.126700
11
6.023970
21
82.126700
0
LINE
8
Layer 1
10
6.023970
20
82.126700
11
6.023970
21
83.537800
0
LINE
8
Layer 1
10
6.023970
20
83.537800
11
8.894850
21
83.537800
0
LINE
8
Layer 1
10
8.894850
20
83.537800
11
8.894850
21
82.126700
0
LINE
8
Layer 1
10
8.894850
20
82.126700
11
11.765800
21
82.126700
0
LINE
8
Layer 1
10
11.765800
20
82.126700
11
11.765800
21
83.537800
0
LINE
8
Layer 1
10
11.765800
20
83.537800
11
14.636600
21
83.537800
0
LINE
8
Layer 1
10
14.636600
20
83.537800
11
14.636600
21
82.126700
0
LINE
8
Layer 1
10
14.636600
20
82.126700
11
17.507500
21
82.126700
0
LINE
8
Layer 1
10
17.507500
20
82.126700
11
17.507500
21
83.537800
0
LINE
8
Layer 1
10
17.507500
20
83.537800
11
20.378400
21
83.537800
0
LINE
8
Layer 1
10
20.378400
20
83.537800
11
20.378400
21
82.126700
0
LINE
8
Layer 1
10
20.378400
20
82.126700
11
23.249300
21
82.126700
0
LINE
8
Layer 1
10
23.249300
20
82.126700
11
23.249300
21
83.537800
0
LINE
8
Layer 1
10
23.249300
20
83.537800
11
26.120100
21
83.537800
0
LINE
8
Layer 1
10
26.120100
20
83.537800
11
26.120100
21
82.126700
0
LINE
8
Layer 1
10
26.120100
20
82.126700
11
28.991000
21
82.126700
0
LINE
8
Layer 1
10
28.991000
20
82.126700
11
28.991000
21
83.537800
0
LINE
8
Layer 1
10
28.991000
20
83.537800
11
31.862000
21
83.537800
0
LINE
8
Layer 1
10
31.862000
20
83.537800
11
31.862000
21
82.126700
0
LINE
8
Layer 1
10
31.862000
20
82.126700
11
34.732800
21
82.126700
0
LINE
8
Layer 1
10
34.732800
20
82.126700
11
34.732800
21
83.537800
0
LINE
8
Layer 1
10
34.732800
20
83.537800
11
37.603500
21
83.537800
0
LINE
8
Layer 1
10
37.603500
20
83.537800
11
37.603500
21
82.126700
0
LINE
8
Layer 1
10
37.603500
20
82.126700
11
40.474600
21
82.126700
0
LINE
8
Layer 1
10
40.474600
20
82.126700
11
40.474600
21
83.537800
0
LINE
8
Layer 1
10
40.474600
20
83.537800
11
43.345300
21
83.537800
0
LINE
8
Layer 1
10
43.345300
20
83.537800
11
43.345300
21
82.126700
0
LINE
8
Layer 1
10
43.345300
20
82.126700
11
46.216400
21
82.126700
0
LINE
8
Layer 1
10
46.216400
20
82.126700
11
46.216400
21
83.537800
0
LINE
8
Layer 1
10
46.216400
20
83.537800
11
49.087200
21
83.537800
0
LINE
8
Layer 1
10
49.087200
20
83.537800
11
49.087200
21
82.126700
0
LINE
8
Layer 1
10
49.087200
20
82.126700
11
51.957900
21
82.126700
0
LINE
8
Layer 1
10
51.957900
20
82.126700
11
51.957900
21
83.537800
0
LINE
8
Layer 1
10
51.957900
20
83.537800
11
54.829000
21
83.537800
0
LINE
8
Layer 1
10
54.829000
20
83.537800
11
54.829000
21
82.126700
0
LINE
8
Layer 1
10
54.829000
20
82.126700
11
57.699700
21
82.126700
0
LINE
8
Layer 1
10
57.699700
20
82.126700
11
57.699700
21
83.537800
0
LINE
8
Layer 1
10
57.699700
20
83.537800
11
60.570800
21
83.537800
0
LINE
8
Layer 1
10
60.570800
20
83.537800
11
60.570800
21
82.126700
0
LINE
8
Layer 1
10
60.570800
20
82.126700
11
63.441500
21
82.126700
0
LINE
8
Layer 1
10
63.441500
20
82.126700
11
63.441500
21
83.537800
0
LINE
8
Layer 1
10
63.441500
20
83.537800
11
66.312600
21
83.537800
0
LINE
8
Layer 1
10
66.312600
20
83.537800
11
66.312600
21
82.126700
0
LINE
8
Layer 1
10
66.312600
20
82.126700
11
69.183300
21
82.126700
0
LINE
8
Layer 1
10
69.183300
20
82.126700
11
69.183300
21
83.537800
0
LINE
8
Layer 1
10
69.183300
20
83.537800
11
72.054100
21
83.537800
0
LINE
8
Layer 1
10
72.054100
20
83.537800
11
72.054100
21
82.126700
0
LINE
8
Layer 1
10
72.054100
20
82.126700
11
74.925100
21
82.126700
0
LINE
8
Layer 1
10
74.925100
20
82.126700
11
74.925100
21
83.537800
0
LINE
8
Layer 1
10
74.925100
20
83.537800
11
77.795900
21
83.537800
0
LINE
8
Layer 1
10
77.795900
20
83.537800
11
77.795900
21
82.126700
0
LINE
8
Layer 1
10
77.795900
20
82.126700
11
80.666900
21
82.126700
0
LINE
8
Layer 1
10
80.666900
20
82.126700
11
80.666900
21
83.537800
0
LINE
8
Layer 1
10
80.666900
20
83.537800
11
83.537700
21
83.537800
0
LINE
8
Layer 1
10
83.537700
20
83.537800
11
83.537700
21
80.433300
0
LINE
8
Layer 1
10
83.537700
20
80.433300
11
82.126600
21
80.433300
0
LINE
8
Layer 1
10
82.126600
20
80.433300
11
82.126600
21
77.328900
0
LINE
8
Layer 1
10
82.126600
20
77.328900
11
83.537700
21
77.328900
0
LINE
8
Layer 1
10
83.537700
20
77.328900
11
83.537700
21
74.224500
0
LINE
8
Layer 1
10
83.537700
20
74.224500
11
82.126600
21
74.224500
0
LINE
8
Layer 1
10
82.126600
20
74.224500
11
82.126600
21
71.120000
0
LINE
8
Layer 1
10
82.126600
20
71.120000
11
83.537700
21
71.120000
0
LINE
8
Layer 1
10
83.537700
20
71.120000
11
83.537700
21
68.015600
0
LINE
8
Layer 1
10
83.537700
20
68.015600
11
82.126600
21
68.015600
0
LINE
8
Layer 1
10
82.126600
20
68.015600
11
82.126600
21
64.911100
0
LINE
8
Layer 1
10
82.126600
20
64.911100
11
83.537700
21
64.911100
0
LINE
8
Layer 1
10
83.537700
20
64.911100
11
83.537700
21
61.806700
0
LINE
8
Layer 1
10
83.537700
20
61.806700
11
82.126600
21
61.806700
0
LINE
8
Layer 1
10
82.126600
20
61.806700
11
82.126600
21
58.702200
0
LINE
8
Layer 1
10
82.126600
20
58.702200
11
83.537700
21
58.702200
0
LINE
8
Layer 1
10
83.537700
20
58.702200
11
83.537700
21
55.597800
0
LINE
8
Layer 1
10
83.537700
20
55.597800
11
82.126600
21
55.597800
0
LINE
8
Layer 1
10
82.126600
20
55.597800
11
82.126600
21
52.493400
0
LINE
8
Layer 1
10
82.126600
20
52.493400
11
83.537700
21
52.493400
0
LINE
8
Layer 1
10
83.537700
20
52.493400
11
83.537700
21
49.388900
0
LINE
8
Layer 1
10
83.537700
20
49.388900
11
82.126600
21
49.388900
0
LINE
8
Layer 1
10
82.126600
20
49.388900
11
82.126600
21
46.284500
0
LINE
8
Layer 1
10
82.126600
20
46.284500
11
83.537700
21
46.284500
0
LINE
8
Layer 1
10
83.537700
20
46.284500
11
83.537700
21
43.180000
0
LINE
8
Layer 1
10
83.537700
20
43.180000
11
82.126600
21
43.180000
0
LINE
8
Layer 1
10
82.126600
20
43.180000
11
82.126600
21
40.075600
0
LINE
8
Layer 1
10
82.126600
20
40.075600
11
83.537700
21
40.075600
0
LINE
8
Layer 1
10
83.537700
20
40.075600
11
83.537700
21
36.971100
0
LINE
8
Layer 1
10
83.537700
20
36.971100
11
80.666900
21
36.971100
0
LINE
8
Layer 1
10
80.666900
20
36.971100
11
80.666900
21
38.382300
0
LINE
8
Layer 1
10
80.666900
20
38.382300
11
77.795900
21
38.382300
0
LINE
8
Layer 1
10
77.795900
20
38.382300
11
77.795900
21
36.971100
0
LINE
8
Layer 1
10
77.795900
20
36.971100
11
74.925100
21
36.971100
0
LINE
8
Layer 1
10
74.925100
20
36.971100
11
74.925100
21
38.382300
0
LINE
8
Layer 1
10
74.925100
20
38.382300
11
72.054100
21
38.382300
0
LINE
8
Layer 1
10
72.054100
20
38.382300
11
72.054100
21
36.971100
0
LINE
8
Layer 1
10
72.054100
20
36.971100
11
69.183300
21
36.971100
0
LINE
8
Layer 1
10
69.183300
20
36.971100
11
69.183300
21
38.382300
0
LINE
8
Layer 1
10
69.183300
20
38.382300
11
66.312600
21
38.382300
0
LINE
8
Layer 1
10
66.312600
20
38.382300
11
66.312600
21
36.971100
0
LINE
8
Layer 1
10
66.312600
20
36.971100
11
63.441500
21
36.971100
0
LINE
8
Layer 1
10
63.441500
20
36.971100
11
63.441500
21
38.382300
0
LINE
8
Layer 1
10
63.441500
20
38.382300
11
60.570800
21
38.382300
0
LINE
8
Layer 1
10
60.570800
20
38.382300
11
60.570800
21
36.971100
0
LINE
8
Layer 1
10
60.570800
20
36.971100
11
57.699700
21
36.971100
0
LINE
8
Layer 1
10
57.699700
20
36.971100
11
57.699700
21
38.382300
0
LINE
8
Layer 1
10
57.699700
20
38.382300
11
54.829000
21
38.382300
0
LINE
8
Layer 1
10
54.829000
20
38.382300
11
54.829000
21
36.971100
0
LINE
8
Layer 1
10
54.829000
20
36.971100
11
51.957900
21
36.971100
0
LINE
8
Layer 1
10
51.957900
20
36.971100
11
51.957900
21
38.382300
0
LINE
8
Layer 1
10
51.957900
20
38.382300
11
49.087200
21
38.382300
0
LINE
8
Layer 1
10
49.087200
20
38.382300
11
49.087200
21
36.971100
0
LINE
8
Layer 1
10
49.087200
20
36.971100
11
46.216400
21
36.971100
0
LINE
8
Layer 1
10
46.216400
20
36.971100
11
46.216400
21
38.382300
0
LINE
8
Layer 1
10
46.216400
20
38.382300
11
43.345300
21
38.382300
0
LINE
8
Layer 1
10
43.345300
20
38.382300
11
43.345300
21
36.971100
0
LINE
8
Layer 1
10
43.345300
20
36.971100
11
40.474600
21
36.971100
0
LINE
8
Layer 1
10
40.474600
20
36.971100
11
40.474600
21
38.382300
0
LINE
8
Layer 1
10
40.474600
20
38.382300
11
37.603500
21
38.382300
0
LINE
8
Layer 1
10
37.603500
20
38.382300
11
37.603500
21
36.971100
0
LINE
8
Layer 1
10
37.603500
20
36.971100
11
34.732800
21
36.971100
0
LINE
8
Layer 1
10
34.732800
20
36.971100
11
34.732800
21
38.382300
0
LINE
8
Layer 1
10
34.732800
20
38.382300
11
31.862000
21
38.382300
0
LINE
8
Layer 1
10
31.862000
20
38.382300
11
31.862000
21
36.971100
0
LINE
8
Layer 1
10
31.862000
20
36.971100
11
28.991000
21
36.971100
0
LINE
8
Layer 1
10
28.991000
20
36.971100
11
28.991000
21
38.382300
0
LINE
8
Layer 1
10
28.991000
20
38.382300
11
26.120100
21
38.382300
0
LINE
8
Layer 1
10
26.120100
20
38.382300
11
26.120100
21
36.971100
0
LINE
8
Layer 1
10
26.120100
20
36.971100
11
23.249300
21
36.971100
0
LINE
8
Layer 1
10
23.249300
20
36.971100
11
23.249300
21
38.382300
0
LINE
8
Layer 1
10
23.249300
20
38.382300
11
20.378400
21
38.382300
0
LINE
8
Layer 1
10
20.378400
20
38.382300
11
20.378400
21
36.971100
0
LINE
8
Layer 1
10
20.378400
20
36.971100
11
17.507500
21
36.971100
0
LINE
8
Layer 1
10
17.507500
20
36.971100
11
17.507500
21
38.382300
0
LINE
8
Layer 1
10
17.507500
20
38.382300
11
14.636600
21
38.382300
0
LINE
8
Layer 1
10
14.636600
20
38.382300
11
14.636600
21
36.971100
0
LINE
8
Layer 1
10
14.636600
20
36.971100
11
11.765800
21
36.971100
0
LINE
8
Layer 1
10
11.765800
20
36.971100
11
11.765800
21
38.382300
0
LINE
8
Layer 1
10
11.765800
20
38.382300
11
8.894850
21
38.382300
0
LINE
8
Layer 1
10
8.894850
20
38.382300
11
8.894850
21
36.971100
0
LINE
8
Layer 1
10
8.894850
20
36.971100
11
6.023970
21
36.971100
0
LINE
8
Layer 1
10
6.023970
20
36.971100
11
6.023970
21
38.382300
0
LINE
8
Layer 1
10
6.023970
20
38.382300
11
3.153100
21
38.382300
0
LINE
8
Layer 1
10
3.153100
20
38.382300
11
3.153100
21
36.971100
0
LINE
8
Layer 1
10
3.153100
20
36.971100
11
0.282222
21
36.971100
0
LINE
8
Layer 1
10
0.282222
20
36.971100
11
0.282222
21
40.075600
0
LINE
8
Layer 1
10
0.282222
20
40.075600
11
1.693330
21
40.075600
0
LINE
8
Layer 1
10
1.693330
20
40.075600
11
1.693330
21
43.180000
0
LINE
8
Layer 1
10
1.693330
20
43.180000
11
0.282222
21
43.180000
0
LINE
8
Layer 1
10
0.282222
20
43.180000
11
0.282222
21
46.284500
0
LINE
8
Layer 1
10
0.282222
20
46.284500
11
1.693330
21
46.284500
0
LINE
8
Layer 1
10
1.693330
20
46.284500
11
1.693330
21
49.388900
0
LINE
8
Layer 1
10
1.693330
20
49.388900
11
0.282222
21
49.388900
0
LINE
8
Layer 1
10
0.282222
20
49.388900
11
0.282222
21
52.493400
0
LINE
8
Layer 1
10
0.282222
20
52.493400
11
1.693330
21
52.493400
0
LINE
8
Layer 1
10
1.693330
20
52.493400
11
1.693330
21
55.597800
0
LINE
8
Layer 1
10
1.693330
20
55.597800
11
0.282222
21
55.597800
0
LINE
8
Layer 1
10
0.282222
20
55.597800
11
0.282222
21
58.702200
0
LINE
8
Layer 1
10
0.282222
20
58.702200
11
1.693330
21
58.702200
0
LINE
8
Layer 1
10
1.693330
20
58.702200
11
1.693330
21
61.806700
0
LINE
8
Layer 1
10
1.693330
20
61.806700
11
0.282222
21
61.806700
0
LINE
8
Layer 1
10
0.282222
20
61.806700
11
0.282222
21
64.911100
0
LINE
8
Layer 1
10
0.282222
20
64.911100
11
1.693330
21
64.911100
0
LINE
8
Layer 1
10
1.693330
20
64.911100
11
1.693330
21
68.015600
0
LINE
8
Layer 1
10
1.693330
20
68.015600
11
0.282222
21
68.015600
0
LINE
8
Layer 1
10
0.282222
20
68.015600
11
0.282222
21
71.120000
0
LINE
8
Layer 1
10
0.282222
20
71.120000
11
1.693330
21
71.120000
0
LINE
8
Layer 1
10
1.693330
20
71.120000
11
1.693330
21
74.224500
0
LINE
8
Layer 1
10
1.693330
20
74.224500
11
0.282222
21
74.224500
0
LINE
8
Layer 1
10
0.282222
20
74.224500
11
0.282222
21
77.328900
0
LINE
8
Layer 1
10
0.282222
20
77.328900
11
1.693330
21
77.328900
0
LINE
8
Layer 1
10
1.693330
20
77.328900
11
1.693330
21
80.433300
0
LINE
8
Layer 1
10
1.693330
20
80.433300
11
0.282222
21
80.433300
0
LINE
8
Layer 1
10
0.282222
20
80.433300
11
0.282222
21
83.537800
0
LINE
8
Layer 1
10
102.447000
20
82.126700
11
104.422000
21
82.126700
0
LINE
8
Layer 1
10
104.422000
20
82.126700
11
104.422000
21
83.537800
0
LINE
8
Layer 1
10
104.422000
20
83.537800
11
107.809000
21
83.537800
0
LINE
8
Layer 1
10
107.809000
20
83.537800
11
107.809000
21
82.126700
0
LINE
8
Layer 1
10
107.809000
20
82.126700
11
111.195000
21
82.126700
0
LINE
8
Layer 1
10
111.195000
20
82.126700
11
111.195000
21
83.537800
0
LINE
8
Layer 1
10
111.195000
20
83.537800
11
114.582000
21
83.537800
0
LINE
8
Layer 1
10
114.582000
20
83.537800
11
114.582000
21
82.126700
0
LINE
8
Layer 1
10
114.582000
20
82.126700
11
116.558000
21
82.126700
0
LINE
8
Layer 1
10
116.558000
20
82.126700
11
116.558000
21
80.433300
0
LINE
8
Layer 1
10
116.558000
20
80.433300
11
116.558000
21
80.433300
0
LINE
8
Layer 1
10
116.558000
20
80.433300
11
116.558000
21
77.328900
0
LINE
8
Layer 1
10
116.558000
20
77.328900
11
116.558000
21
77.328900
0
LINE
8
Layer 1
10
116.558000
20
77.328900
11
116.558000
21
74.224500
0
LINE
8
Layer 1
10
116.558000
20
74.224500
11
116.558000
21
74.224500
0
LINE
8
Layer 1
10
116.558000
20
74.224500
11
116.558000
21
71.120000
0
LINE
8
Layer 1
10
116.558000
20
71.120000
11
116.558000
21
71.120000
0
LINE
8
Layer 1
10
116.558000
20
71.120000
11
116.558000
21
68.015600
0
LINE
8
Layer 1
10
116.558000
20
68.015600
11
116.558000
21
68.015600
0
LINE
8
Layer 1
10
116.558000
20
68.015600
11
116.558000
21
64.911100
0
LINE
8
Layer 1
10
116.558000
20
64.911100
11
116.558000
21
64.911100
0
LINE
8
Layer 1
10
116.558000
20
64.911100
11
116.558000
21
61.806700
0
LINE
8
Layer 1
10
116.558000
20
61.806700
11
116.558000
21
61.806700
0
LINE
8
Layer 1
10
116.558000
20
61.806700
11
116.558000
21
58.702200
0
LINE
8
Layer 1
10
116.558000
20
58.702200
11
116.558000
21
58.702200
0
LINE
8
Layer 1
10
116.558000
20
58.702200
11
116.558000
21
55.597800
0
LINE
8
Layer 1
10
116.558000
20
55.597800
11
116.558000
21
55.597800
0
LINE
8
Layer 1
10
116.558000
20
55.597800
11
116.558000
21
52.493400
0
LINE
8
Layer 1
10
116.558000
20
52.493400
11
116.558000
21
52.493400
0
LINE
8
Layer 1
10
116.558000
20
52.493400
11
116.558000
21
49.388900
0
LINE
8
Layer 1
10
116.558000
20
49.388900
11
116.558000
21
49.388900
0
LINE
8
Layer 1
10
116.558000
20
49.388900
11
116.558000
21
46.284500
0
LINE
8
Layer 1
10
116.558000
20
46.284500
11
116.558000
21
46.284500
0
LINE
8
Layer 1
10
116.558000
20
46.284500
11
116.558000
21
43.180000
0
LINE
8
Layer 1
10
116.558000
20
43.180000
11
116.558000
21
43.180000
0
LINE
8
Layer 1
10
116.558000
20
43.180000
11
116.558000
21
40.075600
0
LINE
8
Layer 1
10
116.558000
20
40.075600
11
116.558000
21
40.075600
0
LINE
8
Layer 1
10
116.558000
20
40.075600
11
116.558000
21
38.382300
0
LINE
8
Layer 1
10
116.558000
20
38.382300
11
114.582000
21
38.382300
0
LINE
8
Layer 1
10
114.582000
20
38.382300
11
114.582000
21
36.971100
0
LINE
8
Layer 1
10
114.582000
20
36.971100
11
111.195000
21
36.971100
0
LINE
8
Layer 1
10
111.195000
20
36.971100
11
111.195000
21
38.382300
0
LINE
8
Layer 1
10
111.195000
20
38.382300
11
107.809000
21
38.382300
0
LINE
8
Layer 1
10
107.809000
20
38.382300
11
107.809000
21
36.971100
0
LINE
8
Layer 1
10
107.809000
20
36.971100
11
104.422000
21
36.971100
0
LINE
8
Layer 1
10
104.422000
20
36.971100
11
104.422000
21
38.382300
0
LINE
8
Layer 1
10
104.422000
20
38.382300
11
102.447000
21
38.382300
0
LINE
8
Layer 1
10
102.447000
20
38.382300
11
102.447000
21
40.075600
0
LINE
8
Layer 1
10
102.447000
20
40.075600
11
101.035000
21
40.075600
0
LINE
8
Layer 1
10
101.035000
20
40.075600
11
101.035000
21
43.180000
0
LINE
8
Layer 1
10
101.035000
20
43.180000
11
102.447000
21
43.180000
0
LINE
8
Layer 1
10
102.447000
20
43.180000
11
102.447000
21
46.284500
0
LINE
8
Layer 1
10
102.447000
20
46.284500
11
101.035000
21
46.284500
0
LINE
8
Layer 1
10
101.035000
20
46.284500
11
101.035000
21
49.388900
0
LINE
8
Layer 1
10
101.035000
20
49.388900
11
102.447000
21
49.388900
0
LINE
8
Layer 1
10
102.447000
20
49.388900
11
102.447000
21
52.493400
0
LINE
8
Layer 1
10
102.447000
20
52.493400
11
101.035000
21
52.493400
0
LINE
8
Layer 1
10
101.035000
20
52.493400
11
101.035000
21
55.597800
0
LINE
8
Layer 1
10
101.035000
20
55.597800
11
102.447000
21
55.597800
0
LINE
8
Layer 1
10
102.447000
20
55.597800
11
102.447000
21
58.702200
0
LINE
8
Layer 1
10
102.447000
20
58.702200
11
101.035000
21
58.702200
0
LINE
8
Layer 1
10
101.035000
20
58.702200
11
101.035000
21
61.806700
0
LINE
8
Layer 1
10
101.035000
20
61.806700
11
102.447000
21
61.806700
0
LINE
8
Layer 1
10
102.447000
20
61.806700
11
102.447000
21
64.911100
0
LINE
8
Layer 1
10
102.447000
20
64.911100
11
101.035000
21
64.911100
0
LINE
8
Layer 1
10
101.035000
20
64.911100
11
101.035000
21
68.015600
0
LINE
8
Layer 1
10
101.035000
20
68.015600
11
102.447000
21
68.015600
0
LINE
8
Layer 1
10
102.447000
20
68.015600
11
102.447000
21
71.120000
0
LINE
8
Layer 1
10
102.447000
20
71.120000
11
101.035000
21
71.120000
0
LINE
8
Layer 1
10
101.035000
20
71.120000
11
101.035000
21
74.224500
0
LINE
8
Layer 1
10
101.035000
20
74.224500
11
102.447000
21
74.224500
0
LINE
8
Layer 1
10
102.447000
20
74.224500
11
102.447000
21
77.328900
0
LINE
8
Layer 1
10
102.447000
20
77.328900
11
101.035000
21
77.328900
0
LINE
8
Layer 1
10
101.035000
20
77.328900
11
101.035000
21
80.433300
0
LINE
8
Layer 1
10
101.035000
20
80.433300
11
102.447000
21
80.433300
0
LINE
8
Layer 1
10
102.447000
20
80.433300
11
102.447000
21
82.126700
0
LINE
8
Layer 1
10
201.789000
20
82.126700
11
204.659000
21
82.126700
0
LINE
8
Layer 1
10
204.659000
20
82.126700
11
204.659000
21
82.126700
0
LINE
8
Layer 1
10
204.659000
20
82.126700
11
207.531000
21
82.126700
0
LINE
8
Layer 1
10
207.531000
20
82.126700
11
207.531000
21
82.126700
0
LINE
8
Layer 1
10
207.531000
20
82.126700
11
210.401000
21
82.126700
0
LINE
8
Layer 1
10
210.401000
20
82.126700
11
210.401000
21
82.126700
0
LINE
8
Layer 1
10
210.401000
20
82.126700
11
213.272000
21
82.126700
0
LINE
8
Layer 1
10
213.272000
20
82.126700
11
213.272000
21
82.126700
0
LINE
8
Layer 1
10
213.272000
20
82.126700
11
216.143000
21
82.126700
0
LINE
8
Layer 1
10
216.143000
20
82.126700
11
216.143000
21
82.126700
0
LINE
8
Layer 1
10
216.143000
20
82.126700
11
219.014000
21
82.126700
0
LINE
8
Layer 1
10
219.014000
20
82.126700
11
219.014000
21
82.126700
0
LINE
8
Layer 1
10
219.014000
20
82.126700
11
221.885000
21
82.126700
0
LINE
8
Layer 1
10
221.885000
20
82.126700
11
221.885000
21
82.126700
0
LINE
8
Layer 1
10
221.885000
20
82.126700
11
224.756000
21
82.126700
0
LINE
8
Layer 1
10
224.756000
20
82.126700
11
224.756000
21
82.126700
0
LINE
8
Layer 1
10
224.756000
20
82.126700
11
227.627000
21
82.126700
0
LINE
8
Layer 1
10
227.627000
20
82.126700
11
227.627000
21
82.126700
0
LINE
8
Layer 1
10
227.627000
20
82.126700
11
230.497000
21
82.126700
0
LINE
8
Layer 1
10
230.497000
20
82.126700
11
230.497000
21
82.126700
0
LINE
8
Layer 1
10
230.497000
20
82.126700
11
233.369000
21
82.126700
0
LINE
8
Layer 1
10
233.369000
20
82.126700
11
233.369000
21
82.126700
0
LINE
8
Layer 1
10
233.369000
20
82.126700
11
236.239000
21
82.126700
0
LINE
8
Layer 1
10
236.239000
20
82.126700
11
236.239000
21
82.126700
0
LINE
8
Layer 1
10
236.239000
20
82.126700
11
239.110000
21
82.126700
0
LINE
8
Layer 1
10
239.110000
20
82.126700
11
239.110000
21
82.126700
0
LINE
8
Layer 1
10
239.110000
20
82.126700
11
241.981000
21
82.126700
0
LINE
8
Layer 1
10
241.981000
20
82.126700
11
241.981000
21
82.126700
0
LINE
8
Layer 1
10
241.981000
20
82.126700
11
244.852000
21
82.126700
0
LINE
8
Layer 1
10
244.852000
20
82.126700
11
244.852000
21
82.126700
0
LINE
8
Layer 1
10
244.852000
20
82.126700
11
247.723000
21
82.126700
0
LINE
8
Layer 1
10
247.723000
20
82.126700
11
247.723000
21
82.126700
0
LINE
8
Layer 1
10
247.723000
20
82.126700
11
250.594000
21
82.126700
0
LINE
8
Layer 1
10
250.594000
20
82.126700
11
250.594000
21
82.126700
0
LINE
8
Layer 1
10
250.594000
20
82.126700
11
253.464000
21
82.126700
0
LINE
8
Layer 1
10
253.464000
20
82.126700
11
253.464000
21
82.126700
0
LINE
8
Layer 1
10
253.464000
20
82.126700
11
256.335000
21
82.126700
0
LINE
8
Layer 1
10
256.335000
20
82.126700
11
256.335000
21
82.126700
0
LINE
8
Layer 1
10
256.335000
20
82.126700
11
259.206000
21
82.126700
0
LINE
8
Layer 1
10
259.206000
20
82.126700
11
259.206000
21
82.126700
0
LINE
8
Layer 1
10
259.206000
20
82.126700
11
262.077000
21
82.126700
0
LINE
8
Layer 1
10
262.077000
20
82.126700
11
262.077000
21
82.126700
0
LINE
8
Layer 1
10
262.077000
20
82.126700
11
264.948000
21
82.126700
0
LINE
8
Layer 1
10
264.948000
20
82.126700
11
264.948000
21
82.126700
0
LINE
8
Layer 1
10
264.948000
20
82.126700
11
267.819000
21
82.126700
0
LINE
8
Layer 1
10
267.819000
20
82.126700
11
267.819000
21
82.126700
0
LINE
8
Layer 1
10
267.819000
20
82.126700
11
270.690000
21
82.126700
0
LINE
8
Layer 1
10
270.690000
20
82.126700
11
270.690000
21
82.126700
0
LINE
8
Layer 1
10
270.690000
20
82.126700
11
273.561000
21
82.126700
0
LINE
8
Layer 1
10
273.561000
20
82.126700
11
273.561000
21
82.126700
0
LINE
8
Layer 1
10
273.561000
20
82.126700
11
276.432000
21
82.126700
0
LINE
8
Layer 1
10
276.432000
20
82.126700
11
276.432000
21
82.126700
0
LINE
8
Layer 1
10
276.432000
20
82.126700
11
279.302000
21
82.126700
0
LINE
8
Layer 1
10
279.302000
20
82.126700
11
279.302000
21
82.126700
0
LINE
8
Layer 1
10
279.302000
20
82.126700
11
282.173000
21
82.126700
0
LINE
8
Layer 1
10
282.173000
20
82.126700
11
282.173000
21
82.126700
0
LINE
8
Layer 1
10
282.173000
20
82.126700
11
285.044000
21
82.126700
0
LINE
8
Layer 1
10
285.044000
20
82.126700
11
285.044000
21
80.151100
0
LINE
8
Layer 1
10
285.044000
20
80.151100
11
283.633000
21
80.151100
0
LINE
8
Layer 1
10
283.633000
20
80.151100
11
283.633000
21
76.764400
0
LINE
8
Layer 1
10
283.633000
20
76.764400
11
285.044000
21
76.764400
0
LINE
8
Layer 1
10
285.044000
20
76.764400
11
285.044000
21
73.377800
0
LINE
8
Layer 1
10
285.044000
20
73.377800
11
283.633000
21
73.377800
0
LINE
8
Layer 1
10
283.633000
20
73.377800
11
283.633000
21
69.991100
0
LINE
8
Layer 1
10
283.633000
20
69.991100
11
285.044000
21
69.991100
0
LINE
8
Layer 1
10
285.044000
20
69.991100
11
285.044000
21
68.015600
0
LINE
8
Layer 1
10
285.044000
20
68.015600
11
282.173000
21
68.015600
0
LINE
8
Layer 1
10
282.173000
20
68.015600
11
282.173000
21
66.604500
0
LINE
8
Layer 1
10
282.173000
20
66.604500
11
279.302000
21
66.604500
0
LINE
8
Layer 1
10
279.302000
20
66.604500
11
279.302000
21
68.015600
0
LINE
8
Layer 1
10
279.302000
20
68.015600
11
276.432000
21
68.015600
0
LINE
8
Layer 1
10
276.432000
20
68.015600
11
276.432000
21
66.604500
0
LINE
8
Layer 1
10
276.432000
20
66.604500
11
273.561000
21
66.604500
0
LINE
8
Layer 1
10
273.561000
20
66.604500
11
273.561000
21
68.015600
0
LINE
8
Layer 1
10
273.561000
20
68.015600
11
270.690000
21
68.015600
0
LINE
8
Layer 1
10
270.690000
20
68.015600
11
270.690000
21
66.604500
0
LINE
8
Layer 1
10
270.690000
20
66.604500
11
267.819000
21
66.604500
0
LINE
8
Layer 1
10
267.819000
20
66.604500
11
267.819000
21
68.015600
0
LINE
8
Layer 1
10
267.819000
20
68.015600
11
264.948000
21
68.015600
0
LINE
8
Layer 1
10
264.948000
20
68.015600
11
264.948000
21
66.604500
0
LINE
8
Layer 1
10
264.948000
20
66.604500
11
262.077000
21
66.604500
0
LINE
8
Layer 1
10
262.077000
20
66.604500
11
262.077000
21
68.015600
0
LINE
8
Layer 1
10
262.077000
20
68.015600
11
259.206000
21
68.015600
0
LINE
8
Layer 1
10
259.206000
20
68.015600
11
259.206000
21
66.604500
0
LINE
8
Layer 1
10
259.206000
20
66.604500
11
256.335000
21
66.604500
0
LINE
8
Layer 1
10
256.335000
20
66.604500
11
256.335000
21
68.015600
0
LINE
8
Layer 1
10
256.335000
20
68.015600
11
253.464000
21
68.015600
0
LINE
8
Layer 1
10
253.464000
20
68.015600
11
253.464000
21
66.604500
0
LINE
8
Layer 1
10
253.464000
20
66.604500
11
250.594000
21
66.604500
0
LINE
8
Layer 1
10
250.594000
20
66.604500
11
250.594000
21
68.015600
0
LINE
8
Layer 1
10
250.594000
20
68.015600
11
247.723000
21
68.015600
0
LINE
8
Layer 1
10
247.723000
20
68.015600
11
247.723000
21
66.604500
0
LINE
8
Layer 1
10
247.723000
20
66.604500
11
244.852000
21
66.604500
0
LINE
8
Layer 1
10
244.852000
20
66.604500
11
244.852000
21
68.015600
0
LINE
8
Layer 1
10
244.852000
20
68.015600
11
241.981000
21
68.015600
0
LINE
8
Layer 1
10
241.981000
20
68.015600
11
241.981000
21
66.604500
0
LINE
8
Layer 1
10
241.981000
20
66.604500
11
239.110000
21
66.604500
0
LINE
8
Layer 1
10
239.110000
20
66.604500
11
239.110000
21
68.015600
0
LINE
8
Layer 1
10
239.110000
20
68.015600
11
236.239000
21
68.015600
0
LINE
8
Layer 1
10
236.239000
20
68.015600
11
236.239000
21
66.604500
0
LINE
8
Layer 1
10
236.239000
20
66.604500
11
233.369000
21
66.604500
0
LINE
8
Layer 1
10
233.369000
20
66.604500
11
233.369000
21
68.015600
0
LINE
8
Layer 1
10
233.369000
20
68.015600
11
230.497000
21
68.015600
0
LINE
8
Layer 1
10
230.497000
20
68.015600
11
230.497000
21
66.604500
0
LINE
8
Layer 1
10
230.497000
20
66.604500
11
227.627000
21
66.604500
0
LINE
8
Layer 1
10
227.627000
20
66.604500
11
227.627000
21
68.015600
0
LINE
8
Layer 1
10
227.627000
20
68.015600
11
224.756000
21
68.015600
0
LINE
8
Layer 1
10
224.756000
20
68.015600
11
224.756000
21
66.604500
0
LINE
8
Layer 1
10
224.756000
20
66.604500
11
221.885000
21
66.604500
0
LINE
8
Layer 1
10
221.885000
20
66.604500
11
221.885000
21
68.015600
0
LINE
8
Layer 1
10
221.885000
20
68.015600
11
219.014000
21
68.015600
0
LINE
8
Layer 1
10
219.014000
20
68.015600
11
219.014000
21
66.604500
0
LINE
8
Layer 1
10
219.014000
20
66.604500
11
216.143000
21
66.604500
0
LINE
8
Layer 1
10
216.143000
20
66.604500
11
216.143000
21
68.015600
0
LINE
8
Layer 1
10
216.143000
20
68.015600
11
213.272000
21
68.015600
0
LINE
8
Layer 1
10
213.272000
20
68.015600
11
213.272000
21
66.604500
0
LINE
8
Layer 1
10
213.272000
20
66.604500
11
210.401000
21
66.604500
0
LINE
8
Layer 1
10
210.401000
20
66.604500
11
210.401000
21
68.015600
0
LINE
8
Layer 1
10
210.401000
20
68.015600
11
207.531000
21
68.015600
0
LINE
8
Layer 1
10
207.531000
20
68.015600
11
207.531000
21
66.604500
0
LINE
8
Layer 1
10
207.531000
20
66.604500
11
204.659000
21
66.604500
0
LINE
8
Layer 1
10
204.659000
20
66.604500
11
204.659000
21
68.015600
0
LINE
8
Layer 1
10
204.659000
20
68.015600
11
201.789000
21
68.015600
0
LINE
8
Layer 1
10
201.789000
20
68.015600
11
201.789000
21
69.991100
0
LINE
8
Layer 1
10
201.789000
20
69.991100
11
203.200000
21
69.991100
0
LINE
8
Layer 1
10
203.200000
20
69.991100
11
203.200000
21
73.377800
0
LINE
8
Layer 1
10
203.200000
20
73.377800
11
201.789000
21
73.377800
0
LINE
8
Layer 1
10
201.789000
20
73.377800
11
201.789000
21
76.764400
0
LINE
8
Layer 1
10
201.789000
20
76.764400
11
203.200000
21
76.764400
0
LINE
8
Layer 1
10
203.200000
20
76.764400
11
203.200000
21
80.151100
0
LINE
8
Layer 1
10
203.200000
20
80.151100
11
201.789000
21
80.151100
0
LINE
8
Layer 1
10
201.789000
20
80.151100
11
201.789000
21
82.126700
 0 
ENDSEC
 0 
EOF