<?xml version="1.0" encoding="UTF-8" standalone="no"?>
<svg
   xmlns:dc="http://purl.org/dc/elements/1.1/"
   xmlns:cc="http://creativecommons.org/ns#"
   xmlns:rdf="http://www.w3.org/1999/02/22-rdf-syntax-ns#"
   xmlns:svg="http://www.w3.org/2000/svg"
   xmlns="http://www.w3.org/2000/svg"
   xmlns:sodipodi="http://sodipodi.sourceforge.net/DTD/sodipodi-0.dtd"
   xmlns:inkscape="http://www.inkscape.org/namespaces/inkscape"
   width="210mm"
   height="297mm"
   viewBox="0 0 210 297"
   version="1.1"
   id="svg11037"
   inkscape:version="1.0.1 (3bc2e813f5, 2020-09-07)"
   sodipodi:docname="box 2 save.svg">
  <defs
     id="defs11031" />
  <sodipodi:namedview
     id="base"
     pagecolor="#ffffff"
     bordercolor="#666666"
     borderopacity="1.0"
     inkscape:pageopacity="0.0"
     inkscape:pageshadow="2"
     inkscape:zoom="0.12374369"
     inkscape:cx="1554.5067"
     inkscape:cy="1217.3688"
     inkscape:document-units="mm"
     inkscape:current-layer="layer1"
     inkscape:document-rotation="0"
     showgrid="false"
     inkscape:window-width="1267"
     inkscape:window-height="1030"
     inkscape:window-x="25"
     inkscape:window-y="23"
     inkscape:window-maximized="0" />
  <metadata
     id="metadata11034">
    <rdf:RDF>
      <cc:Work
         rdf:about="">
        <dc:format>image/svg+xml</dc:format>
        <dc:type
           rdf:resource="http://purl.org/dc/dcmitype/StillImage" />
        <dc:title />
      </cc:Work>
    </rdf:RDF>
  </metadata>
  <g
     inkscape:label="Layer 1"
     inkscape:groupmode="layer"
     id="layer1">
    <rect
       style="fill:#eafff7;stroke-width:1"
       id="rect11675"
       width="1195.2294"
       height="442.59833"
       x="-115.46043"
       y="-89.802559" />
    <g
       id="panel2196">
      <path
         style="fill:none;stroke:#000000;stroke-width:1"
         d="M 433 7 L 443.283 7 L 443.283 2 L 453.383 2 L 453.383 7 L 463.617 7 L 463.617 2 L 473.717 2 L 473.717 7 L 483.95 7 L 483.95 2 L 494.05 2 L 494.05 7 L 504.283 7 L 504.283 2 L 514.383 2 L 514.383 7 L 524.617 7 L 524.617 2 L 534.717 2 L 534.717 7 L 544.95 7 L 544.95 2 L 555.05 2 L 555.05 7 L 565.283 7 L 565.283 2 L 575.383 2 L 575.383 7 L 585.617 7 L 585.617 2 L 595.717 2 L 595.717 7 L 605.95 7 L 605.95 2 L 616.05 2 L 616.05 7 L 626.283 7 L 626.283 2 L 636.383 2 L 636.383 7 L 646.617 7 L 646.617 2 L 656.717 2 L 656.717 7 L 666.95 7 L 666.95 2 L 677.05 2 L 677.05 7 L 687.283 7 L 687.283 2 L 697.383 2 L 697.383 7 L 707.617 7 L 707.617 2 L 717.717 2 L 717.717 7 L 728 7"
         id="path11603" />
      <path
         style="fill:none;stroke:#000000;stroke-width:1"
         d="M 728 7 L 728 17.05 L 723 17.05 L 723 26.95 L 728 26.95 L 728 42.05 L 723 42.05 L 723 51.95 L 728 51.95 L 728 67"
         id="path11605" />
      <path
         style="fill:none;stroke:#000000;stroke-width:1"
         d="M 728 67 L 717.617 67 L 717.617 67 L 707.717 67 L 707.717 67 L 697.283 67 L 697.283 67 L 687.383 67 L 687.383 67 L 676.95 67 L 676.95 67 L 667.05 67 L 667.05 67 L 656.617 67 L 656.617 67 L 646.717 67 L 646.717 67 L 636.283 67 L 636.283 67 L 626.383 67 L 626.383 67 L 615.95 67 L 615.95 67 L 606.05 67 L 606.05 67 L 595.617 67 L 595.617 67 L 585.717 67 L 585.717 67 L 575.283 67 L 575.283 67 L 565.383 67 L 565.383 67 L 554.95 67 L 554.95 67 L 545.05 67 L 545.05 67 L 534.617 67 L 534.617 67 L 524.717 67 L 524.717 67 L 514.283 67 L 514.283 67 L 504.383 67 L 504.383 67 L 493.95 67 L 493.95 67 L 484.05 67 L 484.05 67 L 473.617 67 L 473.617 67 L 463.717 67 L 463.717 67 L 453.283 67 L 453.283 67 L 443.383 67 L 443.383 67 L 433 67"
         id="path11607" />
      <path
         style="fill:none;stroke:#000000;stroke-width:1"
         d="M 433 67 L 433 51.95 L 438 51.95 L 438 42.05 L 433 42.05 L 433 26.95 L 438 26.95 L 438 17.05 L 433 17.05 L 433 7"
         id="path11609" />
    </g>
    <g
       id="panel7886">
      <path
         style="fill:none;stroke:#000000;stroke-width:1"
         d="M 299 7 L 313.95 7 L 313.95 2 L 324.05 2 L 324.05 7 L 338.95 7 L 338.95 2 L 349.05 2 L 349.05 7 L 359 7"
         id="path11612" />
      <path
         style="fill:none;stroke:#000000;stroke-width:1"
         d="M 359 7 L 359 13.2 L 364 13.2 L 364 23.3 L 359 23.3 L 359 34.45 L 364 34.45 L 364 44.55 L 359 44.55 L 359 55.7 L 364 55.7 L 364 65.8 L 359 65.8 L 359 76.95 L 364 76.95 L 364 87.05 L 359 87.05 L 359 98.2 L 364 98.2 L 364 108.3 L 359 108.3 L 359 119.45 L 364 119.45 L 364 129.55 L 359 129.55 L 359 140.7 L 364 140.7 L 364 150.8 L 359 150.8 L 359 157"
         id="path11614" />
      <path
         style="fill:none;stroke:#000000;stroke-width:1"
         d="M 359 157 L 349.05 157 L 349.05 162 L 338.95 162 L 338.95 157 L 324.05 157 L 324.05 162 L 313.95 162 L 313.95 157 L 299 157"
         id="path11616" />
      <path
         style="fill:none;stroke:#000000;stroke-width:1"
         d="M 299 157 L 299 150.7 L 299 150.7 L 299 140.8 L 299 140.8 L 299 129.45 L 299 129.45 L 299 119.55 L 299 119.55 L 299 108.2 L 299 108.2 L 299 98.3 L 299 98.3 L 299 86.95 L 299 86.95 L 299 77.05 L 299 77.05 L 299 65.7 L 299 65.7 L 299 55.8 L 299 55.8 L 299 44.45 L 299 44.45 L 299 34.55 L 299 34.55 L 299 23.2 L 299 23.2 L 299 13.3 L 299 13.3 L 299 7"
         id="path11618" />
    </g>
    <g
       id="panel9284">
      <path
         style="fill:none;stroke:#000000;stroke-width:1"
         d="M 2 2 L 12.3833 2 L 12.3833 7 L 22.2833 7 L 22.2833 2 L 32.7167 2 L 32.7167 7 L 42.6167 7 L 42.6167 2 L 53.05 2 L 53.05 7 L 62.95 7 L 62.95 2 L 73.3833 2 L 73.3833 7 L 83.2833 7 L 83.2833 2 L 93.7167 2 L 93.7167 7 L 103.617 7 L 103.617 2 L 114.05 2 L 114.05 7 L 123.95 7 L 123.95 2 L 134.383 2 L 134.383 7 L 144.283 7 L 144.283 2 L 154.717 2 L 154.717 7 L 164.617 7 L 164.617 2 L 175.05 2 L 175.05 7 L 184.95 7 L 184.95 2 L 195.383 2 L 195.383 7 L 205.283 7 L 205.283 2 L 215.717 2 L 215.717 7 L 225.617 7 L 225.617 2 L 236.05 2 L 236.05 7 L 245.95 7 L 245.95 2 L 256.383 2 L 256.383 7 L 266.283 7 L 266.283 2 L 276.717 2 L 276.717 7 L 286.617 7 L 286.617 2 L 297 2"
         id="path11621" />
      <path
         style="fill:none;stroke:#000000;stroke-width:1"
         d="M 297 2 L 297 13.3 L 292 13.3 L 292 23.2 L 297 23.2 L 297 34.55 L 292 34.55 L 292 44.45 L 297 44.45 L 297 55.8 L 292 55.8 L 292 65.7 L 297 65.7 L 297 77.05 L 292 77.05 L 292 86.95 L 297 86.95 L 297 98.3 L 292 98.3 L 292 108.2 L 297 108.2 L 297 119.55 L 292 119.55 L 292 129.45 L 297 129.45 L 297 140.8 L 292 140.8 L 292 150.7 L 297 150.7 L 297 162"
         id="path11623" />
      <path
         style="fill:none;stroke:#000000;stroke-width:1"
         d="M 297 162 L 286.617 162 L 286.617 157 L 276.717 157 L 276.717 162 L 266.283 162 L 266.283 157 L 256.383 157 L 256.383 162 L 245.95 162 L 245.95 157 L 236.05 157 L 236.05 162 L 225.617 162 L 225.617 157 L 215.717 157 L 215.717 162 L 205.283 162 L 205.283 157 L 195.383 157 L 195.383 162 L 184.95 162 L 184.95 157 L 175.05 157 L 175.05 162 L 164.617 162 L 164.617 157 L 154.717 157 L 154.717 162 L 144.283 162 L 144.283 157 L 134.383 157 L 134.383 162 L 123.95 162 L 123.95 157 L 114.05 157 L 114.05 162 L 103.617 162 L 103.617 157 L 93.7167 157 L 93.7167 162 L 83.2833 162 L 83.2833 157 L 73.3833 157 L 73.3833 162 L 62.95 162 L 62.95 157 L 53.05 157 L 53.05 162 L 42.6167 162 L 42.6167 157 L 32.7167 157 L 32.7167 162 L 22.2833 162 L 22.2833 157 L 12.3833 157 L 12.3833 162 L 2 162"
         id="path11625" />
      <path
         style="fill:none;stroke:#000000;stroke-width:1"
         d="M 2 162 L 2 150.7 L 7 150.7 L 7 140.8 L 2 140.8 L 2 129.45 L 7 129.45 L 7 119.55 L 2 119.55 L 2 108.2 L 7 108.2 L 7 98.3 L 2 98.3 L 2 86.95 L 7 86.95 L 7 77.05 L 2 77.05 L 2 65.7 L 7 65.7 L 7 55.8 L 2 55.8 L 2 44.45 L 7 44.45 L 7 34.55 L 2 34.55 L 2 23.2 L 7 23.2 L 7 13.3 L 2 13.3 L 2 2"
         id="path11627" />
    </g>
    <g
       id="panel1062">
      <path
         style="fill:none;stroke:#000000;stroke-width:1"
         d="M 371 7 L 380.95 7 L 380.95 2 L 391.05 2 L 391.05 7 L 405.95 7 L 405.95 2 L 416.05 2 L 416.05 7 L 431 7"
         id="path11630" />
      <path
         style="fill:none;stroke:#000000;stroke-width:1"
         d="M 431 7 L 431 13.3 L 431 13.3 L 431 23.2 L 431 23.2 L 431 34.55 L 431 34.55 L 431 44.45 L 431 44.45 L 431 55.8 L 431 55.8 L 431 65.7 L 431 65.7 L 431 77.05 L 431 77.05 L 431 86.95 L 431 86.95 L 431 98.3 L 431 98.3 L 431 108.2 L 431 108.2 L 431 119.55 L 431 119.55 L 431 129.45 L 431 129.45 L 431 140.8 L 431 140.8 L 431 150.7 L 431 150.7 L 431 157"
         id="path11632" />
      <path
         style="fill:none;stroke:#000000;stroke-width:1"
         d="M 431 157 L 416.05 157 L 416.05 162 L 405.95 162 L 405.95 157 L 391.05 157 L 391.05 162 L 380.95 162 L 380.95 157 L 371 157"
         id="path11634" />
      <path
         style="fill:none;stroke:#000000;stroke-width:1"
         d="M 371 157 L 371 150.8 L 366 150.8 L 366 140.7 L 371 140.7 L 371 129.55 L 366 129.55 L 366 119.45 L 371 119.45 L 371 108.3 L 366 108.3 L 366 98.2 L 371 98.2 L 371 87.05 L 366 87.05 L 366 76.95 L 371 76.95 L 371 65.8 L 366 65.8 L 366 55.7 L 371 55.7 L 371 44.55 L 366 44.55 L 366 34.45 L 371 34.45 L 371 23.3 L 366 23.3 L 366 13.2 L 371 13.2 L 371 7"
         id="path11636" />
    </g>
    <g
       id="panel8122">
      <path
         style="fill:none;stroke:#000000;stroke-width:1"
         d="M 730 2 L 740.383 2 L 740.383 2 L 750.283 2 L 750.283 2 L 760.717 2 L 760.717 2 L 770.617 2 L 770.617 2 L 781.05 2 L 781.05 2 L 790.95 2 L 790.95 2 L 801.383 2 L 801.383 2 L 811.283 2 L 811.283 2 L 821.717 2 L 821.717 2 L 831.617 2 L 831.617 2 L 842.05 2 L 842.05 2 L 851.95 2 L 851.95 2 L 862.383 2 L 862.383 2 L 872.283 2 L 872.283 2 L 882.717 2 L 882.717 2 L 892.617 2 L 892.617 2 L 903.05 2 L 903.05 2 L 912.95 2 L 912.95 2 L 923.383 2 L 923.383 2 L 933.283 2 L 933.283 2 L 943.717 2 L 943.717 2 L 953.617 2 L 953.617 2 L 964.05 2 L 964.05 2 L 973.95 2 L 973.95 2 L 984.383 2 L 984.383 2 L 994.283 2 L 994.283 2 L 1004.72 2 L 1004.72 2 L 1014.62 2 L 1014.62 2 L 1025 2"
         id="path11639" />
      <path
         style="fill:none;stroke:#000000;stroke-width:1"
         d="M 1025 2 L 1025 17.05 L 1020 17.05 L 1020 26.95 L 1025 26.95 L 1025 42.05 L 1020 42.05 L 1020 51.95 L 1025 51.95 L 1025 62"
         id="path11641" />
      <path
         style="fill:none;stroke:#000000;stroke-width:1"
         d="M 1025 62 L 1014.72 62 L 1014.72 67 L 1004.62 67 L 1004.62 62 L 994.383 62 L 994.383 67 L 984.283 67 L 984.283 62 L 974.05 62 L 974.05 67 L 963.95 67 L 963.95 62 L 953.717 62 L 953.717 67 L 943.617 67 L 943.617 62 L 933.383 62 L 933.383 67 L 923.283 67 L 923.283 62 L 913.05 62 L 913.05 67 L 902.95 67 L 902.95 62 L 892.717 62 L 892.717 67 L 882.617 67 L 882.617 62 L 872.383 62 L 872.383 67 L 862.283 67 L 862.283 62 L 852.05 62 L 852.05 67 L 841.95 67 L 841.95 62 L 831.717 62 L 831.717 67 L 821.617 67 L 821.617 62 L 811.383 62 L 811.383 67 L 801.283 67 L 801.283 62 L 791.05 62 L 791.05 67 L 780.95 67 L 780.95 62 L 770.717 62 L 770.717 67 L 760.617 67 L 760.617 62 L 750.383 62 L 750.383 67 L 740.283 67 L 740.283 62 L 730 62"
         id="path11643" />
      <path
         style="fill:none;stroke:#000000;stroke-width:1"
         d="M 730 62 L 730 51.95 L 735 51.95 L 735 42.05 L 730 42.05 L 730 26.95 L 735 26.95 L 735 17.05 L 730 17.05 L 730 2"
         id="path11645" />
    </g>
  </g>
</svg>
