<?xml version="1.0" encoding="UTF-8" standalone="no"?>
<svg
   xmlns:dc="http://purl.org/dc/elements/1.1/"
   xmlns:cc="http://creativecommons.org/ns#"
   xmlns:rdf="http://www.w3.org/1999/02/22-rdf-syntax-ns#"
   xmlns:svg="http://www.w3.org/2000/svg"
   xmlns="http://www.w3.org/2000/svg"
   xmlns:sodipodi="http://sodipodi.sourceforge.net/DTD/sodipodi-0.dtd"
   xmlns:inkscape="http://www.inkscape.org/namespaces/inkscape"
   width="210mm"
   height="297mm"
   viewBox="0 0 210 297"
   version="1.1"
   id="svg12030"
   inkscape:version="1.0.1 (3bc2e813f5, 2020-09-07)"
   sodipodi:docname="box 2 diff.svg">
  <defs
     id="defs12024" />
  <sodipodi:namedview
     id="base"
     pagecolor="#ffffff"
     bordercolor="#666666"
     borderopacity="1.0"
     inkscape:pageopacity="0.0"
     inkscape:pageshadow="2"
     inkscape:zoom="0.04375"
     inkscape:cx="2550.6139"
     inkscape:cy="3355.29"
     inkscape:document-units="mm"
     inkscape:current-layer="layer1"
     inkscape:document-rotation="0"
     showgrid="false"
     inkscape:window-width="1267"
     inkscape:window-height="1030"
     inkscape:window-x="115"
     inkscape:window-y="54"
     inkscape:window-maximized="0" />
  <metadata
     id="metadata12027">
    <rdf:RDF>
      <cc:Work
         rdf:about="">
        <dc:format>image/svg+xml</dc:format>
        <dc:type
           rdf:resource="http://purl.org/dc/dcmitype/StillImage" />
        <dc:title />
      </cc:Work>
    </rdf:RDF>
  </metadata>
  <g
     inkscape:label="Layer 1"
     inkscape:groupmode="layer"
     id="layer1">
    <rect
       style="fill:#eafff7;stroke-width:1"
       id="rect12796"
       width="1500"
       height="500"
       x="-266.09525"
       y="985.7619" />
    <g
       id="g12693"
       transform="rotate(180,492.33333,723.04762)">
      <g
         id="panel8223">
        <path
           style="fill:none;stroke:#000000;stroke-width:1"
           d="m 433,7 h 10.283 V 2 h 10.1 v 5 h 10.234 V 2 h 10.1 V 7 H 483.95 V 2 h 10.1 v 5 h 10.233 V 2 h 10.1 v 5 h 10.234 V 2 h 10.1 V 7 H 544.95 V 2 h 10.1 v 5 h 10.233 V 2 h 10.1 v 5 h 10.234 V 2 h 10.1 V 7 H 605.95 V 2 h 10.1 v 5 h 10.233 V 2 h 10.1 v 5 h 10.234 V 2 h 10.1 V 7 H 666.95 V 2 h 10.1 v 5 h 10.233 V 2 h 10.1 v 5 h 10.234 V 2 h 10.1 V 7 H 728"
           id="path12596" />
        <path
           style="fill:none;stroke:#000000;stroke-width:1"
           d="m 728,7 v 10.05 h -5 v 9.9 h 5 v 15.1 h -5 v 9.9 h 5 V 67"
           id="path12598" />
        <path
           style="fill:none;stroke:#000000;stroke-width:1"
           d="m 728,67 h -10.383 v 0 h -9.9 v 0 h -10.434 v 0 h -9.9 v 0 H 676.95 v 0 h -9.9 v 0 h -10.433 v 0 h -9.9 v 0 h -10.434 v 0 h -9.9 v 0 H 615.95 v 0 h -9.9 v 0 h -10.433 v 0 h -9.9 v 0 h -10.434 v 0 h -9.9 v 0 H 554.95 v 0 h -9.9 v 0 h -10.433 v 0 h -9.9 v 0 h -10.434 v 0 h -9.9 v 0 H 493.95 v 0 h -9.9 v 0 h -10.433 v 0 h -9.9 v 0 h -10.434 v 0 h -9.9 v 0 H 433"
           id="path12600" />
        <path
           style="fill:none;stroke:#000000;stroke-width:1"
           d="M 433,67 V 51.95 h 5 v -9.9 h -5 v -15.1 h 5 v -9.9 h -5 V 7"
           id="path12602" />
      </g>
      <g
         id="panel1527">
        <path
           style="fill:none;stroke:#000000;stroke-width:1"
           d="m 299,7 h 14.95 V 2 h 10.1 v 5 h 14.9 V 2 h 10.1 V 7 H 359"
           id="path12605" />
        <path
           style="fill:none;stroke:#000000;stroke-width:1"
           d="m 359,7 v 6.2 h 5 v 10.1 h -5 v 11.15 h 5 v 10.1 h -5 V 55.7 h 5 v 10.1 h -5 v 11.15 h 5 v 10.1 h -5 V 98.2 h 5 v 10.1 h -5 v 11.15 h 5 v 10.1 h -5 v 11.15 h 5 v 10.1 h -5 v 6.2"
           id="path12607" />
        <path
           style="fill:none;stroke:#000000;stroke-width:1"
           d="m 359,157 h -9.95 v 5 h -10.1 v -5 h -14.9 v 5 h -10.1 v -5 H 299"
           id="path12609" />
        <path
           style="fill:none;stroke:#000000;stroke-width:1"
           d="m 299,157 v -6.3 0 -9.9 0 -11.35 0 -9.9 0 -11.35 0 -9.9 0 -11.35 0 -9.9 0 -11.35 0 -9.9 0 -11.35 0 -9.9 0 -11.35 0 -9.9 0 V 7"
           id="path12611" />
      </g>
      <g
         id="panel7752">
        <path
           style="fill:none;stroke:#000000;stroke-width:1"
           d="m 2,2 h 10.3833 v 5 h 9.9 V 2 h 10.4334 v 5 h 9.9 V 2 H 53.05 v 5 h 9.9 V 2 h 10.4333 v 5 h 9.9 V 2 h 10.4334 v 5 h 9.9003 V 2 h 10.433 v 5 h 9.9 V 2 h 10.433 v 5 h 9.9 V 2 h 10.434 v 5 h 9.9 V 2 h 10.433 v 5 h 9.9 V 2 h 10.433 v 5 h 9.9 V 2 h 10.434 v 5 h 9.9 V 2 h 10.433 v 5 h 9.9 V 2 h 10.433 v 5 h 9.9 V 2 h 10.434 v 5 h 9.9 V 2 H 297"
           id="path12614" />
        <path
           style="fill:none;stroke:#000000;stroke-width:1"
           d="m 297,2 v 11.3 h -5 v 9.9 h 5 v 11.35 h -5 v 9.9 h 5 V 55.8 h -5 v 9.9 h 5 v 11.35 h -5 v 9.9 h 5 V 98.3 h -5 v 9.9 h 5 v 11.35 h -5 v 9.9 h 5 v 11.35 h -5 v 9.9 h 5 V 162"
           id="path12616" />
        <path
           style="fill:none;stroke:#000000;stroke-width:1"
           d="m 297,162 h -10.383 v -5 h -9.9 v 5 h -10.434 v -5 h -9.9 v 5 H 245.95 v -5 h -9.9 v 5 h -10.433 v -5 h -9.9 v 5 h -10.434 v -5 h -9.9 v 5 H 184.95 v -5 h -9.9 v 5 h -10.433 v -5 h -9.9 v 5 h -10.434 v -5 h -9.9 v 5 H 123.95 v -5 h -9.9 v 5 h -10.433 v -5 h -9.9003 v 5 H 83.2833 v -5 h -9.9 v 5 H 62.95 v -5 h -9.9 v 5 H 42.6167 v -5 h -9.9 v 5 H 22.2833 v -5 h -9.9 v 5 H 2"
           id="path12618" />
        <path
           style="fill:none;stroke:#000000;stroke-width:1"
           d="m 2,162 v -11.3 h 5 v -9.9 H 2 v -11.35 h 5 v -9.9 H 2 V 108.2 H 7 V 98.3 H 2 V 86.95 h 5 v -9.9 H 2 V 65.7 H 7 V 55.8 H 2 V 44.45 h 5 v -9.9 H 2 V 23.2 H 7 V 13.3 H 2 V 2"
           id="path12620" />
      </g>
      <g
         id="panel3634">
        <path
           style="fill:none;stroke:#000000;stroke-width:1"
           d="m 371,7 h 9.95 V 2 h 10.1 v 5 h 14.9 V 2 h 10.1 V 7 H 431"
           id="path12623" />
        <path
           style="fill:none;stroke:#000000;stroke-width:1"
           d="m 431,7 v 6.3 0 9.9 0 11.35 0 9.9 0 11.35 0 9.9 0 11.35 0 9.9 0 11.35 0 9.9 0 11.35 0 9.9 0 11.35 0 9.9 0 6.3"
           id="path12625" />
        <path
           style="fill:none;stroke:#000000;stroke-width:1"
           d="m 431,157 h -14.95 v 5 h -10.1 v -5 h -14.9 v 5 h -10.1 v -5 H 371"
           id="path12627" />
        <path
           style="fill:none;stroke:#000000;stroke-width:1"
           d="m 371,157 v -6.2 h -5 v -10.1 h 5 v -11.15 h -5 v -10.1 h 5 V 108.3 h -5 V 98.2 h 5 V 87.05 h -5 v -10.1 h 5 V 65.8 h -5 V 55.7 h 5 V 44.55 h -5 v -10.1 h 5 V 23.3 h -5 V 13.2 h 5 V 7"
           id="path12629" />
      </g>
      <g
         id="panel8518">
        <path
           style="fill:none;stroke:#000000;stroke-width:1"
           d="m 730,2 h 10.383 v 0 h 9.9 v 0 h 10.434 v 0 h 9.9 v 0 h 10.433 v 0 h 9.9 v 0 h 10.433 v 0 h 9.9 v 0 h 10.434 v 0 h 9.9 v 0 h 10.433 v 0 h 9.9 v 0 h 10.433 v 0 h 9.9 v 0 h 10.434 v 0 h 9.9 v 0 h 10.433 v 0 h 9.9 v 0 h 10.433 v 0 h 9.9 v 0 h 10.434 v 0 h 9.9 v 0 h 10.433 v 0 h 9.9 v 0 h 10.433 v 0 h 9.9 v 0 h 10.437 v 0 h 9.9 V 2 H 1025"
           id="path12632" />
        <path
           style="fill:none;stroke:#000000;stroke-width:1"
           d="m 1025,2 v 15.05 h -5 v 9.9 h 5 v 15.1 h -5 v 9.9 h 5 V 62"
           id="path12634" />
        <path
           style="fill:none;stroke:#000000;stroke-width:1"
           d="m 1025,62 h -10.28 v 5 h -10.1 v -5 h -10.237 v 5 h -10.1 V 62 H 974.05 v 5 h -10.1 v -5 h -10.233 v 5 h -10.1 v -5 h -10.234 v 5 h -10.1 V 62 H 913.05 v 5 h -10.1 v -5 h -10.233 v 5 h -10.1 v -5 h -10.234 v 5 h -10.1 V 62 H 852.05 v 5 h -10.1 v -5 h -10.233 v 5 h -10.1 v -5 h -10.234 v 5 h -10.1 V 62 H 791.05 v 5 h -10.1 v -5 h -10.233 v 5 h -10.1 v -5 h -10.234 v 5 h -10.1 V 62 H 730"
           id="path12636" />
        <path
           style="fill:none;stroke:#000000;stroke-width:1"
           d="M 730,62 V 51.95 h 5 v -9.9 h -5 v -15.1 h 5 v -9.9 h -5 V 2"
           id="path12638" />
      </g>
    </g>
    <g
       id="panel4423"
       transform="translate(-66.523809,1046.2381)">
      <path
         style="fill:none;stroke:#000000;stroke-width:1"
         d="m 524,7 h 10.325 V 2 h 10.1 V 7 H 554.7 V 2 h 10.1 v 5 h 10.275 V 2 h 10.1 V 7 H 595.45 V 2 h 10.1 v 5 h 10.275 V 2 h 10.1 V 7 H 636.2 V 2 h 10.1 v 5 h 10.275 V 2 h 10.1 V 7 H 676.95 V 2 h 10.1 v 5 h 10.275 V 2 h 10.1 V 7 H 717.7 V 2 h 10.1 v 5 h 10.275 V 2 h 10.1 V 7 H 758.45 V 2 h 10.1 v 5 h 10.275 V 2 h 10.1 V 7 H 799.2 V 2 h 10.1 v 5 h 10.275 V 2 h 10.1 V 7 H 840"
         id="path12724" />
      <path
         style="fill:none;stroke:#000000;stroke-width:1"
         d="m 840,7 v 7.05 h -5 v 9.9 h 5 v 12.1 h -5 v 9.9 h 5 v 12.1 h -5 v 9.9 h 5 v 12.1 h -5 v 9.9 h 5 V 97"
         id="path12726" />
      <path
         style="fill:none;stroke:#000000;stroke-width:1"
         d="m 840,97 h -10.325 v 0 h -10.1 v 0 H 809.3 v 0 h -10.1 v 0 h -10.275 v 0 h -10.1 v 0 H 768.55 v 0 h -10.1 v 0 h -10.275 v 0 h -10.1 v 0 H 727.8 v 0 h -10.1 v 0 h -10.275 v 0 h -10.1 v 0 H 687.05 v 0 h -10.1 v 0 h -10.275 v 0 h -10.1 v 0 H 646.3 v 0 h -10.1 v 0 h -10.275 v 0 h -10.1 v 0 H 605.55 v 0 h -10.1 v 0 h -10.275 v 0 h -10.1 v 0 H 564.8 v 0 h -10.1 v 0 h -10.275 v 0 h -10.1 v 0 H 524"
         id="path12728" />
      <path
         style="fill:none;stroke:#000000;stroke-width:1"
         d="m 524,97 v -7.05 h 5 v -9.9 h -5 v -12.1 h 5 v -9.9 h -5 v -12.1 h 5 v -9.9 h -5 v -12.1 h 5 v -9.9 h -5 V 7"
         id="path12730" />
    </g>
    <g
       id="panel4142"
       transform="translate(-66.523809,1046.2381)">
      <path
         style="fill:none;stroke:#000000;stroke-width:1"
         d="m 325,7 h 6.95 V 2 h 10.1 v 5 h 11.9 V 2 h 10.1 v 5 h 11.9 V 2 h 10.1 v 5 h 11.9 V 2 h 10.1 V 7 H 415"
         id="path12733" />
      <path
         style="fill:none;stroke:#000000;stroke-width:1"
         d="m 415,7 v 6.1722 h 5 v 10.1 h -5 v 11.1222 h 5 v 10.1 h -5 v 11.1223 h 5 v 10.1 h -5 v 11.1222 h 5 v 10.1 h -5 v 11.1222 h 5 v 10.0999 h -5 v 11.122 h 5 v 10.1 h -5 v 11.123 h 5 v 10.1 h -5 v 11.122 h 5 v 10.1 h -5 V 178"
         id="path12735" />
      <path
         style="fill:none;stroke:#000000;stroke-width:1"
         d="m 415,178 h -6.95 v 5 h -10.1 v -5 h -11.9 v 5 h -10.1 v -5 h -11.9 v 5 h -10.1 v -5 h -11.9 v 5 h -10.1 v -5 H 325"
         id="path12737" />
      <path
         style="fill:none;stroke:#000000;stroke-width:1"
         d="m 325,178 v -6.172 0 -10.1 0 -11.122 0 -10.1 0 -11.123 0 -10.1 0 -11.122 0 -10.0999 0 -11.1222 0 -10.1 0 -11.1222 0 -10.1 0 -11.1223 0 -10.1 0 -11.1222 0 -10.1 0 V 7"
         id="path12739" />
    </g>
    <g
       id="panel4925"
       transform="translate(-66.523809,1046.2381)">
      <path
         style="fill:none;stroke:#000000;stroke-width:1"
         d="m 2,2 h 10.425 v 5 h 9.9 V 2 H 32.8 v 5 h 9.9 V 2 h 10.475 v 5 h 9.9 V 2 H 73.55 v 5 h 9.9 V 2 h 10.475 v 5 h 9.9 V 2 H 114.3 v 5 h 9.9 V 2 h 10.475 v 5 h 9.9 V 2 h 10.475 v 5 h 9.9 V 2 h 10.475 v 5 h 9.9 V 2 H 195.8 v 5 h 9.9 V 2 h 10.475 v 5 h 9.9 V 2 h 10.475 v 5 h 9.9 V 2 h 10.475 v 5 h 9.9 V 2 H 277.3 v 5 h 9.9 V 2 h 10.475 v 5 h 9.9 V 2 H 318"
         id="path12742" />
      <path
         style="fill:none;stroke:#000000;stroke-width:1"
         d="m 318,2 v 11.2722 h -5 v 9.9 h 5 v 11.3222 h -5 v 9.9 h 5 v 11.3223 h -5 v 9.9 h 5 v 11.3222 h -5 v 9.9 h 5 v 11.3222 h -5 v 9.8999 h 5 v 11.322 h -5 v 9.9 h 5 v 11.323 h -5 v 9.9 h 5 v 11.322 h -5 v 9.9 h 5 V 183"
         id="path12744" />
      <path
         style="fill:none;stroke:#000000;stroke-width:1"
         d="m 318,183 h -10.425 v -5 h -9.9 v 5 H 287.2 v -5 h -9.9 v 5 h -10.475 v -5 h -9.9 v 5 H 246.45 v -5 h -9.9 v 5 h -10.475 v -5 h -9.9 v 5 H 205.7 v -5 h -9.9 v 5 h -10.475 v -5 h -9.9 v 5 H 164.95 v -5 h -9.9 v 5 h -10.475 v -5 h -9.9 v 5 H 124.2 v -5 h -9.9 v 5 h -10.475 v -5 h -9.9 v 5 H 83.45 v -5 h -9.9 v 5 H 63.075 v -5 h -9.9 v 5 H 42.7 v -5 h -9.9 v 5 H 22.325 v -5 h -9.9 v 5 H 2"
         id="path12746" />
      <path
         style="fill:none;stroke:#000000;stroke-width:1"
         d="m 2,183 v -11.272 h 5 v -9.9 H 2 v -11.322 h 5 v -9.9 H 2 v -11.323 h 5 v -9.9 H 2 V 108.061 H 7 V 98.1611 H 2 V 86.8389 h 5 v -9.9 H 2 V 65.6167 h 5 v -9.9 H 2 V 44.3944 h 5 v -9.9 H 2 V 23.1722 h 5 v -9.9 H 2 V 2"
         id="path12748" />
    </g>
    <g
       id="panel4642"
       transform="translate(-66.523809,1046.2381)">
      <path
         style="fill:none;stroke:#000000;stroke-width:1"
         d="m 427,7 h 6.95 V 2 h 10.1 v 5 h 11.9 V 2 h 10.1 v 5 h 11.9 V 2 h 10.1 v 5 h 11.9 V 2 h 10.1 V 7 H 517"
         id="path12751" />
      <path
         style="fill:none;stroke:#000000;stroke-width:1"
         d="m 517,7 v 6.1722 0 10.1 0 11.1222 0 10.1 0 11.1223 0 10.1 0 11.1222 0 10.1 0 11.1222 0 10.0999 0 11.122 0 10.1 0 11.123 0 10.1 0 11.122 0 10.1 0 6.172"
         id="path12753" />
      <path
         style="fill:none;stroke:#000000;stroke-width:1"
         d="m 517,178 h -6.95 v 5 h -10.1 v -5 h -11.9 v 5 h -10.1 v -5 h -11.9 v 5 h -10.1 v -5 h -11.9 v 5 h -10.1 v -5 H 427"
         id="path12755" />
      <path
         style="fill:none;stroke:#000000;stroke-width:1"
         d="m 427,178 v -6.172 h -5 v -10.1 h 5 v -11.122 h -5 v -10.1 h 5 v -11.123 h -5 v -10.1 h 5 v -11.122 h -5 V 98.0611 h 5 V 86.9389 h -5 v -10.1 h 5 V 65.7167 h -5 v -10.1 h 5 V 44.4944 h -5 v -10.1 h 5 V 23.2722 h -5 v -10.1 h 5 V 7"
         id="path12757" />
    </g>
    <g
       id="panel3498"
       transform="translate(-66.523809,1046.2381)">
      <path
         style="fill:none;stroke:#000000;stroke-width:1"
         d="m 842,7 h 10.325 v 0 h 10.1 V 7 H 872.7 v 0 h 10.1 v 0 h 10.275 v 0 h 10.1 v 0 h 10.275 v 0 h 10.1 v 0 h 10.275 v 0 h 10.1 V 7 H 954.2 v 0 h 10.1 v 0 h 10.275 v 0 h 10.1 v 0 h 10.275 v 0 h 10.1 v 0 h 10.27 v 0 h 10.11 v 0 h 10.27 v 0 h 10.1 v 0 h 10.27 v 0 h 10.11 v 0 h 10.27 v 0 h 10.1 v 0 h 10.27 v 0 h 10.11 v 0 h 10.27 v 0 h 10.1 v 0 h 10.27 v 0 h 10.11 V 7 H 1158"
         id="path12760" />
      <path
         style="fill:none;stroke:#000000;stroke-width:1"
         d="m 1158,7 v 7.05 h -5 v 9.9 h 5 v 12.1 h -5 v 9.9 h 5 v 12.1 h -5 v 9.9 h 5 v 12.1 h -5 v 9.9 h 5 V 97"
         id="path12762" />
      <path
         style="fill:none;stroke:#000000;stroke-width:1"
         d="m 1158,97 h -10.32 v 5 h -10.11 v -5 h -10.27 v 5 h -10.1 v -5 h -10.27 v 5 h -10.11 v -5 h -10.27 v 5 h -10.1 v -5 h -10.27 v 5 h -10.11 v -5 h -10.27 v 5 h -10.1 v -5 h -10.27 v 5 h -10.11 v -5 h -10.27 v 5 h -10.1 v -5 h -10.275 v 5 h -10.1 V 97 H 964.3 v 5 h -10.1 v -5 h -10.275 v 5 h -10.1 V 97 H 923.55 v 5 h -10.1 v -5 h -10.275 v 5 h -10.1 V 97 H 882.8 v 5 h -10.1 v -5 h -10.275 v 5 h -10.1 V 97 H 842"
         id="path12764" />
      <path
         style="fill:none;stroke:#000000;stroke-width:1"
         d="m 842,97 v -7.05 h 5 v -9.9 h -5 v -12.1 h 5 v -9.9 h -5 v -12.1 h 5 v -9.9 h -5 v -12.1 h 5 v -9.9 h -5 V 7"
         id="path12766" />
    </g>
  </g>
</svg>
