999
"DXF R12 Output" (www.mydxf.blogspot.com)
 0 
SECTION
 2 
HEADER
 9 
$ACADVER
 1 
AC1009
 9 
$EXTMIN
 10 
 0 
 20 
 0 
 9 
$EXTMAX
 10 
 8.5 
 20 
 11 
 0 
ENDSEC
 0 
SECTION
 2 
ENTITIES
0
LINE
8
Layer 1
10
-35.842200
20
115.395000
11
387.491000
21
115.395000
0
LINE
8
Layer 1
10
387.491000
20
115.395000
11
387.491000
21
-25.715700
0
LINE
8
Layer 1
10
387.491000
20
-25.715700
11
-35.842200
21
-25.715700
0
LINE
8
Layer 1
10
-35.842200
20
-25.715700
11
-35.842200
21
115.395000
0
LINE
8
Layer 1
10
118.251000
20
82.126700
11
121.097000
21
82.126700
0
LINE
8
Layer 1
10
121.097000
20
82.126700
11
121.097000
21
83.537800
0
LINE
8
Layer 1
10
121.097000
20
83.537800
11
124.060000
21
83.537800
0
LINE
8
Layer 1
10
124.060000
20
83.537800
11
124.060000
21
82.126700
0
LINE
8
Layer 1
10
124.060000
20
82.126700
11
126.835000
21
82.126700
0
LINE
8
Layer 1
10
126.835000
20
82.126700
11
126.835000
21
83.537800
0
LINE
8
Layer 1
10
126.835000
20
83.537800
11
129.799000
21
83.537800
0
LINE
8
Layer 1
10
129.799000
20
83.537800
11
129.799000
21
82.126700
0
LINE
8
Layer 1
10
129.799000
20
82.126700
11
132.574000
21
82.126700
0
LINE
8
Layer 1
10
132.574000
20
82.126700
11
132.574000
21
83.537800
0
LINE
8
Layer 1
10
132.574000
20
83.537800
11
135.537000
21
83.537800
0
LINE
8
Layer 1
10
135.537000
20
83.537800
11
135.537000
21
82.126700
0
LINE
8
Layer 1
10
135.537000
20
82.126700
11
138.312000
21
82.126700
0
LINE
8
Layer 1
10
138.312000
20
82.126700
11
138.312000
21
83.537800
0
LINE
8
Layer 1
10
138.312000
20
83.537800
11
141.276000
21
83.537800
0
LINE
8
Layer 1
10
141.276000
20
83.537800
11
141.276000
21
82.126700
0
LINE
8
Layer 1
10
141.276000
20
82.126700
11
144.051000
21
82.126700
0
LINE
8
Layer 1
10
144.051000
20
82.126700
11
144.051000
21
83.537800
0
LINE
8
Layer 1
10
144.051000
20
83.537800
11
147.014000
21
83.537800
0
LINE
8
Layer 1
10
147.014000
20
83.537800
11
147.014000
21
82.126700
0
LINE
8
Layer 1
10
147.014000
20
82.126700
11
149.789000
21
82.126700
0
LINE
8
Layer 1
10
149.789000
20
82.126700
11
149.789000
21
83.537800
0
LINE
8
Layer 1
10
149.789000
20
83.537800
11
152.753000
21
83.537800
0
LINE
8
Layer 1
10
152.753000
20
83.537800
11
152.753000
21
82.126700
0
LINE
8
Layer 1
10
152.753000
20
82.126700
11
155.528000
21
82.126700
0
LINE
8
Layer 1
10
155.528000
20
82.126700
11
155.528000
21
83.537800
0
LINE
8
Layer 1
10
155.528000
20
83.537800
11
158.491000
21
83.537800
0
LINE
8
Layer 1
10
158.491000
20
83.537800
11
158.491000
21
82.126700
0
LINE
8
Layer 1
10
158.491000
20
82.126700
11
161.266000
21
82.126700
0
LINE
8
Layer 1
10
161.266000
20
82.126700
11
161.266000
21
83.537800
0
LINE
8
Layer 1
10
161.266000
20
83.537800
11
164.230000
21
83.537800
0
LINE
8
Layer 1
10
164.230000
20
83.537800
11
164.230000
21
82.126700
0
LINE
8
Layer 1
10
164.230000
20
82.126700
11
167.005000
21
82.126700
0
LINE
8
Layer 1
10
167.005000
20
82.126700
11
167.005000
21
83.537800
0
LINE
8
Layer 1
10
167.005000
20
83.537800
11
169.968000
21
83.537800
0
LINE
8
Layer 1
10
169.968000
20
83.537800
11
169.968000
21
82.126700
0
LINE
8
Layer 1
10
169.968000
20
82.126700
11
172.743000
21
82.126700
0
LINE
8
Layer 1
10
172.743000
20
82.126700
11
172.743000
21
83.537800
0
LINE
8
Layer 1
10
172.743000
20
83.537800
11
175.707000
21
83.537800
0
LINE
8
Layer 1
10
175.707000
20
83.537800
11
175.707000
21
82.126700
0
LINE
8
Layer 1
10
175.707000
20
82.126700
11
178.482000
21
82.126700
0
LINE
8
Layer 1
10
178.482000
20
82.126700
11
178.482000
21
83.537800
0
LINE
8
Layer 1
10
178.482000
20
83.537800
11
181.445000
21
83.537800
0
LINE
8
Layer 1
10
181.445000
20
83.537800
11
181.445000
21
82.126700
0
LINE
8
Layer 1
10
181.445000
20
82.126700
11
184.220000
21
82.126700
0
LINE
8
Layer 1
10
184.220000
20
82.126700
11
184.220000
21
83.537800
0
LINE
8
Layer 1
10
184.220000
20
83.537800
11
187.184000
21
83.537800
0
LINE
8
Layer 1
10
187.184000
20
83.537800
11
187.184000
21
82.126700
0
LINE
8
Layer 1
10
187.184000
20
82.126700
11
189.959000
21
82.126700
0
LINE
8
Layer 1
10
189.959000
20
82.126700
11
189.959000
21
83.537800
0
LINE
8
Layer 1
10
189.959000
20
83.537800
11
192.922000
21
83.537800
0
LINE
8
Layer 1
10
192.922000
20
83.537800
11
192.922000
21
82.126700
0
LINE
8
Layer 1
10
192.922000
20
82.126700
11
195.698000
21
82.126700
0
LINE
8
Layer 1
10
195.698000
20
82.126700
11
195.698000
21
83.537800
0
LINE
8
Layer 1
10
195.698000
20
83.537800
11
198.661000
21
83.537800
0
LINE
8
Layer 1
10
198.661000
20
83.537800
11
198.661000
21
82.126700
0
LINE
8
Layer 1
10
198.661000
20
82.126700
11
201.507000
21
82.126700
0
LINE
8
Layer 1
10
201.507000
20
82.126700
11
201.507000
21
79.704300
0
LINE
8
Layer 1
10
201.507000
20
79.704300
11
200.095000
21
79.704300
0
LINE
8
Layer 1
10
200.095000
20
79.704300
11
200.095000
21
77.023200
0
LINE
8
Layer 1
10
200.095000
20
77.023200
11
201.507000
21
77.023200
0
LINE
8
Layer 1
10
201.507000
20
77.023200
11
201.507000
21
73.119100
0
LINE
8
Layer 1
10
201.507000
20
73.119100
11
200.095000
21
73.119100
0
LINE
8
Layer 1
10
200.095000
20
73.119100
11
200.095000
21
70.438000
0
LINE
8
Layer 1
10
200.095000
20
70.438000
11
201.507000
21
70.438000
0
LINE
8
Layer 1
10
201.507000
20
70.438000
11
201.507000
21
68.015600
0
LINE
8
Layer 1
10
201.507000
20
68.015600
11
198.661000
21
68.015600
0
LINE
8
Layer 1
10
198.661000
20
68.015600
11
198.661000
21
68.015600
0
LINE
8
Layer 1
10
198.661000
20
68.015600
11
195.698000
21
68.015600
0
LINE
8
Layer 1
10
195.698000
20
68.015600
11
195.698000
21
68.015600
0
LINE
8
Layer 1
10
195.698000
20
68.015600
11
192.922000
21
68.015600
0
LINE
8
Layer 1
10
192.922000
20
68.015600
11
192.922000
21
68.015600
0
LINE
8
Layer 1
10
192.922000
20
68.015600
11
189.959000
21
68.015600
0
LINE
8
Layer 1
10
189.959000
20
68.015600
11
189.959000
21
68.015600
0
LINE
8
Layer 1
10
189.959000
20
68.015600
11
187.184000
21
68.015600
0
LINE
8
Layer 1
10
187.184000
20
68.015600
11
187.184000
21
68.015600
0
LINE
8
Layer 1
10
187.184000
20
68.015600
11
184.220000
21
68.015600
0
LINE
8
Layer 1
10
184.220000
20
68.015600
11
184.220000
21
68.015600
0
LINE
8
Layer 1
10
184.220000
20
68.015600
11
181.445000
21
68.015600
0
LINE
8
Layer 1
10
181.445000
20
68.015600
11
181.445000
21
68.015600
0
LINE
8
Layer 1
10
181.445000
20
68.015600
11
178.482000
21
68.015600
0
LINE
8
Layer 1
10
178.482000
20
68.015600
11
178.482000
21
68.015600
0
LINE
8
Layer 1
10
178.482000
20
68.015600
11
175.707000
21
68.015600
0
LINE
8
Layer 1
10
175.707000
20
68.015600
11
175.707000
21
68.015600
0
LINE
8
Layer 1
10
175.707000
20
68.015600
11
172.743000
21
68.015600
0
LINE
8
Layer 1
10
172.743000
20
68.015600
11
172.743000
21
68.015600
0
LINE
8
Layer 1
10
172.743000
20
68.015600
11
169.968000
21
68.015600
0
LINE
8
Layer 1
10
169.968000
20
68.015600
11
169.968000
21
68.015600
0
LINE
8
Layer 1
10
169.968000
20
68.015600
11
167.005000
21
68.015600
0
LINE
8
Layer 1
10
167.005000
20
68.015600
11
167.005000
21
68.015600
0
LINE
8
Layer 1
10
167.005000
20
68.015600
11
164.230000
21
68.015600
0
LINE
8
Layer 1
10
164.230000
20
68.015600
11
164.230000
21
68.015600
0
LINE
8
Layer 1
10
164.230000
20
68.015600
11
161.266000
21
68.015600
0
LINE
8
Layer 1
10
161.266000
20
68.015600
11
161.266000
21
68.015600
0
LINE
8
Layer 1
10
161.266000
20
68.015600
11
158.491000
21
68.015600
0
LINE
8
Layer 1
10
158.491000
20
68.015600
11
158.491000
21
68.015600
0
LINE
8
Layer 1
10
158.491000
20
68.015600
11
155.528000
21
68.015600
0
LINE
8
Layer 1
10
155.528000
20
68.015600
11
155.528000
21
68.015600
0
LINE
8
Layer 1
10
155.528000
20
68.015600
11
152.753000
21
68.015600
0
LINE
8
Layer 1
10
152.753000
20
68.015600
11
152.753000
21
68.015600
0
LINE
8
Layer 1
10
152.753000
20
68.015600
11
149.789000
21
68.015600
0
LINE
8
Layer 1
10
149.789000
20
68.015600
11
149.789000
21
68.015600
0
LINE
8
Layer 1
10
149.789000
20
68.015600
11
147.014000
21
68.015600
0
LINE
8
Layer 1
10
147.014000
20
68.015600
11
147.014000
21
68.015600
0
LINE
8
Layer 1
10
147.014000
20
68.015600
11
144.051000
21
68.015600
0
LINE
8
Layer 1
10
144.051000
20
68.015600
11
144.051000
21
68.015600
0
LINE
8
Layer 1
10
144.051000
20
68.015600
11
141.276000
21
68.015600
0
LINE
8
Layer 1
10
141.276000
20
68.015600
11
141.276000
21
68.015600
0
LINE
8
Layer 1
10
141.276000
20
68.015600
11
138.312000
21
68.015600
0
LINE
8
Layer 1
10
138.312000
20
68.015600
11
138.312000
21
68.015600
0
LINE
8
Layer 1
10
138.312000
20
68.015600
11
135.537000
21
68.015600
0
LINE
8
Layer 1
10
135.537000
20
68.015600
11
135.537000
21
68.015600
0
LINE
8
Layer 1
10
135.537000
20
68.015600
11
132.574000
21
68.015600
0
LINE
8
Layer 1
10
132.574000
20
68.015600
11
132.574000
21
68.015600
0
LINE
8
Layer 1
10
132.574000
20
68.015600
11
129.799000
21
68.015600
0
LINE
8
Layer 1
10
129.799000
20
68.015600
11
129.799000
21
68.015600
0
LINE
8
Layer 1
10
129.799000
20
68.015600
11
126.835000
21
68.015600
0
LINE
8
Layer 1
10
126.835000
20
68.015600
11
126.835000
21
68.015600
0
LINE
8
Layer 1
10
126.835000
20
68.015600
11
124.060000
21
68.015600
0
LINE
8
Layer 1
10
124.060000
20
68.015600
11
124.060000
21
68.015600
0
LINE
8
Layer 1
10
124.060000
20
68.015600
11
121.097000
21
68.015600
0
LINE
8
Layer 1
10
121.097000
20
68.015600
11
121.097000
21
68.015600
0
LINE
8
Layer 1
10
121.097000
20
68.015600
11
118.251000
21
68.015600
0
LINE
8
Layer 1
10
118.251000
20
68.015600
11
118.251000
21
70.438000
0
LINE
8
Layer 1
10
118.251000
20
70.438000
11
119.662000
21
70.438000
0
LINE
8
Layer 1
10
119.662000
20
70.438000
11
119.662000
21
73.119100
0
LINE
8
Layer 1
10
119.662000
20
73.119100
11
118.251000
21
73.119100
0
LINE
8
Layer 1
10
118.251000
20
73.119100
11
118.251000
21
77.023200
0
LINE
8
Layer 1
10
118.251000
20
77.023200
11
119.662000
21
77.023200
0
LINE
8
Layer 1
10
119.662000
20
77.023200
11
119.662000
21
79.704300
0
LINE
8
Layer 1
10
119.662000
20
79.704300
11
118.251000
21
79.704300
0
LINE
8
Layer 1
10
118.251000
20
79.704300
11
118.251000
21
82.126700
0
LINE
8
Layer 1
10
85.231000
20
82.126700
11
87.512200
21
82.126700
0
LINE
8
Layer 1
10
87.512200
20
82.126700
11
87.512200
21
83.537800
0
LINE
8
Layer 1
10
87.512200
20
83.537800
11
90.475600
21
83.537800
0
LINE
8
Layer 1
10
90.475600
20
83.537800
11
90.475600
21
82.126700
0
LINE
8
Layer 1
10
90.475600
20
82.126700
11
94.097600
21
82.126700
0
LINE
8
Layer 1
10
94.097600
20
82.126700
11
94.097600
21
83.537800
0
LINE
8
Layer 1
10
94.097600
20
83.537800
11
97.060900
21
83.537800
0
LINE
8
Layer 1
10
97.060900
20
83.537800
11
97.060900
21
82.126700
0
LINE
8
Layer 1
10
97.060900
20
82.126700
11
99.342100
21
82.126700
0
LINE
8
Layer 1
10
99.342100
20
82.126700
11
99.342100
21
80.256900
0
LINE
8
Layer 1
10
99.342100
20
80.256900
11
100.753000
21
80.256900
0
LINE
8
Layer 1
10
100.753000
20
80.256900
11
100.753000
21
77.293600
0
LINE
8
Layer 1
10
100.753000
20
77.293600
11
99.342100
21
77.293600
0
LINE
8
Layer 1
10
99.342100
20
77.293600
11
99.342100
21
74.083300
0
LINE
8
Layer 1
10
99.342100
20
74.083300
11
100.753000
21
74.083300
0
LINE
8
Layer 1
10
100.753000
20
74.083300
11
100.753000
21
71.120000
0
LINE
8
Layer 1
10
100.753000
20
71.120000
11
99.342100
21
71.120000
0
LINE
8
Layer 1
10
99.342100
20
71.120000
11
99.342100
21
67.909700
0
LINE
8
Layer 1
10
99.342100
20
67.909700
11
100.753000
21
67.909700
0
LINE
8
Layer 1
10
100.753000
20
67.909700
11
100.753000
21
64.946400
0
LINE
8
Layer 1
10
100.753000
20
64.946400
11
99.342100
21
64.946400
0
LINE
8
Layer 1
10
99.342100
20
64.946400
11
99.342100
21
61.736100
0
LINE
8
Layer 1
10
99.342100
20
61.736100
11
100.753000
21
61.736100
0
LINE
8
Layer 1
10
100.753000
20
61.736100
11
100.753000
21
58.772800
0
LINE
8
Layer 1
10
100.753000
20
58.772800
11
99.342100
21
58.772800
0
LINE
8
Layer 1
10
99.342100
20
58.772800
11
99.342100
21
55.562500
0
LINE
8
Layer 1
10
99.342100
20
55.562500
11
100.753000
21
55.562500
0
LINE
8
Layer 1
10
100.753000
20
55.562500
11
100.753000
21
52.599200
0
LINE
8
Layer 1
10
100.753000
20
52.599200
11
99.342100
21
52.599200
0
LINE
8
Layer 1
10
99.342100
20
52.599200
11
99.342100
21
49.388900
0
LINE
8
Layer 1
10
99.342100
20
49.388900
11
100.753000
21
49.388900
0
LINE
8
Layer 1
10
100.753000
20
49.388900
11
100.753000
21
46.425600
0
LINE
8
Layer 1
10
100.753000
20
46.425600
11
99.342100
21
46.425600
0
LINE
8
Layer 1
10
99.342100
20
46.425600
11
99.342100
21
43.215300
0
LINE
8
Layer 1
10
99.342100
20
43.215300
11
100.753000
21
43.215300
0
LINE
8
Layer 1
10
100.753000
20
43.215300
11
100.753000
21
40.252000
0
LINE
8
Layer 1
10
100.753000
20
40.252000
11
99.342100
21
40.252000
0
LINE
8
Layer 1
10
99.342100
20
40.252000
11
99.342100
21
38.382300
0
LINE
8
Layer 1
10
99.342100
20
38.382300
11
97.060900
21
38.382300
0
LINE
8
Layer 1
10
97.060900
20
38.382300
11
97.060900
21
36.971100
0
LINE
8
Layer 1
10
97.060900
20
36.971100
11
94.097600
21
36.971100
0
LINE
8
Layer 1
10
94.097600
20
36.971100
11
94.097600
21
38.382300
0
LINE
8
Layer 1
10
94.097600
20
38.382300
11
90.475600
21
38.382300
0
LINE
8
Layer 1
10
90.475600
20
38.382300
11
90.475600
21
36.971100
0
LINE
8
Layer 1
10
90.475600
20
36.971100
11
87.512200
21
36.971100
0
LINE
8
Layer 1
10
87.512200
20
36.971100
11
87.512200
21
38.382300
0
LINE
8
Layer 1
10
87.512200
20
38.382300
11
85.231000
21
38.382300
0
LINE
8
Layer 1
10
85.231000
20
38.382300
11
85.231000
21
40.252000
0
LINE
8
Layer 1
10
85.231000
20
40.252000
11
85.231000
21
40.252000
0
LINE
8
Layer 1
10
85.231000
20
40.252000
11
85.231000
21
43.215300
0
LINE
8
Layer 1
10
85.231000
20
43.215300
11
85.231000
21
43.215300
0
LINE
8
Layer 1
10
85.231000
20
43.215300
11
85.231000
21
46.425600
0
LINE
8
Layer 1
10
85.231000
20
46.425600
11
85.231000
21
46.425600
0
LINE
8
Layer 1
10
85.231000
20
46.425600
11
85.231000
21
49.388900
0
LINE
8
Layer 1
10
85.231000
20
49.388900
11
85.231000
21
49.388900
0
LINE
8
Layer 1
10
85.231000
20
49.388900
11
85.231000
21
52.599200
0
LINE
8
Layer 1
10
85.231000
20
52.599200
11
85.231000
21
52.599200
0
LINE
8
Layer 1
10
85.231000
20
52.599200
11
85.231000
21
55.562500
0
LINE
8
Layer 1
10
85.231000
20
55.562500
11
85.231000
21
55.562500
0
LINE
8
Layer 1
10
85.231000
20
55.562500
11
85.231000
21
58.772800
0
LINE
8
Layer 1
10
85.231000
20
58.772800
11
85.231000
21
58.772800
0
LINE
8
Layer 1
10
85.231000
20
58.772800
11
85.231000
21
61.736100
0
LINE
8
Layer 1
10
85.231000
20
61.736100
11
85.231000
21
61.736100
0
LINE
8
Layer 1
10
85.231000
20
61.736100
11
85.231000
21
64.946400
0
LINE
8
Layer 1
10
85.231000
20
64.946400
11
85.231000
21
64.946400
0
LINE
8
Layer 1
10
85.231000
20
64.946400
11
85.231000
21
67.909700
0
LINE
8
Layer 1
10
85.231000
20
67.909700
11
85.231000
21
67.909700
0
LINE
8
Layer 1
10
85.231000
20
67.909700
11
85.231000
21
71.120000
0
LINE
8
Layer 1
10
85.231000
20
71.120000
11
85.231000
21
71.120000
0
LINE
8
Layer 1
10
85.231000
20
71.120000
11
85.231000
21
74.083300
0
LINE
8
Layer 1
10
85.231000
20
74.083300
11
85.231000
21
74.083300
0
LINE
8
Layer 1
10
85.231000
20
74.083300
11
85.231000
21
77.293600
0
LINE
8
Layer 1
10
85.231000
20
77.293600
11
85.231000
21
77.293600
0
LINE
8
Layer 1
10
85.231000
20
77.293600
11
85.231000
21
80.256900
0
LINE
8
Layer 1
10
85.231000
20
80.256900
11
85.231000
21
80.256900
0
LINE
8
Layer 1
10
85.231000
20
80.256900
11
85.231000
21
82.126700
0
LINE
8
Layer 1
10
0.282222
20
83.537800
11
3.269060
21
83.537800
0
LINE
8
Layer 1
10
3.269060
20
83.537800
11
3.269060
21
82.126700
0
LINE
8
Layer 1
10
3.269060
20
82.126700
11
5.950170
21
82.126700
0
LINE
8
Layer 1
10
5.950170
20
82.126700
11
5.950170
21
83.537800
0
LINE
8
Layer 1
10
5.950170
20
83.537800
11
9.007590
21
83.537800
0
LINE
8
Layer 1
10
9.007590
20
83.537800
11
9.007590
21
82.126700
0
LINE
8
Layer 1
10
9.007590
20
82.126700
11
11.688700
21
82.126700
0
LINE
8
Layer 1
10
11.688700
20
82.126700
11
11.688700
21
83.537800
0
LINE
8
Layer 1
10
11.688700
20
83.537800
11
14.746100
21
83.537800
0
LINE
8
Layer 1
10
14.746100
20
83.537800
11
14.746100
21
82.126700
0
LINE
8
Layer 1
10
14.746100
20
82.126700
11
17.427200
21
82.126700
0
LINE
8
Layer 1
10
17.427200
20
82.126700
11
17.427200
21
83.537800
0
LINE
8
Layer 1
10
17.427200
20
83.537800
11
20.484600
21
83.537800
0
LINE
8
Layer 1
10
20.484600
20
83.537800
11
20.484600
21
82.126700
0
LINE
8
Layer 1
10
20.484600
20
82.126700
11
23.165700
21
82.126700
0
LINE
8
Layer 1
10
23.165700
20
82.126700
11
23.165700
21
83.537800
0
LINE
8
Layer 1
10
23.165700
20
83.537800
11
26.223100
21
83.537800
0
LINE
8
Layer 1
10
26.223100
20
83.537800
11
26.223100
21
82.126700
0
LINE
8
Layer 1
10
26.223100
20
82.126700
11
28.904300
21
82.126700
0
LINE
8
Layer 1
10
28.904300
20
82.126700
11
28.904300
21
83.537800
0
LINE
8
Layer 1
10
28.904300
20
83.537800
11
31.961600
21
83.537800
0
LINE
8
Layer 1
10
31.961600
20
83.537800
11
31.961600
21
82.126700
0
LINE
8
Layer 1
10
31.961600
20
82.126700
11
34.642800
21
82.126700
0
LINE
8
Layer 1
10
34.642800
20
82.126700
11
34.642800
21
83.537800
0
LINE
8
Layer 1
10
34.642800
20
83.537800
11
37.700100
21
83.537800
0
LINE
8
Layer 1
10
37.700100
20
83.537800
11
37.700100
21
82.126700
0
LINE
8
Layer 1
10
37.700100
20
82.126700
11
40.381200
21
82.126700
0
LINE
8
Layer 1
10
40.381200
20
82.126700
11
40.381200
21
83.537800
0
LINE
8
Layer 1
10
40.381200
20
83.537800
11
43.438800
21
83.537800
0
LINE
8
Layer 1
10
43.438800
20
83.537800
11
43.438800
21
82.126700
0
LINE
8
Layer 1
10
43.438800
20
82.126700
11
46.119900
21
82.126700
0
LINE
8
Layer 1
10
46.119900
20
82.126700
11
46.119900
21
83.537800
0
LINE
8
Layer 1
10
46.119900
20
83.537800
11
49.177200
21
83.537800
0
LINE
8
Layer 1
10
49.177200
20
83.537800
11
49.177200
21
82.126700
0
LINE
8
Layer 1
10
49.177200
20
82.126700
11
51.858300
21
82.126700
0
LINE
8
Layer 1
10
51.858300
20
82.126700
11
51.858300
21
83.537800
0
LINE
8
Layer 1
10
51.858300
20
83.537800
11
54.915600
21
83.537800
0
LINE
8
Layer 1
10
54.915600
20
83.537800
11
54.915600
21
82.126700
0
LINE
8
Layer 1
10
54.915600
20
82.126700
11
57.596700
21
82.126700
0
LINE
8
Layer 1
10
57.596700
20
82.126700
11
57.596700
21
83.537800
0
LINE
8
Layer 1
10
57.596700
20
83.537800
11
60.654300
21
83.537800
0
LINE
8
Layer 1
10
60.654300
20
83.537800
11
60.654300
21
82.126700
0
LINE
8
Layer 1
10
60.654300
20
82.126700
11
63.335400
21
82.126700
0
LINE
8
Layer 1
10
63.335400
20
82.126700
11
63.335400
21
83.537800
0
LINE
8
Layer 1
10
63.335400
20
83.537800
11
66.392700
21
83.537800
0
LINE
8
Layer 1
10
66.392700
20
83.537800
11
66.392700
21
82.126700
0
LINE
8
Layer 1
10
66.392700
20
82.126700
11
69.073800
21
82.126700
0
LINE
8
Layer 1
10
69.073800
20
82.126700
11
69.073800
21
83.537800
0
LINE
8
Layer 1
10
69.073800
20
83.537800
11
72.131100
21
83.537800
0
LINE
8
Layer 1
10
72.131100
20
83.537800
11
72.131100
21
82.126700
0
LINE
8
Layer 1
10
72.131100
20
82.126700
11
74.812300
21
82.126700
0
LINE
8
Layer 1
10
74.812300
20
82.126700
11
74.812300
21
83.537800
0
LINE
8
Layer 1
10
74.812300
20
83.537800
11
77.869800
21
83.537800
0
LINE
8
Layer 1
10
77.869800
20
83.537800
11
77.869800
21
82.126700
0
LINE
8
Layer 1
10
77.869800
20
82.126700
11
80.551000
21
82.126700
0
LINE
8
Layer 1
10
80.551000
20
82.126700
11
80.551000
21
83.537800
0
LINE
8
Layer 1
10
80.551000
20
83.537800
11
83.537700
21
83.537800
0
LINE
8
Layer 1
10
83.537700
20
83.537800
11
83.537700
21
80.115800
0
LINE
8
Layer 1
10
83.537700
20
80.115800
11
82.126600
21
80.115800
0
LINE
8
Layer 1
10
82.126600
20
80.115800
11
82.126600
21
77.434700
0
LINE
8
Layer 1
10
82.126600
20
77.434700
11
83.537700
21
77.434700
0
LINE
8
Layer 1
10
83.537700
20
77.434700
11
83.537700
21
73.942200
0
LINE
8
Layer 1
10
83.537700
20
73.942200
11
82.126600
21
73.942200
0
LINE
8
Layer 1
10
82.126600
20
73.942200
11
82.126600
21
71.261100
0
LINE
8
Layer 1
10
82.126600
20
71.261100
11
83.537700
21
71.261100
0
LINE
8
Layer 1
10
83.537700
20
71.261100
11
83.537700
21
67.768600
0
LINE
8
Layer 1
10
83.537700
20
67.768600
11
82.126600
21
67.768600
0
LINE
8
Layer 1
10
82.126600
20
67.768600
11
82.126600
21
65.087500
0
LINE
8
Layer 1
10
82.126600
20
65.087500
11
83.537700
21
65.087500
0
LINE
8
Layer 1
10
83.537700
20
65.087500
11
83.537700
21
61.595000
0
LINE
8
Layer 1
10
83.537700
20
61.595000
11
82.126600
21
61.595000
0
LINE
8
Layer 1
10
82.126600
20
61.595000
11
82.126600
21
58.913900
0
LINE
8
Layer 1
10
82.126600
20
58.913900
11
83.537700
21
58.913900
0
LINE
8
Layer 1
10
83.537700
20
58.913900
11
83.537700
21
55.421400
0
LINE
8
Layer 1
10
83.537700
20
55.421400
11
82.126600
21
55.421400
0
LINE
8
Layer 1
10
82.126600
20
55.421400
11
82.126600
21
52.740300
0
LINE
8
Layer 1
10
82.126600
20
52.740300
11
83.537700
21
52.740300
0
LINE
8
Layer 1
10
83.537700
20
52.740300
11
83.537700
21
49.247800
0
LINE
8
Layer 1
10
83.537700
20
49.247800
11
82.126600
21
49.247800
0
LINE
8
Layer 1
10
82.126600
20
49.247800
11
82.126600
21
46.566700
0
LINE
8
Layer 1
10
82.126600
20
46.566700
11
83.537700
21
46.566700
0
LINE
8
Layer 1
10
83.537700
20
46.566700
11
83.537700
21
43.074200
0
LINE
8
Layer 1
10
83.537700
20
43.074200
11
82.126600
21
43.074200
0
LINE
8
Layer 1
10
82.126600
20
43.074200
11
82.126600
21
40.393100
0
LINE
8
Layer 1
10
82.126600
20
40.393100
11
83.537700
21
40.393100
0
LINE
8
Layer 1
10
83.537700
20
40.393100
11
83.537700
21
36.971100
0
LINE
8
Layer 1
10
83.537700
20
36.971100
11
80.551000
21
36.971100
0
LINE
8
Layer 1
10
80.551000
20
36.971100
11
80.551000
21
38.382300
0
LINE
8
Layer 1
10
80.551000
20
38.382300
11
77.869800
21
38.382300
0
LINE
8
Layer 1
10
77.869800
20
38.382300
11
77.869800
21
36.971100
0
LINE
8
Layer 1
10
77.869800
20
36.971100
11
74.812300
21
36.971100
0
LINE
8
Layer 1
10
74.812300
20
36.971100
11
74.812300
21
38.382300
0
LINE
8
Layer 1
10
74.812300
20
38.382300
11
72.131100
21
38.382300
0
LINE
8
Layer 1
10
72.131100
20
38.382300
11
72.131100
21
36.971100
0
LINE
8
Layer 1
10
72.131100
20
36.971100
11
69.073800
21
36.971100
0
LINE
8
Layer 1
10
69.073800
20
36.971100
11
69.073800
21
38.382300
0
LINE
8
Layer 1
10
69.073800
20
38.382300
11
66.392700
21
38.382300
0
LINE
8
Layer 1
10
66.392700
20
38.382300
11
66.392700
21
36.971100
0
LINE
8
Layer 1
10
66.392700
20
36.971100
11
63.335400
21
36.971100
0
LINE
8
Layer 1
10
63.335400
20
36.971100
11
63.335400
21
38.382300
0
LINE
8
Layer 1
10
63.335400
20
38.382300
11
60.654300
21
38.382300
0
LINE
8
Layer 1
10
60.654300
20
38.382300
11
60.654300
21
36.971100
0
LINE
8
Layer 1
10
60.654300
20
36.971100
11
57.596700
21
36.971100
0
LINE
8
Layer 1
10
57.596700
20
36.971100
11
57.596700
21
38.382300
0
LINE
8
Layer 1
10
57.596700
20
38.382300
11
54.915600
21
38.382300
0
LINE
8
Layer 1
10
54.915600
20
38.382300
11
54.915600
21
36.971100
0
LINE
8
Layer 1
10
54.915600
20
36.971100
11
51.858300
21
36.971100
0
LINE
8
Layer 1
10
51.858300
20
36.971100
11
51.858300
21
38.382300
0
LINE
8
Layer 1
10
51.858300
20
38.382300
11
49.177200
21
38.382300
0
LINE
8
Layer 1
10
49.177200
20
38.382300
11
49.177200
21
36.971100
0
LINE
8
Layer 1
10
49.177200
20
36.971100
11
46.119900
21
36.971100
0
LINE
8
Layer 1
10
46.119900
20
36.971100
11
46.119900
21
38.382300
0
LINE
8
Layer 1
10
46.119900
20
38.382300
11
43.438800
21
38.382300
0
LINE
8
Layer 1
10
43.438800
20
38.382300
11
43.438800
21
36.971100
0
LINE
8
Layer 1
10
43.438800
20
36.971100
11
40.381200
21
36.971100
0
LINE
8
Layer 1
10
40.381200
20
36.971100
11
40.381200
21
38.382300
0
LINE
8
Layer 1
10
40.381200
20
38.382300
11
37.700100
21
38.382300
0
LINE
8
Layer 1
10
37.700100
20
38.382300
11
37.700100
21
36.971100
0
LINE
8
Layer 1
10
37.700100
20
36.971100
11
34.642800
21
36.971100
0
LINE
8
Layer 1
10
34.642800
20
36.971100
11
34.642800
21
38.382300
0
LINE
8
Layer 1
10
34.642800
20
38.382300
11
31.961600
21
38.382300
0
LINE
8
Layer 1
10
31.961600
20
38.382300
11
31.961600
21
36.971100
0
LINE
8
Layer 1
10
31.961600
20
36.971100
11
28.904300
21
36.971100
0
LINE
8
Layer 1
10
28.904300
20
36.971100
11
28.904300
21
38.382300
0
LINE
8
Layer 1
10
28.904300
20
38.382300
11
26.223100
21
38.382300
0
LINE
8
Layer 1
10
26.223100
20
38.382300
11
26.223100
21
36.971100
0
LINE
8
Layer 1
10
26.223100
20
36.971100
11
23.165700
21
36.971100
0
LINE
8
Layer 1
10
23.165700
20
36.971100
11
23.165700
21
38.382300
0
LINE
8
Layer 1
10
23.165700
20
38.382300
11
20.484600
21
38.382300
0
LINE
8
Layer 1
10
20.484600
20
38.382300
11
20.484600
21
36.971100
0
LINE
8
Layer 1
10
20.484600
20
36.971100
11
17.427200
21
36.971100
0
LINE
8
Layer 1
10
17.427200
20
36.971100
11
17.427200
21
38.382300
0
LINE
8
Layer 1
10
17.427200
20
38.382300
11
14.746100
21
38.382300
0
LINE
8
Layer 1
10
14.746100
20
38.382300
11
14.746100
21
36.971100
0
LINE
8
Layer 1
10
14.746100
20
36.971100
11
11.688700
21
36.971100
0
LINE
8
Layer 1
10
11.688700
20
36.971100
11
11.688700
21
38.382300
0
LINE
8
Layer 1
10
11.688700
20
38.382300
11
9.007590
21
38.382300
0
LINE
8
Layer 1
10
9.007590
20
38.382300
11
9.007590
21
36.971100
0
LINE
8
Layer 1
10
9.007590
20
36.971100
11
5.950170
21
36.971100
0
LINE
8
Layer 1
10
5.950170
20
36.971100
11
5.950170
21
38.382300
0
LINE
8
Layer 1
10
5.950170
20
38.382300
11
3.269060
21
38.382300
0
LINE
8
Layer 1
10
3.269060
20
38.382300
11
3.269060
21
36.971100
0
LINE
8
Layer 1
10
3.269060
20
36.971100
11
0.282222
21
36.971100
0
LINE
8
Layer 1
10
0.282222
20
36.971100
11
0.282222
21
40.393100
0
LINE
8
Layer 1
10
0.282222
20
40.393100
11
1.693330
21
40.393100
0
LINE
8
Layer 1
10
1.693330
20
40.393100
11
1.693330
21
43.074200
0
LINE
8
Layer 1
10
1.693330
20
43.074200
11
0.282222
21
43.074200
0
LINE
8
Layer 1
10
0.282222
20
43.074200
11
0.282222
21
46.566700
0
LINE
8
Layer 1
10
0.282222
20
46.566700
11
1.693330
21
46.566700
0
LINE
8
Layer 1
10
1.693330
20
46.566700
11
1.693330
21
49.247800
0
LINE
8
Layer 1
10
1.693330
20
49.247800
11
0.282222
21
49.247800
0
LINE
8
Layer 1
10
0.282222
20
49.247800
11
0.282222
21
52.740300
0
LINE
8
Layer 1
10
0.282222
20
52.740300
11
1.693330
21
52.740300
0
LINE
8
Layer 1
10
1.693330
20
52.740300
11
1.693330
21
55.421400
0
LINE
8
Layer 1
10
1.693330
20
55.421400
11
0.282222
21
55.421400
0
LINE
8
Layer 1
10
0.282222
20
55.421400
11
0.282222
21
58.913900
0
LINE
8
Layer 1
10
0.282222
20
58.913900
11
1.693330
21
58.913900
0
LINE
8
Layer 1
10
1.693330
20
58.913900
11
1.693330
21
61.595000
0
LINE
8
Layer 1
10
1.693330
20
61.595000
11
0.282222
21
61.595000
0
LINE
8
Layer 1
10
0.282222
20
61.595000
11
0.282222
21
65.087500
0
LINE
8
Layer 1
10
0.282222
20
65.087500
11
1.693330
21
65.087500
0
LINE
8
Layer 1
10
1.693330
20
65.087500
11
1.693330
21
67.768600
0
LINE
8
Layer 1
10
1.693330
20
67.768600
11
0.282222
21
67.768600
0
LINE
8
Layer 1
10
0.282222
20
67.768600
11
0.282222
21
71.261100
0
LINE
8
Layer 1
10
0.282222
20
71.261100
11
1.693330
21
71.261100
0
LINE
8
Layer 1
10
1.693330
20
71.261100
11
1.693330
21
73.942200
0
LINE
8
Layer 1
10
1.693330
20
73.942200
11
0.282222
21
73.942200
0
LINE
8
Layer 1
10
0.282222
20
73.942200
11
0.282222
21
77.434700
0
LINE
8
Layer 1
10
0.282222
20
77.434700
11
1.693330
21
77.434700
0
LINE
8
Layer 1
10
1.693330
20
77.434700
11
1.693330
21
80.115800
0
LINE
8
Layer 1
10
1.693330
20
80.115800
11
0.282222
21
80.115800
0
LINE
8
Layer 1
10
0.282222
20
80.115800
11
0.282222
21
83.537800
0
LINE
8
Layer 1
10
102.447000
20
82.126700
11
104.728000
21
82.126700
0
LINE
8
Layer 1
10
104.728000
20
82.126700
11
104.728000
21
83.537800
0
LINE
8
Layer 1
10
104.728000
20
83.537800
11
107.691000
21
83.537800
0
LINE
8
Layer 1
10
107.691000
20
83.537800
11
107.691000
21
82.126700
0
LINE
8
Layer 1
10
107.691000
20
82.126700
11
111.313000
21
82.126700
0
LINE
8
Layer 1
10
111.313000
20
82.126700
11
111.313000
21
83.537800
0
LINE
8
Layer 1
10
111.313000
20
83.537800
11
114.276000
21
83.537800
0
LINE
8
Layer 1
10
114.276000
20
83.537800
11
114.276000
21
82.126700
0
LINE
8
Layer 1
10
114.276000
20
82.126700
11
116.558000
21
82.126700
0
LINE
8
Layer 1
10
116.558000
20
82.126700
11
116.558000
21
80.256900
0
LINE
8
Layer 1
10
116.558000
20
80.256900
11
116.558000
21
80.256900
0
LINE
8
Layer 1
10
116.558000
20
80.256900
11
116.558000
21
77.293600
0
LINE
8
Layer 1
10
116.558000
20
77.293600
11
116.558000
21
77.293600
0
LINE
8
Layer 1
10
116.558000
20
77.293600
11
116.558000
21
74.083300
0
LINE
8
Layer 1
10
116.558000
20
74.083300
11
116.558000
21
74.083300
0
LINE
8
Layer 1
10
116.558000
20
74.083300
11
116.558000
21
71.120000
0
LINE
8
Layer 1
10
116.558000
20
71.120000
11
116.558000
21
71.120000
0
LINE
8
Layer 1
10
116.558000
20
71.120000
11
116.558000
21
67.909700
0
LINE
8
Layer 1
10
116.558000
20
67.909700
11
116.558000
21
67.909700
0
LINE
8
Layer 1
10
116.558000
20
67.909700
11
116.558000
21
64.946400
0
LINE
8
Layer 1
10
116.558000
20
64.946400
11
116.558000
21
64.946400
0
LINE
8
Layer 1
10
116.558000
20
64.946400
11
116.558000
21
61.736100
0
LINE
8
Layer 1
10
116.558000
20
61.736100
11
116.558000
21
61.736100
0
LINE
8
Layer 1
10
116.558000
20
61.736100
11
116.558000
21
58.772800
0
LINE
8
Layer 1
10
116.558000
20
58.772800
11
116.558000
21
58.772800
0
LINE
8
Layer 1
10
116.558000
20
58.772800
11
116.558000
21
55.562500
0
LINE
8
Layer 1
10
116.558000
20
55.562500
11
116.558000
21
55.562500
0
LINE
8
Layer 1
10
116.558000
20
55.562500
11
116.558000
21
52.599200
0
LINE
8
Layer 1
10
116.558000
20
52.599200
11
116.558000
21
52.599200
0
LINE
8
Layer 1
10
116.558000
20
52.599200
11
116.558000
21
49.388900
0
LINE
8
Layer 1
10
116.558000
20
49.388900
11
116.558000
21
49.388900
0
LINE
8
Layer 1
10
116.558000
20
49.388900
11
116.558000
21
46.425600
0
LINE
8
Layer 1
10
116.558000
20
46.425600
11
116.558000
21
46.425600
0
LINE
8
Layer 1
10
116.558000
20
46.425600
11
116.558000
21
43.215300
0
LINE
8
Layer 1
10
116.558000
20
43.215300
11
116.558000
21
43.215300
0
LINE
8
Layer 1
10
116.558000
20
43.215300
11
116.558000
21
40.252000
0
LINE
8
Layer 1
10
116.558000
20
40.252000
11
116.558000
21
40.252000
0
LINE
8
Layer 1
10
116.558000
20
40.252000
11
116.558000
21
38.382300
0
LINE
8
Layer 1
10
116.558000
20
38.382300
11
114.276000
21
38.382300
0
LINE
8
Layer 1
10
114.276000
20
38.382300
11
114.276000
21
36.971100
0
LINE
8
Layer 1
10
114.276000
20
36.971100
11
111.313000
21
36.971100
0
LINE
8
Layer 1
10
111.313000
20
36.971100
11
111.313000
21
38.382300
0
LINE
8
Layer 1
10
111.313000
20
38.382300
11
107.691000
21
38.382300
0
LINE
8
Layer 1
10
107.691000
20
38.382300
11
107.691000
21
36.971100
0
LINE
8
Layer 1
10
107.691000
20
36.971100
11
104.728000
21
36.971100
0
LINE
8
Layer 1
10
104.728000
20
36.971100
11
104.728000
21
38.382300
0
LINE
8
Layer 1
10
104.728000
20
38.382300
11
102.447000
21
38.382300
0
LINE
8
Layer 1
10
102.447000
20
38.382300
11
102.447000
21
40.252000
0
LINE
8
Layer 1
10
102.447000
20
40.252000
11
101.035000
21
40.252000
0
LINE
8
Layer 1
10
101.035000
20
40.252000
11
101.035000
21
43.215300
0
LINE
8
Layer 1
10
101.035000
20
43.215300
11
102.447000
21
43.215300
0
LINE
8
Layer 1
10
102.447000
20
43.215300
11
102.447000
21
46.425600
0
LINE
8
Layer 1
10
102.447000
20
46.425600
11
101.035000
21
46.425600
0
LINE
8
Layer 1
10
101.035000
20
46.425600
11
101.035000
21
49.388900
0
LINE
8
Layer 1
10
101.035000
20
49.388900
11
102.447000
21
49.388900
0
LINE
8
Layer 1
10
102.447000
20
49.388900
11
102.447000
21
52.599200
0
LINE
8
Layer 1
10
102.447000
20
52.599200
11
101.035000
21
52.599200
0
LINE
8
Layer 1
10
101.035000
20
52.599200
11
101.035000
21
55.562500
0
LINE
8
Layer 1
10
101.035000
20
55.562500
11
102.447000
21
55.562500
0
LINE
8
Layer 1
10
102.447000
20
55.562500
11
102.447000
21
58.772800
0
LINE
8
Layer 1
10
102.447000
20
58.772800
11
101.035000
21
58.772800
0
LINE
8
Layer 1
10
101.035000
20
58.772800
11
101.035000
21
61.736100
0
LINE
8
Layer 1
10
101.035000
20
61.736100
11
102.447000
21
61.736100
0
LINE
8
Layer 1
10
102.447000
20
61.736100
11
102.447000
21
64.946400
0
LINE
8
Layer 1
10
102.447000
20
64.946400
11
101.035000
21
64.946400
0
LINE
8
Layer 1
10
101.035000
20
64.946400
11
101.035000
21
67.909700
0
LINE
8
Layer 1
10
101.035000
20
67.909700
11
102.447000
21
67.909700
0
LINE
8
Layer 1
10
102.447000
20
67.909700
11
102.447000
21
71.120000
0
LINE
8
Layer 1
10
102.447000
20
71.120000
11
101.035000
21
71.120000
0
LINE
8
Layer 1
10
101.035000
20
71.120000
11
101.035000
21
74.083300
0
LINE
8
Layer 1
10
101.035000
20
74.083300
11
102.447000
21
74.083300
0
LINE
8
Layer 1
10
102.447000
20
74.083300
11
102.447000
21
77.293600
0
LINE
8
Layer 1
10
102.447000
20
77.293600
11
101.035000
21
77.293600
0
LINE
8
Layer 1
10
101.035000
20
77.293600
11
101.035000
21
80.256900
0
LINE
8
Layer 1
10
101.035000
20
80.256900
11
102.447000
21
80.256900
0
LINE
8
Layer 1
10
102.447000
20
80.256900
11
102.447000
21
82.126700
0
LINE
8
Layer 1
10
201.789000
20
82.126700
11
204.634000
21
82.126700
0
LINE
8
Layer 1
10
204.634000
20
82.126700
11
204.634000
21
82.126700
0
LINE
8
Layer 1
10
204.634000
20
82.126700
11
207.598000
21
82.126700
0
LINE
8
Layer 1
10
207.598000
20
82.126700
11
207.598000
21
82.126700
0
LINE
8
Layer 1
10
207.598000
20
82.126700
11
210.373000
21
82.126700
0
LINE
8
Layer 1
10
210.373000
20
82.126700
11
210.373000
21
82.126700
0
LINE
8
Layer 1
10
210.373000
20
82.126700
11
213.336000
21
82.126700
0
LINE
8
Layer 1
10
213.336000
20
82.126700
11
213.336000
21
82.126700
0
LINE
8
Layer 1
10
213.336000
20
82.126700
11
216.111000
21
82.126700
0
LINE
8
Layer 1
10
216.111000
20
82.126700
11
216.111000
21
82.126700
0
LINE
8
Layer 1
10
216.111000
20
82.126700
11
219.075000
21
82.126700
0
LINE
8
Layer 1
10
219.075000
20
82.126700
11
219.075000
21
82.126700
0
LINE
8
Layer 1
10
219.075000
20
82.126700
11
221.850000
21
82.126700
0
LINE
8
Layer 1
10
221.850000
20
82.126700
11
221.850000
21
82.126700
0
LINE
8
Layer 1
10
221.850000
20
82.126700
11
224.813000
21
82.126700
0
LINE
8
Layer 1
10
224.813000
20
82.126700
11
224.813000
21
82.126700
0
LINE
8
Layer 1
10
224.813000
20
82.126700
11
227.589000
21
82.126700
0
LINE
8
Layer 1
10
227.589000
20
82.126700
11
227.589000
21
82.126700
0
LINE
8
Layer 1
10
227.589000
20
82.126700
11
230.552000
21
82.126700
0
LINE
8
Layer 1
10
230.552000
20
82.126700
11
230.552000
21
82.126700
0
LINE
8
Layer 1
10
230.552000
20
82.126700
11
233.327000
21
82.126700
0
LINE
8
Layer 1
10
233.327000
20
82.126700
11
233.327000
21
82.126700
0
LINE
8
Layer 1
10
233.327000
20
82.126700
11
236.290000
21
82.126700
0
LINE
8
Layer 1
10
236.290000
20
82.126700
11
236.290000
21
82.126700
0
LINE
8
Layer 1
10
236.290000
20
82.126700
11
239.065000
21
82.126700
0
LINE
8
Layer 1
10
239.065000
20
82.126700
11
239.065000
21
82.126700
0
LINE
8
Layer 1
10
239.065000
20
82.126700
11
242.029000
21
82.126700
0
LINE
8
Layer 1
10
242.029000
20
82.126700
11
242.029000
21
82.126700
0
LINE
8
Layer 1
10
242.029000
20
82.126700
11
244.804000
21
82.126700
0
LINE
8
Layer 1
10
244.804000
20
82.126700
11
244.804000
21
82.126700
0
LINE
8
Layer 1
10
244.804000
20
82.126700
11
247.767000
21
82.126700
0
LINE
8
Layer 1
10
247.767000
20
82.126700
11
247.767000
21
82.126700
0
LINE
8
Layer 1
10
247.767000
20
82.126700
11
250.543000
21
82.126700
0
LINE
8
Layer 1
10
250.543000
20
82.126700
11
250.543000
21
82.126700
0
LINE
8
Layer 1
10
250.543000
20
82.126700
11
253.506000
21
82.126700
0
LINE
8
Layer 1
10
253.506000
20
82.126700
11
253.506000
21
82.126700
0
LINE
8
Layer 1
10
253.506000
20
82.126700
11
256.281000
21
82.126700
0
LINE
8
Layer 1
10
256.281000
20
82.126700
11
256.281000
21
82.126700
0
LINE
8
Layer 1
10
256.281000
20
82.126700
11
259.244000
21
82.126700
0
LINE
8
Layer 1
10
259.244000
20
82.126700
11
259.244000
21
82.126700
0
LINE
8
Layer 1
10
259.244000
20
82.126700
11
262.020000
21
82.126700
0
LINE
8
Layer 1
10
262.020000
20
82.126700
11
262.020000
21
82.126700
0
LINE
8
Layer 1
10
262.020000
20
82.126700
11
264.983000
21
82.126700
0
LINE
8
Layer 1
10
264.983000
20
82.126700
11
264.983000
21
82.126700
0
LINE
8
Layer 1
10
264.983000
20
82.126700
11
267.758000
21
82.126700
0
LINE
8
Layer 1
10
267.758000
20
82.126700
11
267.758000
21
82.126700
0
LINE
8
Layer 1
10
267.758000
20
82.126700
11
270.721000
21
82.126700
0
LINE
8
Layer 1
10
270.721000
20
82.126700
11
270.721000
21
82.126700
0
LINE
8
Layer 1
10
270.721000
20
82.126700
11
273.497000
21
82.126700
0
LINE
8
Layer 1
10
273.497000
20
82.126700
11
273.497000
21
82.126700
0
LINE
8
Layer 1
10
273.497000
20
82.126700
11
276.460000
21
82.126700
0
LINE
8
Layer 1
10
276.460000
20
82.126700
11
276.460000
21
82.126700
0
LINE
8
Layer 1
10
276.460000
20
82.126700
11
279.235000
21
82.126700
0
LINE
8
Layer 1
10
279.235000
20
82.126700
11
279.235000
21
82.126700
0
LINE
8
Layer 1
10
279.235000
20
82.126700
11
282.199000
21
82.126700
0
LINE
8
Layer 1
10
282.199000
20
82.126700
11
282.199000
21
82.126700
0
LINE
8
Layer 1
10
282.199000
20
82.126700
11
285.044000
21
82.126700
0
LINE
8
Layer 1
10
285.044000
20
82.126700
11
285.044000
21
79.704300
0
LINE
8
Layer 1
10
285.044000
20
79.704300
11
283.633000
21
79.704300
0
LINE
8
Layer 1
10
283.633000
20
79.704300
11
283.633000
21
77.023200
0
LINE
8
Layer 1
10
283.633000
20
77.023200
11
285.044000
21
77.023200
0
LINE
8
Layer 1
10
285.044000
20
77.023200
11
285.044000
21
73.119100
0
LINE
8
Layer 1
10
285.044000
20
73.119100
11
283.633000
21
73.119100
0
LINE
8
Layer 1
10
283.633000
20
73.119100
11
283.633000
21
70.438000
0
LINE
8
Layer 1
10
283.633000
20
70.438000
11
285.044000
21
70.438000
0
LINE
8
Layer 1
10
285.044000
20
70.438000
11
285.044000
21
68.015600
0
LINE
8
Layer 1
10
285.044000
20
68.015600
11
282.199000
21
68.015600
0
LINE
8
Layer 1
10
282.199000
20
68.015600
11
282.199000
21
66.604500
0
LINE
8
Layer 1
10
282.199000
20
66.604500
11
279.235000
21
66.604500
0
LINE
8
Layer 1
10
279.235000
20
66.604500
11
279.235000
21
68.015600
0
LINE
8
Layer 1
10
279.235000
20
68.015600
11
276.460000
21
68.015600
0
LINE
8
Layer 1
10
276.460000
20
68.015600
11
276.460000
21
66.604500
0
LINE
8
Layer 1
10
276.460000
20
66.604500
11
273.497000
21
66.604500
0
LINE
8
Layer 1
10
273.497000
20
66.604500
11
273.497000
21
68.015600
0
LINE
8
Layer 1
10
273.497000
20
68.015600
11
270.721000
21
68.015600
0
LINE
8
Layer 1
10
270.721000
20
68.015600
11
270.721000
21
66.604500
0
LINE
8
Layer 1
10
270.721000
20
66.604500
11
267.758000
21
66.604500
0
LINE
8
Layer 1
10
267.758000
20
66.604500
11
267.758000
21
68.015600
0
LINE
8
Layer 1
10
267.758000
20
68.015600
11
264.983000
21
68.015600
0
LINE
8
Layer 1
10
264.983000
20
68.015600
11
264.983000
21
66.604500
0
LINE
8
Layer 1
10
264.983000
20
66.604500
11
262.020000
21
66.604500
0
LINE
8
Layer 1
10
262.020000
20
66.604500
11
262.020000
21
68.015600
0
LINE
8
Layer 1
10
262.020000
20
68.015600
11
259.244000
21
68.015600
0
LINE
8
Layer 1
10
259.244000
20
68.015600
11
259.244000
21
66.604500
0
LINE
8
Layer 1
10
259.244000
20
66.604500
11
256.281000
21
66.604500
0
LINE
8
Layer 1
10
256.281000
20
66.604500
11
256.281000
21
68.015600
0
LINE
8
Layer 1
10
256.281000
20
68.015600
11
253.506000
21
68.015600
0
LINE
8
Layer 1
10
253.506000
20
68.015600
11
253.506000
21
66.604500
0
LINE
8
Layer 1
10
253.506000
20
66.604500
11
250.543000
21
66.604500
0
LINE
8
Layer 1
10
250.543000
20
66.604500
11
250.543000
21
68.015600
0
LINE
8
Layer 1
10
250.543000
20
68.015600
11
247.767000
21
68.015600
0
LINE
8
Layer 1
10
247.767000
20
68.015600
11
247.767000
21
66.604500
0
LINE
8
Layer 1
10
247.767000
20
66.604500
11
244.804000
21
66.604500
0
LINE
8
Layer 1
10
244.804000
20
66.604500
11
244.804000
21
68.015600
0
LINE
8
Layer 1
10
244.804000
20
68.015600
11
242.029000
21
68.015600
0
LINE
8
Layer 1
10
242.029000
20
68.015600
11
242.029000
21
66.604500
0
LINE
8
Layer 1
10
242.029000
20
66.604500
11
239.065000
21
66.604500
0
LINE
8
Layer 1
10
239.065000
20
66.604500
11
239.065000
21
68.015600
0
LINE
8
Layer 1
10
239.065000
20
68.015600
11
236.290000
21
68.015600
0
LINE
8
Layer 1
10
236.290000
20
68.015600
11
236.290000
21
66.604500
0
LINE
8
Layer 1
10
236.290000
20
66.604500
11
233.327000
21
66.604500
0
LINE
8
Layer 1
10
233.327000
20
66.604500
11
233.327000
21
68.015600
0
LINE
8
Layer 1
10
233.327000
20
68.015600
11
230.552000
21
68.015600
0
LINE
8
Layer 1
10
230.552000
20
68.015600
11
230.552000
21
66.604500
0
LINE
8
Layer 1
10
230.552000
20
66.604500
11
227.589000
21
66.604500
0
LINE
8
Layer 1
10
227.589000
20
66.604500
11
227.589000
21
68.015600
0
LINE
8
Layer 1
10
227.589000
20
68.015600
11
224.813000
21
68.015600
0
LINE
8
Layer 1
10
224.813000
20
68.015600
11
224.813000
21
66.604500
0
LINE
8
Layer 1
10
224.813000
20
66.604500
11
221.850000
21
66.604500
0
LINE
8
Layer 1
10
221.850000
20
66.604500
11
221.850000
21
68.015600
0
LINE
8
Layer 1
10
221.850000
20
68.015600
11
219.075000
21
68.015600
0
LINE
8
Layer 1
10
219.075000
20
68.015600
11
219.075000
21
66.604500
0
LINE
8
Layer 1
10
219.075000
20
66.604500
11
216.111000
21
66.604500
0
LINE
8
Layer 1
10
216.111000
20
66.604500
11
216.111000
21
68.015600
0
LINE
8
Layer 1
10
216.111000
20
68.015600
11
213.336000
21
68.015600
0
LINE
8
Layer 1
10
213.336000
20
68.015600
11
213.336000
21
66.604500
0
LINE
8
Layer 1
10
213.336000
20
66.604500
11
210.373000
21
66.604500
0
LINE
8
Layer 1
10
210.373000
20
66.604500
11
210.373000
21
68.015600
0
LINE
8
Layer 1
10
210.373000
20
68.015600
11
207.598000
21
68.015600
0
LINE
8
Layer 1
10
207.598000
20
68.015600
11
207.598000
21
66.604500
0
LINE
8
Layer 1
10
207.598000
20
66.604500
11
204.634000
21
66.604500
0
LINE
8
Layer 1
10
204.634000
20
66.604500
11
204.634000
21
68.015600
0
LINE
8
Layer 1
10
204.634000
20
68.015600
11
201.789000
21
68.015600
0
LINE
8
Layer 1
10
201.789000
20
68.015600
11
201.789000
21
70.438000
0
LINE
8
Layer 1
10
201.789000
20
70.438000
11
203.200000
21
70.438000
0
LINE
8
Layer 1
10
203.200000
20
70.438000
11
203.200000
21
73.119100
0
LINE
8
Layer 1
10
203.200000
20
73.119100
11
201.789000
21
73.119100
0
LINE
8
Layer 1
10
201.789000
20
73.119100
11
201.789000
21
77.023200
0
LINE
8
Layer 1
10
201.789000
20
77.023200
11
203.200000
21
77.023200
0
LINE
8
Layer 1
10
203.200000
20
77.023200
11
203.200000
21
79.704300
0
LINE
8
Layer 1
10
203.200000
20
79.704300
11
201.789000
21
79.704300
0
LINE
8
Layer 1
10
201.789000
20
79.704300
11
201.789000
21
82.126700
0
LINE
8
Layer 1
10
109.784000
20
82.126700
11
112.838000
21
82.126700
0
LINE
8
Layer 1
10
112.838000
20
82.126700
11
112.838000
21
83.537800
0
LINE
8
Layer 1
10
112.838000
20
83.537800
11
115.802000
21
83.537800
0
LINE
8
Layer 1
10
115.802000
20
83.537800
11
115.802000
21
82.126700
0
LINE
8
Layer 1
10
115.802000
20
82.126700
11
118.785000
21
82.126700
0
LINE
8
Layer 1
10
118.785000
20
82.126700
11
118.785000
21
83.537800
0
LINE
8
Layer 1
10
118.785000
20
83.537800
11
121.749000
21
83.537800
0
LINE
8
Layer 1
10
121.749000
20
83.537800
11
121.749000
21
82.126700
0
LINE
8
Layer 1
10
121.749000
20
82.126700
11
124.732000
21
82.126700
0
LINE
8
Layer 1
10
124.732000
20
82.126700
11
124.732000
21
83.537800
0
LINE
8
Layer 1
10
124.732000
20
83.537800
11
127.695000
21
83.537800
0
LINE
8
Layer 1
10
127.695000
20
83.537800
11
127.695000
21
82.126700
0
LINE
8
Layer 1
10
127.695000
20
82.126700
11
130.679000
21
82.126700
0
LINE
8
Layer 1
10
130.679000
20
82.126700
11
130.679000
21
83.537800
0
LINE
8
Layer 1
10
130.679000
20
83.537800
11
133.642000
21
83.537800
0
LINE
8
Layer 1
10
133.642000
20
83.537800
11
133.642000
21
82.126700
0
LINE
8
Layer 1
10
133.642000
20
82.126700
11
136.626000
21
82.126700
0
LINE
8
Layer 1
10
136.626000
20
82.126700
11
136.626000
21
83.537800
0
LINE
8
Layer 1
10
136.626000
20
83.537800
11
139.589000
21
83.537800
0
LINE
8
Layer 1
10
139.589000
20
83.537800
11
139.589000
21
82.126700
0
LINE
8
Layer 1
10
139.589000
20
82.126700
11
142.573000
21
82.126700
0
LINE
8
Layer 1
10
142.573000
20
82.126700
11
142.573000
21
83.537800
0
LINE
8
Layer 1
10
142.573000
20
83.537800
11
145.536000
21
83.537800
0
LINE
8
Layer 1
10
145.536000
20
83.537800
11
145.536000
21
82.126700
0
LINE
8
Layer 1
10
145.536000
20
82.126700
11
148.519000
21
82.126700
0
LINE
8
Layer 1
10
148.519000
20
82.126700
11
148.519000
21
83.537800
0
LINE
8
Layer 1
10
148.519000
20
83.537800
11
151.483000
21
83.537800
0
LINE
8
Layer 1
10
151.483000
20
83.537800
11
151.483000
21
82.126700
0
LINE
8
Layer 1
10
151.483000
20
82.126700
11
154.466000
21
82.126700
0
LINE
8
Layer 1
10
154.466000
20
82.126700
11
154.466000
21
83.537800
0
LINE
8
Layer 1
10
154.466000
20
83.537800
11
157.429000
21
83.537800
0
LINE
8
Layer 1
10
157.429000
20
83.537800
11
157.429000
21
82.126700
0
LINE
8
Layer 1
10
157.429000
20
82.126700
11
160.413000
21
82.126700
0
LINE
8
Layer 1
10
160.413000
20
82.126700
11
160.413000
21
83.537800
0
LINE
8
Layer 1
10
160.413000
20
83.537800
11
163.376000
21
83.537800
0
LINE
8
Layer 1
10
163.376000
20
83.537800
11
163.376000
21
82.126700
0
LINE
8
Layer 1
10
163.376000
20
82.126700
11
166.360000
21
82.126700
0
LINE
8
Layer 1
10
166.360000
20
82.126700
11
166.360000
21
83.537800
0
LINE
8
Layer 1
10
166.360000
20
83.537800
11
169.323000
21
83.537800
0
LINE
8
Layer 1
10
169.323000
20
83.537800
11
169.323000
21
82.126700
0
LINE
8
Layer 1
10
169.323000
20
82.126700
11
172.307000
21
82.126700
0
LINE
8
Layer 1
10
172.307000
20
82.126700
11
172.307000
21
83.537800
0
LINE
8
Layer 1
10
172.307000
20
83.537800
11
175.270000
21
83.537800
0
LINE
8
Layer 1
10
175.270000
20
83.537800
11
175.270000
21
82.126700
0
LINE
8
Layer 1
10
175.270000
20
82.126700
11
178.253000
21
82.126700
0
LINE
8
Layer 1
10
178.253000
20
82.126700
11
178.253000
21
83.537800
0
LINE
8
Layer 1
10
178.253000
20
83.537800
11
181.217000
21
83.537800
0
LINE
8
Layer 1
10
181.217000
20
83.537800
11
181.217000
21
82.126700
0
LINE
8
Layer 1
10
181.217000
20
82.126700
11
184.200000
21
82.126700
0
LINE
8
Layer 1
10
184.200000
20
82.126700
11
184.200000
21
83.537800
0
LINE
8
Layer 1
10
184.200000
20
83.537800
11
187.164000
21
83.537800
0
LINE
8
Layer 1
10
187.164000
20
83.537800
11
187.164000
21
82.126700
0
LINE
8
Layer 1
10
187.164000
20
82.126700
11
190.218000
21
82.126700
0
LINE
8
Layer 1
10
190.218000
20
82.126700
11
190.218000
21
80.645000
0
LINE
8
Layer 1
10
190.218000
20
80.645000
11
188.807000
21
80.645000
0
LINE
8
Layer 1
10
188.807000
20
80.645000
11
188.807000
21
77.963900
0
LINE
8
Layer 1
10
188.807000
20
77.963900
11
190.218000
21
77.963900
0
LINE
8
Layer 1
10
190.218000
20
77.963900
11
190.218000
21
75.000600
0
LINE
8
Layer 1
10
190.218000
20
75.000600
11
188.807000
21
75.000600
0
LINE
8
Layer 1
10
188.807000
20
75.000600
11
188.807000
21
72.319500
0
LINE
8
Layer 1
10
188.807000
20
72.319500
11
190.218000
21
72.319500
0
LINE
8
Layer 1
10
190.218000
20
72.319500
11
190.218000
21
69.426700
0
LINE
8
Layer 1
10
190.218000
20
69.426700
11
187.023000
21
69.426700
0
LINE
8
Layer 1
10
187.023000
20
69.426700
11
187.023000
21
69.426700
0
LINE
8
Layer 1
10
187.023000
20
69.426700
11
184.341000
21
69.426700
0
LINE
8
Layer 1
10
184.341000
20
69.426700
11
184.341000
21
69.426700
0
LINE
8
Layer 1
10
184.341000
20
69.426700
11
181.076000
21
69.426700
0
LINE
8
Layer 1
10
181.076000
20
69.426700
11
181.076000
21
69.426700
0
LINE
8
Layer 1
10
181.076000
20
69.426700
11
178.395000
21
69.426700
0
LINE
8
Layer 1
10
178.395000
20
69.426700
11
178.395000
21
69.426700
0
LINE
8
Layer 1
10
178.395000
20
69.426700
11
175.129000
21
69.426700
0
LINE
8
Layer 1
10
175.129000
20
69.426700
11
175.129000
21
69.426700
0
LINE
8
Layer 1
10
175.129000
20
69.426700
11
172.448000
21
69.426700
0
LINE
8
Layer 1
10
172.448000
20
69.426700
11
172.448000
21
69.426700
0
LINE
8
Layer 1
10
172.448000
20
69.426700
11
169.182000
21
69.426700
0
LINE
8
Layer 1
10
169.182000
20
69.426700
11
169.182000
21
69.426700
0
LINE
8
Layer 1
10
169.182000
20
69.426700
11
166.501000
21
69.426700
0
LINE
8
Layer 1
10
166.501000
20
69.426700
11
166.501000
21
69.426700
0
LINE
8
Layer 1
10
166.501000
20
69.426700
11
163.235000
21
69.426700
0
LINE
8
Layer 1
10
163.235000
20
69.426700
11
163.235000
21
69.426700
0
LINE
8
Layer 1
10
163.235000
20
69.426700
11
160.554000
21
69.426700
0
LINE
8
Layer 1
10
160.554000
20
69.426700
11
160.554000
21
69.426700
0
LINE
8
Layer 1
10
160.554000
20
69.426700
11
157.288000
21
69.426700
0
LINE
8
Layer 1
10
157.288000
20
69.426700
11
157.288000
21
69.426700
0
LINE
8
Layer 1
10
157.288000
20
69.426700
11
154.607000
21
69.426700
0
LINE
8
Layer 1
10
154.607000
20
69.426700
11
154.607000
21
69.426700
0
LINE
8
Layer 1
10
154.607000
20
69.426700
11
151.342000
21
69.426700
0
LINE
8
Layer 1
10
151.342000
20
69.426700
11
151.342000
21
69.426700
0
LINE
8
Layer 1
10
151.342000
20
69.426700
11
148.660000
21
69.426700
0
LINE
8
Layer 1
10
148.660000
20
69.426700
11
148.660000
21
69.426700
0
LINE
8
Layer 1
10
148.660000
20
69.426700
11
145.395000
21
69.426700
0
LINE
8
Layer 1
10
145.395000
20
69.426700
11
145.395000
21
69.426700
0
LINE
8
Layer 1
10
145.395000
20
69.426700
11
142.714000
21
69.426700
0
LINE
8
Layer 1
10
142.714000
20
69.426700
11
142.714000
21
69.426700
0
LINE
8
Layer 1
10
142.714000
20
69.426700
11
139.448000
21
69.426700
0
LINE
8
Layer 1
10
139.448000
20
69.426700
11
139.448000
21
69.426700
0
LINE
8
Layer 1
10
139.448000
20
69.426700
11
136.767000
21
69.426700
0
LINE
8
Layer 1
10
136.767000
20
69.426700
11
136.767000
21
69.426700
0
LINE
8
Layer 1
10
136.767000
20
69.426700
11
133.501000
21
69.426700
0
LINE
8
Layer 1
10
133.501000
20
69.426700
11
133.501000
21
69.426700
0
LINE
8
Layer 1
10
133.501000
20
69.426700
11
130.820000
21
69.426700
0
LINE
8
Layer 1
10
130.820000
20
69.426700
11
130.820000
21
69.426700
0
LINE
8
Layer 1
10
130.820000
20
69.426700
11
127.554000
21
69.426700
0
LINE
8
Layer 1
10
127.554000
20
69.426700
11
127.554000
21
69.426700
0
LINE
8
Layer 1
10
127.554000
20
69.426700
11
124.873000
21
69.426700
0
LINE
8
Layer 1
10
124.873000
20
69.426700
11
124.873000
21
69.426700
0
LINE
8
Layer 1
10
124.873000
20
69.426700
11
121.607000
21
69.426700
0
LINE
8
Layer 1
10
121.607000
20
69.426700
11
121.607000
21
69.426700
0
LINE
8
Layer 1
10
121.607000
20
69.426700
11
118.926000
21
69.426700
0
LINE
8
Layer 1
10
118.926000
20
69.426700
11
118.926000
21
69.426700
0
LINE
8
Layer 1
10
118.926000
20
69.426700
11
115.661000
21
69.426700
0
LINE
8
Layer 1
10
115.661000
20
69.426700
11
115.661000
21
69.426700
0
LINE
8
Layer 1
10
115.661000
20
69.426700
11
112.979000
21
69.426700
0
LINE
8
Layer 1
10
112.979000
20
69.426700
11
112.979000
21
69.426700
0
LINE
8
Layer 1
10
112.979000
20
69.426700
11
109.784000
21
69.426700
0
LINE
8
Layer 1
10
109.784000
20
69.426700
11
109.784000
21
72.319500
0
LINE
8
Layer 1
10
109.784000
20
72.319500
11
111.195000
21
72.319500
0
LINE
8
Layer 1
10
111.195000
20
72.319500
11
111.195000
21
75.000600
0
LINE
8
Layer 1
10
111.195000
20
75.000600
11
109.784000
21
75.000600
0
LINE
8
Layer 1
10
109.784000
20
75.000600
11
109.784000
21
77.963900
0
LINE
8
Layer 1
10
109.784000
20
77.963900
11
111.195000
21
77.963900
0
LINE
8
Layer 1
10
111.195000
20
77.963900
11
111.195000
21
80.645000
0
LINE
8
Layer 1
10
111.195000
20
80.645000
11
109.784000
21
80.645000
0
LINE
8
Layer 1
10
109.784000
20
80.645000
11
109.784000
21
82.126700
0
LINE
8
Layer 1
10
80.997700
20
82.126700
11
83.749400
21
82.126700
0
LINE
8
Layer 1
10
83.749400
20
82.126700
11
83.749400
21
83.537800
0
LINE
8
Layer 1
10
83.749400
20
83.537800
11
86.712700
21
83.537800
0
LINE
8
Layer 1
10
86.712700
20
83.537800
11
86.712700
21
82.126700
0
LINE
8
Layer 1
10
86.712700
20
82.126700
11
89.393800
21
82.126700
0
LINE
8
Layer 1
10
89.393800
20
82.126700
11
89.393800
21
83.537800
0
LINE
8
Layer 1
10
89.393800
20
83.537800
11
92.357100
21
83.537800
0
LINE
8
Layer 1
10
92.357100
20
83.537800
11
92.357100
21
82.126700
0
LINE
8
Layer 1
10
92.357100
20
82.126700
11
93.697700
21
82.126700
0
LINE
8
Layer 1
10
93.697700
20
82.126700
11
93.697700
21
80.609700
0
LINE
8
Layer 1
10
93.697700
20
80.609700
11
95.108800
21
80.609700
0
LINE
8
Layer 1
10
95.108800
20
80.609700
11
95.108800
21
77.646400
0
LINE
8
Layer 1
10
95.108800
20
77.646400
11
93.697700
21
77.646400
0
LINE
8
Layer 1
10
93.697700
20
77.646400
11
93.697700
21
74.788900
0
LINE
8
Layer 1
10
93.697700
20
74.788900
11
95.108800
21
74.788900
0
LINE
8
Layer 1
10
95.108800
20
74.788900
11
95.108800
21
71.825600
0
LINE
8
Layer 1
10
95.108800
20
71.825600
11
93.697700
21
71.825600
0
LINE
8
Layer 1
10
93.697700
20
71.825600
11
93.697700
21
68.968100
0
LINE
8
Layer 1
10
93.697700
20
68.968100
11
95.108800
21
68.968100
0
LINE
8
Layer 1
10
95.108800
20
68.968100
11
95.108800
21
66.004700
0
LINE
8
Layer 1
10
95.108800
20
66.004700
11
93.697700
21
66.004700
0
LINE
8
Layer 1
10
93.697700
20
66.004700
11
93.697700
21
63.147200
0
LINE
8
Layer 1
10
93.697700
20
63.147200
11
95.108800
21
63.147200
0
LINE
8
Layer 1
10
95.108800
20
63.147200
11
95.108800
21
60.183900
0
LINE
8
Layer 1
10
95.108800
20
60.183900
11
93.697700
21
60.183900
0
LINE
8
Layer 1
10
93.697700
20
60.183900
11
93.697700
21
57.326400
0
LINE
8
Layer 1
10
93.697700
20
57.326400
11
95.108800
21
57.326400
0
LINE
8
Layer 1
10
95.108800
20
57.326400
11
95.108800
21
54.363100
0
LINE
8
Layer 1
10
95.108800
20
54.363100
11
93.697700
21
54.363100
0
LINE
8
Layer 1
10
93.697700
20
54.363100
11
93.697700
21
51.505600
0
LINE
8
Layer 1
10
93.697700
20
51.505600
11
95.108800
21
51.505600
0
LINE
8
Layer 1
10
95.108800
20
51.505600
11
95.108800
21
48.542200
0
LINE
8
Layer 1
10
95.108800
20
48.542200
11
93.697700
21
48.542200
0
LINE
8
Layer 1
10
93.697700
20
48.542200
11
93.697700
21
45.684800
0
LINE
8
Layer 1
10
93.697700
20
45.684800
11
95.108800
21
45.684800
0
LINE
8
Layer 1
10
95.108800
20
45.684800
11
95.108800
21
42.721400
0
LINE
8
Layer 1
10
95.108800
20
42.721400
11
93.697700
21
42.721400
0
LINE
8
Layer 1
10
93.697700
20
42.721400
11
93.697700
21
41.204500
0
LINE
8
Layer 1
10
93.697700
20
41.204500
11
92.357100
21
41.204500
0
LINE
8
Layer 1
10
92.357100
20
41.204500
11
92.357100
21
39.793400
0
LINE
8
Layer 1
10
92.357100
20
39.793400
11
89.393800
21
39.793400
0
LINE
8
Layer 1
10
89.393800
20
39.793400
11
89.393800
21
41.204500
0
LINE
8
Layer 1
10
89.393800
20
41.204500
11
86.712700
21
41.204500
0
LINE
8
Layer 1
10
86.712700
20
41.204500
11
86.712700
21
39.793400
0
LINE
8
Layer 1
10
86.712700
20
39.793400
11
83.749400
21
39.793400
0
LINE
8
Layer 1
10
83.749400
20
39.793400
11
83.749400
21
41.204500
0
LINE
8
Layer 1
10
83.749400
20
41.204500
11
80.997700
21
41.204500
0
LINE
8
Layer 1
10
80.997700
20
41.204500
11
80.997700
21
42.862500
0
LINE
8
Layer 1
10
80.997700
20
42.862500
11
80.997700
21
42.862500
0
LINE
8
Layer 1
10
80.997700
20
42.862500
11
80.997700
21
45.543600
0
LINE
8
Layer 1
10
80.997700
20
45.543600
11
80.997700
21
45.543600
0
LINE
8
Layer 1
10
80.997700
20
45.543600
11
80.997700
21
48.683400
0
LINE
8
Layer 1
10
80.997700
20
48.683400
11
80.997700
21
48.683400
0
LINE
8
Layer 1
10
80.997700
20
48.683400
11
80.997700
21
51.364500
0
LINE
8
Layer 1
10
80.997700
20
51.364500
11
80.997700
21
51.364500
0
LINE
8
Layer 1
10
80.997700
20
51.364500
11
80.997700
21
54.504200
0
LINE
8
Layer 1
10
80.997700
20
54.504200
11
80.997700
21
54.504200
0
LINE
8
Layer 1
10
80.997700
20
54.504200
11
80.997700
21
57.185300
0
LINE
8
Layer 1
10
80.997700
20
57.185300
11
80.997700
21
57.185300
0
LINE
8
Layer 1
10
80.997700
20
57.185300
11
80.997700
21
60.325000
0
LINE
8
Layer 1
10
80.997700
20
60.325000
11
80.997700
21
60.325000
0
LINE
8
Layer 1
10
80.997700
20
60.325000
11
80.997700
21
63.006100
0
LINE
8
Layer 1
10
80.997700
20
63.006100
11
80.997700
21
63.006100
0
LINE
8
Layer 1
10
80.997700
20
63.006100
11
80.997700
21
66.145800
0
LINE
8
Layer 1
10
80.997700
20
66.145800
11
80.997700
21
66.145800
0
LINE
8
Layer 1
10
80.997700
20
66.145800
11
80.997700
21
68.827000
0
LINE
8
Layer 1
10
80.997700
20
68.827000
11
80.997700
21
68.827000
0
LINE
8
Layer 1
10
80.997700
20
68.827000
11
80.997700
21
71.966700
0
LINE
8
Layer 1
10
80.997700
20
71.966700
11
80.997700
21
71.966700
0
LINE
8
Layer 1
10
80.997700
20
71.966700
11
80.997700
21
74.647800
0
LINE
8
Layer 1
10
80.997700
20
74.647800
11
80.997700
21
74.647800
0
LINE
8
Layer 1
10
80.997700
20
74.647800
11
80.997700
21
77.787500
0
LINE
8
Layer 1
10
80.997700
20
77.787500
11
80.997700
21
77.787500
0
LINE
8
Layer 1
10
80.997700
20
77.787500
11
80.997700
21
80.468600
0
LINE
8
Layer 1
10
80.997700
20
80.468600
11
80.997700
21
80.468600
0
LINE
8
Layer 1
10
80.997700
20
80.468600
11
80.997700
21
82.126700
0
LINE
8
Layer 1
10
0.282222
20
83.537800
11
3.477370
21
83.537800
0
LINE
8
Layer 1
10
3.477370
20
83.537800
11
3.477370
21
82.126700
0
LINE
8
Layer 1
10
3.477370
20
82.126700
11
6.158480
21
82.126700
0
LINE
8
Layer 1
10
6.158480
20
82.126700
11
6.158480
21
83.537800
0
LINE
8
Layer 1
10
6.158480
20
83.537800
11
9.424210
21
83.537800
0
LINE
8
Layer 1
10
9.424210
20
83.537800
11
9.424210
21
82.126700
0
LINE
8
Layer 1
10
9.424210
20
82.126700
11
12.105300
21
82.126700
0
LINE
8
Layer 1
10
12.105300
20
82.126700
11
12.105300
21
83.537800
0
LINE
8
Layer 1
10
12.105300
20
83.537800
11
15.371000
21
83.537800
0
LINE
8
Layer 1
10
15.371000
20
83.537800
11
15.371000
21
82.126700
0
LINE
8
Layer 1
10
15.371000
20
82.126700
11
18.052100
21
82.126700
0
LINE
8
Layer 1
10
18.052100
20
82.126700
11
18.052100
21
83.537800
0
LINE
8
Layer 1
10
18.052100
20
83.537800
11
21.317800
21
83.537800
0
LINE
8
Layer 1
10
21.317800
20
83.537800
11
21.317800
21
82.126700
0
LINE
8
Layer 1
10
21.317800
20
82.126700
11
23.998900
21
82.126700
0
LINE
8
Layer 1
10
23.998900
20
82.126700
11
23.998900
21
83.537800
0
LINE
8
Layer 1
10
23.998900
20
83.537800
11
27.264600
21
83.537800
0
LINE
8
Layer 1
10
27.264600
20
83.537800
11
27.264600
21
82.126700
0
LINE
8
Layer 1
10
27.264600
20
82.126700
11
29.945700
21
82.126700
0
LINE
8
Layer 1
10
29.945700
20
82.126700
11
29.945700
21
83.537800
0
LINE
8
Layer 1
10
29.945700
20
83.537800
11
33.211600
21
83.537800
0
LINE
8
Layer 1
10
33.211600
20
83.537800
11
33.211600
21
82.126700
0
LINE
8
Layer 1
10
33.211600
20
82.126700
11
35.892700
21
82.126700
0
LINE
8
Layer 1
10
35.892700
20
82.126700
11
35.892700
21
83.537800
0
LINE
8
Layer 1
10
35.892700
20
83.537800
11
39.158300
21
83.537800
0
LINE
8
Layer 1
10
39.158300
20
83.537800
11
39.158300
21
82.126700
0
LINE
8
Layer 1
10
39.158300
20
82.126700
11
41.839400
21
82.126700
0
LINE
8
Layer 1
10
41.839400
20
82.126700
11
41.839400
21
83.537800
0
LINE
8
Layer 1
10
41.839400
20
83.537800
11
45.105000
21
83.537800
0
LINE
8
Layer 1
10
45.105000
20
83.537800
11
45.105000
21
82.126700
0
LINE
8
Layer 1
10
45.105000
20
82.126700
11
47.786100
21
82.126700
0
LINE
8
Layer 1
10
47.786100
20
82.126700
11
47.786100
21
83.537800
0
LINE
8
Layer 1
10
47.786100
20
83.537800
11
51.052000
21
83.537800
0
LINE
8
Layer 1
10
51.052000
20
83.537800
11
51.052000
21
82.126700
0
LINE
8
Layer 1
10
51.052000
20
82.126700
11
53.733100
21
82.126700
0
LINE
8
Layer 1
10
53.733100
20
82.126700
11
53.733100
21
83.537800
0
LINE
8
Layer 1
10
53.733100
20
83.537800
11
56.998700
21
83.537800
0
LINE
8
Layer 1
10
56.998700
20
83.537800
11
56.998700
21
82.126700
0
LINE
8
Layer 1
10
56.998700
20
82.126700
11
59.679800
21
82.126700
0
LINE
8
Layer 1
10
59.679800
20
82.126700
11
59.679800
21
83.537800
0
LINE
8
Layer 1
10
59.679800
20
83.537800
11
62.945700
21
83.537800
0
LINE
8
Layer 1
10
62.945700
20
83.537800
11
62.945700
21
82.126700
0
LINE
8
Layer 1
10
62.945700
20
82.126700
11
65.626800
21
82.126700
0
LINE
8
Layer 1
10
65.626800
20
82.126700
11
65.626800
21
83.537800
0
LINE
8
Layer 1
10
65.626800
20
83.537800
11
68.892400
21
83.537800
0
LINE
8
Layer 1
10
68.892400
20
83.537800
11
68.892400
21
82.126700
0
LINE
8
Layer 1
10
68.892400
20
82.126700
11
71.573500
21
82.126700
0
LINE
8
Layer 1
10
71.573500
20
82.126700
11
71.573500
21
83.537800
0
LINE
8
Layer 1
10
71.573500
20
83.537800
11
74.839300
21
83.537800
0
LINE
8
Layer 1
10
74.839300
20
83.537800
11
74.839300
21
82.126700
0
LINE
8
Layer 1
10
74.839300
20
82.126700
11
77.520500
21
82.126700
0
LINE
8
Layer 1
10
77.520500
20
82.126700
11
77.520500
21
83.537800
0
LINE
8
Layer 1
10
77.520500
20
83.537800
11
80.715500
21
83.537800
0
LINE
8
Layer 1
10
80.715500
20
83.537800
11
80.715500
21
80.468600
0
LINE
8
Layer 1
10
80.715500
20
80.468600
11
79.304400
21
80.468600
0
LINE
8
Layer 1
10
79.304400
20
80.468600
11
79.304400
21
77.787500
0
LINE
8
Layer 1
10
79.304400
20
77.787500
11
80.715500
21
77.787500
0
LINE
8
Layer 1
10
80.715500
20
77.787500
11
80.715500
21
74.647800
0
LINE
8
Layer 1
10
80.715500
20
74.647800
11
79.304400
21
74.647800
0
LINE
8
Layer 1
10
79.304400
20
74.647800
11
79.304400
21
71.966700
0
LINE
8
Layer 1
10
79.304400
20
71.966700
11
80.715500
21
71.966700
0
LINE
8
Layer 1
10
80.715500
20
71.966700
11
80.715500
21
68.827000
0
LINE
8
Layer 1
10
80.715500
20
68.827000
11
79.304400
21
68.827000
0
LINE
8
Layer 1
10
79.304400
20
68.827000
11
79.304400
21
66.145800
0
LINE
8
Layer 1
10
79.304400
20
66.145800
11
80.715500
21
66.145800
0
LINE
8
Layer 1
10
80.715500
20
66.145800
11
80.715500
21
63.006100
0
LINE
8
Layer 1
10
80.715500
20
63.006100
11
79.304400
21
63.006100
0
LINE
8
Layer 1
10
79.304400
20
63.006100
11
79.304400
21
60.325000
0
LINE
8
Layer 1
10
79.304400
20
60.325000
11
80.715500
21
60.325000
0
LINE
8
Layer 1
10
80.715500
20
60.325000
11
80.715500
21
57.185300
0
LINE
8
Layer 1
10
80.715500
20
57.185300
11
79.304400
21
57.185300
0
LINE
8
Layer 1
10
79.304400
20
57.185300
11
79.304400
21
54.504200
0
LINE
8
Layer 1
10
79.304400
20
54.504200
11
80.715500
21
54.504200
0
LINE
8
Layer 1
10
80.715500
20
54.504200
11
80.715500
21
51.364500
0
LINE
8
Layer 1
10
80.715500
20
51.364500
11
79.304400
21
51.364500
0
LINE
8
Layer 1
10
79.304400
20
51.364500
11
79.304400
21
48.683400
0
LINE
8
Layer 1
10
79.304400
20
48.683400
11
80.715500
21
48.683400
0
LINE
8
Layer 1
10
80.715500
20
48.683400
11
80.715500
21
45.543600
0
LINE
8
Layer 1
10
80.715500
20
45.543600
11
79.304400
21
45.543600
0
LINE
8
Layer 1
10
79.304400
20
45.543600
11
79.304400
21
42.862500
0
LINE
8
Layer 1
10
79.304400
20
42.862500
11
80.715500
21
42.862500
0
LINE
8
Layer 1
10
80.715500
20
42.862500
11
80.715500
21
39.793400
0
LINE
8
Layer 1
10
80.715500
20
39.793400
11
77.520500
21
39.793400
0
LINE
8
Layer 1
10
77.520500
20
39.793400
11
77.520500
21
41.204500
0
LINE
8
Layer 1
10
77.520500
20
41.204500
11
74.839300
21
41.204500
0
LINE
8
Layer 1
10
74.839300
20
41.204500
11
74.839300
21
39.793400
0
LINE
8
Layer 1
10
74.839300
20
39.793400
11
71.573500
21
39.793400
0
LINE
8
Layer 1
10
71.573500
20
39.793400
11
71.573500
21
41.204500
0
LINE
8
Layer 1
10
71.573500
20
41.204500
11
68.892400
21
41.204500
0
LINE
8
Layer 1
10
68.892400
20
41.204500
11
68.892400
21
39.793400
0
LINE
8
Layer 1
10
68.892400
20
39.793400
11
65.626800
21
39.793400
0
LINE
8
Layer 1
10
65.626800
20
39.793400
11
65.626800
21
41.204500
0
LINE
8
Layer 1
10
65.626800
20
41.204500
11
62.945700
21
41.204500
0
LINE
8
Layer 1
10
62.945700
20
41.204500
11
62.945700
21
39.793400
0
LINE
8
Layer 1
10
62.945700
20
39.793400
11
59.679800
21
39.793400
0
LINE
8
Layer 1
10
59.679800
20
39.793400
11
59.679800
21
41.204500
0
LINE
8
Layer 1
10
59.679800
20
41.204500
11
56.998700
21
41.204500
0
LINE
8
Layer 1
10
56.998700
20
41.204500
11
56.998700
21
39.793400
0
LINE
8
Layer 1
10
56.998700
20
39.793400
11
53.733100
21
39.793400
0
LINE
8
Layer 1
10
53.733100
20
39.793400
11
53.733100
21
41.204500
0
LINE
8
Layer 1
10
53.733100
20
41.204500
11
51.052000
21
41.204500
0
LINE
8
Layer 1
10
51.052000
20
41.204500
11
51.052000
21
39.793400
0
LINE
8
Layer 1
10
51.052000
20
39.793400
11
47.786100
21
39.793400
0
LINE
8
Layer 1
10
47.786100
20
39.793400
11
47.786100
21
41.204500
0
LINE
8
Layer 1
10
47.786100
20
41.204500
11
45.105000
21
41.204500
0
LINE
8
Layer 1
10
45.105000
20
41.204500
11
45.105000
21
39.793400
0
LINE
8
Layer 1
10
45.105000
20
39.793400
11
41.839400
21
39.793400
0
LINE
8
Layer 1
10
41.839400
20
39.793400
11
41.839400
21
41.204500
0
LINE
8
Layer 1
10
41.839400
20
41.204500
11
39.158300
21
41.204500
0
LINE
8
Layer 1
10
39.158300
20
41.204500
11
39.158300
21
39.793400
0
LINE
8
Layer 1
10
39.158300
20
39.793400
11
35.892700
21
39.793400
0
LINE
8
Layer 1
10
35.892700
20
39.793400
11
35.892700
21
41.204500
0
LINE
8
Layer 1
10
35.892700
20
41.204500
11
33.211600
21
41.204500
0
LINE
8
Layer 1
10
33.211600
20
41.204500
11
33.211600
21
39.793400
0
LINE
8
Layer 1
10
33.211600
20
39.793400
11
29.945700
21
39.793400
0
LINE
8
Layer 1
10
29.945700
20
39.793400
11
29.945700
21
41.204500
0
LINE
8
Layer 1
10
29.945700
20
41.204500
11
27.264600
21
41.204500
0
LINE
8
Layer 1
10
27.264600
20
41.204500
11
27.264600
21
39.793400
0
LINE
8
Layer 1
10
27.264600
20
39.793400
11
23.998900
21
39.793400
0
LINE
8
Layer 1
10
23.998900
20
39.793400
11
23.998900
21
41.204500
0
LINE
8
Layer 1
10
23.998900
20
41.204500
11
21.317800
21
41.204500
0
LINE
8
Layer 1
10
21.317800
20
41.204500
11
21.317800
21
39.793400
0
LINE
8
Layer 1
10
21.317800
20
39.793400
11
18.052100
21
39.793400
0
LINE
8
Layer 1
10
18.052100
20
39.793400
11
18.052100
21
41.204500
0
LINE
8
Layer 1
10
18.052100
20
41.204500
11
15.371000
21
41.204500
0
LINE
8
Layer 1
10
15.371000
20
41.204500
11
15.371000
21
39.793400
0
LINE
8
Layer 1
10
15.371000
20
39.793400
11
12.105300
21
39.793400
0
LINE
8
Layer 1
10
12.105300
20
39.793400
11
12.105300
21
41.204500
0
LINE
8
Layer 1
10
12.105300
20
41.204500
11
9.424210
21
41.204500
0
LINE
8
Layer 1
10
9.424210
20
41.204500
11
9.424210
21
39.793400
0
LINE
8
Layer 1
10
9.424210
20
39.793400
11
6.158480
21
39.793400
0
LINE
8
Layer 1
10
6.158480
20
39.793400
11
6.158480
21
41.204500
0
LINE
8
Layer 1
10
6.158480
20
41.204500
11
3.477370
21
41.204500
0
LINE
8
Layer 1
10
3.477370
20
41.204500
11
3.477370
21
39.793400
0
LINE
8
Layer 1
10
3.477370
20
39.793400
11
0.282222
21
39.793400
0
LINE
8
Layer 1
10
0.282222
20
39.793400
11
0.282222
21
42.862500
0
LINE
8
Layer 1
10
0.282222
20
42.862500
11
1.693330
21
42.862500
0
LINE
8
Layer 1
10
1.693330
20
42.862500
11
1.693330
21
45.543600
0
LINE
8
Layer 1
10
1.693330
20
45.543600
11
0.282222
21
45.543600
0
LINE
8
Layer 1
10
0.282222
20
45.543600
11
0.282222
21
48.683400
0
LINE
8
Layer 1
10
0.282222
20
48.683400
11
1.693330
21
48.683400
0
LINE
8
Layer 1
10
1.693330
20
48.683400
11
1.693330
21
51.364500
0
LINE
8
Layer 1
10
1.693330
20
51.364500
11
0.282222
21
51.364500
0
LINE
8
Layer 1
10
0.282222
20
51.364500
11
0.282222
21
54.504200
0
LINE
8
Layer 1
10
0.282222
20
54.504200
11
1.693330
21
54.504200
0
LINE
8
Layer 1
10
1.693330
20
54.504200
11
1.693330
21
57.185300
0
LINE
8
Layer 1
10
1.693330
20
57.185300
11
0.282222
21
57.185300
0
LINE
8
Layer 1
10
0.282222
20
57.185300
11
0.282222
21
60.325000
0
LINE
8
Layer 1
10
0.282222
20
60.325000
11
1.693330
21
60.325000
0
LINE
8
Layer 1
10
1.693330
20
60.325000
11
1.693330
21
63.006100
0
LINE
8
Layer 1
10
1.693330
20
63.006100
11
0.282222
21
63.006100
0
LINE
8
Layer 1
10
0.282222
20
63.006100
11
0.282222
21
66.145800
0
LINE
8
Layer 1
10
0.282222
20
66.145800
11
1.693330
21
66.145800
0
LINE
8
Layer 1
10
1.693330
20
66.145800
11
1.693330
21
68.827000
0
LINE
8
Layer 1
10
1.693330
20
68.827000
11
0.282222
21
68.827000
0
LINE
8
Layer 1
10
0.282222
20
68.827000
11
0.282222
21
71.966700
0
LINE
8
Layer 1
10
0.282222
20
71.966700
11
1.693330
21
71.966700
0
LINE
8
Layer 1
10
1.693330
20
71.966700
11
1.693330
21
74.647800
0
LINE
8
Layer 1
10
1.693330
20
74.647800
11
0.282222
21
74.647800
0
LINE
8
Layer 1
10
0.282222
20
74.647800
11
0.282222
21
77.787500
0
LINE
8
Layer 1
10
0.282222
20
77.787500
11
1.693330
21
77.787500
0
LINE
8
Layer 1
10
1.693330
20
77.787500
11
1.693330
21
80.468600
0
LINE
8
Layer 1
10
1.693330
20
80.468600
11
0.282222
21
80.468600
0
LINE
8
Layer 1
10
0.282222
20
80.468600
11
0.282222
21
83.537800
0
LINE
8
Layer 1
10
96.802100
20
82.126700
11
98.142700
21
82.126700
0
LINE
8
Layer 1
10
98.142700
20
82.126700
11
98.142700
21
83.537800
0
LINE
8
Layer 1
10
98.142700
20
83.537800
11
101.106000
21
83.537800
0
LINE
8
Layer 1
10
101.106000
20
83.537800
11
101.106000
21
82.126700
0
LINE
8
Layer 1
10
101.106000
20
82.126700
11
103.787000
21
82.126700
0
LINE
8
Layer 1
10
103.787000
20
82.126700
11
103.787000
21
83.537800
0
LINE
8
Layer 1
10
103.787000
20
83.537800
11
106.750000
21
83.537800
0
LINE
8
Layer 1
10
106.750000
20
83.537800
11
106.750000
21
82.126700
0
LINE
8
Layer 1
10
106.750000
20
82.126700
11
109.502000
21
82.126700
0
LINE
8
Layer 1
10
109.502000
20
82.126700
11
109.502000
21
80.468600
0
LINE
8
Layer 1
10
109.502000
20
80.468600
11
109.502000
21
80.468600
0
LINE
8
Layer 1
10
109.502000
20
80.468600
11
109.502000
21
77.787500
0
LINE
8
Layer 1
10
109.502000
20
77.787500
11
109.502000
21
77.787500
0
LINE
8
Layer 1
10
109.502000
20
77.787500
11
109.502000
21
74.647800
0
LINE
8
Layer 1
10
109.502000
20
74.647800
11
109.502000
21
74.647800
0
LINE
8
Layer 1
10
109.502000
20
74.647800
11
109.502000
21
71.966700
0
LINE
8
Layer 1
10
109.502000
20
71.966700
11
109.502000
21
71.966700
0
LINE
8
Layer 1
10
109.502000
20
71.966700
11
109.502000
21
68.827000
0
LINE
8
Layer 1
10
109.502000
20
68.827000
11
109.502000
21
68.827000
0
LINE
8
Layer 1
10
109.502000
20
68.827000
11
109.502000
21
66.145800
0
LINE
8
Layer 1
10
109.502000
20
66.145800
11
109.502000
21
66.145800
0
LINE
8
Layer 1
10
109.502000
20
66.145800
11
109.502000
21
63.006100
0
LINE
8
Layer 1
10
109.502000
20
63.006100
11
109.502000
21
63.006100
0
LINE
8
Layer 1
10
109.502000
20
63.006100
11
109.502000
21
60.325000
0
LINE
8
Layer 1
10
109.502000
20
60.325000
11
109.502000
21
60.325000
0
LINE
8
Layer 1
10
109.502000
20
60.325000
11
109.502000
21
57.185300
0
LINE
8
Layer 1
10
109.502000
20
57.185300
11
109.502000
21
57.185300
0
LINE
8
Layer 1
10
109.502000
20
57.185300
11
109.502000
21
54.504200
0
LINE
8
Layer 1
10
109.502000
20
54.504200
11
109.502000
21
54.504200
0
LINE
8
Layer 1
10
109.502000
20
54.504200
11
109.502000
21
51.364500
0
LINE
8
Layer 1
10
109.502000
20
51.364500
11
109.502000
21
51.364500
0
LINE
8
Layer 1
10
109.502000
20
51.364500
11
109.502000
21
48.683400
0
LINE
8
Layer 1
10
109.502000
20
48.683400
11
109.502000
21
48.683400
0
LINE
8
Layer 1
10
109.502000
20
48.683400
11
109.502000
21
45.543600
0
LINE
8
Layer 1
10
109.502000
20
45.543600
11
109.502000
21
45.543600
0
LINE
8
Layer 1
10
109.502000
20
45.543600
11
109.502000
21
42.862500
0
LINE
8
Layer 1
10
109.502000
20
42.862500
11
109.502000
21
42.862500
0
LINE
8
Layer 1
10
109.502000
20
42.862500
11
109.502000
21
41.204500
0
LINE
8
Layer 1
10
109.502000
20
41.204500
11
106.750000
21
41.204500
0
LINE
8
Layer 1
10
106.750000
20
41.204500
11
106.750000
21
39.793400
0
LINE
8
Layer 1
10
106.750000
20
39.793400
11
103.787000
21
39.793400
0
LINE
8
Layer 1
10
103.787000
20
39.793400
11
103.787000
21
41.204500
0
LINE
8
Layer 1
10
103.787000
20
41.204500
11
101.106000
21
41.204500
0
LINE
8
Layer 1
10
101.106000
20
41.204500
11
101.106000
21
39.793400
0
LINE
8
Layer 1
10
101.106000
20
39.793400
11
98.142700
21
39.793400
0
LINE
8
Layer 1
10
98.142700
20
39.793400
11
98.142700
21
41.204500
0
LINE
8
Layer 1
10
98.142700
20
41.204500
11
96.802100
21
41.204500
0
LINE
8
Layer 1
10
96.802100
20
41.204500
11
96.802100
21
42.721400
0
LINE
8
Layer 1
10
96.802100
20
42.721400
11
95.391000
21
42.721400
0
LINE
8
Layer 1
10
95.391000
20
42.721400
11
95.391000
21
45.684800
0
LINE
8
Layer 1
10
95.391000
20
45.684800
11
96.802100
21
45.684800
0
LINE
8
Layer 1
10
96.802100
20
45.684800
11
96.802100
21
48.542200
0
LINE
8
Layer 1
10
96.802100
20
48.542200
11
95.391000
21
48.542200
0
LINE
8
Layer 1
10
95.391000
20
48.542200
11
95.391000
21
51.505600
0
LINE
8
Layer 1
10
95.391000
20
51.505600
11
96.802100
21
51.505600
0
LINE
8
Layer 1
10
96.802100
20
51.505600
11
96.802100
21
54.363100
0
LINE
8
Layer 1
10
96.802100
20
54.363100
11
95.391000
21
54.363100
0
LINE
8
Layer 1
10
95.391000
20
54.363100
11
95.391000
21
57.326400
0
LINE
8
Layer 1
10
95.391000
20
57.326400
11
96.802100
21
57.326400
0
LINE
8
Layer 1
10
96.802100
20
57.326400
11
96.802100
21
60.183900
0
LINE
8
Layer 1
10
96.802100
20
60.183900
11
95.391000
21
60.183900
0
LINE
8
Layer 1
10
95.391000
20
60.183900
11
95.391000
21
63.147200
0
LINE
8
Layer 1
10
95.391000
20
63.147200
11
96.802100
21
63.147200
0
LINE
8
Layer 1
10
96.802100
20
63.147200
11
96.802100
21
66.004700
0
LINE
8
Layer 1
10
96.802100
20
66.004700
11
95.391000
21
66.004700
0
LINE
8
Layer 1
10
95.391000
20
66.004700
11
95.391000
21
68.968100
0
LINE
8
Layer 1
10
95.391000
20
68.968100
11
96.802100
21
68.968100
0
LINE
8
Layer 1
10
96.802100
20
68.968100
11
96.802100
21
71.825600
0
LINE
8
Layer 1
10
96.802100
20
71.825600
11
95.391000
21
71.825600
0
LINE
8
Layer 1
10
95.391000
20
71.825600
11
95.391000
21
74.788900
0
LINE
8
Layer 1
10
95.391000
20
74.788900
11
96.802100
21
74.788900
0
LINE
8
Layer 1
10
96.802100
20
74.788900
11
96.802100
21
77.646400
0
LINE
8
Layer 1
10
96.802100
20
77.646400
11
95.391000
21
77.646400
0
LINE
8
Layer 1
10
95.391000
20
77.646400
11
95.391000
21
80.609700
0
LINE
8
Layer 1
10
95.391000
20
80.609700
11
96.802100
21
80.609700
0
LINE
8
Layer 1
10
96.802100
20
80.609700
11
96.802100
21
82.126700
0
LINE
8
Layer 1
10
190.500000
20
83.537800
11
193.695000
21
83.537800
0
LINE
8
Layer 1
10
193.695000
20
83.537800
11
193.695000
21
83.537800
0
LINE
8
Layer 1
10
193.695000
20
83.537800
11
196.376000
21
83.537800
0
LINE
8
Layer 1
10
196.376000
20
83.537800
11
196.376000
21
83.537800
0
LINE
8
Layer 1
10
196.376000
20
83.537800
11
199.642000
21
83.537800
0
LINE
8
Layer 1
10
199.642000
20
83.537800
11
199.642000
21
83.537800
0
LINE
8
Layer 1
10
199.642000
20
83.537800
11
202.323000
21
83.537800
0
LINE
8
Layer 1
10
202.323000
20
83.537800
11
202.323000
21
83.537800
0
LINE
8
Layer 1
10
202.323000
20
83.537800
11
205.589000
21
83.537800
0
LINE
8
Layer 1
10
205.589000
20
83.537800
11
205.589000
21
83.537800
0
LINE
8
Layer 1
10
205.589000
20
83.537800
11
208.270000
21
83.537800
0
LINE
8
Layer 1
10
208.270000
20
83.537800
11
208.270000
21
83.537800
0
LINE
8
Layer 1
10
208.270000
20
83.537800
11
211.536000
21
83.537800
0
LINE
8
Layer 1
10
211.536000
20
83.537800
11
211.536000
21
83.537800
0
LINE
8
Layer 1
10
211.536000
20
83.537800
11
214.217000
21
83.537800
0
LINE
8
Layer 1
10
214.217000
20
83.537800
11
214.217000
21
83.537800
0
LINE
8
Layer 1
10
214.217000
20
83.537800
11
217.482000
21
83.537800
0
LINE
8
Layer 1
10
217.482000
20
83.537800
11
217.482000
21
83.537800
0
LINE
8
Layer 1
10
217.482000
20
83.537800
11
220.163000
21
83.537800
0
LINE
8
Layer 1
10
220.163000
20
83.537800
11
220.163000
21
83.537800
0
LINE
8
Layer 1
10
220.163000
20
83.537800
11
223.429000
21
83.537800
0
LINE
8
Layer 1
10
223.429000
20
83.537800
11
223.429000
21
83.537800
0
LINE
8
Layer 1
10
223.429000
20
83.537800
11
226.110000
21
83.537800
0
LINE
8
Layer 1
10
226.110000
20
83.537800
11
226.110000
21
83.537800
0
LINE
8
Layer 1
10
226.110000
20
83.537800
11
229.376000
21
83.537800
0
LINE
8
Layer 1
10
229.376000
20
83.537800
11
229.376000
21
83.537800
0
LINE
8
Layer 1
10
229.376000
20
83.537800
11
232.057000
21
83.537800
0
LINE
8
Layer 1
10
232.057000
20
83.537800
11
232.057000
21
83.537800
0
LINE
8
Layer 1
10
232.057000
20
83.537800
11
235.323000
21
83.537800
0
LINE
8
Layer 1
10
235.323000
20
83.537800
11
235.323000
21
83.537800
0
LINE
8
Layer 1
10
235.323000
20
83.537800
11
238.004000
21
83.537800
0
LINE
8
Layer 1
10
238.004000
20
83.537800
11
238.004000
21
83.537800
0
LINE
8
Layer 1
10
238.004000
20
83.537800
11
241.270000
21
83.537800
0
LINE
8
Layer 1
10
241.270000
20
83.537800
11
241.270000
21
83.537800
0
LINE
8
Layer 1
10
241.270000
20
83.537800
11
243.951000
21
83.537800
0
LINE
8
Layer 1
10
243.951000
20
83.537800
11
243.951000
21
83.537800
0
LINE
8
Layer 1
10
243.951000
20
83.537800
11
247.216000
21
83.537800
0
LINE
8
Layer 1
10
247.216000
20
83.537800
11
247.216000
21
83.537800
0
LINE
8
Layer 1
10
247.216000
20
83.537800
11
249.897000
21
83.537800
0
LINE
8
Layer 1
10
249.897000
20
83.537800
11
249.897000
21
83.537800
0
LINE
8
Layer 1
10
249.897000
20
83.537800
11
253.163000
21
83.537800
0
LINE
8
Layer 1
10
253.163000
20
83.537800
11
253.163000
21
83.537800
0
LINE
8
Layer 1
10
253.163000
20
83.537800
11
255.844000
21
83.537800
0
LINE
8
Layer 1
10
255.844000
20
83.537800
11
255.844000
21
83.537800
0
LINE
8
Layer 1
10
255.844000
20
83.537800
11
259.110000
21
83.537800
0
LINE
8
Layer 1
10
259.110000
20
83.537800
11
259.110000
21
83.537800
0
LINE
8
Layer 1
10
259.110000
20
83.537800
11
261.791000
21
83.537800
0
LINE
8
Layer 1
10
261.791000
20
83.537800
11
261.791000
21
83.537800
0
LINE
8
Layer 1
10
261.791000
20
83.537800
11
265.057000
21
83.537800
0
LINE
8
Layer 1
10
265.057000
20
83.537800
11
265.057000
21
83.537800
0
LINE
8
Layer 1
10
265.057000
20
83.537800
11
267.738000
21
83.537800
0
LINE
8
Layer 1
10
267.738000
20
83.537800
11
267.738000
21
83.537800
0
LINE
8
Layer 1
10
267.738000
20
83.537800
11
270.933000
21
83.537800
0
LINE
8
Layer 1
10
270.933000
20
83.537800
11
270.933000
21
80.645000
0
LINE
8
Layer 1
10
270.933000
20
80.645000
11
269.522000
21
80.645000
0
LINE
8
Layer 1
10
269.522000
20
80.645000
11
269.522000
21
77.963900
0
LINE
8
Layer 1
10
269.522000
20
77.963900
11
270.933000
21
77.963900
0
LINE
8
Layer 1
10
270.933000
20
77.963900
11
270.933000
21
75.000600
0
LINE
8
Layer 1
10
270.933000
20
75.000600
11
269.522000
21
75.000600
0
LINE
8
Layer 1
10
269.522000
20
75.000600
11
269.522000
21
72.319500
0
LINE
8
Layer 1
10
269.522000
20
72.319500
11
270.933000
21
72.319500
0
LINE
8
Layer 1
10
270.933000
20
72.319500
11
270.933000
21
70.837800
0
LINE
8
Layer 1
10
270.933000
20
70.837800
11
267.879000
21
70.837800
0
LINE
8
Layer 1
10
267.879000
20
70.837800
11
267.879000
21
69.426700
0
LINE
8
Layer 1
10
267.879000
20
69.426700
11
264.916000
21
69.426700
0
LINE
8
Layer 1
10
264.916000
20
69.426700
11
264.916000
21
70.837800
0
LINE
8
Layer 1
10
264.916000
20
70.837800
11
261.932000
21
70.837800
0
LINE
8
Layer 1
10
261.932000
20
70.837800
11
261.932000
21
69.426700
0
LINE
8
Layer 1
10
261.932000
20
69.426700
11
258.969000
21
69.426700
0
LINE
8
Layer 1
10
258.969000
20
69.426700
11
258.969000
21
70.837800
0
LINE
8
Layer 1
10
258.969000
20
70.837800
11
255.986000
21
70.837800
0
LINE
8
Layer 1
10
255.986000
20
70.837800
11
255.986000
21
69.426700
0
LINE
8
Layer 1
10
255.986000
20
69.426700
11
253.022000
21
69.426700
0
LINE
8
Layer 1
10
253.022000
20
69.426700
11
253.022000
21
70.837800
0
LINE
8
Layer 1
10
253.022000
20
70.837800
11
250.039000
21
70.837800
0
LINE
8
Layer 1
10
250.039000
20
70.837800
11
250.039000
21
69.426700
0
LINE
8
Layer 1
10
250.039000
20
69.426700
11
247.075000
21
69.426700
0
LINE
8
Layer 1
10
247.075000
20
69.426700
11
247.075000
21
70.837800
0
LINE
8
Layer 1
10
247.075000
20
70.837800
11
244.092000
21
70.837800
0
LINE
8
Layer 1
10
244.092000
20
70.837800
11
244.092000
21
69.426700
0
LINE
8
Layer 1
10
244.092000
20
69.426700
11
241.129000
21
69.426700
0
LINE
8
Layer 1
10
241.129000
20
69.426700
11
241.129000
21
70.837800
0
LINE
8
Layer 1
10
241.129000
20
70.837800
11
238.145000
21
70.837800
0
LINE
8
Layer 1
10
238.145000
20
70.837800
11
238.145000
21
69.426700
0
LINE
8
Layer 1
10
238.145000
20
69.426700
11
235.182000
21
69.426700
0
LINE
8
Layer 1
10
235.182000
20
69.426700
11
235.182000
21
70.837800
0
LINE
8
Layer 1
10
235.182000
20
70.837800
11
232.198000
21
70.837800
0
LINE
8
Layer 1
10
232.198000
20
70.837800
11
232.198000
21
69.426700
0
LINE
8
Layer 1
10
232.198000
20
69.426700
11
229.235000
21
69.426700
0
LINE
8
Layer 1
10
229.235000
20
69.426700
11
229.235000
21
70.837800
0
LINE
8
Layer 1
10
229.235000
20
70.837800
11
226.251000
21
70.837800
0
LINE
8
Layer 1
10
226.251000
20
70.837800
11
226.251000
21
69.426700
0
LINE
8
Layer 1
10
226.251000
20
69.426700
11
223.288000
21
69.426700
0
LINE
8
Layer 1
10
223.288000
20
69.426700
11
223.288000
21
70.837800
0
LINE
8
Layer 1
10
223.288000
20
70.837800
11
220.304000
21
70.837800
0
LINE
8
Layer 1
10
220.304000
20
70.837800
11
220.304000
21
69.426700
0
LINE
8
Layer 1
10
220.304000
20
69.426700
11
217.341000
21
69.426700
0
LINE
8
Layer 1
10
217.341000
20
69.426700
11
217.341000
21
70.837800
0
LINE
8
Layer 1
10
217.341000
20
70.837800
11
214.358000
21
70.837800
0
LINE
8
Layer 1
10
214.358000
20
70.837800
11
214.358000
21
69.426700
0
LINE
8
Layer 1
10
214.358000
20
69.426700
11
211.394000
21
69.426700
0
LINE
8
Layer 1
10
211.394000
20
69.426700
11
211.394000
21
70.837800
0
LINE
8
Layer 1
10
211.394000
20
70.837800
11
208.411000
21
70.837800
0
LINE
8
Layer 1
10
208.411000
20
70.837800
11
208.411000
21
69.426700
0
LINE
8
Layer 1
10
208.411000
20
69.426700
11
205.447000
21
69.426700
0
LINE
8
Layer 1
10
205.447000
20
69.426700
11
205.447000
21
70.837800
0
LINE
8
Layer 1
10
205.447000
20
70.837800
11
202.464000
21
70.837800
0
LINE
8
Layer 1
10
202.464000
20
70.837800
11
202.464000
21
69.426700
0
LINE
8
Layer 1
10
202.464000
20
69.426700
11
199.501000
21
69.426700
0
LINE
8
Layer 1
10
199.501000
20
69.426700
11
199.501000
21
70.837800
0
LINE
8
Layer 1
10
199.501000
20
70.837800
11
196.517000
21
70.837800
0
LINE
8
Layer 1
10
196.517000
20
70.837800
11
196.517000
21
69.426700
0
LINE
8
Layer 1
10
196.517000
20
69.426700
11
193.554000
21
69.426700
0
LINE
8
Layer 1
10
193.554000
20
69.426700
11
193.554000
21
70.837800
0
LINE
8
Layer 1
10
193.554000
20
70.837800
11
190.500000
21
70.837800
0
LINE
8
Layer 1
10
190.500000
20
70.837800
11
190.500000
21
72.319500
0
LINE
8
Layer 1
10
190.500000
20
72.319500
11
191.911000
21
72.319500
0
LINE
8
Layer 1
10
191.911000
20
72.319500
11
191.911000
21
75.000600
0
LINE
8
Layer 1
10
191.911000
20
75.000600
11
190.500000
21
75.000600
0
LINE
8
Layer 1
10
190.500000
20
75.000600
11
190.500000
21
77.963900
0
LINE
8
Layer 1
10
190.500000
20
77.963900
11
191.911000
21
77.963900
0
LINE
8
Layer 1
10
191.911000
20
77.963900
11
191.911000
21
80.645000
0
LINE
8
Layer 1
10
191.911000
20
80.645000
11
190.500000
21
80.645000
0
LINE
8
Layer 1
10
190.500000
20
80.645000
11
190.500000
21
83.537800
 0 
ENDSEC
 0 
EOF