<?xml version="1.0" encoding="UTF-8" standalone="no"?>
<svg
   xmlns:dc="http://purl.org/dc/elements/1.1/"
   xmlns:cc="http://creativecommons.org/ns#"
   xmlns:rdf="http://www.w3.org/1999/02/22-rdf-syntax-ns#"
   xmlns:svg="http://www.w3.org/2000/svg"
   xmlns="http://www.w3.org/2000/svg"
   xmlns:sodipodi="http://sodipodi.sourceforge.net/DTD/sodipodi-0.dtd"
   xmlns:inkscape="http://www.inkscape.org/namespaces/inkscape"
   width="210mm"
   height="297mm"
   viewBox="0 0 210 297"
   version="1.1"
   id="svg9489"
   inkscape:version="1.0.1 (3bc2e813f5, 2020-09-07)"
   sodipodi:docname="box 3.1.svg">
  <defs
     id="defs9483" />
  <sodipodi:namedview
     id="base"
     pagecolor="#ffffff"
     bordercolor="#666666"
     borderopacity="1.0"
     inkscape:pageopacity="0.0"
     inkscape:pageshadow="2"
     inkscape:zoom="0.12374369"
     inkscape:cx="1634.5678"
     inkscape:cy="-252.12738"
     inkscape:document-units="mm"
     inkscape:current-layer="layer1"
     inkscape:document-rotation="0"
     showgrid="false"
     inkscape:window-width="1920"
     inkscape:window-height="1002"
     inkscape:window-x="-8"
     inkscape:window-y="-8"
     inkscape:window-maximized="1" />
  <metadata
     id="metadata9486">
    <rdf:RDF>
      <cc:Work
         rdf:about="">
        <dc:format>image/svg+xml</dc:format>
        <dc:type
           rdf:resource="http://purl.org/dc/dcmitype/StillImage" />
        <dc:title />
      </cc:Work>
    </rdf:RDF>
  </metadata>
  <g
     inkscape:label="Layer 1"
     inkscape:groupmode="layer"
     id="layer1">
    <rect
       style="fill:#eafff7;stroke-width:1"
       id="rect10255"
       width="1500"
       height="500"
       x="-115.46043"
       y="-149.67093" />
    <g
       id="g10152"
       transform="rotate(180,512.605,142.05404)">
      <g
         id="panel5954">
        <path
           style="fill:none;stroke:#000000;stroke-width:1"
           d="m 423,7 h 11.071 V 2 h 10 v 5 h 11.072 V 2 h 10 v 5 h 11.071 V 2 h 10 v 5 h 11.072 V 2 h 10 v 5 h 11.071 V 2 h 10 v 5 h 11.072 V 2 h 10 V 7 H 560.5 V 2 h 10 v 5 h 11.071 V 2 h 10 v 5 h 11.072 V 2 h 10 v 5 h 11.071 V 2 h 10 v 5 h 11.072 V 2 h 10 v 5 h 11.071 V 2 h 10 v 5 h 11.072 V 2 h 10 V 7 H 708"
           id="path10055" />
        <path
           style="fill:none;stroke:#000000;stroke-width:1"
           d="m 708,7 v 10 h -5 v 10 h 5 v 15 h -5 v 10 h 5 v 15"
           id="path10057" />
        <path
           style="fill:none;stroke:#000000;stroke-width:1"
           d="m 708,67 h -11.071 v 0 h -10 v 0 h -11.072 v 0 h -10 v 0 h -11.071 v 0 h -10 v 0 h -11.072 v 0 h -10 v 0 h -11.071 v 0 h -10 v 0 h -11.072 v 0 h -10 v 0 H 570.5 v 0 h -10 v 0 h -11.071 v 0 h -10 v 0 h -11.072 v 0 h -10 v 0 h -11.071 v 0 h -10 v 0 h -11.072 v 0 h -10 v 0 h -11.071 v 0 h -10 v 0 h -11.072 v 0 h -10 v 0 H 423"
           id="path10059" />
        <path
           style="fill:none;stroke:#000000;stroke-width:1"
           d="M 423,67 V 52 h 5 V 42 h -5 V 27 h 5 V 17 h -5 V 7"
           id="path10061" />
      </g>
      <g
         id="panel2058">
        <path
           style="fill:none;stroke:#000000;stroke-width:1"
           d="m 289,7 h 15 V 2 h 10 v 5 h 15 V 2 h 10 v 5 h 10"
           id="path10064" />
        <path
           style="fill:none;stroke:#000000;stroke-width:1"
           d="m 349,7 v 6.875 h 5 v 10 h -5 V 35.75 h 5 v 10 h -5 v 11.875 h 5 v 10 h -5 V 79.5 h 5 v 10 h -5 v 11.875 h 5 v 10 h -5 v 11.875 h 5 v 10 h -5 v 11.875 h 5 v 10 h -5 V 162"
           id="path10066" />
        <path
           style="fill:none;stroke:#000000;stroke-width:1"
           d="m 349,162 h -10 v 5 h -10 v -5 h -15 v 5 h -10 v -5 h -15"
           id="path10068" />
        <path
           style="fill:none;stroke:#000000;stroke-width:1"
           d="m 289,162 v -6.875 0 -10 0 -11.875 0 -10 0 -11.875 0 -10 0 -11.875 0 -10 0 -11.875 0 -10 0 -11.875 0 -10 0 -11.875 0 -10 0 V 7"
           id="path10070" />
      </g>
      <g
         id="panel1721">
        <path
           style="fill:none;stroke:#000000;stroke-width:1"
           d="m 2,2 h 11.0714 v 5 h 10 V 2 h 11.0715 v 5 h 10 V 2 h 11.0714 v 5 h 10 V 2 h 11.0714 v 5 h 10 V 2 h 11.0714 v 5 h 9.9999 V 2 h 11.072 v 5 h 10 V 2 H 139.5 v 5 h 10 V 2 h 11.071 v 5 h 10 V 2 h 11.072 v 5 h 10 V 2 h 11.071 v 5 h 10 V 2 h 11.072 v 5 h 10 V 2 h 11.071 v 5 h 10 V 2 h 11.072 v 5 h 10 V 2 H 287"
           id="path10073" />
        <path
           style="fill:none;stroke:#000000;stroke-width:1"
           d="m 287,2 v 11.875 h -5 v 10 h 5 V 35.75 h -5 v 10 h 5 v 11.875 h -5 v 10 h 5 V 79.5 h -5 v 10 h 5 v 11.875 h -5 v 10 h 5 v 11.875 h -5 v 10 h 5 v 11.875 h -5 v 10 h 5 V 167"
           id="path10075" />
        <path
           style="fill:none;stroke:#000000;stroke-width:1"
           d="m 287,167 h -11.071 v -5 h -10 v 5 h -11.072 v -5 h -10 v 5 h -11.071 v -5 h -10 v 5 h -11.072 v -5 h -10 v 5 h -11.071 v -5 h -10 v 5 h -11.072 v -5 h -10 v 5 H 149.5 v -5 h -10 v 5 h -11.071 v -5 h -10 v 5 h -11.072 v -5 h -9.9999 v 5 H 86.2857 v -5 h -10 v 5 H 65.2143 v -5 h -10 v 5 H 44.1429 v -5 h -10 v 5 H 23.0714 v -5 h -10 v 5 H 2"
           id="path10077" />
        <path
           style="fill:none;stroke:#000000;stroke-width:1"
           d="m 2,167 v -11.875 h 5 v -10 H 2 V 133.25 h 5 v -10 H 2 v -11.875 h 5 v -10 H 2 V 89.5 h 5 v -10 H 2 V 67.625 h 5 v -10 H 2 V 45.75 h 5 v -10 H 2 V 23.875 h 5 v -10 H 2 V 2"
           id="path10079" />
      </g>
      <g
         id="panel9382">
        <path
           style="fill:none;stroke:#000000;stroke-width:1"
           d="m 361,7 h 10 V 2 h 10 v 5 h 15 V 2 h 10 v 5 h 15"
           id="path10082" />
        <path
           style="fill:none;stroke:#000000;stroke-width:1"
           d="m 421,7 v 6.875 0 10 0 11.875 0 10 0 11.875 0 10 0 11.875 0 10 0 11.875 0 10 0 11.875 0 10 0 11.875 0 10 0 6.875"
           id="path10084" />
        <path
           style="fill:none;stroke:#000000;stroke-width:1"
           d="m 421,162 h -15 v 5 h -10 v -5 h -15 v 5 h -10 v -5 h -10"
           id="path10086" />
        <path
           style="fill:none;stroke:#000000;stroke-width:1"
           d="m 361,162 v -6.875 h -5 v -10 h 5 V 133.25 h -5 v -10 h 5 v -11.875 h -5 v -10 h 5 V 89.5 h -5 v -10 h 5 V 67.625 h -5 v -10 h 5 V 45.75 h -5 v -10 h 5 V 23.875 h -5 v -10 h 5 V 7"
           id="path10088" />
      </g>
      <g
         id="panel4982">
        <path
           style="fill:none;stroke:#000000;stroke-width:1"
           d="m 710,2 h 11.071 v 0 h 10 v 0 h 11.072 v 0 h 10 v 0 h 11.071 v 0 h 10 v 0 h 11.072 v 0 h 10 v 0 h 11.071 v 0 h 10 v 0 h 11.072 v 0 h 10 V 2 H 847.5 v 0 h 10 v 0 h 11.071 v 0 h 10 v 0 h 11.072 v 0 h 10 v 0 h 11.071 v 0 h 10 v 0 h 11.072 v 0 h 10 v 0 h 11.071 v 0 h 10 v 0 h 11.072 v 0 h 10 V 2 H 995"
           id="path10091" />
        <path
           style="fill:none;stroke:#000000;stroke-width:1"
           d="m 995,2 v 15 h -5 v 10 h 5 v 15 h -5 v 10 h 5 v 10"
           id="path10093" />
        <path
           style="fill:none;stroke:#000000;stroke-width:1"
           d="m 995,62 h -11.071 v 5 h -10 v -5 h -11.072 v 5 h -10 v -5 h -11.071 v 5 h -10 v -5 h -11.072 v 5 h -10 v -5 h -11.071 v 5 h -10 v -5 h -11.072 v 5 h -10 V 62 H 857.5 v 5 h -10 v -5 h -11.071 v 5 h -10 v -5 h -11.072 v 5 h -10 v -5 h -11.071 v 5 h -10 v -5 h -11.072 v 5 h -10 v -5 h -11.071 v 5 h -10 v -5 h -11.072 v 5 h -10 V 62 H 710"
           id="path10095" />
        <path
           style="fill:none;stroke:#000000;stroke-width:1"
           d="M 710,62 V 52 h 5 V 42 h -5 V 27 h 5 V 17 h -5 V 2"
           id="path10097" />
      </g>
    </g>
    <g
       id="panel6693">
      <path
         style="fill:none;stroke:#000000;stroke-width:1"
         d="M 503.1 7 L 513.39 7 L 513.39 2 L 523.49 2 L 523.49 7 L 533.73 7 L 533.73 2 L 543.83 2 L 543.83 7 L 554.07 7 L 554.07 2 L 564.17 2 L 564.17 7 L 574.41 7 L 574.41 2 L 584.51 2 L 584.51 7 L 594.75 7 L 594.75 2 L 604.85 2 L 604.85 7 L 615.09 7 L 615.09 2 L 625.19 2 L 625.19 7 L 635.43 7 L 635.43 2 L 645.53 2 L 645.53 7 L 655.77 7 L 655.77 2 L 665.87 2 L 665.87 7 L 676.11 7 L 676.11 2 L 686.21 2 L 686.21 7 L 696.45 7 L 696.45 2 L 706.55 2 L 706.55 7 L 716.79 7 L 716.79 2 L 726.89 2 L 726.89 7 L 737.13 7 L 737.13 2 L 747.23 2 L 747.23 7 L 757.47 7 L 757.47 2 L 767.57 2 L 767.57 7 L 777.81 7 L 777.81 2 L 787.91 2 L 787.91 7 L 798.2 7"
         id="path10183" />
      <path
         style="fill:none;stroke:#000000;stroke-width:1"
         d="M 798.2 7 L 798.2 14.05 L 793.2 14.05 L 793.2 23.95 L 798.2 23.95 L 798.2 36.05 L 793.2 36.05 L 793.2 45.95 L 798.2 45.95 L 798.2 58.05 L 793.2 58.05 L 793.2 67.95 L 798.2 67.95 L 798.2 80.05 L 793.2 80.05 L 793.2 89.95 L 798.2 89.95 L 798.2 97"
         id="path10185" />
      <path
         style="fill:none;stroke:#000000;stroke-width:1"
         d="M 798.2 97 L 787.91 97 L 787.91 97 L 777.81 97 L 777.81 97 L 767.57 97 L 767.57 97 L 757.47 97 L 757.47 97 L 747.23 97 L 747.23 97 L 737.13 97 L 737.13 97 L 726.89 97 L 726.89 97 L 716.79 97 L 716.79 97 L 706.55 97 L 706.55 97 L 696.45 97 L 696.45 97 L 686.21 97 L 686.21 97 L 676.11 97 L 676.11 97 L 665.87 97 L 665.87 97 L 655.77 97 L 655.77 97 L 645.53 97 L 645.53 97 L 635.43 97 L 635.43 97 L 625.19 97 L 625.19 97 L 615.09 97 L 615.09 97 L 604.85 97 L 604.85 97 L 594.75 97 L 594.75 97 L 584.51 97 L 584.51 97 L 574.41 97 L 574.41 97 L 564.17 97 L 564.17 97 L 554.07 97 L 554.07 97 L 543.83 97 L 543.83 97 L 533.73 97 L 533.73 97 L 523.49 97 L 523.49 97 L 513.39 97 L 513.39 97 L 503.1 97"
         id="path10187" />
      <path
         style="fill:none;stroke:#000000;stroke-width:1"
         d="M 503.1 97 L 503.1 89.95 L 508.1 89.95 L 508.1 80.05 L 503.1 80.05 L 503.1 67.95 L 508.1 67.95 L 508.1 58.05 L 503.1 58.05 L 503.1 45.95 L 508.1 45.95 L 508.1 36.05 L 503.1 36.05 L 503.1 23.95 L 508.1 23.95 L 508.1 14.05 L 503.1 14.05 L 503.1 7"
         id="path10189" />
    </g>
    <g
       id="panel2055">
      <path
         style="fill:none;stroke:#000000;stroke-width:1"
         d="M 304.1 7 L 311.05 7 L 311.05 2 L 321.15 2 L 321.15 7 L 333.05 7 L 333.05 2 L 343.15 2 L 343.15 7 L 355.05 7 L 355.05 2 L 365.15 2 L 365.15 7 L 377.05 7 L 377.05 2 L 387.15 2 L 387.15 7 L 394.1 7"
         id="path10192" />
      <path
         style="fill:none;stroke:#000000;stroke-width:1"
         d="M 394.1 7 L 394.1 12.5167 L 399.1 12.5167 L 399.1 22.6167 L 394.1 22.6167 L 394.1 33.0833 L 399.1 33.0833 L 399.1 43.1833 L 394.1 43.1833 L 394.1 53.65 L 399.1 53.65 L 399.1 63.75 L 394.1 63.75 L 394.1 74.2167 L 399.1 74.2167 L 399.1 84.3167 L 394.1 84.3167 L 394.1 94.7833 L 399.1 94.7833 L 399.1 104.883 L 394.1 104.883 L 394.1 115.35 L 399.1 115.35 L 399.1 125.45 L 394.1 125.45 L 394.1 135.917 L 399.1 135.917 L 399.1 146.017 L 394.1 146.017 L 394.1 156.483 L 399.1 156.483 L 399.1 166.583 L 394.1 166.583 L 394.1 172.1"
         id="path10194" />
      <path
         style="fill:none;stroke:#000000;stroke-width:1"
         d="M 394.1 172.1 L 387.15 172.1 L 387.15 177.1 L 377.05 177.1 L 377.05 172.1 L 365.15 172.1 L 365.15 177.1 L 355.05 177.1 L 355.05 172.1 L 343.15 172.1 L 343.15 177.1 L 333.05 177.1 L 333.05 172.1 L 321.15 172.1 L 321.15 177.1 L 311.05 177.1 L 311.05 172.1 L 304.1 172.1"
         id="path10196" />
      <path
         style="fill:none;stroke:#000000;stroke-width:1"
         d="M 304.1 172.1 L 304.1 166.583 L 304.1 166.583 L 304.1 156.483 L 304.1 156.483 L 304.1 146.017 L 304.1 146.017 L 304.1 135.917 L 304.1 135.917 L 304.1 125.45 L 304.1 125.45 L 304.1 115.35 L 304.1 115.35 L 304.1 104.883 L 304.1 104.883 L 304.1 94.7833 L 304.1 94.7833 L 304.1 84.3167 L 304.1 84.3167 L 304.1 74.2167 L 304.1 74.2167 L 304.1 63.75 L 304.1 63.75 L 304.1 53.65 L 304.1 53.65 L 304.1 43.1833 L 304.1 43.1833 L 304.1 33.0833 L 304.1 33.0833 L 304.1 22.6167 L 304.1 22.6167 L 304.1 12.5167 L 304.1 12.5167 L 304.1 7"
         id="path10198" />
    </g>
    <g
       id="panel6134">
      <path
         style="fill:none;stroke:#000000;stroke-width:1"
         d="M 2 2 L 12.39 2 L 12.39 7 L 22.29 7 L 22.29 2 L 32.73 2 L 32.73 7 L 42.63 7 L 42.63 2 L 53.07 2 L 53.07 7 L 62.97 7 L 62.97 2 L 73.41 2 L 73.41 7 L 83.31 7 L 83.31 2 L 93.75 2 L 93.75 7 L 103.65 7 L 103.65 2 L 114.09 2 L 114.09 7 L 123.99 7 L 123.99 2 L 134.43 2 L 134.43 7 L 144.33 7 L 144.33 2 L 154.77 2 L 154.77 7 L 164.67 7 L 164.67 2 L 175.11 2 L 175.11 7 L 185.01 7 L 185.01 2 L 195.45 2 L 195.45 7 L 205.35 7 L 205.35 2 L 215.79 2 L 215.79 7 L 225.69 7 L 225.69 2 L 236.13 2 L 236.13 7 L 246.03 7 L 246.03 2 L 256.47 2 L 256.47 7 L 266.37 7 L 266.37 2 L 276.81 2 L 276.81 7 L 286.71 7 L 286.71 2 L 297.1 2"
         id="path10201" />
      <path
         style="fill:none;stroke:#000000;stroke-width:1"
         d="M 297.1 2 L 297.1 12.6167 L 292.1 12.6167 L 292.1 22.5167 L 297.1 22.5167 L 297.1 33.1833 L 292.1 33.1833 L 292.1 43.0833 L 297.1 43.0833 L 297.1 53.75 L 292.1 53.75 L 292.1 63.65 L 297.1 63.65 L 297.1 74.3167 L 292.1 74.3167 L 292.1 84.2167 L 297.1 84.2167 L 297.1 94.8833 L 292.1 94.8833 L 292.1 104.783 L 297.1 104.783 L 297.1 115.45 L 292.1 115.45 L 292.1 125.35 L 297.1 125.35 L 297.1 136.017 L 292.1 136.017 L 292.1 145.917 L 297.1 145.917 L 297.1 156.583 L 292.1 156.583 L 292.1 166.483 L 297.1 166.483 L 297.1 177.1"
         id="path10203" />
      <path
         style="fill:none;stroke:#000000;stroke-width:1"
         d="M 297.1 177.1 L 286.71 177.1 L 286.71 172.1 L 276.81 172.1 L 276.81 177.1 L 266.37 177.1 L 266.37 172.1 L 256.47 172.1 L 256.47 177.1 L 246.03 177.1 L 246.03 172.1 L 236.13 172.1 L 236.13 177.1 L 225.69 177.1 L 225.69 172.1 L 215.79 172.1 L 215.79 177.1 L 205.35 177.1 L 205.35 172.1 L 195.45 172.1 L 195.45 177.1 L 185.01 177.1 L 185.01 172.1 L 175.11 172.1 L 175.11 177.1 L 164.67 177.1 L 164.67 172.1 L 154.77 172.1 L 154.77 177.1 L 144.33 177.1 L 144.33 172.1 L 134.43 172.1 L 134.43 177.1 L 123.99 177.1 L 123.99 172.1 L 114.09 172.1 L 114.09 177.1 L 103.65 177.1 L 103.65 172.1 L 93.75 172.1 L 93.75 177.1 L 83.31 177.1 L 83.31 172.1 L 73.41 172.1 L 73.41 177.1 L 62.97 177.1 L 62.97 172.1 L 53.07 172.1 L 53.07 177.1 L 42.63 177.1 L 42.63 172.1 L 32.73 172.1 L 32.73 177.1 L 22.29 177.1 L 22.29 172.1 L 12.39 172.1 L 12.39 177.1 L 2 177.1"
         id="path10205" />
      <path
         style="fill:none;stroke:#000000;stroke-width:1"
         d="M 2 177.1 L 2 166.483 L 7 166.483 L 7 156.583 L 2 156.583 L 2 145.917 L 7 145.917 L 7 136.017 L 2 136.017 L 2 125.35 L 7 125.35 L 7 115.45 L 2 115.45 L 2 104.783 L 7 104.783 L 7 94.8833 L 2 94.8833 L 2 84.2167 L 7 84.2167 L 7 74.3167 L 2 74.3167 L 2 63.65 L 7 63.65 L 7 53.75 L 2 53.75 L 2 43.0833 L 7 43.0833 L 7 33.1833 L 2 33.1833 L 2 22.5167 L 7 22.5167 L 7 12.6167 L 2 12.6167 L 2 2"
         id="path10207" />
    </g>
    <g
       id="panel7363">
      <path
         style="fill:none;stroke:#000000;stroke-width:1"
         d="M 406.1 7 L 413.05 7 L 413.05 2 L 423.15 2 L 423.15 7 L 435.05 7 L 435.05 2 L 445.15 2 L 445.15 7 L 457.05 7 L 457.05 2 L 467.15 2 L 467.15 7 L 479.05 7 L 479.05 2 L 489.15 2 L 489.15 7 L 496.1 7"
         id="path10210" />
      <path
         style="fill:none;stroke:#000000;stroke-width:1"
         d="M 496.1 7 L 496.1 12.5167 L 496.1 12.5167 L 496.1 22.6167 L 496.1 22.6167 L 496.1 33.0833 L 496.1 33.0833 L 496.1 43.1833 L 496.1 43.1833 L 496.1 53.65 L 496.1 53.65 L 496.1 63.75 L 496.1 63.75 L 496.1 74.2167 L 496.1 74.2167 L 496.1 84.3167 L 496.1 84.3167 L 496.1 94.7833 L 496.1 94.7833 L 496.1 104.883 L 496.1 104.883 L 496.1 115.35 L 496.1 115.35 L 496.1 125.45 L 496.1 125.45 L 496.1 135.917 L 496.1 135.917 L 496.1 146.017 L 496.1 146.017 L 496.1 156.483 L 496.1 156.483 L 496.1 166.583 L 496.1 166.583 L 496.1 172.1"
         id="path10212" />
      <path
         style="fill:none;stroke:#000000;stroke-width:1"
         d="M 496.1 172.1 L 489.15 172.1 L 489.15 177.1 L 479.05 177.1 L 479.05 172.1 L 467.15 172.1 L 467.15 177.1 L 457.05 177.1 L 457.05 172.1 L 445.15 172.1 L 445.15 177.1 L 435.05 177.1 L 435.05 172.1 L 423.15 172.1 L 423.15 177.1 L 413.05 177.1 L 413.05 172.1 L 406.1 172.1"
         id="path10214" />
      <path
         style="fill:none;stroke:#000000;stroke-width:1"
         d="M 406.1 172.1 L 406.1 166.583 L 401.1 166.583 L 401.1 156.483 L 406.1 156.483 L 406.1 146.017 L 401.1 146.017 L 401.1 135.917 L 406.1 135.917 L 406.1 125.45 L 401.1 125.45 L 401.1 115.35 L 406.1 115.35 L 406.1 104.883 L 401.1 104.883 L 401.1 94.7833 L 406.1 94.7833 L 406.1 84.3167 L 401.1 84.3167 L 401.1 74.2167 L 406.1 74.2167 L 406.1 63.75 L 401.1 63.75 L 401.1 53.65 L 406.1 53.65 L 406.1 43.1833 L 401.1 43.1833 L 401.1 33.0833 L 406.1 33.0833 L 406.1 22.6167 L 401.1 22.6167 L 401.1 12.5167 L 406.1 12.5167 L 406.1 7"
         id="path10216" />
    </g>
    <g
       id="panel6787">
      <path
         style="fill:none;stroke:#000000;stroke-width:1"
         d="M 800.2 7 L 810.49 7 L 810.49 7 L 820.59 7 L 820.59 7 L 830.83 7 L 830.83 7 L 840.93 7 L 840.93 7 L 851.17 7 L 851.17 7 L 861.27 7 L 861.27 7 L 871.51 7 L 871.51 7 L 881.61 7 L 881.61 7 L 891.85 7 L 891.85 7 L 901.95 7 L 901.95 7 L 912.19 7 L 912.19 7 L 922.29 7 L 922.29 7 L 932.53 7 L 932.53 7 L 942.63 7 L 942.63 7 L 952.87 7 L 952.87 7 L 962.97 7 L 962.97 7 L 973.21 7 L 973.21 7 L 983.31 7 L 983.31 7 L 993.55 7 L 993.55 7 L 1003.65 7 L 1003.65 7 L 1013.89 7 L 1013.89 7 L 1023.99 7 L 1023.99 7 L 1034.23 7 L 1034.23 7 L 1044.33 7 L 1044.33 7 L 1054.57 7 L 1054.57 7 L 1064.67 7 L 1064.67 7 L 1074.91 7 L 1074.91 7 L 1085.01 7 L 1085.01 7 L 1095.3 7"
         id="path10219" />
      <path
         style="fill:none;stroke:#000000;stroke-width:1"
         d="M 1095.3 7 L 1095.3 14.05 L 1090.3 14.05 L 1090.3 23.95 L 1095.3 23.95 L 1095.3 36.05 L 1090.3 36.05 L 1090.3 45.95 L 1095.3 45.95 L 1095.3 58.05 L 1090.3 58.05 L 1090.3 67.95 L 1095.3 67.95 L 1095.3 80.05 L 1090.3 80.05 L 1090.3 89.95 L 1095.3 89.95 L 1095.3 97"
         id="path10221" />
      <path
         style="fill:none;stroke:#000000;stroke-width:1"
         d="M 1095.3 97 L 1085.01 97 L 1085.01 102 L 1074.91 102 L 1074.91 97 L 1064.67 97 L 1064.67 102 L 1054.57 102 L 1054.57 97 L 1044.33 97 L 1044.33 102 L 1034.23 102 L 1034.23 97 L 1023.99 97 L 1023.99 102 L 1013.89 102 L 1013.89 97 L 1003.65 97 L 1003.65 102 L 993.55 102 L 993.55 97 L 983.31 97 L 983.31 102 L 973.21 102 L 973.21 97 L 962.97 97 L 962.97 102 L 952.87 102 L 952.87 97 L 942.63 97 L 942.63 102 L 932.53 102 L 932.53 97 L 922.29 97 L 922.29 102 L 912.19 102 L 912.19 97 L 901.95 97 L 901.95 102 L 891.85 102 L 891.85 97 L 881.61 97 L 881.61 102 L 871.51 102 L 871.51 97 L 861.27 97 L 861.27 102 L 851.17 102 L 851.17 97 L 840.93 97 L 840.93 102 L 830.83 102 L 830.83 97 L 820.59 97 L 820.59 102 L 810.49 102 L 810.49 97 L 800.2 97"
         id="path10223" />
      <path
         style="fill:none;stroke:#000000;stroke-width:1"
         d="M 800.2 97 L 800.2 89.95 L 805.2 89.95 L 805.2 80.05 L 800.2 80.05 L 800.2 67.95 L 805.2 67.95 L 805.2 58.05 L 800.2 58.05 L 800.2 45.95 L 805.2 45.95 L 805.2 36.05 L 800.2 36.05 L 800.2 23.95 L 805.2 23.95 L 805.2 14.05 L 800.2 14.05 L 800.2 7"
         id="path10225" />
    </g>
  </g>
</svg>
