<?xml version="1.0" encoding="UTF-8" standalone="no"?>
<svg
   xmlns:dc="http://purl.org/dc/elements/1.1/"
   xmlns:cc="http://creativecommons.org/ns#"
   xmlns:rdf="http://www.w3.org/1999/02/22-rdf-syntax-ns#"
   xmlns:svg="http://www.w3.org/2000/svg"
   xmlns="http://www.w3.org/2000/svg"
   xmlns:sodipodi="http://sodipodi.sourceforge.net/DTD/sodipodi-0.dtd"
   xmlns:inkscape="http://www.inkscape.org/namespaces/inkscape"
   sodipodi:docname="box1inside.svg"
   inkscape:version="1.0.1 (3bc2e813f5, 2020-09-07)"
   id="svg2827"
   version="1.1"
   viewBox="0 0 210 297"
   height="297mm"
   width="210mm">
  <defs
     id="defs2821" />
  <sodipodi:namedview
     id="base"
     pagecolor="#ffffff"
     bordercolor="#666666"
     borderopacity="1.0"
     inkscape:pageopacity="0.0"
     inkscape:pageshadow="2"
     inkscape:zoom="0.061871843"
     inkscape:cx="2773.8642"
     inkscape:cy="3540.9161"
     inkscape:document-units="mm"
     inkscape:current-layer="layer1"
     inkscape:document-rotation="0"
     showgrid="false"
     inkscape:window-width="1267"
     inkscape:window-height="1030"
     inkscape:window-x="120"
     inkscape:window-y="16"
     inkscape:window-maximized="0" />
  <metadata
     id="metadata2824">
    <rdf:RDF>
      <cc:Work
         rdf:about="">
        <dc:format>image/svg+xml</dc:format>
        <dc:type
           rdf:resource="http://purl.org/dc/dcmitype/StillImage" />
        <dc:title />
      </cc:Work>
    </rdf:RDF>
  </metadata>
  <g
     inkscape:label="Layer 1"
     inkscape:groupmode="layer"
     id="layer1">
    <g
       id="g4887"
       transform="rotate(180,530.5,147.79313)">
      <g
         id="panel4885">
        <path
           style="fill:none;stroke:#000000;stroke-width:1"
           d="m 469,6 h 9.883 V 1 h 10.9 v 5 h 9.434 V 1 h 10.9 v 5 h 9.433 V 1 h 10.9 v 5 h 9.433 V 1 h 10.9 v 5 h 9.434 V 1 h 10.9 v 5 h 9.433 V 1 h 10.9 v 5 h 9.433 V 1 h 10.9 v 5 h 9.434 V 1 h 10.9 v 5 h 9.433 V 1 h 10.9 v 5 h 9.433 V 1 h 10.9 v 5 h 9.434 V 1 h 10.9 v 5 h 9.433 V 1 h 10.9 v 5 h 9.433 V 1 h 10.9 v 5 h 9.434 V 1 h 10.9 V 6 H 764"
           id="path4667" />
        <path
           style="fill:none;stroke:#000000;stroke-width:1"
           d="m 764,6 v 9.2 h -5 v 9.1 h 5 v 14.65 h -5 v 9.1 h 5 V 62.7 h -5 v 9.1 h 5 V 81"
           id="path4669" />
        <path
           style="fill:none;stroke:#000000;stroke-width:1"
           d="m 764,81 h -9.883 v 0 h -10.9 v 0 h -9.434 v 0 h -10.9 v 0 h -9.433 v 0 h -10.9 v 0 h -9.433 v 0 h -10.9 v 0 h -9.434 v 0 h -10.9 v 0 h -9.433 v 0 h -10.9 v 0 h -9.433 v 0 h -10.9 v 0 h -9.434 v 0 h -10.9 v 0 h -9.433 v 0 h -10.9 v 0 h -9.433 v 0 h -10.9 v 0 h -9.434 v 0 h -10.9 v 0 h -9.433 v 0 h -10.9 v 0 h -9.433 v 0 h -10.9 v 0 h -9.434 v 0 h -10.9 v 0 H 469"
           id="path4671" />
        <path
           style="fill:none;stroke:#000000;stroke-width:1"
           d="m 469,81 v -9.2 h 5 v -9.1 h -5 V 48.05 h 5 v -9.1 h -5 V 24.3 h 5 v -9.1 h -5 V 6"
           id="path4673" />
      </g>
      <g
         id="panel5532">
        <path
           style="fill:none;stroke:#000000;stroke-width:1"
           d="m 302,6 h 8.3 V 1 h 10.9 v 5 h 12.85 V 1 h 10.9 V 6 H 357.8 V 1 h 10.9 v 5 h 8.3"
           id="path4676" />
        <path
           style="fill:none;stroke:#000000;stroke-width:1"
           d="m 377,6 v 6.425 h 5 v 10.9 h -5 V 34.3 h 5 v 10.9 h -5 v 10.975 h 5 v 10.9 h -5 V 78.05 h 5 v 10.9 h -5 v 10.975 h 5 v 10.9 h -5 V 121.8 h 5 v 10.9 h -5 v 10.975 h 5 v 10.9 h -5 V 161"
           id="path4678" />
        <path
           style="fill:none;stroke:#000000;stroke-width:1"
           d="m 377,161 h -8.3 v 5 h -10.9 v -5 h -12.85 v 5 h -10.9 v -5 H 321.2 v 5 h -10.9 v -5 H 302"
           id="path4680" />
        <path
           style="fill:none;stroke:#000000;stroke-width:1"
           d="m 302,161 v -6.425 0 -10.9 0 -10.975 0 -10.9 0 -10.975 0 -10.9 0 -10.975 0 -10.9 0 -10.975 0 -10.9 0 -10.975 0 -10.9 0 -10.975 0 -10.9 0 V 6"
           id="path4682" />
      </g>
      <g
         id="panel5909">
        <path
           style="fill:none;stroke:#000000;stroke-width:1"
           d="m 1,1 h 10.7833 v 5 h 9.1 V 1 h 11.2334 v 5 h 9.1 V 1 H 52.45 v 5 h 9.1 V 1 h 11.2333 v 5 h 9.1 V 1 h 11.2334 v 5 h 9.1003 V 1 h 11.233 v 5 h 9.1 V 1 h 11.233 v 5 h 9.1 V 1 h 11.234 v 5 h 9.1 V 1 h 11.233 v 5 h 9.1 V 1 h 11.233 v 5 h 9.1 V 1 h 11.234 v 5 h 9.1 V 1 h 11.233 v 5 h 9.1 V 1 h 11.233 v 5 h 9.1 V 1 h 11.234 v 5 h 9.1 V 1 H 296"
           id="path4685" />
        <path
           style="fill:none;stroke:#000000;stroke-width:1"
           d="m 296,1 v 12.325 h -5 v 9.1 h 5 V 35.2 h -5 v 9.1 h 5 v 12.775 h -5 v 9.1 h 5 V 78.95 h -5 v 9.1 h 5 v 12.775 h -5 v 9.1 h 5 V 122.7 h -5 v 9.1 h 5 v 12.775 h -5 v 9.1 h 5 V 166"
           id="path4687" />
        <path
           style="fill:none;stroke:#000000;stroke-width:1"
           d="m 296,166 h -10.783 v -5 h -9.1 v 5 h -11.234 v -5 h -9.1 v 5 H 244.55 v -5 h -9.1 v 5 h -11.233 v -5 h -9.1 v 5 h -11.234 v -5 h -9.1 v 5 H 183.55 v -5 h -9.1 v 5 h -11.233 v -5 h -9.1 v 5 h -11.234 v -5 h -9.1 v 5 H 122.55 v -5 h -9.1 v 5 h -11.233 v -5 h -9.1003 v 5 H 81.8833 v -5 h -9.1 v 5 H 61.55 v -5 h -9.1 v 5 H 41.2167 v -5 h -9.1 v 5 H 20.8833 v -5 h -9.1 v 5 H 1"
           id="path4689" />
        <path
           style="fill:none;stroke:#000000;stroke-width:1"
           d="m 1,166 v -12.325 h 5 v -9.1 H 1 V 131.8 h 5 v -9.1 H 1 v -12.775 h 5 v -9.1 H 1 V 88.05 h 5 v -9.1 H 1 V 66.175 h 5 v -9.1 H 1 V 44.3 H 6 V 35.2 H 1 V 22.425 h 5 v -9.1 H 1 V 1"
           id="path4691" />
      </g>
      <g
         id="panel1152">
        <path
           style="fill:none;stroke:#000000;stroke-width:1"
           d="m 388,6 h 8.3 V 1 h 10.9 v 5 h 12.85 V 1 h 10.9 V 6 H 443.8 V 1 h 10.9 v 5 h 8.3"
           id="path4694" />
        <path
           style="fill:none;stroke:#000000;stroke-width:1"
           d="m 463,6 v 6.425 0 10.9 0 10.975 0 10.9 0 10.975 0 10.9 0 10.975 0 10.9 0 10.975 0 10.9 0 10.975 0 10.9 0 10.975 0 10.9 0 6.425"
           id="path4696" />
        <path
           style="fill:none;stroke:#000000;stroke-width:1"
           d="m 463,161 h -8.3 v 5 h -10.9 v -5 h -12.85 v 5 h -10.9 v -5 H 407.2 v 5 h -10.9 v -5 H 388"
           id="path4698" />
        <path
           style="fill:none;stroke:#000000;stroke-width:1"
           d="m 388,161 v -6.425 h -5 v -10.9 h 5 V 132.7 h -5 v -10.9 h 5 v -10.975 h -5 v -10.9 h 5 V 88.95 h -5 v -10.9 h 5 V 67.075 h -5 v -10.9 h 5 V 45.2 h -5 V 34.3 h 5 V 23.325 h -5 v -10.9 h 5 V 6"
           id="path4700" />
      </g>
      <g
         id="panel4480">
        <path
           style="fill:none;stroke:#000000;stroke-width:1"
           d="m 765,6 h 9.883 v 0 h 10.9 v 0 h 9.434 v 0 h 10.9 v 0 h 9.433 v 0 h 10.9 v 0 h 9.433 v 0 h 10.9 v 0 h 9.434 v 0 h 10.9 v 0 h 9.433 v 0 h 10.9 v 0 h 9.433 v 0 h 10.9 v 0 h 9.434 v 0 h 10.9 v 0 h 9.433 v 0 h 10.9 v 0 h 9.433 v 0 h 10.9 v 0 h 9.434 v 0 h 10.9 v 0 h 9.433 v 0 h 10.9 v 0 h 9.43 v 0 h 10.9 v 0 h 9.44 v 0 h 10.9 v 0 h 9.88"
           id="path4703" />
        <path
           style="fill:none;stroke:#000000;stroke-width:1"
           d="m 1060,6 v 9.2 h -5 v 9.1 h 5 v 14.65 h -5 v 9.1 h 5 V 62.7 h -5 v 9.1 h 5 V 81"
           id="path4705" />
        <path
           style="fill:none;stroke:#000000;stroke-width:1"
           d="m 1060,81 h -9.88 v 5 h -10.9 v -5 h -9.44 v 5 h -10.9 v -5 h -9.43 v 5 h -10.9 v -5 h -9.433 v 5 h -10.9 v -5 h -9.434 v 5 h -10.9 v -5 h -9.433 v 5 h -10.9 v -5 h -9.433 v 5 h -10.9 v -5 h -9.434 v 5 h -10.9 v -5 h -9.433 v 5 h -10.9 v -5 h -9.433 v 5 h -10.9 v -5 h -9.434 v 5 h -10.9 v -5 h -9.433 v 5 h -10.9 v -5 h -9.433 v 5 h -10.9 v -5 h -9.434 v 5 h -10.9 V 81 H 765"
           id="path4707" />
        <path
           style="fill:none;stroke:#000000;stroke-width:1"
           d="m 765,81 v -9.2 h 5 v -9.1 h -5 V 48.05 h 5 v -9.1 h -5 V 24.3 h 5 v -9.1 h -5 V 6"
           id="path4709" />
      </g>
    </g>
    <g
       id="g5015"
       transform="translate(6.3500001,40.216686)">
      <g
         id="panel4122">
        <path
           style="fill:none;stroke:#000000;stroke-width:1"
           d="m 439,6 h 10.621 V 1 h 10.9 v 5 h 10.172 V 1 h 10.9 v 5 h 10.171 V 1 h 10.9 v 5 h 10.172 V 1 h 10.9 v 5 h 10.171 V 1 h 10.9 v 5 h 10.172 V 1 h 10.9 V 6 H 576.05 V 1 h 10.9 v 5 h 10.171 V 1 h 10.9 v 5 h 10.172 V 1 h 10.9 v 5 h 10.171 V 1 h 10.9 v 5 h 10.172 V 1 h 10.9 v 5 h 10.171 V 1 h 10.9 v 5 h 10.172 V 1 h 10.9 V 6 H 724"
           id="path4918" />
        <path
           style="fill:none;stroke:#000000;stroke-width:1"
           d="m 724,6 v 6.7 h -5 v 9.1 h 5 v 12.15 h -5 v 9.1 h 5 V 55.2 h -5 v 9.1 h 5 V 76"
           id="path4920" />
        <path
           style="fill:none;stroke:#000000;stroke-width:1"
           d="m 724,76 h -11.521 v 0 h -9.1 v 0 h -11.972 v 0 h -9.1 v 0 h -11.971 v 0 h -9.1 v 0 h -11.972 v 0 h -9.1 v 0 h -11.971 v 0 h -9.1 v 0 h -11.972 v 0 h -9.1 v 0 H 586.05 v 0 h -9.1 v 0 h -11.971 v 0 h -9.1 v 0 h -11.972 v 0 h -9.1 v 0 h -11.971 v 0 h -9.1 v 0 h -11.972 v 0 h -9.1 v 0 h -11.971 v 0 h -9.1 v 0 h -11.972 v 0 h -9.1 v 0 H 439"
           id="path4922" />
        <path
           style="fill:none;stroke:#000000;stroke-width:1"
           d="M 439,76 V 64.3 h 5 v -9.1 h -5 V 43.05 h 5 v -9.1 h -5 V 21.8 h 5 v -9.1 h -5 V 6"
           id="path4924" />
      </g>
      <g
         id="panel6505">
        <path
           style="fill:none;stroke:#000000;stroke-width:1"
           d="m 287,6 h 10.8 V 1 h 10.9 v 5 h 10.35 V 1 h 10.9 V 6 H 340.3 V 1 h 10.9 v 5 h 5.8"
           id="path4927" />
        <path
           style="fill:none;stroke:#000000;stroke-width:1"
           d="m 357,6 v 5.175 h 5 v 10.9 h -5 V 31.8 h 5 v 10.9 h -5 v 9.725 h 5 v 10.9 h -5 v 9.725 h 5 v 10.9 h -5 v 9.725 h 5 v 10.9 h -5 v 9.725 h 5 v 10.9 h -5 v 9.725 h 5 v 10.9 h -5 V 151"
           id="path4929" />
        <path
           style="fill:none;stroke:#000000;stroke-width:1"
           d="m 357,151 h -5.8 v 5 h -10.9 v -5 h -10.35 v 5 h -10.9 v -5 H 308.7 v 5 h -10.9 v -5 H 287"
           id="path4931" />
        <path
           style="fill:none;stroke:#000000;stroke-width:1"
           d="m 287,151 v -6.075 0 -9.1 0 -11.525 0 -9.1 0 -11.525 0 -9.1 0 -11.525 0 -9.1 0 -11.525 0 -9.1 0 -11.525 0 -9.1 0 -11.525 0 -9.1 0 V 6"
           id="path4933" />
      </g>
      <g
         id="panel9917">
        <path
           style="fill:none;stroke:#000000;stroke-width:1"
           d="m 1,1 h 11.5214 v 5 h 9.1 V 1 h 11.9715 v 5 h 9.1 V 1 h 11.9714 v 5 h 9.1 V 1 h 11.9714 v 5 h 9.1 V 1 h 11.9714 v 5 h 9.0999 V 1 h 11.972 v 5 h 9.1 V 1 h 11.971 v 5 h 9.1 V 1 h 11.971 v 5 h 9.1 V 1 h 11.972 v 5 h 9.1 V 1 h 11.971 v 5 h 9.1 V 1 h 11.972 v 5 h 9.1 V 1 h 11.971 v 5 h 9.1 V 1 h 11.972 v 5 h 9.1 V 1 H 286"
           id="path4936" />
        <path
           style="fill:none;stroke:#000000;stroke-width:1"
           d="m 286,1 v 11.075 h -5 v 9.1 h 5 V 32.7 h -5 v 9.1 h 5 v 11.525 h -5 v 9.1 h 5 V 73.95 h -5 v 9.1 h 5 v 11.525 h -5 v 9.1 h 5 V 115.2 h -5 v 9.1 h 5 v 11.525 h -5 v 9.1 h 5 V 156"
           id="path4938" />
        <path
           style="fill:none;stroke:#000000;stroke-width:1"
           d="m 286,156 h -11.521 v -5 h -9.1 v 5 h -11.972 v -5 h -9.1 v 5 h -11.971 v -5 h -9.1 v 5 h -11.972 v -5 h -9.1 v 5 h -11.971 v -5 h -9.1 v 5 h -11.972 v -5 h -9.1 v 5 H 148.05 v -5 h -9.1 v 5 h -11.971 v -5 h -9.1 v 5 h -11.972 v -5 h -9.0999 v 5 H 84.8357 v -5 h -9.1 v 5 H 63.7643 v -5 h -9.1 v 5 H 42.6929 v -5 h -9.1 v 5 H 21.6214 v -5 h -9.1 v 5 H 1"
           id="path4940" />
        <path
           style="fill:none;stroke:#000000;stroke-width:1"
           d="m 1,156 v -11.075 h 5 v -9.1 H 1 V 124.3 h 5 v -9.1 H 1 v -11.525 h 5 v -9.1 H 1 V 83.05 h 5 v -9.1 H 1 V 62.425 h 5 v -9.1 H 1 V 41.8 H 6 V 32.7 H 1 V 21.175 h 5 v -9.1 H 1 V 1"
           id="path4942" />
      </g>
      <g
         id="panel3219">
        <path
           style="fill:none;stroke:#000000;stroke-width:1"
           d="m 368,6 h 5.8 V 1 h 10.9 v 5 h 10.35 V 1 h 10.9 V 6 H 416.3 V 1 h 10.9 V 6 H 438"
           id="path4945" />
        <path
           style="fill:none;stroke:#000000;stroke-width:1"
           d="m 438,6 v 6.075 0 9.1 0 11.525 0 9.1 0 11.525 0 9.1 0 11.525 0 9.1 0 11.525 0 9.1 0 11.525 0 9.1 0 11.525 0 9.1 0 6.075"
           id="path4947" />
        <path
           style="fill:none;stroke:#000000;stroke-width:1"
           d="m 438,151 h -10.8 v 5 h -10.9 v -5 h -10.35 v 5 h -10.9 v -5 H 384.7 v 5 h -10.9 v -5 H 368"
           id="path4949" />
        <path
           style="fill:none;stroke:#000000;stroke-width:1"
           d="m 368,151 v -5.175 h -5 v -10.9 h 5 V 125.2 h -5 v -10.9 h 5 v -9.725 h -5 v -10.9 h 5 V 83.95 h -5 v -10.9 h 5 v -9.725 h -5 v -10.9 h 5 V 42.7 h -5 V 31.8 h 5 v -9.725 h -5 v -10.9 h 5 V 6"
           id="path4951" />
      </g>
      <g
         id="panel7541">
        <path
           style="fill:none;stroke:#000000;stroke-width:1"
           d="m 725,1 h 11.521 v 0 h 9.1 v 0 h 11.972 v 0 h 9.1 v 0 h 11.971 v 0 h 9.1 v 0 h 11.972 v 0 h 9.1 v 0 h 11.971 v 0 h 9.1 v 0 h 11.972 v 0 h 9.1 v 0 h 11.971 v 0 h 9.1 v 0 h 11.971 v 0 h 9.1 v 0 h 11.972 v 0 h 9.1 v 0 h 11.971 v 0 h 9.1 v 0 h 11.972 v 0 h 9.1 v 0 h 11.971 v 0 h 9.1 v 0 h 11.972 v 0 h 9.1 V 1 H 1010"
           id="path4954" />
        <path
           style="fill:none;stroke:#000000;stroke-width:1"
           d="m 1010,1 v 11.7 h -5 v 9.1 h 5 v 12.15 h -5 v 9.1 h 5 V 55.2 h -5 v 9.1 h 5 V 71"
           id="path4956" />
        <path
           style="fill:none;stroke:#000000;stroke-width:1"
           d="m 1010,71 h -10.621 v 5 h -10.9 v -5 h -10.172 v 5 h -10.9 v -5 h -10.171 v 5 h -10.9 v -5 h -10.172 v 5 h -10.9 v -5 h -10.171 v 5 h -10.9 v -5 h -10.172 v 5 h -10.9 V 71 H 872.95 v 5 h -10.9 v -5 h -10.171 v 5 h -10.9 v -5 h -10.172 v 5 h -10.9 v -5 h -10.171 v 5 h -10.9 v -5 h -10.172 v 5 h -10.9 v -5 h -10.171 v 5 h -10.9 v -5 h -10.172 v 5 h -10.9 V 71 H 725"
           id="path4958" />
        <path
           style="fill:none;stroke:#000000;stroke-width:1"
           d="m 725,71 v -6.7 h 5 v -9.1 h -5 V 43.05 h 5 v -9.1 h -5 V 21.8 h 5 v -9.1 h -5 V 1"
           id="path4960" />
      </g>
    </g>
    <path
       id="rect5017"
       style="fill:none;stroke:#ff0027;stroke-width:0.300816;stroke-miterlimit:4;stroke-dasharray:none;stroke-opacity:1"
       d="M -49.159477,-40.60685 H 1450.5397 V 459.09231 H -49.159477 Z" />
  </g>
</svg>
